<svg width="41" height="41" viewBox="0 0 41 41" fill="none" xmlns="http://www.w3.org/2000/svg">
<rect x="0.0136719" width="40.9766" height="41" fill="#716556"/>
<rect width="12.7934" height="13.1365" transform="matrix(0.706908 -0.707306 0.706908 0.707306 7.89355 11.9561)" fill="#D9D1C6"/>
<path d="M7.74083 34.035L0.0133348 40.9999V27.8454L7.74083 34.035Z" fill="#5E5549"/>
<path d="M25.9191 34.0391H7.7719L17.1772 21.2482L25.9191 34.0391Z" fill="#5E5549"/>
<path d="M7.89317 12.0778L0.0862687 21.2958L0.0862033 3.98906L7.89317 12.0778Z" fill="#5E5549"/>
<path d="M41 40.9882L25.9259 34.0491L35.7403 21.9117L41 40.9882Z" fill="#5E5549"/>
<path d="M35.7418 5.672L35.7419 21.7785L26.204 12.2666L35.7418 5.672Z" fill="#5E5549"/>
<path d="M4.39153 0.0427246L2.41452e-05 3.96606L0 0.0427246L4.39153 0.0427246Z" fill="#5E5549"/>
<path d="M7.73655 34.0387H25.9388L40.9903 41H0.0136719L7.73655 34.0387Z" fill="#4D4945"/>
<path d="M35.7806 21.7663V5.60689L40.9904 0L40.9903 41L35.7806 21.7663Z" fill="#4D4945"/>
</svg>
