<svg width="281" height="64" viewBox="0 0 281 64" fill="none" xmlns="http://www.w3.org/2000/svg">
<path d="M280.799 14.041H271.607V18.459H269.627V14.041H260.131V12.416H280.799V14.041ZM278.488 22.5469H262.771V16.377H264.752V20.8711H278.488V22.5469ZM264.879 4.08789H276.051V1.19336H278.031V10.207H262.898V1.19336H264.879V4.08789ZM276.051 8.58203V5.61133H264.879V8.58203H276.051Z" fill="#1A1A1A"/>
<path d="M251.498 21.2266C250.144 21.2266 248.984 20.8584 248.02 20.1221C247.063 19.3857 246.331 18.3109 245.823 16.8975C245.324 15.484 245.074 13.7786 245.074 11.7812C245.074 9.80924 245.328 8.11654 245.836 6.70312C246.344 5.28125 247.08 4.19792 248.045 3.45312C249.01 2.70833 250.161 2.33594 251.498 2.33594C252.835 2.33594 253.986 2.70833 254.951 3.45312C255.916 4.19792 256.652 5.28125 257.16 6.70312C257.668 8.11654 257.922 9.80924 257.922 11.7812C257.922 13.7786 257.668 15.484 257.16 16.8975C256.661 18.3109 255.929 19.3857 254.964 20.1221C253.999 20.8584 252.844 21.2266 251.498 21.2266ZM251.498 19.1953C252.378 19.1953 253.132 18.9076 253.758 18.332C254.384 17.7565 254.862 16.9144 255.192 15.8057C255.522 14.6969 255.688 13.3555 255.688 11.7812C255.688 10.207 255.522 8.86133 255.192 7.74414C254.862 6.62695 254.384 5.77637 253.758 5.19238C253.132 4.6084 252.378 4.31641 251.498 4.31641C250.618 4.31641 249.86 4.6084 249.226 5.19238C248.599 5.77637 248.117 6.62695 247.778 7.74414C247.448 8.86133 247.283 10.207 247.283 11.7812C247.283 13.3555 247.448 14.6969 247.778 15.8057C248.108 16.9144 248.587 17.7565 249.213 18.332C249.848 18.9076 250.609 19.1953 251.498 19.1953Z" fill="#1A1A1A"/>
<path d="M230.195 19.2969L236.467 12.6953C237.296 11.8236 237.927 11.1211 238.358 10.5879C238.799 10.0462 239.129 9.52572 239.349 9.02637C239.577 8.51855 239.691 7.98958 239.691 7.43945C239.691 6.83008 239.531 6.28841 239.209 5.81445C238.887 5.34049 238.447 4.97233 237.889 4.70996C237.339 4.44759 236.721 4.31641 236.035 4.31641C235.316 4.31641 234.685 4.46029 234.144 4.74805C233.602 5.03581 233.183 5.44206 232.887 5.9668C232.599 6.49154 232.455 7.09245 232.455 7.76953H230.297C230.288 6.70312 230.534 5.75944 231.033 4.93848C231.541 4.11751 232.239 3.47852 233.128 3.02148C234.017 2.56445 235.011 2.33594 236.111 2.33594C237.203 2.33594 238.181 2.56022 239.044 3.00879C239.916 3.45736 240.597 4.07096 241.088 4.84961C241.579 5.62826 241.824 6.49154 241.824 7.43945C241.824 8.14193 241.697 8.81478 241.443 9.45801C241.189 10.0928 240.762 10.7995 240.161 11.5781C239.569 12.3483 238.718 13.3047 237.609 14.4473L233.395 18.7891V18.9414H242.154V20.9727H230.221L230.195 19.2969Z" fill="#1A1A1A"/>
<path d="M215.494 11.502C215.9 11.028 216.353 10.6683 216.853 10.4229C217.352 10.1774 217.881 10.0547 218.439 10.0547C218.863 10.0547 219.277 10.1182 219.684 10.2451C220.09 10.3636 220.615 10.5456 221.258 10.791C221.842 11.0365 222.337 11.2227 222.743 11.3496C223.158 11.4681 223.568 11.5273 223.975 11.5273C224.542 11.5273 225.071 11.3919 225.562 11.1211C226.052 10.8503 226.488 10.4525 226.869 9.92773V12.0352C226.031 13 225.049 13.4824 223.924 13.4824C223.501 13.4824 223.086 13.4232 222.68 13.3047C222.273 13.1777 221.749 12.9915 221.105 12.7461C220.521 12.5007 220.022 12.3187 219.607 12.2002C219.201 12.0732 218.786 12.0098 218.363 12.0098C217.805 12.0098 217.28 12.1452 216.789 12.416C216.307 12.6868 215.875 13.0846 215.494 13.6094V11.502Z" fill="#1A1A1A"/>
<path d="M205.287 21.2266C203.933 21.2266 202.773 20.8584 201.809 20.1221C200.852 19.3857 200.12 18.3109 199.612 16.8975C199.113 15.484 198.863 13.7786 198.863 11.7812C198.863 9.80924 199.117 8.11654 199.625 6.70312C200.133 5.28125 200.869 4.19792 201.834 3.45312C202.799 2.70833 203.95 2.33594 205.287 2.33594C206.624 2.33594 207.775 2.70833 208.74 3.45312C209.705 4.19792 210.441 5.28125 210.949 6.70312C211.457 8.11654 211.711 9.80924 211.711 11.7812C211.711 13.7786 211.457 15.484 210.949 16.8975C210.45 18.3109 209.718 19.3857 208.753 20.1221C207.788 20.8584 206.633 21.2266 205.287 21.2266ZM205.287 19.1953C206.167 19.1953 206.921 18.9076 207.547 18.332C208.173 17.7565 208.651 16.9144 208.981 15.8057C209.312 14.6969 209.477 13.3555 209.477 11.7812C209.477 10.207 209.312 8.86133 208.981 7.74414C208.651 6.62695 208.173 5.77637 207.547 5.19238C206.921 4.6084 206.167 4.31641 205.287 4.31641C204.407 4.31641 203.649 4.6084 203.015 5.19238C202.388 5.77637 201.906 6.62695 201.567 7.74414C201.237 8.86133 201.072 10.207 201.072 11.7812C201.072 13.3555 201.237 14.6969 201.567 15.8057C201.897 16.9144 202.376 17.7565 203.002 18.332C203.637 18.9076 204.398 19.1953 205.287 19.1953Z" fill="#1A1A1A"/>
<path d="M194.369 20.9727H192.059V4.97656H191.957L187.488 7.94727V5.63672L192.059 2.58984H194.369V20.9727Z" fill="#1A1A1A"/>
<path d="M179.059 5.58594H175.707V8.75977H179.059V10.4609H175.707V13.8887H173.727V0.457031H175.707V3.96094H179.059V5.58594ZM175.707 23.0293H173.727V16.5801H160.93V14.9297H175.707V23.0293ZM164.408 1.82812C165.534 1.81966 166.545 2.03971 167.443 2.48828C168.348 2.93685 169.055 3.56738 169.563 4.37988C170.079 5.19238 170.341 6.11068 170.35 7.13477C170.341 8.17578 170.079 9.10254 169.563 9.91504C169.055 10.7275 168.352 11.3623 167.455 11.8193C166.558 12.2679 165.543 12.4922 164.408 12.4922C163.274 12.4922 162.254 12.2679 161.349 11.8193C160.452 11.3623 159.749 10.7275 159.241 9.91504C158.734 9.10254 158.484 8.17578 158.492 7.13477C158.484 6.11068 158.734 5.19661 159.241 4.39258C159.749 3.58008 160.452 2.94954 161.349 2.50098C162.254 2.04395 163.274 1.81966 164.408 1.82812ZM164.408 3.5293C163.655 3.5293 162.974 3.68164 162.364 3.98633C161.764 4.29102 161.29 4.71842 160.943 5.26855C160.604 5.81022 160.439 6.43229 160.447 7.13477C160.439 7.8457 160.604 8.48047 160.943 9.03906C161.29 9.58919 161.764 10.0166 162.364 10.3213C162.974 10.626 163.655 10.7741 164.408 10.7656C165.17 10.7741 165.851 10.626 166.452 10.3213C167.062 10.0166 167.536 9.58919 167.874 9.03906C168.221 8.48047 168.395 7.8457 168.395 7.13477C168.395 6.43229 168.221 5.81022 167.874 5.26855C167.536 4.71842 167.062 4.29102 166.452 3.98633C165.851 3.68164 165.17 3.5293 164.408 3.5293Z" fill="#1A1A1A"/>
<path d="M128.023 23.5625H126.145V0H128.023V23.5625Z" fill="#1A1A1A"/>
<path d="M87.0176 6.67773H90.1406V9.34375H87.0176V16.7578H83.7422V0.203125H87.0176V6.67773ZM80.7207 1.92969C80.7207 3.99479 80.2975 5.85677 79.4512 7.51562C78.6133 9.16602 77.3861 10.5794 75.7695 11.7559C74.153 12.9323 72.1895 13.8464 69.8789 14.498L68.5332 11.9336C71.0807 11.2227 73.0866 10.2282 74.5508 8.9502C76.0234 7.6722 76.891 6.21224 77.1533 4.57031H69.5488V1.92969H80.7207ZM87.8047 22.9023H71.9863V15.0566H75.2617V20.3125H87.8047V22.9023Z" fill="#1A1A1A"/>
<path d="M55.2031 5.43359C55.2031 6.88086 55.4232 8.28158 55.8633 9.63574C56.3034 10.9814 56.9593 12.179 57.8311 13.2285C58.7113 14.2695 59.7819 15.0566 61.043 15.5898L59.1387 18.1797C57.8522 17.5957 56.7435 16.762 55.8125 15.6787C54.89 14.5869 54.1579 13.3047 53.6162 11.832C53.0745 13.4401 52.3213 14.8366 51.3564 16.0215C50.4001 17.2064 49.2363 18.112 47.8652 18.7383L45.9102 16.0469C47.2135 15.4967 48.3138 14.68 49.2109 13.5967C50.1081 12.5049 50.7809 11.2565 51.2295 9.85156C51.6865 8.44661 51.9193 6.97396 51.9277 5.43359V1.98047H55.2031V5.43359ZM65.5625 23.3594H62.2871V0.203125H65.5625V23.3594Z" fill="#1A1A1A"/>
<path d="M43.2188 14.168H39.9941V9.62305H36.998V6.98242H39.9941V0.203125H43.2188V14.168ZM43.2188 23.0547H27.6797V15.1582H43.2188V23.0547ZM30.9297 20.4648H40.0449V17.6973H30.9297V20.4648ZM37.4043 4.79883H23.7949V2.20898H29.0254V0H32.2246V2.20898H37.4043V4.79883ZM30.625 5.56055C31.6914 5.56055 32.6436 5.73828 33.4814 6.09375C34.3278 6.44922 34.9837 6.9401 35.4492 7.56641C35.9232 8.19271 36.1602 8.90365 36.1602 9.69922C36.1602 10.5286 35.9232 11.2607 35.4492 11.8955C34.9837 12.5218 34.332 13.0127 33.4941 13.3682C32.6562 13.7152 31.6999 13.8887 30.625 13.8887C29.5586 13.8887 28.6022 13.7152 27.7559 13.3682C26.9095 13.0127 26.2493 12.5176 25.7754 11.8828C25.3014 11.248 25.0645 10.5202 25.0645 9.69922C25.0645 8.90365 25.3014 8.19271 25.7754 7.56641C26.2578 6.9401 26.9222 6.44922 27.7686 6.09375C28.6149 5.73828 29.5671 5.56055 30.625 5.56055ZM30.625 7.99805C29.8633 7.99805 29.2624 8.14616 28.8223 8.44238C28.3906 8.73861 28.179 9.15755 28.1875 9.69922C28.179 10.2747 28.3906 10.7191 28.8223 11.0322C29.2624 11.3454 29.8633 11.502 30.625 11.502C31.3783 11.502 31.9707 11.3454 32.4023 11.0322C32.8424 10.7191 33.0625 10.2747 33.0625 9.69922C33.0625 9.15755 32.8424 8.73861 32.4023 8.44238C31.9622 8.14616 31.3698 7.99805 30.625 7.99805Z" fill="#1A1A1A"/>
<path d="M8.48438 7.23633C8.48438 9.1237 8.85254 10.8503 9.58887 12.416C10.3337 13.9818 11.4805 15.1836 13.0293 16.0215L11.252 18.3828C10.2448 17.8665 9.38574 17.1641 8.6748 16.2754C7.96387 15.3867 7.40104 14.3584 6.98633 13.1904C6.56315 14.4684 5.99609 15.5983 5.28516 16.5801C4.57422 17.5618 3.71094 18.349 2.69531 18.9414L0.841797 16.5039C2.40755 15.5983 3.55859 14.3161 4.29492 12.6572C5.03971 10.9984 5.42057 9.19141 5.4375 7.23633V6.70312H1.70508V4.11328H5.4375V0.990234H8.45898V4.11328H12.1152V6.70312H8.48438V7.23633ZM21.2559 23.3086H18.1836V0.203125H21.2559V23.3086ZM16.5332 22.2422H13.4863V11.6035H10.7695V8.96289H13.4863V0.583984H16.5332V22.2422Z" fill="#1A1A1A"/>
<path d="M199.824 60.2363H179.156V58.5605H184.971V54.2695H181.746V47.3125H195.254V43.7832H181.695V42.1328H197.209V48.9629H183.727V52.6191H197.742V54.2695H194.213V58.5605H199.824V60.2363ZM192.258 58.5605V54.2695H186.926V58.5605H192.258Z" fill="#1A1A1A"/>
<path d="M177.328 55.2344H167.908V63.0293H165.953V55.2344H156.66V53.584H177.328V55.2344ZM174.637 50.5117H159.326V41.7266H174.637V50.5117ZM161.281 48.9375H172.656V43.3516H161.281V48.9375Z" fill="#1A1A1A"/>
<path d="M126.648 63.5625H124.77V40H126.648V63.5625Z" fill="#1A1A1A"/>
<path d="M94.9102 53.7363H73.8359V51.1465H78.584V48.3789C77.7292 47.998 77.0732 47.5241 76.6162 46.957C76.1676 46.39 75.9434 45.7383 75.9434 45.002C75.9434 44.0794 76.2861 43.2839 76.9717 42.6152C77.6572 41.9382 78.6348 41.4219 79.9043 41.0664C81.1738 40.7109 82.6634 40.5332 84.373 40.5332C86.0658 40.5332 87.5426 40.7109 88.8037 41.0664C90.0648 41.4219 91.0381 41.9382 91.7236 42.6152C92.4176 43.2839 92.7689 44.0794 92.7773 45.002C92.7689 45.7383 92.5319 46.3984 92.0664 46.9824C91.6009 47.5579 90.9323 48.0319 90.0605 48.4043V51.1465H94.9102V53.7363ZM84.3477 54.9551C86.015 54.9551 87.4495 55.1159 88.6514 55.4375C89.8532 55.7591 90.7757 56.2288 91.4189 56.8467C92.0622 57.4645 92.388 58.2135 92.3965 59.0938C92.388 59.9909 92.0622 60.7526 91.4189 61.3789C90.7757 62.0052 89.8532 62.4792 88.6514 62.8008C87.4495 63.1224 86.015 63.2832 84.3477 63.2832C82.6549 63.2832 81.2035 63.1224 79.9932 62.8008C78.7829 62.4792 77.8561 62.0052 77.2129 61.3789C76.5697 60.7526 76.248 59.9909 76.248 59.0938C76.248 58.2135 76.5697 57.4645 77.2129 56.8467C77.8561 56.2288 78.7829 55.7591 79.9932 55.4375C81.2035 55.1159 82.6549 54.9551 84.3477 54.9551ZM84.3477 57.3926C81.123 57.3926 79.5234 57.9596 79.5488 59.0938C79.5234 60.2786 81.123 60.8711 84.3477 60.8711C87.5215 60.8711 89.1211 60.2786 89.1465 59.0938C89.1211 57.9596 87.5215 57.3926 84.3477 57.3926ZM84.373 43.0215C82.7311 43.0215 81.4743 43.1908 80.6025 43.5293C79.7393 43.8678 79.3118 44.3587 79.3203 45.002C79.3118 45.6283 79.7393 46.1022 80.6025 46.4238C81.4658 46.7454 82.7227 46.9062 84.373 46.9062C86.0065 46.9062 87.2549 46.7454 88.1182 46.4238C88.9899 46.1022 89.4258 45.6283 89.4258 45.002C89.4258 44.3587 88.9899 43.8678 88.1182 43.5293C87.2464 43.1908 85.998 43.0215 84.373 43.0215ZM86.8359 51.1465V49.2168C86.1081 49.3014 85.2871 49.3438 84.373 49.3438C83.4082 49.3438 82.5703 49.2972 81.8594 49.2041V51.1465H86.8359Z" fill="#1A1A1A"/>
<path d="M70.7129 63.3594H67.4375V40.2031H70.7129V63.3594ZM55.7578 47.668H60.7344V42.0312H63.9336V57.9512H52.5078V42.0312H55.7578V47.668ZM60.7344 55.3359V50.1816H55.7578V55.3359H60.7344Z" fill="#1A1A1A"/>
<path d="M42.377 54.168H39.1523V49.623H36.1562V46.9824H39.1523V40.2031H42.377V54.168ZM42.377 63.0547H26.8379V55.1582H42.377V63.0547ZM30.0879 60.4648H39.2031V57.6973H30.0879V60.4648ZM36.5625 44.7988H22.9531V42.209H28.1836V40H31.3828V42.209H36.5625V44.7988ZM29.7832 45.5605C30.8496 45.5605 31.8018 45.7383 32.6396 46.0938C33.486 46.4492 34.1419 46.9401 34.6074 47.5664C35.0814 48.1927 35.3184 48.9036 35.3184 49.6992C35.3184 50.5286 35.0814 51.2607 34.6074 51.8955C34.1419 52.5218 33.4902 53.0127 32.6523 53.3682C31.8145 53.7152 30.8581 53.8887 29.7832 53.8887C28.7168 53.8887 27.7604 53.7152 26.9141 53.3682C26.0677 53.0127 25.4076 52.5176 24.9336 51.8828C24.4596 51.248 24.2227 50.5202 24.2227 49.6992C24.2227 48.9036 24.4596 48.1927 24.9336 47.5664C25.416 46.9401 26.0804 46.4492 26.9268 46.0938C27.7731 45.7383 28.7253 45.5605 29.7832 45.5605ZM29.7832 47.998C29.0215 47.998 28.4206 48.1462 27.9805 48.4424C27.5488 48.7386 27.3372 49.1576 27.3457 49.6992C27.3372 50.2747 27.5488 50.7191 27.9805 51.0322C28.4206 51.3454 29.0215 51.502 29.7832 51.502C30.5365 51.502 31.1289 51.3454 31.5605 51.0322C32.0007 50.7191 32.2207 50.2747 32.2207 49.6992C32.2207 49.1576 32.0007 48.7386 31.5605 48.4424C31.1204 48.1462 30.528 47.998 29.7832 47.998Z" fill="#1A1A1A"/>
<path d="M7.64258 47.2363C7.64258 49.1237 8.01074 50.8503 8.74707 52.416C9.49186 53.9818 10.6387 55.1836 12.1875 56.0215L10.4102 58.3828C9.40299 57.8665 8.54395 57.1641 7.83301 56.2754C7.12207 55.3867 6.55924 54.3584 6.14453 53.1904C5.72135 54.4684 5.1543 55.5983 4.44336 56.5801C3.73242 57.5618 2.86914 58.349 1.85352 58.9414L0 56.5039C1.56576 55.5983 2.7168 54.3161 3.45312 52.6572C4.19792 50.9984 4.57878 49.1914 4.5957 47.2363V46.7031H0.863281V44.1133H4.5957V40.9902H7.61719V44.1133H11.2734V46.7031H7.64258V47.2363ZM20.4141 63.3086H17.3418V40.2031H20.4141V63.3086ZM15.6914 62.2422H12.6445V51.6035H9.92773V48.9629H12.6445V40.584H15.6914V62.2422Z" fill="#1A1A1A"/>
</svg>
