<svg width="674" height="69" viewBox="0 0 674 69" fill="none" xmlns="http://www.w3.org/2000/svg">
<path d="M670.039 52.1582H673.467V53.834H670.039V61.7812H668.059V45.4297H670.039V52.1582ZM663.514 49.0605H655.439V56.0938C657.852 56.0938 659.781 56.0472 661.229 55.9541C662.684 55.8525 664.132 55.6536 665.57 55.3574L665.824 57.0078C664.284 57.304 662.743 57.5072 661.203 57.6172C659.663 57.7188 657.665 57.7695 655.211 57.7695H653.459V47.3848H663.514V49.0605ZM671.08 67.5195H655.922V60.1309H657.877V65.8438H671.08V67.5195Z" fill="#1A1A1A"/>
<path d="M644.115 49.0352H630.785V47.5117H636.447V45.3027H638.428V47.5117H644.115V49.0352ZM637.463 49.8984C638.529 49.8984 639.469 50.0381 640.281 50.3174C641.102 50.5882 641.737 50.9775 642.186 51.4854C642.634 51.9932 642.863 52.5898 642.871 53.2754C642.863 53.8848 642.676 54.4222 642.312 54.8877C641.949 55.3532 641.432 55.7298 640.764 56.0176C640.095 56.3053 639.316 56.4873 638.428 56.5635V58.0615C640.806 57.943 642.88 57.7611 644.648 57.5156L644.801 58.9375C642.6 59.3014 640.307 59.5426 637.92 59.6611C635.542 59.7712 633.011 59.8262 630.328 59.8262L630.023 58.2266C632.52 58.2266 634.661 58.1969 636.447 58.1377V56.5635C635.085 56.445 634.014 56.098 633.235 55.5225C632.457 54.9385 632.072 54.1895 632.08 53.2754C632.072 52.5898 632.287 51.9932 632.728 51.4854C633.168 50.9775 633.794 50.5882 634.606 50.3174C635.427 50.0381 636.38 49.8984 637.463 49.8984ZM637.463 51.3203C636.769 51.3118 636.155 51.388 635.622 51.5488C635.097 51.7012 634.687 51.9297 634.391 52.2344C634.103 52.5306 633.959 52.8776 633.959 53.2754C633.959 53.6647 634.103 54.0033 634.391 54.291C634.687 54.5788 635.097 54.8031 635.622 54.9639C636.155 55.1162 636.769 55.1882 637.463 55.1797C638.148 55.1882 638.754 55.1162 639.278 54.9639C639.812 54.8031 640.222 54.5788 640.51 54.291C640.798 54.0033 640.941 53.6647 640.941 53.2754C640.941 52.8776 640.798 52.5306 640.51 52.2344C640.222 51.9297 639.812 51.7012 639.278 51.5488C638.754 51.388 638.148 51.3118 637.463 51.3203ZM648.533 60.5371H646.527V45.5059H648.533V60.5371ZM648.533 68.002H646.527V63.2031H633.299V61.6035H648.533V68.002Z" fill="#1A1A1A"/>
<path d="M626.113 68.002H624.107V45.4297H626.113V68.002ZM619.436 47.8926C619.419 51.3034 618.555 54.3672 616.846 57.084C615.136 59.7923 612.462 62.0182 608.822 63.7617L607.73 62.1367C610.743 60.7064 613.05 58.929 614.649 56.8047C616.257 54.6803 617.176 52.2513 617.404 49.5176H608.771V47.8926H619.436Z" fill="#1A1A1A"/>
<path d="M593.004 51.498C592.995 52.8353 593.266 54.1641 593.816 55.4844C594.367 56.7962 595.111 57.9642 596.051 58.9883C596.99 60.0124 598.014 60.7741 599.123 61.2734L597.904 62.8477C596.618 62.2129 595.45 61.2692 594.4 60.0166C593.359 58.7555 592.572 57.3252 592.039 55.7256C591.514 57.4268 590.727 58.9502 589.678 60.2959C588.628 61.6331 587.443 62.6361 586.123 63.3047L584.854 61.6289C585.962 61.1126 586.986 60.3298 587.926 59.2803C588.865 58.2223 589.614 57.012 590.173 55.6494C590.731 54.2783 591.015 52.8945 591.023 51.498V47.3848H593.004V51.498ZM603.592 68.0527H601.586V45.4297H603.592V68.0527Z" fill="#1A1A1A"/>
<path d="M581.223 62.0098H579.217V53.3516H574.57V51.7012H579.217V45.4551H581.223V62.0098ZM581.857 67.5195H566.725V60.5117H568.73V65.8438H581.857V67.5195ZM570.355 50.1016C570.355 51.0664 570.588 52.0101 571.054 52.9326C571.528 53.8467 572.184 54.6592 573.021 55.3701C573.868 56.0811 574.833 56.6185 575.916 56.9824L574.875 58.582C573.614 58.125 572.505 57.4479 571.549 56.5508C570.601 55.6452 569.882 54.6042 569.391 53.4277C568.9 54.7311 568.155 55.8822 567.156 56.8809C566.158 57.8711 564.99 58.6159 563.652 59.1152L562.611 57.4902C563.712 57.1009 564.698 56.5339 565.569 55.7891C566.441 55.0358 567.122 54.1683 567.613 53.1865C568.104 52.1963 568.35 51.168 568.35 50.1016V48.9336H563.246V47.2832H575.408V48.9336H570.355V50.1016Z" fill="#1A1A1A"/>
<path d="M546.768 49.9238C546.768 50.7533 546.954 51.57 547.326 52.374C547.707 53.1781 548.249 53.9017 548.951 54.5449C549.654 55.1882 550.475 55.6875 551.414 56.043L550.373 57.5664C549.307 57.1517 548.384 56.5635 547.605 55.8018C546.835 55.04 546.243 54.1641 545.828 53.1738C545.396 54.291 544.779 55.2939 543.975 56.1826C543.171 57.0628 542.231 57.7357 541.156 58.2012L540.064 56.6523C541.029 56.2292 541.871 55.6536 542.591 54.9258C543.319 54.1895 543.877 53.3854 544.267 52.5137C544.664 51.6335 544.863 50.7702 544.863 49.9238V46.8516H546.768V49.9238ZM559.209 59.3945H557.305V53.1738H554.309V58.6836H552.43V45.8867H554.309V51.5234H557.305V45.4551H559.209V59.3945ZM551.744 59.9023C553.301 59.9023 554.647 60.0632 555.781 60.3848C556.924 60.6979 557.8 61.1592 558.409 61.7686C559.027 62.3695 559.336 63.0931 559.336 63.9395C559.336 64.7773 559.027 65.4967 558.409 66.0977C557.8 66.6986 556.924 67.1556 555.781 67.4688C554.647 67.7904 553.301 67.9512 551.744 67.9512C550.187 67.9512 548.837 67.7904 547.694 67.4688C546.552 67.1556 545.676 66.6986 545.066 66.0977C544.465 65.4967 544.169 64.7773 544.178 63.9395C544.169 63.0931 544.465 62.3695 545.066 61.7686C545.676 61.1592 546.548 60.6979 547.682 60.3848C548.824 60.0632 550.178 59.9023 551.744 59.9023ZM551.744 61.4258C550.602 61.4258 549.607 61.5273 548.761 61.7305C547.914 61.9251 547.267 62.2129 546.818 62.5938C546.37 62.9746 546.15 63.4232 546.158 63.9395C546.15 64.4473 546.37 64.8874 546.818 65.2598C547.267 65.6322 547.91 65.9157 548.748 66.1104C549.594 66.305 550.593 66.4023 551.744 66.4023C552.887 66.4023 553.877 66.305 554.715 66.1104C555.553 65.9157 556.2 65.6322 556.657 65.2598C557.114 64.8874 557.347 64.4473 557.355 63.9395C557.347 63.4232 557.114 62.9746 556.657 62.5938C556.2 62.2129 555.549 61.9251 554.702 61.7305C553.864 61.5273 552.878 61.4258 551.744 61.4258Z" fill="#1A1A1A"/>
<path d="M531.076 49.4922H517.619V47.8672H523.357V45.3281H525.338V47.8672H531.076V49.4922ZM524.348 50.6602C525.423 50.6686 526.366 50.8421 527.179 51.1807C528 51.5107 528.634 51.9847 529.083 52.6025C529.54 53.2119 529.773 53.9271 529.781 54.748C529.773 55.5605 529.54 56.2757 529.083 56.8936C528.634 57.5029 528 57.9769 527.179 58.3154C526.366 58.6455 525.423 58.8105 524.348 58.8105C523.273 58.8105 522.321 58.6455 521.491 58.3154C520.67 57.9769 520.031 57.5029 519.574 56.8936C519.126 56.2757 518.906 55.5605 518.914 54.748C518.906 53.9271 519.126 53.2119 519.574 52.6025C520.031 51.9847 520.67 51.5107 521.491 51.1807C522.321 50.8421 523.273 50.6686 524.348 50.6602ZM524.348 52.209C523.645 52.2174 523.023 52.3275 522.481 52.5391C521.948 52.7507 521.534 53.0469 521.237 53.4277C520.95 53.8086 520.81 54.2487 520.818 54.748C520.81 55.2389 520.95 55.6706 521.237 56.043C521.534 56.4154 521.948 56.7031 522.481 56.9062C523.023 57.1094 523.645 57.2109 524.348 57.2109C525.042 57.2109 525.655 57.1094 526.188 56.9062C526.73 56.7031 527.149 56.4154 527.445 56.043C527.742 55.6706 527.894 55.2389 527.902 54.748C527.894 54.2487 527.742 53.8086 527.445 53.4277C527.149 53.0469 526.73 52.7507 526.188 52.5391C525.655 52.3275 525.042 52.2174 524.348 52.209ZM535.215 51.7012H538.617V53.377H535.215V59.5469H533.234V45.4297H535.215V51.7012ZM535.215 68.002H533.234V62.416H520.438V60.791H535.215V68.002Z" fill="#1A1A1A"/>
<path d="M501.09 49.1113V49.4668C501.073 50.8125 501.022 52.154 500.938 53.4912C500.853 54.82 500.684 56.3477 500.43 58.0742L498.424 57.8965C498.695 56.2207 498.872 54.7227 498.957 53.4023C499.042 52.0736 499.084 50.7956 499.084 49.5684H489.613V47.9434H501.09V49.1113ZM495.174 61.248C497.958 61.1465 500.43 60.9688 502.588 60.7148L502.689 62.2129C500.717 62.526 498.64 62.7419 496.456 62.8604C494.272 62.9704 492.008 63.0254 489.664 63.0254H488.598L488.344 61.375C490.502 61.3581 492.127 61.3369 493.219 61.3115V54.3926H495.174V61.248ZM505.99 54.875H509.646V56.6016H505.99V68.002H504.01V45.4297H505.99V54.875Z" fill="#1A1A1A"/>
<path d="M479.609 49.4922H466.152V47.8672H471.891V45.3281H473.871V47.8672H479.609V49.4922ZM472.881 50.6602C473.956 50.6686 474.899 50.8421 475.712 51.1807C476.533 51.5107 477.168 51.9847 477.616 52.6025C478.073 53.2119 478.306 53.9271 478.314 54.748C478.306 55.5605 478.073 56.2757 477.616 56.8936C477.168 57.5029 476.533 57.9769 475.712 58.3154C474.899 58.6455 473.956 58.8105 472.881 58.8105C471.806 58.8105 470.854 58.6455 470.024 58.3154C469.203 57.9769 468.564 57.5029 468.107 56.8936C467.659 56.2757 467.439 55.5605 467.447 54.748C467.439 53.9271 467.659 53.2119 468.107 52.6025C468.564 51.9847 469.203 51.5107 470.024 51.1807C470.854 50.8421 471.806 50.6686 472.881 50.6602ZM472.881 52.209C472.178 52.2174 471.556 52.3275 471.015 52.5391C470.481 52.7507 470.067 53.0469 469.771 53.4277C469.483 53.8086 469.343 54.2487 469.352 54.748C469.343 55.2389 469.483 55.6706 469.771 56.043C470.067 56.4154 470.481 56.7031 471.015 56.9062C471.556 57.1094 472.178 57.2109 472.881 57.2109C473.575 57.2109 474.188 57.1094 474.722 56.9062C475.263 56.7031 475.682 56.4154 475.979 56.043C476.275 55.6706 476.427 55.2389 476.436 54.748C476.427 54.2487 476.275 53.8086 475.979 53.4277C475.682 53.0469 475.263 52.7507 474.722 52.5391C474.188 52.3275 473.575 52.2174 472.881 52.209ZM483.748 51.7012H487.15V53.377H483.748V59.5469H481.768V45.4297H483.748V51.7012ZM483.748 68.002H481.768V62.416H468.971V60.791H483.748V68.002Z" fill="#1A1A1A"/>
<path d="M462.268 61.959H460.287V45.4551H462.268V61.959ZM462.979 67.5195H447.693V60.2832H449.674V65.8438H462.979V67.5195ZM450.08 47.0293C451.197 47.0293 452.204 47.2663 453.102 47.7402C454.007 48.2057 454.714 48.8617 455.222 49.708C455.738 50.5459 455.996 51.498 455.996 52.5645C455.996 53.6478 455.738 54.6126 455.222 55.459C454.714 56.2969 454.007 56.9528 453.102 57.4268C452.204 57.8923 451.197 58.125 450.08 58.125C448.963 58.125 447.951 57.8923 447.046 57.4268C446.149 56.9528 445.442 56.2969 444.926 55.459C444.418 54.6126 444.164 53.6478 444.164 52.5645C444.164 51.498 444.418 50.5459 444.926 49.708C445.442 48.8617 446.149 48.2057 447.046 47.7402C447.951 47.2663 448.963 47.0293 450.08 47.0293ZM450.08 48.7812C449.327 48.7812 448.646 48.9421 448.036 49.2637C447.435 49.5853 446.961 50.0339 446.614 50.6094C446.276 51.1849 446.111 51.8366 446.119 52.5645C446.111 53.3008 446.276 53.9609 446.614 54.5449C446.961 55.1204 447.435 55.569 448.036 55.8906C448.646 56.2122 449.327 56.373 450.08 56.373C450.816 56.373 451.485 56.2122 452.086 55.8906C452.695 55.569 453.174 55.1204 453.521 54.5449C453.868 53.9609 454.041 53.3008 454.041 52.5645C454.041 51.8451 453.868 51.1976 453.521 50.6221C453.174 50.0465 452.695 49.598 452.086 49.2764C451.485 48.9463 450.816 48.7812 450.08 48.7812Z" fill="#1A1A1A"/>
<path d="M428.803 52.3613C428.794 53.5462 429.048 54.7523 429.564 55.9795C430.089 57.1982 430.8 58.3027 431.697 59.293C432.594 60.2747 433.585 61.0195 434.668 61.5273L433.525 63.1016C432.264 62.4922 431.126 61.5612 430.11 60.3086C429.103 59.056 428.341 57.6595 427.825 56.1191C427.487 57.2194 427.021 58.2646 426.429 59.2549C425.836 60.2451 425.159 61.1211 424.397 61.8828C423.636 62.6361 422.836 63.2285 421.998 63.6602L420.779 62.0859C421.854 61.5697 422.853 60.7868 423.775 59.7373C424.706 58.6878 425.447 57.5114 425.997 56.208C426.556 54.9046 426.839 53.6224 426.848 52.3613V49.416H421.592V47.7656H433.881V49.416H428.803V52.3613ZM438.629 54.5703H442.412V56.2715H438.629V68.002H436.648V45.4297H438.629V54.5703Z" fill="#1A1A1A"/>
<path d="M417.301 68.0527H415.295V45.4297H417.301V68.0527ZM410.902 49.2637H402.168V60.7148C404.487 60.7148 406.438 60.6641 408.021 60.5625C409.612 60.4609 411.215 60.2663 412.832 59.9785L413.035 61.6543C411.376 61.9505 409.739 62.1536 408.122 62.2637C406.506 62.3652 404.462 62.4245 401.99 62.4414H400.162V47.5879H410.902V49.2637Z" fill="#1A1A1A"/>
<path d="M396.887 65.1074H376.219V63.4316H396.887V65.1074ZM387.543 50.7109C387.543 51.9128 387.907 53.0257 388.635 54.0498C389.363 55.0654 390.336 55.9202 391.555 56.6143C392.782 57.2998 394.119 57.7695 395.566 58.0234L394.754 59.6484C392.9 59.276 391.233 58.6032 389.752 57.6299C388.279 56.6566 387.2 55.4548 386.515 54.0244C385.829 55.4548 384.746 56.6566 383.265 57.6299C381.792 58.6032 380.129 59.276 378.275 59.6484L377.488 58.0234C378.936 57.7695 380.269 57.2998 381.487 56.6143C382.715 55.9202 383.692 55.0654 384.42 54.0498C385.148 53.0257 385.512 51.9128 385.512 50.7109H378.148V49.0859H385.537V45.9883H387.492V49.0859H394.906V50.7109H387.543Z" fill="#1A1A1A"/>
<path d="M372.918 62.3652H371.014V45.4551H372.918V62.3652ZM368.525 61.7812H366.596V53.4785H363.549V51.8789H366.596V45.9121H368.525V61.7812ZM373.604 67.5195H358.191V60.4863H360.223V65.8438H373.604V67.5195ZM363.422 48.959H356.719V52.082H362.482V53.6562H356.719V56.957C358.488 56.9486 359.931 56.9062 361.048 56.8301C362.165 56.7454 363.295 56.5846 364.438 56.3477L364.641 57.9727C363.388 58.2266 362.157 58.3958 360.946 58.4805C359.744 58.5651 358.174 58.6074 356.236 58.6074H354.814V47.3086H363.422V48.959Z" fill="#1A1A1A"/>
<path d="M349.279 48.4258C349.279 49.8561 349.245 51.1214 349.178 52.2217C349.11 53.3135 348.941 54.5449 348.67 55.916L346.689 55.7383C346.935 54.5788 347.108 53.3896 347.21 52.1709L333.461 52.8184L333.182 51.1172L347.299 50.6602C347.316 50.1354 347.324 49.3906 347.324 48.4258V48.1719H333.74V46.5469H349.279V48.4258ZM351.844 59.0645H331.303V57.4395H339.682V54.1133H341.688V57.4395H351.844V59.0645ZM349.812 67.6465H333.918V60.9941H335.924V66.0215H349.812V67.6465Z" fill="#1A1A1A"/>
<path d="M320.207 48.4766H311.955V50.8887H319.598V52.4375H311.955V55.1289C314.173 55.1289 315.958 55.0908 317.312 55.0146C318.667 54.9385 320.038 54.7819 321.426 54.5449L321.604 56.1699C320.165 56.4069 318.756 56.5592 317.376 56.627C315.996 56.6947 314.079 56.7285 311.625 56.7285H309.975V46.8262H320.207V48.4766ZM327.494 57.6426H325.514V52.2598H321.172V50.6348H325.514V45.4297H327.494V57.6426ZM327.494 63.8887H314.9V66.1484H328.357V67.748H312.92V62.3652H325.514V60.2578H312.869V58.6582H327.494V63.8887Z" fill="#1A1A1A"/>
<path d="M294.41 52.3613C294.41 53.6055 294.685 54.8454 295.235 56.0811C295.785 57.3083 296.526 58.4043 297.457 59.3691C298.396 60.3255 299.421 61.0449 300.529 61.5273L299.412 63.1016C298.083 62.4922 296.886 61.5739 295.819 60.3467C294.753 59.111 293.957 57.7188 293.433 56.1699C292.908 57.8288 292.112 59.3311 291.046 60.6768C289.988 62.014 288.816 63.0085 287.529 63.6602L286.336 62.0859C287.402 61.5697 288.397 60.791 289.319 59.75C290.25 58.709 290.995 57.5368 291.554 56.2334C292.112 54.9215 292.396 53.6309 292.404 52.3613V49.416H287.072V47.7656H299.793V49.416H294.41V52.3613ZM304.947 68.002H302.941V45.4297H304.947V68.002Z" fill="#1A1A1A"/>
<path d="M282.477 68.0527H280.471V45.4297H282.477V68.0527ZM276.078 49.2637H267.344V60.7148C269.663 60.7148 271.614 60.6641 273.196 60.5625C274.787 60.4609 276.391 60.2663 278.008 59.9785L278.211 61.6543C276.552 61.9505 274.914 62.1536 273.298 62.2637C271.681 62.3652 269.637 62.4245 267.166 62.4414H265.338V47.5879H276.078V49.2637Z" fill="#1A1A1A"/>
<path d="M252.998 50.2285C252.998 51.515 252.985 52.611 252.96 53.5166C252.935 54.4222 252.863 55.4421 252.744 56.5762C252.626 57.7103 252.439 58.929 252.186 60.2324L250.23 60.0039C250.484 58.7682 250.671 57.596 250.789 56.4873C250.908 55.3701 250.979 54.363 251.005 53.4658C251.03 52.5687 251.043 51.4896 251.043 50.2285V49.3652H237.027V47.7148H252.998V50.2285ZM255.436 64.8027H234.869V63.1523H239.973V55.7129H241.953V63.1523H245.609V55.7129H247.564V63.1523H255.436V64.8027Z" fill="#1A1A1A"/>
<path d="M225.906 49.4922H212.449V47.8672H218.188V45.3281H220.168V47.8672H225.906V49.4922ZM219.178 50.6602C220.253 50.6686 221.196 50.8421 222.009 51.1807C222.83 51.5107 223.465 51.9847 223.913 52.6025C224.37 53.2119 224.603 53.9271 224.611 54.748C224.603 55.5605 224.37 56.2757 223.913 56.8936C223.465 57.5029 222.83 57.9769 222.009 58.3154C221.196 58.6455 220.253 58.8105 219.178 58.8105C218.103 58.8105 217.151 58.6455 216.321 58.3154C215.5 57.9769 214.861 57.5029 214.404 56.8936C213.956 56.2757 213.736 55.5605 213.744 54.748C213.736 53.9271 213.956 53.2119 214.404 52.6025C214.861 51.9847 215.5 51.5107 216.321 51.1807C217.151 50.8421 218.103 50.6686 219.178 50.6602ZM219.178 52.209C218.475 52.2174 217.853 52.3275 217.312 52.5391C216.778 52.7507 216.364 53.0469 216.067 53.4277C215.78 53.8086 215.64 54.2487 215.648 54.748C215.64 55.2389 215.78 55.6706 216.067 56.043C216.364 56.4154 216.778 56.7031 217.312 56.9062C217.853 57.1094 218.475 57.2109 219.178 57.2109C219.872 57.2109 220.485 57.1094 221.019 56.9062C221.56 56.7031 221.979 56.4154 222.275 56.043C222.572 55.6706 222.724 55.2389 222.732 54.748C222.724 54.2487 222.572 53.8086 222.275 53.4277C221.979 53.0469 221.56 52.7507 221.019 52.5391C220.485 52.3275 219.872 52.2174 219.178 52.209ZM230.045 51.7012H233.447V53.377H230.045V59.5469H228.064V45.4297H230.045V51.7012ZM230.045 68.002H228.064V62.416H215.268V60.791H230.045V68.002Z" fill="#1A1A1A"/>
<path d="M209.225 68.002H207.32V56.1699H203.994V66.834H202.166V45.9375H203.994V54.5195H207.32V45.4297H209.225V68.002ZM199.221 49.8477H192.746V60.7148C194.413 60.7064 195.827 60.6598 196.986 60.5752C198.154 60.4821 199.331 60.3171 200.516 60.0801L200.693 61.7559C199.407 62.0182 198.137 62.196 196.885 62.2891C195.641 62.3737 194.083 62.416 192.213 62.416H190.766V48.1973H199.221V49.8477Z" fill="#1A1A1A"/>
<path d="M175.531 52.3613C175.531 53.6055 175.806 54.8454 176.356 56.0811C176.907 57.3083 177.647 58.4043 178.578 59.3691C179.518 60.3255 180.542 61.0449 181.65 61.5273L180.533 63.1016C179.204 62.4922 178.007 61.5739 176.94 60.3467C175.874 59.111 175.078 57.7188 174.554 56.1699C174.029 57.8288 173.233 59.3311 172.167 60.6768C171.109 62.014 169.937 63.0085 168.65 63.6602L167.457 62.0859C168.523 61.5697 169.518 60.791 170.44 59.75C171.371 58.709 172.116 57.5368 172.675 56.2334C173.233 54.9215 173.517 53.6309 173.525 52.3613V49.416H168.193V47.7656H180.914V49.416H175.531V52.3613ZM186.068 68.002H184.062V45.4297H186.068V68.002Z" fill="#1A1A1A"/>
<path d="M163.699 58.8105H161.693V55.2559H156.412V57.1855H146.053V47.1562H156.412V49.1113H161.693V45.4297H163.699V58.8105ZM148.033 55.5605H154.457V48.7812H148.033V55.5605ZM156.209 59.4707C157.775 59.4707 159.125 59.64 160.259 59.9785C161.393 60.3086 162.26 60.7952 162.861 61.4385C163.471 62.0732 163.775 62.8392 163.775 63.7363C163.775 64.625 163.471 65.3825 162.861 66.0088C162.26 66.6436 161.393 67.126 160.259 67.4561C159.125 67.7861 157.775 67.9512 156.209 67.9512C154.643 67.9512 153.293 67.7861 152.159 67.4561C151.025 67.126 150.153 66.6436 149.544 66.0088C148.943 65.3825 148.643 64.625 148.643 63.7363C148.643 62.8392 148.943 62.0732 149.544 61.4385C150.153 60.7952 151.025 60.3086 152.159 59.9785C153.293 59.64 154.643 59.4707 156.209 59.4707ZM156.209 61.0195C155.058 61.028 154.059 61.1423 153.213 61.3623C152.375 61.5739 151.732 61.8828 151.283 62.2891C150.835 62.6953 150.615 63.1777 150.623 63.7363C150.615 64.2695 150.835 64.735 151.283 65.1328C151.74 65.5306 152.388 65.8353 153.226 66.0469C154.072 66.2669 155.066 66.377 156.209 66.377C157.352 66.377 158.342 66.2669 159.18 66.0469C160.018 65.8353 160.661 65.5348 161.109 65.1455C161.566 64.7477 161.795 64.278 161.795 63.7363C161.795 63.1777 161.571 62.6953 161.122 62.2891C160.674 61.8828 160.03 61.5739 159.192 61.3623C158.354 61.1423 157.36 61.028 156.209 61.0195ZM161.693 53.5801V50.7617H156.412V53.5801H161.693Z" fill="#1A1A1A"/>
<path d="M101.898 68.5352H100.02V44.9727H101.898V68.5352Z" fill="#1A1A1A"/>
<path d="M48.9844 48.2988C48.9844 49.4837 48.9548 50.5967 48.8955 51.6377C48.8363 52.6702 48.6882 53.8171 48.4512 55.0781L45.2773 54.7734C45.599 53.0046 45.7767 51.2441 45.8105 49.4922H37.1016V46.8516H48.9844V48.2988ZM43.2461 56.6143C45.8698 56.4958 48.1465 56.2969 50.0762 56.0176L50.2539 58.3535C48.1296 58.7428 45.9163 59.001 43.6143 59.1279C41.3122 59.2549 38.7773 59.3268 36.0098 59.3438L35.7305 56.7539C37.5671 56.7539 38.9974 56.7412 40.0215 56.7158V52.1836H43.2461V56.6143ZM54.6465 52.209H57.4395V54.9258H54.6465V62.4668H51.3203V45.1758H54.6465V52.209ZM55.3574 67.875H39.1328V60.918H42.3828V65.2852H55.3574V67.875Z" fill="#1A1A1A"/>
<path d="M34.6387 60.5117H25.6504V68.2812H22.4512V60.5117H13.5645V57.9219H34.6387V60.5117ZM32.7598 48.9336H26.0186C26.1286 49.7122 26.4925 50.457 27.1104 51.168C27.7282 51.8704 28.5915 52.4798 29.7002 52.9961C30.8089 53.5039 32.125 53.8509 33.6484 54.0371L32.4805 56.5762C30.4831 56.3053 28.765 55.7637 27.3262 54.9512C25.8958 54.1387 24.8252 53.1273 24.1143 51.917C23.3949 53.1273 22.3242 54.1387 20.9023 54.9512C19.4805 55.7637 17.7793 56.3053 15.7988 56.5762L14.6055 54.0371C16.1035 53.8509 17.4027 53.5039 18.5029 52.9961C19.6117 52.4798 20.4749 51.8704 21.0928 51.168C21.7191 50.457 22.0915 49.7122 22.21 48.9336H15.4688V46.3945H32.7598V48.9336Z" fill="#1A1A1A"/>
<path d="M667.139 23.7402H665.158L671.074 1.72656H673.08L667.139 23.7402Z" fill="#1A1A1A"/>
<path d="M657.947 21.252C656.635 21.252 655.493 20.96 654.52 20.376C653.546 19.792 652.797 18.9668 652.272 17.9004C651.756 16.834 651.498 15.5983 651.498 14.1934C651.498 12.7884 651.756 11.5443 652.272 10.4609C652.797 9.36914 653.529 8.52279 654.469 7.92188C655.417 7.3125 656.508 7.00781 657.744 7.00781C658.785 7.00781 659.754 7.24056 660.651 7.70605C661.549 8.16309 662.276 8.90788 662.835 9.94043C663.402 10.9645 663.686 12.2806 663.686 13.8887V14.8027H653.682C653.715 15.7591 653.914 16.5758 654.278 17.2529C654.642 17.93 655.137 18.4463 655.764 18.8018C656.398 19.1488 657.126 19.3223 657.947 19.3223C658.726 19.3223 659.382 19.1784 659.915 18.8906C660.457 18.5944 660.867 18.2135 661.146 17.748H663.482C663.262 18.4421 662.894 19.0557 662.378 19.5889C661.87 20.1136 661.235 20.5241 660.474 20.8203C659.72 21.1081 658.878 21.252 657.947 21.252ZM661.477 12.9492C661.477 12.179 661.32 11.4935 661.007 10.8926C660.702 10.2832 660.266 9.80501 659.699 9.45801C659.132 9.111 658.48 8.9375 657.744 8.9375C656.974 8.9375 656.288 9.11947 655.688 9.4834C655.095 9.84733 654.625 10.3382 654.278 10.9561C653.94 11.5654 653.745 12.2298 653.694 12.9492H661.477Z" fill="#1A1A1A"/>
<path d="M643.043 21.252C641.799 21.252 640.699 20.96 639.742 20.376C638.794 19.7835 638.058 18.9499 637.533 17.875C637.008 16.8001 636.746 15.556 636.746 14.1426C636.746 12.7292 637.008 11.485 637.533 10.4102C638.058 9.32682 638.794 8.48893 639.742 7.89648C640.699 7.30404 641.799 7.00781 643.043 7.00781C644.279 7.00781 645.366 7.30404 646.306 7.89648C647.254 8.48893 647.986 9.32682 648.502 10.4102C649.027 11.485 649.289 12.7292 649.289 14.1426C649.289 15.556 649.027 16.8001 648.502 17.875C647.986 18.9499 647.254 19.7835 646.306 20.376C645.366 20.96 644.279 21.252 643.043 21.252ZM643.043 19.3223C643.932 19.3223 644.681 19.0895 645.29 18.624C645.899 18.1501 646.352 17.5238 646.648 16.7451C646.953 15.958 647.105 15.0905 647.105 14.1426C647.105 13.1947 646.953 12.3271 646.648 11.54C646.352 10.7529 645.899 10.1224 645.29 9.64844C644.681 9.17448 643.932 8.9375 643.043 8.9375C642.137 8.9375 641.376 9.17448 640.758 9.64844C640.148 10.1224 639.691 10.7529 639.387 11.54C639.082 12.3271 638.93 13.1947 638.93 14.1426C638.93 15.0905 639.082 15.958 639.387 16.7451C639.691 17.5238 640.148 18.1501 640.758 18.624C641.376 19.0895 642.137 19.3223 643.043 19.3223Z" fill="#1A1A1A"/>
<path d="M633.928 7.18555V21.9629C633.928 23.2832 633.589 24.3115 632.912 25.0479C632.235 25.7842 631.236 26.1523 629.916 26.1523H629.459V24.1211H629.891C630.517 24.1211 630.982 23.9349 631.287 23.5625C631.592 23.1986 631.744 22.6654 631.744 21.9629V7.18555H633.928ZM632.811 4.90039C632.387 4.90039 632.028 4.76074 631.731 4.48145C631.435 4.20215 631.287 3.85938 631.287 3.45312C631.287 3.04688 631.435 2.7041 631.731 2.4248C632.028 2.14551 632.387 2.00586 632.811 2.00586C633.234 2.00586 633.598 2.14551 633.902 2.4248C634.207 2.7041 634.359 3.04688 634.359 3.45312C634.359 3.85938 634.207 4.20215 633.902 4.48145C633.598 4.76074 633.234 4.90039 632.811 4.90039Z" fill="#1A1A1A"/>
<path d="M617.17 17.0625C617.17 15.6322 617.657 14.625 618.63 14.041C619.612 13.457 620.852 13.11 622.35 13C622.925 12.9577 623.568 12.9196 624.279 12.8857C624.999 12.8434 625.6 12.8138 626.082 12.7969V11.6797C626.082 10.791 625.815 10.1097 625.282 9.63574C624.757 9.15332 623.983 8.91211 622.959 8.91211C622.121 8.91211 621.436 9.08561 620.902 9.43262C620.369 9.77116 620.022 10.2155 619.861 10.7656H617.576C617.669 10.0293 617.957 9.3776 618.439 8.81055C618.922 8.24349 619.561 7.80339 620.356 7.49023C621.16 7.16862 622.062 7.00781 623.061 7.00781C624.381 7.00781 625.574 7.34635 626.641 8.02344C627.707 8.69206 628.24 9.97852 628.24 11.8828V20.9727H626.082V19.0938H625.98C625.811 19.4492 625.549 19.7962 625.193 20.1348C624.846 20.4648 624.389 20.7441 623.822 20.9727C623.264 21.1927 622.612 21.3027 621.867 21.3027C620.987 21.3027 620.191 21.1335 619.48 20.7949C618.77 20.4564 618.207 19.9697 617.792 19.335C617.377 18.6917 617.17 17.9342 617.17 17.0625ZM619.354 17.1641C619.354 17.8665 619.616 18.4082 620.141 18.7891C620.674 19.1615 621.376 19.3477 622.248 19.3477C623.035 19.3477 623.716 19.1911 624.292 18.8779C624.876 18.5648 625.32 18.1501 625.625 17.6338C625.93 17.1175 626.082 16.5632 626.082 15.9707V14.5869L622.604 14.8281C621.571 14.8958 620.771 15.1201 620.204 15.501C619.637 15.8818 619.354 16.4362 619.354 17.1641Z" fill="#1A1A1A"/>
<path d="M605.541 20.9727H603.357V7.18555H605.465V9.34375H605.643C605.99 8.60742 606.493 8.03613 607.153 7.62988C607.822 7.21517 608.664 7.00781 609.68 7.00781C610.628 7.00781 611.449 7.20247 612.143 7.5918C612.837 7.97266 613.374 8.55241 613.755 9.33105C614.136 10.1097 614.326 11.0703 614.326 12.2129V20.9727H612.143V12.3652C612.143 11.2988 611.868 10.4652 611.317 9.86426C610.767 9.26335 610.001 8.96289 609.02 8.96289C608.342 8.96289 607.742 9.111 607.217 9.40723C606.692 9.69499 606.282 10.1224 605.985 10.6895C605.689 11.248 605.541 11.9167 605.541 12.6953V20.9727Z" fill="#1A1A1A"/>
<path d="M594.775 21.252C593.464 21.252 592.321 20.96 591.348 20.376C590.374 19.792 589.625 18.9668 589.101 17.9004C588.584 16.834 588.326 15.5983 588.326 14.1934C588.326 12.7884 588.584 11.5443 589.101 10.4609C589.625 9.36914 590.357 8.52279 591.297 7.92188C592.245 7.3125 593.337 7.00781 594.572 7.00781C595.613 7.00781 596.582 7.24056 597.479 7.70605C598.377 8.16309 599.104 8.90788 599.663 9.94043C600.23 10.9645 600.514 12.2806 600.514 13.8887V14.8027H590.51C590.544 15.7591 590.743 16.5758 591.106 17.2529C591.47 17.93 591.965 18.4463 592.592 18.8018C593.227 19.1488 593.954 19.3223 594.775 19.3223C595.554 19.3223 596.21 19.1784 596.743 18.8906C597.285 18.5944 597.695 18.2135 597.975 17.748H600.311C600.09 18.4421 599.722 19.0557 599.206 19.5889C598.698 20.1136 598.063 20.5241 597.302 20.8203C596.549 21.1081 595.706 21.252 594.775 21.252ZM598.305 12.9492C598.305 12.179 598.148 11.4935 597.835 10.8926C597.53 10.2832 597.094 9.80501 596.527 9.45801C595.96 9.111 595.309 8.9375 594.572 8.9375C593.802 8.9375 593.117 9.11947 592.516 9.4834C591.923 9.84733 591.453 10.3382 591.106 10.9561C590.768 11.5654 590.573 12.2298 590.522 12.9492H598.305Z" fill="#1A1A1A"/>
<path d="M577.129 26.1523C576.689 26.1523 576.283 26.1354 575.91 26.1016V24.1465C576.215 24.1803 576.57 24.1973 576.977 24.1973C577.34 24.1973 577.645 24.1592 577.891 24.083C578.136 24.0068 578.382 23.8164 578.627 23.5117C578.872 23.2155 579.109 22.75 579.338 22.1152L579.744 21.0742L574.641 7.18555H577.027L580.785 18.1289H580.938L584.695 7.18555H587.082L581.242 22.9531C580.836 24.028 580.294 24.8278 579.617 25.3525C578.94 25.8857 578.111 26.1523 577.129 26.1523Z" fill="#1A1A1A"/>
<path d="M576.215 22.9785H564.713V20.9727H576.215V22.9785Z" fill="#1A1A1A"/>
<path d="M562.352 20.9727H560.168V2.58984H562.352V20.9727Z" fill="#1A1A1A"/>
<path d="M545.594 17.0625C545.594 15.6322 546.08 14.625 547.054 14.041C548.035 13.457 549.275 13.11 550.773 13C551.349 12.9577 551.992 12.9196 552.703 12.8857C553.423 12.8434 554.023 12.8138 554.506 12.7969V11.6797C554.506 10.791 554.239 10.1097 553.706 9.63574C553.181 9.15332 552.407 8.91211 551.383 8.91211C550.545 8.91211 549.859 9.08561 549.326 9.43262C548.793 9.77116 548.446 10.2155 548.285 10.7656H546C546.093 10.0293 546.381 9.3776 546.863 8.81055C547.346 8.24349 547.985 7.80339 548.78 7.49023C549.584 7.16862 550.486 7.00781 551.484 7.00781C552.805 7.00781 553.998 7.34635 555.064 8.02344C556.131 8.69206 556.664 9.97852 556.664 11.8828V20.9727H554.506V19.0938H554.404C554.235 19.4492 553.973 19.7962 553.617 20.1348C553.27 20.4648 552.813 20.7441 552.246 20.9727C551.688 21.1927 551.036 21.3027 550.291 21.3027C549.411 21.3027 548.615 21.1335 547.904 20.7949C547.193 20.4564 546.631 19.9697 546.216 19.335C545.801 18.6917 545.594 17.9342 545.594 17.0625ZM547.777 17.1641C547.777 17.8665 548.04 18.4082 548.564 18.7891C549.098 19.1615 549.8 19.3477 550.672 19.3477C551.459 19.3477 552.14 19.1911 552.716 18.8779C553.3 18.5648 553.744 18.1501 554.049 17.6338C554.354 17.1175 554.506 16.5632 554.506 15.9707V14.5869L551.027 14.8281C549.995 14.8958 549.195 15.1201 548.628 15.501C548.061 15.8818 547.777 16.4362 547.777 17.1641Z" fill="#1A1A1A"/>
<path d="M533.965 20.9727H531.781V7.18555H533.889V9.34375H534.066C534.413 8.60742 534.917 8.03613 535.577 7.62988C536.246 7.21517 537.088 7.00781 538.104 7.00781C539.051 7.00781 539.872 7.20247 540.566 7.5918C541.26 7.97266 541.798 8.55241 542.179 9.33105C542.56 10.1097 542.75 11.0703 542.75 12.2129V20.9727H540.566V12.3652C540.566 11.2988 540.291 10.4652 539.741 9.86426C539.191 9.26335 538.425 8.96289 537.443 8.96289C536.766 8.96289 536.165 9.111 535.641 9.40723C535.116 9.69499 534.705 10.1224 534.409 10.6895C534.113 11.248 533.965 11.9167 533.965 12.6953V20.9727Z" fill="#1A1A1A"/>
<path d="M526.119 7.18555H528.303V20.9727H526.119V7.18555ZM527.211 4.90039C526.788 4.90039 526.428 4.76074 526.132 4.48145C525.836 4.20215 525.688 3.85938 525.688 3.45312C525.688 3.04688 525.836 2.7041 526.132 2.4248C526.428 2.14551 526.788 2.00586 527.211 2.00586C527.634 2.00586 527.998 2.14551 528.303 2.4248C528.607 2.7041 528.76 3.04688 528.76 3.45312C528.76 3.85938 528.607 4.20215 528.303 4.48145C527.998 4.76074 527.634 4.90039 527.211 4.90039Z" fill="#1A1A1A"/>
<path d="M523.529 9.01367H520.482V20.9727H518.273V9.01367H516.064V7.18555H518.273V5.30664C518.273 4.57031 518.43 3.93555 518.743 3.40234C519.065 2.86068 519.522 2.44596 520.114 2.1582C520.707 1.87044 521.405 1.72656 522.209 1.72656C522.683 1.72656 523.225 1.77734 523.834 1.87891V3.83398C523.428 3.76628 523.047 3.73242 522.691 3.73242C521.93 3.73242 521.371 3.89746 521.016 4.22754C520.66 4.55762 520.482 5.07812 520.482 5.78906V7.18555H523.529V9.01367Z" fill="#1A1A1A"/>
<path d="M507.812 21.2266C506.721 21.2266 505.726 21.0192 504.829 20.6045C503.94 20.1813 503.229 19.6016 502.696 18.8652C502.172 18.1204 501.888 17.2826 501.846 16.3516H504.055C504.114 16.8932 504.317 17.3841 504.664 17.8242C505.011 18.2559 505.46 18.5986 506.01 18.8525C506.56 19.098 507.161 19.2207 507.812 19.2207C508.591 19.2207 509.294 19.043 509.92 18.6875C510.546 18.332 511.037 17.8454 511.393 17.2275C511.748 16.6097 511.926 15.9199 511.926 15.1582C511.926 14.3711 511.74 13.6644 511.367 13.0381C511.003 12.4033 510.495 11.9082 509.844 11.5527C509.201 11.1888 508.473 11.0026 507.66 10.9941C506.027 10.9688 504.884 11.5189 504.232 12.6445H502.023L503.318 2.58984H513.271V4.62109H505.223L504.537 10.0039H504.715C505.13 9.68229 505.633 9.42415 506.226 9.22949C506.818 9.03483 507.432 8.9375 508.066 8.9375C509.217 8.9375 510.254 9.2041 511.177 9.7373C512.108 10.262 512.836 10.9941 513.36 11.9336C513.894 12.873 514.16 13.931 514.16 15.1074C514.16 16.2754 513.885 17.3249 513.335 18.2559C512.785 19.1868 512.027 19.9147 511.062 20.4395C510.098 20.9642 509.014 21.2266 507.812 21.2266Z" fill="#1A1A1A"/>
<path d="M486.535 19.2969L492.807 12.6953C493.636 11.8236 494.267 11.1211 494.698 10.5879C495.138 10.0462 495.468 9.52572 495.688 9.02637C495.917 8.51855 496.031 7.98958 496.031 7.43945C496.031 6.83008 495.87 6.28841 495.549 5.81445C495.227 5.34049 494.787 4.97233 494.229 4.70996C493.678 4.44759 493.061 4.31641 492.375 4.31641C491.656 4.31641 491.025 4.46029 490.483 4.74805C489.942 5.03581 489.523 5.44206 489.227 5.9668C488.939 6.49154 488.795 7.09245 488.795 7.76953H486.637C486.628 6.70312 486.874 5.75944 487.373 4.93848C487.881 4.11751 488.579 3.47852 489.468 3.02148C490.356 2.56445 491.351 2.33594 492.451 2.33594C493.543 2.33594 494.521 2.56022 495.384 3.00879C496.256 3.45736 496.937 4.07096 497.428 4.84961C497.919 5.62826 498.164 6.49154 498.164 7.43945C498.164 8.14193 498.037 8.81478 497.783 9.45801C497.529 10.0928 497.102 10.7995 496.501 11.5781C495.909 12.3483 495.058 13.3047 493.949 14.4473L489.734 18.7891V18.9414H498.494V20.9727H486.561L486.535 19.2969Z" fill="#1A1A1A"/>
<path d="M477.09 21.2266C475.736 21.2266 474.576 20.8584 473.611 20.1221C472.655 19.3857 471.923 18.3109 471.415 16.8975C470.916 15.484 470.666 13.7786 470.666 11.7812C470.666 9.80924 470.92 8.11654 471.428 6.70312C471.936 5.28125 472.672 4.19792 473.637 3.45312C474.602 2.70833 475.753 2.33594 477.09 2.33594C478.427 2.33594 479.578 2.70833 480.543 3.45312C481.508 4.19792 482.244 5.28125 482.752 6.70312C483.26 8.11654 483.514 9.80924 483.514 11.7812C483.514 13.7786 483.26 15.484 482.752 16.8975C482.253 18.3109 481.521 19.3857 480.556 20.1221C479.591 20.8584 478.436 21.2266 477.09 21.2266ZM477.09 19.1953C477.97 19.1953 478.723 18.9076 479.35 18.332C479.976 17.7565 480.454 16.9144 480.784 15.8057C481.114 14.6969 481.279 13.3555 481.279 11.7812C481.279 10.207 481.114 8.86133 480.784 7.74414C480.454 6.62695 479.976 5.77637 479.35 5.19238C478.723 4.6084 477.97 4.31641 477.09 4.31641C476.21 4.31641 475.452 4.6084 474.817 5.19238C474.191 5.77637 473.709 6.62695 473.37 7.74414C473.04 8.86133 472.875 10.207 472.875 11.7812C472.875 13.3555 473.04 14.6969 473.37 15.8057C473.7 16.9144 474.178 17.7565 474.805 18.332C475.439 18.9076 476.201 19.1953 477.09 19.1953Z" fill="#1A1A1A"/>
<path d="M455.787 19.2969L462.059 12.6953C462.888 11.8236 463.519 11.1211 463.95 10.5879C464.39 10.0462 464.72 9.52572 464.94 9.02637C465.169 8.51855 465.283 7.98958 465.283 7.43945C465.283 6.83008 465.122 6.28841 464.801 5.81445C464.479 5.34049 464.039 4.97233 463.48 4.70996C462.93 4.44759 462.312 4.31641 461.627 4.31641C460.908 4.31641 460.277 4.46029 459.735 4.74805C459.194 5.03581 458.775 5.44206 458.479 5.9668C458.191 6.49154 458.047 7.09245 458.047 7.76953H455.889C455.88 6.70312 456.126 5.75944 456.625 4.93848C457.133 4.11751 457.831 3.47852 458.72 3.02148C459.608 2.56445 460.603 2.33594 461.703 2.33594C462.795 2.33594 463.772 2.56022 464.636 3.00879C465.507 3.45736 466.189 4.07096 466.68 4.84961C467.171 5.62826 467.416 6.49154 467.416 7.43945C467.416 8.14193 467.289 8.81478 467.035 9.45801C466.781 10.0928 466.354 10.7995 465.753 11.5781C465.16 12.3483 464.31 13.3047 463.201 14.4473L458.986 18.7891V18.9414H467.746V20.9727H455.812L455.787 19.2969Z" fill="#1A1A1A"/>
<path d="M447.764 23.7402H445.783L451.699 1.72656H453.705L447.764 23.7402Z" fill="#1A1A1A"/>
<path d="M438.039 21.252C436.795 21.252 435.695 20.96 434.738 20.376C433.79 19.7835 433.054 18.9499 432.529 17.875C432.005 16.8001 431.742 15.556 431.742 14.1426C431.742 12.7292 432.005 11.485 432.529 10.4102C433.054 9.32682 433.79 8.48893 434.738 7.89648C435.695 7.30404 436.795 7.00781 438.039 7.00781C439.275 7.00781 440.362 7.30404 441.302 7.89648C442.25 8.48893 442.982 9.32682 443.498 10.4102C444.023 11.485 444.285 12.7292 444.285 14.1426C444.285 15.556 444.023 16.8001 443.498 17.875C442.982 18.9499 442.25 19.7835 441.302 20.376C440.362 20.96 439.275 21.252 438.039 21.252ZM438.039 19.3223C438.928 19.3223 439.677 19.0895 440.286 18.624C440.896 18.1501 441.348 17.5238 441.645 16.7451C441.949 15.958 442.102 15.0905 442.102 14.1426C442.102 13.1947 441.949 12.3271 441.645 11.54C441.348 10.7529 440.896 10.1224 440.286 9.64844C439.677 9.17448 438.928 8.9375 438.039 8.9375C437.133 8.9375 436.372 9.17448 435.754 9.64844C435.145 10.1224 434.688 10.7529 434.383 11.54C434.078 12.3271 433.926 13.1947 433.926 14.1426C433.926 15.0905 434.078 15.958 434.383 16.7451C434.688 17.5238 435.145 18.1501 435.754 18.624C436.372 19.0895 437.133 19.3223 438.039 19.3223Z" fill="#1A1A1A"/>
<path d="M426.74 7.18555H428.924V20.9727H426.74V7.18555ZM427.832 4.90039C427.409 4.90039 427.049 4.76074 426.753 4.48145C426.457 4.20215 426.309 3.85938 426.309 3.45312C426.309 3.04688 426.457 2.7041 426.753 2.4248C427.049 2.14551 427.409 2.00586 427.832 2.00586C428.255 2.00586 428.619 2.14551 428.924 2.4248C429.229 2.7041 429.381 3.04688 429.381 3.45312C429.381 3.85938 429.229 4.20215 428.924 4.48145C428.619 4.76074 428.255 4.90039 427.832 4.90039Z" fill="#1A1A1A"/>
<path d="M421.688 21.125C421.392 21.125 421.117 21.0531 420.863 20.9092C420.618 20.7568 420.419 20.5537 420.266 20.2998C420.122 20.0459 420.055 19.7708 420.063 19.4746C420.055 19.1868 420.122 18.9202 420.266 18.6748C420.419 18.4209 420.618 18.222 420.863 18.0781C421.117 17.9258 421.392 17.8496 421.688 17.8496C421.976 17.8496 422.243 17.9258 422.488 18.0781C422.742 18.222 422.941 18.4209 423.085 18.6748C423.237 18.9202 423.313 19.1868 423.313 19.4746C423.313 19.7708 423.237 20.0459 423.085 20.2998C422.941 20.5537 422.742 20.7568 422.488 20.9092C422.243 21.0531 421.976 21.125 421.688 21.125Z" fill="#1A1A1A"/>
<path d="M405.057 2.58984H407.24V9.36914H407.418C407.748 8.86979 408.023 8.4847 408.243 8.21387C408.472 7.93457 408.853 7.66374 409.386 7.40137C409.919 7.139 410.592 7.00781 411.404 7.00781C412.555 7.00781 413.575 7.2998 414.464 7.88379C415.353 8.45931 416.047 9.28451 416.546 10.3594C417.045 11.4342 417.295 12.6868 417.295 14.1172C417.295 15.5475 417.045 16.8044 416.546 17.8877C416.047 18.9626 415.353 19.792 414.464 20.376C413.584 20.96 412.572 21.252 411.43 21.252C410.626 21.252 409.957 21.1208 409.424 20.8584C408.891 20.5876 408.493 20.2998 408.23 19.9951C407.977 19.6904 407.706 19.3138 407.418 18.8652H407.164V20.9727H405.057V2.58984ZM407.189 14.0664C407.189 15.1074 407.342 16.0215 407.646 16.8086C407.951 17.5957 408.396 18.2093 408.979 18.6494C409.572 19.0811 410.279 19.2969 411.1 19.2969C411.946 19.2969 412.67 19.0726 413.271 18.624C413.871 18.167 414.324 17.5449 414.629 16.7578C414.934 15.9622 415.086 15.0651 415.086 14.0664C415.086 13.0931 414.934 12.2214 414.629 11.4512C414.333 10.681 413.884 10.0758 413.283 9.63574C412.691 9.18717 411.963 8.96289 411.1 8.96289C410.27 8.96289 409.559 9.17448 408.967 9.59766C408.383 10.0208 407.938 10.6175 407.634 11.3877C407.338 12.1494 407.189 13.0423 407.189 14.0664Z" fill="#1A1A1A"/>
<path d="M399.115 7.18555H401.273V20.9727H399.115V18.6367H398.963C398.607 19.39 398.083 19.9993 397.389 20.4648C396.703 20.9219 395.865 21.1504 394.875 21.1504C393.986 21.1504 393.208 20.96 392.539 20.5791C391.87 20.1898 391.346 19.6058 390.965 18.8271C390.592 18.0485 390.406 17.0879 390.406 15.9453V7.18555H392.59V15.793C392.59 16.4447 392.717 17.016 392.971 17.5068C393.225 17.9977 393.576 18.3786 394.024 18.6494C394.481 18.9118 395.002 19.043 395.586 19.043C396.136 19.043 396.682 18.9033 397.224 18.624C397.774 18.3447 398.227 17.9258 398.582 17.3672C398.938 16.8001 399.115 16.1146 399.115 15.3105V7.18555Z" fill="#1A1A1A"/>
<path d="M377.965 20.9727H375.781V2.58984H377.965V9.34375H378.143C378.837 7.78646 380.191 7.00781 382.205 7.00781C383.661 7.00781 384.808 7.44792 385.646 8.32812C386.483 9.19987 386.902 10.4948 386.902 12.2129V20.9727H384.719V12.3652C384.719 11.2904 384.435 10.4567 383.868 9.86426C383.31 9.26335 382.535 8.96289 381.545 8.96289C380.851 8.96289 380.233 9.111 379.691 9.40723C379.158 9.69499 378.735 10.1224 378.422 10.6895C378.117 11.248 377.965 11.9167 377.965 12.6953V20.9727Z" fill="#1A1A1A"/>
<path d="M372.658 9.01367H369.764V17.0117C369.764 17.8242 369.924 18.3701 370.246 18.6494C370.568 18.9287 371.008 19.0684 371.566 19.0684C371.99 19.0684 372.421 19.0514 372.861 19.0176V21.0488C372.421 21.1165 371.913 21.1504 371.338 21.1504C370.695 21.1504 370.085 21.0192 369.51 20.7568C368.934 20.486 368.465 20.0798 368.101 19.5381C367.737 18.9964 367.555 18.3405 367.555 17.5703V9.01367H365.473V7.18555H367.555V3.88477H369.764V7.18555H372.658V9.01367Z" fill="#1A1A1A"/>
<path d="M360.979 7.18555H363.162V20.9727H360.979V7.18555ZM362.07 4.90039C361.647 4.90039 361.287 4.76074 360.991 4.48145C360.695 4.20215 360.547 3.85938 360.547 3.45312C360.547 3.04688 360.695 2.7041 360.991 2.4248C361.287 2.14551 361.647 2.00586 362.07 2.00586C362.493 2.00586 362.857 2.14551 363.162 2.4248C363.467 2.7041 363.619 3.04688 363.619 3.45312C363.619 3.85938 363.467 4.20215 363.162 4.48145C362.857 4.76074 362.493 4.90039 362.07 4.90039Z" fill="#1A1A1A"/>
<path d="M351.508 26.4316C350.399 26.4316 349.417 26.2751 348.562 25.9619C347.716 25.6488 347.043 25.1917 346.544 24.5908C346.045 23.9899 345.753 23.2663 345.668 22.4199H347.953C348.105 23.1139 348.486 23.6387 349.096 23.9941C349.714 24.3496 350.518 24.5273 351.508 24.5273C352.727 24.5273 353.666 24.2565 354.326 23.7148C354.986 23.1732 355.316 22.3438 355.316 21.2266V18.4336H355.139C354.893 18.8483 354.635 19.2122 354.364 19.5254C354.093 19.8385 353.687 20.1263 353.146 20.3887C352.612 20.6426 351.939 20.7695 351.127 20.7695C350.001 20.7695 348.994 20.4945 348.105 19.9443C347.217 19.3942 346.519 18.6029 346.011 17.5703C345.511 16.5293 345.262 15.3021 345.262 13.8887C345.262 12.5007 345.511 11.2861 346.011 10.2451C346.51 9.2041 347.204 8.4043 348.093 7.8457C348.981 7.28711 350.001 7.00781 351.152 7.00781C351.956 7.00781 352.625 7.139 353.158 7.40137C353.7 7.66374 354.085 7.93457 354.313 8.21387C354.55 8.4847 354.842 8.86979 355.189 9.36914H355.367V7.18555H357.5V21.3535C357.5 22.4961 357.238 23.444 356.713 24.1973C356.197 24.959 355.49 25.5218 354.593 25.8857C353.696 26.2497 352.667 26.4316 351.508 26.4316ZM351.432 18.8145C352.684 18.8145 353.653 18.3913 354.339 17.5449C355.024 16.6901 355.367 15.4967 355.367 13.9648C355.367 12.9746 355.215 12.1029 354.91 11.3496C354.605 10.5964 354.157 10.0124 353.564 9.59766C352.98 9.17448 352.27 8.96289 351.432 8.96289C350.577 8.96289 349.853 9.18294 349.261 9.62305C348.668 10.0632 348.22 10.6641 347.915 11.4258C347.619 12.179 347.471 13.0254 347.471 13.9648C347.471 14.9297 347.619 15.776 347.915 16.5039C348.22 17.2318 348.668 17.7988 349.261 18.2051C349.853 18.6113 350.577 18.8145 351.432 18.8145Z" fill="#1A1A1A"/>
<path d="M340.87 21.125C340.574 21.125 340.299 21.0531 340.045 20.9092C339.799 20.7568 339.6 20.5537 339.448 20.2998C339.304 20.0459 339.236 19.7708 339.245 19.4746C339.236 19.1868 339.304 18.9202 339.448 18.6748C339.6 18.4209 339.799 18.222 340.045 18.0781C340.299 17.9258 340.574 17.8496 340.87 17.8496C341.158 17.8496 341.424 17.9258 341.67 18.0781C341.924 18.222 342.122 18.4209 342.266 18.6748C342.419 18.9202 342.495 19.1868 342.495 19.4746C342.495 19.7708 342.419 20.0459 342.266 20.2998C342.122 20.5537 341.924 20.7568 341.67 20.9092C341.424 21.0531 341.158 21.125 340.87 21.125Z" fill="#1A1A1A"/>
<path d="M330.738 21.252C329.426 21.252 328.284 20.96 327.311 20.376C326.337 19.792 325.588 18.9668 325.063 17.9004C324.547 16.834 324.289 15.5983 324.289 14.1934C324.289 12.7884 324.547 11.5443 325.063 10.4609C325.588 9.36914 326.32 8.52279 327.26 7.92188C328.208 7.3125 329.299 7.00781 330.535 7.00781C331.576 7.00781 332.545 7.24056 333.442 7.70605C334.34 8.16309 335.067 8.90788 335.626 9.94043C336.193 10.9645 336.477 12.2806 336.477 13.8887V14.8027H326.473C326.507 15.7591 326.705 16.5758 327.069 17.2529C327.433 17.93 327.928 18.4463 328.555 18.8018C329.189 19.1488 329.917 19.3223 330.738 19.3223C331.517 19.3223 332.173 19.1784 332.706 18.8906C333.248 18.5944 333.658 18.2135 333.938 17.748H336.273C336.053 18.4421 335.685 19.0557 335.169 19.5889C334.661 20.1136 334.026 20.5241 333.265 20.8203C332.511 21.1081 331.669 21.252 330.738 21.252ZM334.268 12.9492C334.268 12.179 334.111 11.4935 333.798 10.8926C333.493 10.2832 333.057 9.80501 332.49 9.45801C331.923 9.111 331.271 8.9375 330.535 8.9375C329.765 8.9375 329.079 9.11947 328.479 9.4834C327.886 9.84733 327.416 10.3382 327.069 10.9561C326.731 11.5654 326.536 12.2298 326.485 12.9492H334.268Z" fill="#1A1A1A"/>
<path d="M315.834 21.252C314.59 21.252 313.49 20.96 312.533 20.376C311.585 19.7835 310.849 18.9499 310.324 17.875C309.799 16.8001 309.537 15.556 309.537 14.1426C309.537 12.7292 309.799 11.485 310.324 10.4102C310.849 9.32682 311.585 8.48893 312.533 7.89648C313.49 7.30404 314.59 7.00781 315.834 7.00781C317.07 7.00781 318.157 7.30404 319.097 7.89648C320.045 8.48893 320.777 9.32682 321.293 10.4102C321.818 11.485 322.08 12.7292 322.08 14.1426C322.08 15.556 321.818 16.8001 321.293 17.875C320.777 18.9499 320.045 19.7835 319.097 20.376C318.157 20.96 317.07 21.252 315.834 21.252ZM315.834 19.3223C316.723 19.3223 317.472 19.0895 318.081 18.624C318.69 18.1501 319.143 17.5238 319.439 16.7451C319.744 15.958 319.896 15.0905 319.896 14.1426C319.896 13.1947 319.744 12.3271 319.439 11.54C319.143 10.7529 318.69 10.1224 318.081 9.64844C317.472 9.17448 316.723 8.9375 315.834 8.9375C314.928 8.9375 314.167 9.17448 313.549 9.64844C312.939 10.1224 312.482 10.7529 312.178 11.54C311.873 12.3271 311.721 13.1947 311.721 14.1426C311.721 15.0905 311.873 15.958 312.178 16.7451C312.482 17.5238 312.939 18.1501 313.549 18.624C314.167 19.0895 314.928 19.3223 315.834 19.3223Z" fill="#1A1A1A"/>
<path d="M306.719 7.18555V21.9629C306.719 23.2832 306.38 24.3115 305.703 25.0479C305.026 25.7842 304.027 26.1523 302.707 26.1523H302.25V24.1211H302.682C303.308 24.1211 303.773 23.9349 304.078 23.5625C304.383 23.1986 304.535 22.6654 304.535 21.9629V7.18555H306.719ZM305.602 4.90039C305.178 4.90039 304.819 4.76074 304.522 4.48145C304.226 4.20215 304.078 3.85938 304.078 3.45312C304.078 3.04688 304.226 2.7041 304.522 2.4248C304.819 2.14551 305.178 2.00586 305.602 2.00586C306.025 2.00586 306.389 2.14551 306.693 2.4248C306.998 2.7041 307.15 3.04688 307.15 3.45312C307.15 3.85938 306.998 4.20215 306.693 4.48145C306.389 4.76074 306.025 4.90039 305.602 4.90039Z" fill="#1A1A1A"/>
<path d="M289.961 17.0625C289.961 15.6322 290.448 14.625 291.421 14.041C292.403 13.457 293.643 13.11 295.141 13C295.716 12.9577 296.359 12.9196 297.07 12.8857C297.79 12.8434 298.391 12.8138 298.873 12.7969V11.6797C298.873 10.791 298.606 10.1097 298.073 9.63574C297.549 9.15332 296.774 8.91211 295.75 8.91211C294.912 8.91211 294.227 9.08561 293.693 9.43262C293.16 9.77116 292.813 10.2155 292.652 10.7656H290.367C290.46 10.0293 290.748 9.3776 291.23 8.81055C291.713 8.24349 292.352 7.80339 293.147 7.49023C293.951 7.16862 294.853 7.00781 295.852 7.00781C297.172 7.00781 298.365 7.34635 299.432 8.02344C300.498 8.69206 301.031 9.97852 301.031 11.8828V20.9727H298.873V19.0938H298.771C298.602 19.4492 298.34 19.7962 297.984 20.1348C297.637 20.4648 297.18 20.7441 296.613 20.9727C296.055 21.1927 295.403 21.3027 294.658 21.3027C293.778 21.3027 292.982 21.1335 292.271 20.7949C291.561 20.4564 290.998 19.9697 290.583 19.335C290.168 18.6917 289.961 17.9342 289.961 17.0625ZM292.145 17.1641C292.145 17.8665 292.407 18.4082 292.932 18.7891C293.465 19.1615 294.167 19.3477 295.039 19.3477C295.826 19.3477 296.507 19.1911 297.083 18.8779C297.667 18.5648 298.111 18.1501 298.416 17.6338C298.721 17.1175 298.873 16.5632 298.873 15.9707V14.5869L295.395 14.8281C294.362 14.8958 293.562 15.1201 292.995 15.501C292.428 15.8818 292.145 16.4362 292.145 17.1641Z" fill="#1A1A1A"/>
<path d="M278.332 20.9727H276.148V7.18555H278.256V9.34375H278.434C278.781 8.60742 279.284 8.03613 279.944 7.62988C280.613 7.21517 281.455 7.00781 282.471 7.00781C283.419 7.00781 284.24 7.20247 284.934 7.5918C285.628 7.97266 286.165 8.55241 286.546 9.33105C286.927 10.1097 287.117 11.0703 287.117 12.2129V20.9727H284.934V12.3652C284.934 11.2988 284.659 10.4652 284.108 9.86426C283.558 9.26335 282.792 8.96289 281.811 8.96289C281.133 8.96289 280.533 9.111 280.008 9.40723C279.483 9.69499 279.073 10.1224 278.776 10.6895C278.48 11.248 278.332 11.9167 278.332 12.6953V20.9727Z" fill="#1A1A1A"/>
<path d="M267.566 21.252C266.255 21.252 265.112 20.96 264.139 20.376C263.165 19.792 262.416 18.9668 261.892 17.9004C261.375 16.834 261.117 15.5983 261.117 14.1934C261.117 12.7884 261.375 11.5443 261.892 10.4609C262.416 9.36914 263.148 8.52279 264.088 7.92188C265.036 7.3125 266.128 7.00781 267.363 7.00781C268.404 7.00781 269.373 7.24056 270.271 7.70605C271.168 8.16309 271.896 8.90788 272.454 9.94043C273.021 10.9645 273.305 12.2806 273.305 13.8887V14.8027H263.301C263.335 15.7591 263.534 16.5758 263.897 17.2529C264.261 17.93 264.757 18.4463 265.383 18.8018C266.018 19.1488 266.745 19.3223 267.566 19.3223C268.345 19.3223 269.001 19.1784 269.534 18.8906C270.076 18.5944 270.486 18.2135 270.766 17.748H273.102C272.882 18.4421 272.513 19.0557 271.997 19.5889C271.489 20.1136 270.854 20.5241 270.093 20.8203C269.34 21.1081 268.497 21.252 267.566 21.252ZM271.096 12.9492C271.096 12.179 270.939 11.4935 270.626 10.8926C270.321 10.2832 269.885 9.80501 269.318 9.45801C268.751 9.111 268.1 8.9375 267.363 8.9375C266.593 8.9375 265.908 9.11947 265.307 9.4834C264.714 9.84733 264.244 10.3382 263.897 10.9561C263.559 11.5654 263.364 12.2298 263.313 12.9492H271.096Z" fill="#1A1A1A"/>
<path d="M249.92 26.1523C249.48 26.1523 249.074 26.1354 248.701 26.1016V24.1465C249.006 24.1803 249.361 24.1973 249.768 24.1973C250.132 24.1973 250.436 24.1592 250.682 24.083C250.927 24.0068 251.173 23.8164 251.418 23.5117C251.663 23.2155 251.9 22.75 252.129 22.1152L252.535 21.0742L247.432 7.18555H249.818L253.576 18.1289H253.729L257.486 7.18555H259.873L254.033 22.9531C253.627 24.028 253.085 24.8278 252.408 25.3525C251.731 25.8857 250.902 26.1523 249.92 26.1523Z" fill="#1A1A1A"/>
<path d="M240.449 23.7402H238.469L244.385 1.72656H246.391L240.449 23.7402Z" fill="#1A1A1A"/>
<path d="M231.766 23.7402H229.785L235.701 1.72656H237.707L231.766 23.7402Z" fill="#1A1A1A"/>
<path d="M226.103 21.125C225.807 21.125 225.532 21.0531 225.278 20.9092C225.033 20.7568 224.834 20.5537 224.681 20.2998C224.537 20.0459 224.47 19.7708 224.478 19.4746C224.47 19.1868 224.537 18.9202 224.681 18.6748C224.834 18.4209 225.033 18.222 225.278 18.0781C225.532 17.9258 225.807 17.8496 226.103 17.8496C226.391 17.8496 226.658 17.9258 226.903 18.0781C227.157 18.222 227.356 18.4209 227.5 18.6748C227.652 18.9202 227.728 19.1868 227.728 19.4746C227.728 19.7708 227.652 20.0459 227.5 20.2998C227.356 20.5537 227.157 20.7568 226.903 20.9092C226.658 21.0531 226.391 21.125 226.103 21.125ZM226.103 10.918C225.807 10.918 225.532 10.846 225.278 10.7021C225.033 10.5498 224.834 10.3467 224.681 10.0928C224.537 9.83887 224.47 9.5638 224.478 9.26758C224.47 8.97982 224.537 8.71322 224.681 8.46777C224.834 8.21387 225.033 8.01497 225.278 7.87109C225.532 7.71875 225.807 7.64258 226.103 7.64258C226.391 7.64258 226.658 7.71875 226.903 7.87109C227.157 8.01497 227.356 8.21387 227.5 8.46777C227.652 8.71322 227.728 8.97982 227.728 9.26758C227.728 9.5638 227.652 9.83887 227.5 10.0928C227.356 10.3467 227.157 10.5498 226.903 10.7021C226.658 10.846 226.391 10.918 226.103 10.918Z" fill="#1A1A1A"/>
<path d="M219.324 10.7656C219.163 10.1647 218.85 9.69922 218.385 9.36914C217.928 9.0306 217.31 8.86133 216.531 8.86133C215.973 8.86133 215.469 8.95443 215.021 9.14062C214.58 9.31836 214.233 9.56803 213.979 9.88965C213.734 10.2028 213.611 10.554 213.611 10.9434C213.611 11.4004 213.802 11.7897 214.183 12.1113C214.572 12.4329 215.169 12.6868 215.973 12.873L218.029 13.3809C219.265 13.6771 220.188 14.1341 220.797 14.752C221.406 15.3613 221.711 16.1484 221.711 17.1133C221.711 17.9173 221.495 18.6325 221.063 19.2588C220.64 19.8766 220.022 20.3633 219.21 20.7188C218.397 21.0742 217.428 21.252 216.303 21.252C214.754 21.252 213.527 20.9219 212.621 20.2617C211.715 19.5931 211.174 18.6283 210.996 17.3672H213.281C213.408 18.0358 213.717 18.5352 214.208 18.8652C214.699 19.1868 215.38 19.3477 216.252 19.3477C217.234 19.3477 218.012 19.1572 218.588 18.7764C219.163 18.3955 219.451 17.8835 219.451 17.2402C219.451 16.7493 219.269 16.3431 218.905 16.0215C218.541 15.6914 217.97 15.4375 217.191 15.2598L215.109 14.7773C213.908 14.498 212.993 14.041 212.367 13.4062C211.741 12.7715 211.428 11.9928 211.428 11.0703C211.428 10.2917 211.639 9.59342 212.062 8.97559C212.494 8.35775 213.095 7.87533 213.865 7.52832C214.644 7.18132 215.533 7.00781 216.531 7.00781C217.462 7.00781 218.283 7.16439 218.994 7.47754C219.705 7.79069 220.268 8.23079 220.683 8.79785C221.106 9.36491 221.364 10.0208 221.457 10.7656H219.324Z" fill="#1A1A1A"/>
<path d="M196.6 7.18555H198.707V9.36914H198.961C199.232 8.92904 199.494 8.56087 199.748 8.26465C200.002 7.95996 200.396 7.67643 200.929 7.41406C201.462 7.14323 202.135 7.00781 202.947 7.00781C204.098 7.00781 205.114 7.2998 205.994 7.88379C206.883 8.45931 207.573 9.28451 208.063 10.3594C208.563 11.4342 208.812 12.6868 208.812 14.1172C208.812 15.5475 208.563 16.8044 208.063 17.8877C207.573 18.9626 206.883 19.792 205.994 20.376C205.114 20.96 204.107 21.252 202.973 21.252C202.169 21.252 201.496 21.1208 200.954 20.8584C200.421 20.5876 200.019 20.2956 199.748 19.9824C199.477 19.6608 199.215 19.2884 198.961 18.8652H198.783V26.1523H196.6V7.18555ZM198.732 14.0664C198.732 15.1074 198.885 16.0215 199.189 16.8086C199.494 17.5957 199.943 18.2093 200.535 18.6494C201.128 19.0811 201.839 19.2969 202.668 19.2969C203.514 19.2969 204.234 19.0726 204.826 18.624C205.427 18.167 205.876 17.5449 206.172 16.7578C206.477 15.9622 206.629 15.0651 206.629 14.0664C206.629 13.0931 206.477 12.2214 206.172 11.4512C205.876 10.681 205.431 10.0758 204.839 9.63574C204.246 9.18717 203.523 8.96289 202.668 8.96289C201.822 8.96289 201.102 9.17448 200.51 9.59766C199.926 10.0208 199.481 10.6175 199.177 11.3877C198.881 12.1494 198.732 13.0423 198.732 14.0664Z" fill="#1A1A1A"/>
<path d="M193.781 9.01367H190.887V17.0117C190.887 17.8242 191.048 18.3701 191.369 18.6494C191.691 18.9287 192.131 19.0684 192.689 19.0684C193.113 19.0684 193.544 19.0514 193.984 19.0176V21.0488C193.544 21.1165 193.036 21.1504 192.461 21.1504C191.818 21.1504 191.208 21.0192 190.633 20.7568C190.057 20.486 189.588 20.0798 189.224 19.5381C188.86 18.9964 188.678 18.3405 188.678 17.5703V9.01367H186.596V7.18555H188.678V3.88477H190.887V7.18555H193.781V9.01367Z" fill="#1A1A1A"/>
<path d="M184.945 9.01367H182.051V17.0117C182.051 17.8242 182.212 18.3701 182.533 18.6494C182.855 18.9287 183.295 19.0684 183.854 19.0684C184.277 19.0684 184.708 19.0514 185.148 19.0176V21.0488C184.708 21.1165 184.201 21.1504 183.625 21.1504C182.982 21.1504 182.372 21.0192 181.797 20.7568C181.221 20.486 180.752 20.0798 180.388 19.5381C180.024 18.9964 179.842 18.3405 179.842 17.5703V9.01367H177.76V7.18555H179.842V3.88477H182.051V7.18555H184.945V9.01367Z" fill="#1A1A1A"/>
<path d="M166.486 20.9727H164.303V2.58984H166.486V9.34375H166.664C167.358 7.78646 168.712 7.00781 170.727 7.00781C172.182 7.00781 173.329 7.44792 174.167 8.32812C175.005 9.19987 175.424 10.4948 175.424 12.2129V20.9727H173.24V12.3652C173.24 11.2904 172.957 10.4567 172.39 9.86426C171.831 9.26335 171.057 8.96289 170.066 8.96289C169.372 8.96289 168.755 9.111 168.213 9.40723C167.68 9.69499 167.257 10.1224 166.943 10.6895C166.639 11.248 166.486 11.9167 166.486 12.6953V20.9727Z" fill="#1A1A1A"/>
<path d="M126.902 23.5625H125.023V0H126.902V23.5625Z" fill="#1A1A1A"/>
<path d="M86.4043 14.7012H70.0527V1.9043H86.2266V4.51953H73.3535V6.95703H85.6934V9.49609H73.3535V12.1367H86.4043V14.7012ZM88.7148 20.6172H67.5645V17.9766H88.7148V20.6172Z" fill="#1A1A1A"/>
<path d="M64.4416 23.3594H61.1662V0.203125H64.4416V23.3594ZM51.8986 1.82812C53.0581 1.82812 54.0949 2.16667 55.009 2.84375C55.9315 3.52083 56.6552 4.48145 57.1799 5.72559C57.7046 6.96973 57.967 8.41276 57.967 10.0547C57.967 11.7135 57.7046 13.1693 57.1799 14.4219C56.6552 15.666 55.9315 16.6266 55.009 17.3037C54.0949 17.9723 53.0581 18.3066 51.8986 18.3066C50.7137 18.3066 49.6558 17.9723 48.7248 17.3037C47.7938 16.6266 47.066 15.666 46.5412 14.4219C46.0249 13.1693 45.771 11.7135 45.7795 10.0547C45.771 8.41276 46.0249 6.96973 46.5412 5.72559C47.066 4.48145 47.7938 3.52083 48.7248 2.84375C49.6558 2.16667 50.7137 1.82812 51.8986 1.82812ZM51.8986 4.74805C51.2977 4.74805 50.7688 4.9554 50.3117 5.37012C49.8632 5.77637 49.5162 6.37728 49.2707 7.17285C49.0253 7.96842 48.9025 8.92904 48.9025 10.0547C48.9025 11.1888 49.0253 12.1536 49.2707 12.9492C49.5162 13.7448 49.8632 14.3457 50.3117 14.752C50.7688 15.1582 51.2977 15.3613 51.8986 15.3613C52.4911 15.3613 53.0074 15.1582 53.4475 14.752C53.8876 14.3372 54.2303 13.7321 54.4758 12.9365C54.7212 12.141 54.844 11.1803 54.844 10.0547C54.844 8.9375 54.7212 7.98112 54.4758 7.18555C54.2303 6.38151 53.8833 5.77637 53.4348 5.37012C52.9947 4.9554 52.4826 4.74805 51.8986 4.74805Z" fill="#1A1A1A"/>
<path d="M31.1289 5.43359C31.1204 6.84701 31.3193 8.2181 31.7256 9.54688C32.1318 10.8672 32.7454 12.0521 33.5664 13.1016C34.3874 14.151 35.3945 14.9635 36.5879 15.5391L34.6328 18.1289C33.431 17.5365 32.4027 16.7028 31.5479 15.6279C30.7015 14.5531 30.0286 13.292 29.5293 11.8447C29.013 13.3851 28.2979 14.735 27.3838 15.8945C26.4782 17.0456 25.3906 17.9342 24.1211 18.5605L22.1152 15.9453C23.3763 15.3698 24.4385 14.5361 25.3018 13.4443C26.165 12.3441 26.8083 11.1042 27.2314 9.72461C27.6631 8.33659 27.8789 6.90625 27.8789 5.43359V1.98047H31.1289V5.43359ZM40.8535 9.11523H44.2559V11.8574H40.8535V23.3086H37.6035V0.203125H40.8535V9.11523Z" fill="#1A1A1A"/>
<path d="M20.2871 14.4219H17.1895V0.203125H20.2871V14.4219ZM15.8184 14.3965H12.7715V13.6094H9.29297V11.4512H12.7715V0.583984H15.8184V14.3965ZM0 8.75977C5.04427 8.75977 8.97135 8.54818 11.7812 8.125L12.0098 10.2832C10.7318 10.5625 9.3099 10.7699 7.74414 10.9053V14.2949H4.64648V11.0957C3.3431 11.1465 1.89583 11.1719 0.304688 11.1719L0 8.75977ZM6.98242 16.707H17.0625V15.1582H20.2871V23.0547H3.7832V15.1582H6.98242V16.707ZM17.0625 20.5664V19.1699H6.98242V20.5664H17.0625ZM6.04297 0.990234C7.05013 0.990234 7.9388 1.12988 8.70898 1.40918C9.47917 1.68848 10.0758 2.09049 10.499 2.61523C10.9307 3.13151 11.1465 3.74089 11.1465 4.44336C11.1465 5.13737 10.9307 5.74674 10.499 6.27148C10.0758 6.78776 9.47493 7.18978 8.69629 7.47754C7.92611 7.7653 7.04167 7.91341 6.04297 7.92188C5.04427 7.91341 4.15983 7.7653 3.38965 7.47754C2.61947 7.18978 2.02279 6.78776 1.59961 6.27148C1.17643 5.74674 0.964844 5.13737 0.964844 4.44336C0.964844 3.74089 1.17643 3.13151 1.59961 2.61523C2.02279 2.09049 2.61523 1.68848 3.37695 1.40918C4.14714 1.12988 5.03581 0.990234 6.04297 0.990234ZM6.04297 3.22461C5.35742 3.22461 4.82845 3.32617 4.45605 3.5293C4.09212 3.72396 3.91016 4.02865 3.91016 4.44336C3.91016 4.85807 4.09212 5.16699 4.45605 5.37012C4.82845 5.56478 5.35742 5.66211 6.04297 5.66211C6.73698 5.66211 7.27865 5.56055 7.66797 5.35742C8.05729 5.1543 8.25195 4.84961 8.25195 4.44336C8.25195 4.03711 8.05729 3.73242 7.66797 3.5293C7.27865 3.32617 6.73698 3.22461 6.04297 3.22461Z" fill="#1A1A1A"/>
</svg>
