<svg width="518" height="101" viewBox="0 0 518 101" fill="none" xmlns="http://www.w3.org/2000/svg">
<path d="M505.359 40.0796C506.434 40.0877 507.394 40.2952 508.24 40.7021C509.095 41.109 509.762 41.6787 510.242 42.4111C510.73 43.1354 510.975 43.9614 510.975 44.8892C510.975 45.8169 510.73 46.647 510.242 47.3794C509.762 48.1037 509.095 48.6693 508.24 49.0762C507.394 49.4749 506.434 49.6743 505.359 49.6743C504.269 49.6743 503.296 49.4749 502.442 49.0762C501.587 48.6693 500.92 48.1037 500.44 47.3794C499.96 46.647 499.72 45.8169 499.72 44.8892C499.72 43.9614 499.96 43.1354 500.44 42.4111C500.92 41.6787 501.587 41.109 502.442 40.7021C503.296 40.2952 504.269 40.0877 505.359 40.0796ZM505.359 41.6909C504.643 41.6909 503.996 41.8293 503.418 42.106C502.849 42.3745 502.401 42.7529 502.076 43.2412C501.75 43.7214 501.591 44.2707 501.6 44.8892C501.591 45.5158 501.75 46.0732 502.076 46.5615C502.401 47.0498 502.849 47.4323 503.418 47.709C503.996 47.9775 504.643 48.1118 505.359 48.1118C506.067 48.1118 506.706 47.9775 507.276 47.709C507.854 47.4323 508.305 47.0498 508.631 46.5615C508.956 46.0732 509.119 45.5158 509.119 44.8892C509.119 44.2707 508.956 43.7214 508.631 43.2412C508.305 42.7529 507.854 42.3745 507.276 42.106C506.706 41.8293 506.067 41.6909 505.359 41.6909ZM517.127 50.4312H515.223V39.2739H517.127V50.4312ZM517.127 56.7056H504.944V59.147H517.908V60.6851H503.064V55.2651H515.223V53.019H503.016V51.481H517.127V56.7056Z" fill="#1A1A1A"/>
<path d="M482.948 53.5806L490.907 41.3247H493.617V53.4585H496.083V55.3872H493.617V59.0005H491.518V55.3872H482.948V53.5806ZM491.518 53.4585V44.1079H491.298L485.316 53.312V53.4585H491.518Z" fill="#1A1A1A"/>
<path d="M477.896 52.0913H475.967V50.895H471.572V49.6255H475.967V39.2983H477.896V52.0913ZM461.562 47.4771C466.632 47.4771 470.84 47.298 474.185 46.9399L474.307 48.1851C472.386 48.4618 470.221 48.6611 467.812 48.7832V52.1646H465.933V48.8564C464.167 48.8971 462.645 48.9175 461.367 48.9175H460.146L459.927 47.4771H461.562ZM477.896 57.3647H465.225V59.3179H478.604V60.7339H463.345V56.022H475.991V54.2642H463.247V52.8726H477.896V57.3647ZM467.007 39.7134C468.073 39.7134 469.013 39.8477 469.827 40.1162C470.64 40.3848 471.271 40.7673 471.719 41.2637C472.166 41.752 472.394 42.3257 472.402 42.9849C472.394 43.6522 472.166 44.23 471.719 44.7183C471.271 45.2065 470.64 45.5809 469.827 45.8413C469.021 46.1017 468.081 46.2319 467.007 46.2319C465.916 46.2319 464.964 46.1017 464.15 45.8413C463.345 45.5809 462.718 45.2065 462.271 44.7183C461.831 44.23 461.611 43.6522 461.611 42.9849C461.611 42.3257 461.831 41.752 462.271 41.2637C462.718 40.7673 463.349 40.3848 464.163 40.1162C464.976 39.8477 465.924 39.7134 467.007 39.7134ZM467.007 41.0562C466.283 41.0562 465.648 41.1375 465.103 41.3003C464.557 41.4549 464.138 41.6787 463.845 41.9717C463.552 42.2565 463.41 42.5942 463.418 42.9849C463.41 43.3674 463.552 43.7051 463.845 43.998C464.138 44.2829 464.557 44.5067 465.103 44.6694C465.648 44.8322 466.283 44.9136 467.007 44.9136C467.723 44.9136 468.35 44.8322 468.887 44.6694C469.432 44.5067 469.851 44.2829 470.144 43.998C470.445 43.7051 470.596 43.3674 470.596 42.9849C470.596 42.5942 470.445 42.2565 470.144 41.9717C469.851 41.6787 469.432 41.4549 468.887 41.3003C468.35 41.1375 467.723 41.0562 467.007 41.0562Z" fill="#1A1A1A"/>
<path d="M445.084 57.3892L451.114 51.0415C451.912 50.2033 452.518 49.5278 452.933 49.0151C453.356 48.4943 453.674 47.9938 453.885 47.5137C454.105 47.0254 454.215 46.5168 454.215 45.9878C454.215 45.4019 454.06 44.881 453.751 44.4253C453.442 43.9696 453.019 43.6156 452.481 43.3633C451.952 43.111 451.358 42.9849 450.699 42.9849C450.007 42.9849 449.401 43.1232 448.88 43.3999C448.36 43.6766 447.957 44.0672 447.672 44.5718C447.395 45.0763 447.257 45.6541 447.257 46.3052H445.182C445.174 45.2798 445.41 44.3724 445.89 43.583C446.378 42.7936 447.049 42.1792 447.904 41.7397C448.758 41.3003 449.715 41.0806 450.772 41.0806C451.822 41.0806 452.762 41.2962 453.592 41.7275C454.431 42.1589 455.086 42.7489 455.558 43.4976C456.03 44.2463 456.266 45.0763 456.266 45.9878C456.266 46.6632 456.144 47.3102 455.899 47.9287C455.655 48.5391 455.244 49.2186 454.667 49.9673C454.097 50.7078 453.279 51.6274 452.213 52.7261L448.16 56.9009V57.0474H456.583V59.0005H445.108L445.084 57.3892Z" fill="#1A1A1A"/>
<path d="M439.396 59.0005H437.175V43.6196H437.077L432.78 46.4761V44.2544L437.175 41.3247H439.396V59.0005Z" fill="#1A1A1A"/>
<path d="M420.478 55.3628H418.549V47.8433H412.299V46.3052H418.549V43.6929H412.299V42.1548H418.549V39.2983H420.478V55.3628ZM421.063 60.5142H406.488V53.9956H408.417V58.9028H421.063V60.5142ZM405.707 50.5044C407.351 50.4963 408.901 50.4352 410.358 50.3213C411.823 50.2074 413.332 50.008 414.887 49.7231L415.082 51.3101C413.438 51.6193 411.859 51.8309 410.346 51.9448C408.84 52.0588 407.196 52.1239 405.414 52.1401H403.778V40.8608H405.707V50.5044Z" fill="#1A1A1A"/>
<path d="M393.11 59.2446C392.061 59.2446 391.104 59.0452 390.242 58.6465C389.387 58.2396 388.704 57.6821 388.191 56.9741C387.686 56.258 387.414 55.4523 387.373 54.5571H389.497C389.554 55.078 389.749 55.55 390.083 55.9731C390.417 56.3882 390.848 56.7178 391.377 56.9619C391.906 57.1979 392.484 57.3159 393.11 57.3159C393.859 57.3159 394.535 57.145 395.137 56.8032C395.739 56.4614 396.211 55.9935 396.553 55.3994C396.895 54.8053 397.065 54.1421 397.065 53.4097C397.065 52.6528 396.886 51.9733 396.528 51.3711C396.178 50.7607 395.69 50.2847 395.063 49.9429C394.445 49.5929 393.745 49.4139 392.964 49.4058C391.393 49.3813 390.295 49.9103 389.668 50.9927H387.544L388.789 41.3247H398.359V43.2778H390.62L389.961 48.4536H390.132C390.531 48.1444 391.015 47.8962 391.584 47.709C392.154 47.5218 392.744 47.4282 393.354 47.4282C394.461 47.4282 395.458 47.6846 396.345 48.1973C397.24 48.7018 397.94 49.4058 398.445 50.3091C398.958 51.2124 399.214 52.2297 399.214 53.3608C399.214 54.4839 398.949 55.493 398.42 56.3882C397.891 57.2834 397.163 57.9832 396.235 58.4878C395.308 58.9924 394.266 59.2446 393.11 59.2446Z" fill="#1A1A1A"/>
<path d="M371.651 57.3892L377.682 51.0415C378.479 50.2033 379.085 49.5278 379.5 49.0151C379.924 48.4943 380.241 47.9938 380.453 47.5137C380.672 47.0254 380.782 46.5168 380.782 45.9878C380.782 45.4019 380.628 44.881 380.318 44.4253C380.009 43.9696 379.586 43.6156 379.049 43.3633C378.52 43.111 377.926 42.9849 377.267 42.9849C376.575 42.9849 375.969 43.1232 375.448 43.3999C374.927 43.6766 374.524 44.0672 374.239 44.5718C373.963 45.0763 373.824 45.6541 373.824 46.3052H371.749C371.741 45.2798 371.977 44.3724 372.457 43.583C372.945 42.7936 373.617 42.1792 374.471 41.7397C375.326 41.3003 376.282 41.0806 377.34 41.0806C378.39 41.0806 379.33 41.2962 380.16 41.7275C380.998 42.1589 381.653 42.7489 382.125 43.4976C382.597 44.2463 382.833 45.0763 382.833 45.9878C382.833 46.6632 382.711 47.3102 382.467 47.9287C382.223 48.5391 381.812 49.2186 381.234 49.9673C380.664 50.7078 379.846 51.6274 378.78 52.7261L374.728 56.9009V57.0474H383.15V59.0005H371.676L371.651 57.3892Z" fill="#1A1A1A"/>
<path d="M361.569 59.2446C360.267 59.2446 359.152 58.8906 358.225 58.1826C357.305 57.4746 356.601 56.4411 356.113 55.082C355.633 53.723 355.393 52.0832 355.393 50.1626C355.393 48.2664 355.637 46.6388 356.125 45.2798C356.613 43.9126 357.321 42.8709 358.249 42.1548C359.177 41.4386 360.284 41.0806 361.569 41.0806C362.855 41.0806 363.962 41.4386 364.89 42.1548C365.817 42.8709 366.525 43.9126 367.014 45.2798C367.502 46.6388 367.746 48.2664 367.746 50.1626C367.746 52.0832 367.502 53.723 367.014 55.082C366.534 56.4411 365.83 57.4746 364.902 58.1826C363.974 58.8906 362.863 59.2446 361.569 59.2446ZM361.569 57.2915C362.416 57.2915 363.14 57.0148 363.742 56.4614C364.344 55.908 364.804 55.0983 365.122 54.0322C365.439 52.9661 365.598 51.6763 365.598 50.1626C365.598 48.6489 365.439 47.355 365.122 46.2808C364.804 45.2065 364.344 44.3887 363.742 43.8271C363.14 43.2656 362.416 42.9849 361.569 42.9849C360.723 42.9849 359.995 43.2656 359.384 43.8271C358.782 44.3887 358.318 45.2065 357.993 46.2808C357.675 47.355 357.517 48.6489 357.517 50.1626C357.517 51.6763 357.675 52.9661 357.993 54.0322C358.31 55.0983 358.77 55.908 359.372 56.4614C359.982 57.0148 360.715 57.2915 361.569 57.2915Z" fill="#1A1A1A"/>
<path d="M340.086 57.3892L346.116 51.0415C346.914 50.2033 347.52 49.5278 347.935 49.0151C348.358 48.4943 348.676 47.9938 348.887 47.5137C349.107 47.0254 349.217 46.5168 349.217 45.9878C349.217 45.4019 349.062 44.881 348.753 44.4253C348.444 43.9696 348.021 43.6156 347.483 43.3633C346.954 43.111 346.36 42.9849 345.701 42.9849C345.009 42.9849 344.403 43.1232 343.882 43.3999C343.361 43.6766 342.959 44.0672 342.674 44.5718C342.397 45.0763 342.259 45.6541 342.259 46.3052H340.184C340.175 45.2798 340.411 44.3724 340.892 43.583C341.38 42.7936 342.051 42.1792 342.906 41.7397C343.76 41.3003 344.716 41.0806 345.774 41.0806C346.824 41.0806 347.764 41.2962 348.594 41.7275C349.432 42.1589 350.088 42.7489 350.56 43.4976C351.032 44.2463 351.268 45.0763 351.268 45.9878C351.268 46.6632 351.146 47.3102 350.901 47.9287C350.657 48.5391 350.246 49.2186 349.668 49.9673C349.099 50.7078 348.281 51.6274 347.215 52.7261L343.162 56.9009V57.0474H351.585V59.0005H340.11L340.086 57.3892Z" fill="#1A1A1A"/>
<path d="M328.638 51.1392H320.898V49.2104H328.638V51.1392Z" fill="#1A1A1A"/>
<path d="M296.511 40.0796C297.585 40.0877 298.545 40.2952 299.392 40.7021C300.246 41.109 300.913 41.6787 301.394 42.4111C301.882 43.1354 302.126 43.9614 302.126 44.8892C302.126 45.8169 301.882 46.647 301.394 47.3794C300.913 48.1037 300.246 48.6693 299.392 49.0762C298.545 49.4749 297.585 49.6743 296.511 49.6743C295.42 49.6743 294.448 49.4749 293.593 49.0762C292.739 48.6693 292.071 48.1037 291.591 47.3794C291.111 46.647 290.871 45.8169 290.871 44.8892C290.871 43.9614 291.111 43.1354 291.591 42.4111C292.071 41.6787 292.739 41.109 293.593 40.7021C294.448 40.2952 295.42 40.0877 296.511 40.0796ZM296.511 41.6909C295.795 41.6909 295.148 41.8293 294.57 42.106C294 42.3745 293.553 42.7529 293.227 43.2412C292.902 43.7214 292.743 44.2707 292.751 44.8892C292.743 45.5158 292.902 46.0732 293.227 46.5615C293.553 47.0498 294 47.4323 294.57 47.709C295.148 47.9775 295.795 48.1118 296.511 48.1118C297.219 48.1118 297.858 47.9775 298.427 47.709C299.005 47.4323 299.457 47.0498 299.782 46.5615C300.108 46.0732 300.271 45.5158 300.271 44.8892C300.271 44.2707 300.108 43.7214 299.782 43.2412C299.457 42.7529 299.005 42.3745 298.427 42.106C297.858 41.8293 297.219 41.6909 296.511 41.6909ZM308.278 50.4312H306.374V39.2739H308.278V50.4312ZM308.278 56.7056H296.096V59.147H309.06V60.6851H294.216V55.2651H306.374V53.019H294.167V51.481H308.278V56.7056Z" fill="#1A1A1A"/>
<path d="M275.442 57.3892L281.473 51.0415C282.27 50.2033 282.876 49.5278 283.292 49.0151C283.715 48.4943 284.032 47.9938 284.244 47.5137C284.463 47.0254 284.573 46.5168 284.573 45.9878C284.573 45.4019 284.419 44.881 284.109 44.4253C283.8 43.9696 283.377 43.6156 282.84 43.3633C282.311 43.111 281.717 42.9849 281.058 42.9849C280.366 42.9849 279.76 43.1232 279.239 43.3999C278.718 43.6766 278.315 44.0672 278.03 44.5718C277.754 45.0763 277.615 45.6541 277.615 46.3052H275.54C275.532 45.2798 275.768 44.3724 276.248 43.583C276.736 42.7936 277.408 42.1792 278.262 41.7397C279.117 41.3003 280.073 41.0806 281.131 41.0806C282.181 41.0806 283.121 41.2962 283.951 41.7275C284.789 42.1589 285.444 42.7489 285.916 43.4976C286.388 44.2463 286.624 45.0763 286.624 45.9878C286.624 46.6632 286.502 47.3102 286.258 47.9287C286.014 48.5391 285.603 49.2186 285.025 49.9673C284.455 50.7078 283.637 51.6274 282.571 52.7261L278.519 56.9009V57.0474H286.941V59.0005H275.467L275.442 57.3892Z" fill="#1A1A1A"/>
<path d="M259.77 57.3892L265.8 51.0415C266.597 50.2033 267.204 49.5278 267.619 49.0151C268.042 48.4943 268.359 47.9938 268.571 47.5137C268.791 47.0254 268.9 46.5168 268.9 45.9878C268.9 45.4019 268.746 44.881 268.437 44.4253C268.127 43.9696 267.704 43.6156 267.167 43.3633C266.638 43.111 266.044 42.9849 265.385 42.9849C264.693 42.9849 264.087 43.1232 263.566 43.3999C263.045 43.6766 262.642 44.0672 262.357 44.5718C262.081 45.0763 261.942 45.6541 261.942 46.3052H259.867C259.859 45.2798 260.095 44.3724 260.575 43.583C261.063 42.7936 261.735 42.1792 262.589 41.7397C263.444 41.3003 264.4 41.0806 265.458 41.0806C266.508 41.0806 267.448 41.2962 268.278 41.7275C269.116 42.1589 269.771 42.7489 270.243 43.4976C270.715 44.2463 270.951 45.0763 270.951 45.9878C270.951 46.6632 270.829 47.3102 270.585 47.9287C270.341 48.5391 269.93 49.2186 269.352 49.9673C268.782 50.7078 267.965 51.6274 266.898 52.7261L262.846 56.9009V57.0474H271.269V59.0005H259.794L259.77 57.3892Z" fill="#1A1A1A"/>
<path d="M247.027 52.0913H245.099V50.895H240.704V49.6255H245.099V39.2983H247.027V52.0913ZM230.694 47.4771C235.764 47.4771 239.972 47.298 243.316 46.9399L243.438 48.1851C241.518 48.4618 239.353 48.6611 236.944 48.7832V52.1646H235.064V48.8564C233.299 48.8971 231.777 48.9175 230.499 48.9175H229.278L229.059 47.4771H230.694ZM247.027 57.3647H234.356V59.3179H247.735V60.7339H232.477V56.022H245.123V54.2642H232.379V52.8726H247.027V57.3647ZM236.139 39.7134C237.205 39.7134 238.145 39.8477 238.958 40.1162C239.772 40.3848 240.403 40.7673 240.851 41.2637C241.298 41.752 241.526 42.3257 241.534 42.9849C241.526 43.6522 241.298 44.23 240.851 44.7183C240.403 45.2065 239.772 45.5809 238.958 45.8413C238.153 46.1017 237.213 46.2319 236.139 46.2319C235.048 46.2319 234.096 46.1017 233.282 45.8413C232.477 45.5809 231.85 45.2065 231.402 44.7183C230.963 44.23 230.743 43.6522 230.743 42.9849C230.743 42.3257 230.963 41.752 231.402 41.2637C231.85 40.7673 232.481 40.3848 233.294 40.1162C234.108 39.8477 235.056 39.7134 236.139 39.7134ZM236.139 41.0562C235.414 41.0562 234.78 41.1375 234.234 41.3003C233.689 41.4549 233.27 41.6787 232.977 41.9717C232.684 42.2565 232.542 42.5942 232.55 42.9849C232.542 43.3674 232.684 43.7051 232.977 43.998C233.27 44.2829 233.689 44.5067 234.234 44.6694C234.78 44.8322 235.414 44.9136 236.139 44.9136C236.855 44.9136 237.481 44.8322 238.019 44.6694C238.564 44.5067 238.983 44.2829 239.276 43.998C239.577 43.7051 239.728 43.3674 239.728 42.9849C239.728 42.5942 239.577 42.2565 239.276 41.9717C238.983 41.6787 238.564 41.4549 238.019 41.3003C237.481 41.1375 236.855 41.0562 236.139 41.0562Z" fill="#1A1A1A"/>
<path d="M224.201 59.0005H221.979V43.6196H221.882L217.585 46.4761V44.2544L221.979 41.3247H224.201V59.0005Z" fill="#1A1A1A"/>
<path d="M212.239 59.0005H210.018V43.6196H209.92L205.623 46.4761V44.2544L210.018 41.3247H212.239V59.0005Z" fill="#1A1A1A"/>
<path d="M193.32 55.3628H191.392V47.8433H185.142V46.3052H191.392V43.6929H185.142V42.1548H191.392V39.2983H193.32V55.3628ZM193.906 60.5142H179.331V53.9956H181.26V58.9028H193.906V60.5142ZM178.55 50.5044C180.194 50.4963 181.744 50.4352 183.201 50.3213C184.666 50.2074 186.175 50.008 187.729 49.7231L187.925 51.3101C186.281 51.6193 184.702 51.8309 183.188 51.9448C181.683 52.0588 180.039 52.1239 178.257 52.1401H176.621V40.8608H178.55V50.5044Z" fill="#1A1A1A"/>
<path d="M165.953 59.2446C164.903 59.2446 163.947 59.0452 163.084 58.6465C162.23 58.2396 161.546 57.6821 161.034 56.9741C160.529 56.258 160.257 55.4523 160.216 54.5571H162.34C162.397 55.078 162.592 55.55 162.926 55.9731C163.259 56.3882 163.691 56.7178 164.22 56.9619C164.749 57.1979 165.326 57.3159 165.953 57.3159C166.702 57.3159 167.377 57.145 167.979 56.8032C168.582 56.4614 169.054 55.9935 169.396 55.3994C169.737 54.8053 169.908 54.1421 169.908 53.4097C169.908 52.6528 169.729 51.9733 169.371 51.3711C169.021 50.7607 168.533 50.2847 167.906 49.9429C167.288 49.5929 166.588 49.4139 165.807 49.4058C164.236 49.3813 163.137 49.9103 162.511 50.9927H160.387L161.632 41.3247H171.202V43.2778H163.463L162.804 48.4536H162.975C163.373 48.1444 163.858 47.8962 164.427 47.709C164.997 47.5218 165.587 47.4282 166.197 47.4282C167.304 47.4282 168.301 47.6846 169.188 48.1973C170.083 48.7018 170.783 49.4058 171.288 50.3091C171.8 51.2124 172.057 52.2297 172.057 53.3608C172.057 54.4839 171.792 55.493 171.263 56.3882C170.734 57.2834 170.006 57.9832 169.078 58.4878C168.15 58.9924 167.109 59.2446 165.953 59.2446Z" fill="#1A1A1A"/>
<path d="M144.494 57.3892L150.524 51.0415C151.322 50.2033 151.928 49.5278 152.343 49.0151C152.766 48.4943 153.084 47.9938 153.295 47.5137C153.515 47.0254 153.625 46.5168 153.625 45.9878C153.625 45.4019 153.47 44.881 153.161 44.4253C152.852 43.9696 152.429 43.6156 151.892 43.3633C151.363 43.111 150.769 42.9849 150.109 42.9849C149.418 42.9849 148.811 43.1232 148.291 43.3999C147.77 43.6766 147.367 44.0672 147.082 44.5718C146.805 45.0763 146.667 45.6541 146.667 46.3052H144.592C144.584 45.2798 144.82 44.3724 145.3 43.583C145.788 42.7936 146.459 42.1792 147.314 41.7397C148.168 41.3003 149.125 41.0806 150.183 41.0806C151.232 41.0806 152.172 41.2962 153.002 41.7275C153.841 42.1589 154.496 42.7489 154.968 43.4976C155.44 44.2463 155.676 45.0763 155.676 45.9878C155.676 46.6632 155.554 47.3102 155.31 47.9287C155.065 48.5391 154.654 49.2186 154.077 49.9673C153.507 50.7078 152.689 51.6274 151.623 52.7261L147.57 56.9009V57.0474H155.993V59.0005H144.519L144.494 57.3892Z" fill="#1A1A1A"/>
<path d="M134.412 59.2446C133.11 59.2446 131.995 58.8906 131.067 58.1826C130.148 57.4746 129.444 56.4411 128.956 55.082C128.475 53.723 128.235 52.0832 128.235 50.1626C128.235 48.2664 128.479 46.6388 128.968 45.2798C129.456 43.9126 130.164 42.8709 131.092 42.1548C132.02 41.4386 133.126 41.0806 134.412 41.0806C135.698 41.0806 136.805 41.4386 137.732 42.1548C138.66 42.8709 139.368 43.9126 139.856 45.2798C140.345 46.6388 140.589 48.2664 140.589 50.1626C140.589 52.0832 140.345 53.723 139.856 55.082C139.376 56.4411 138.672 57.4746 137.745 58.1826C136.817 58.8906 135.706 59.2446 134.412 59.2446ZM134.412 57.2915C135.258 57.2915 135.983 57.0148 136.585 56.4614C137.187 55.908 137.647 55.0983 137.964 54.0322C138.282 52.9661 138.44 51.6763 138.44 50.1626C138.44 48.6489 138.282 47.355 137.964 46.2808C137.647 45.2065 137.187 44.3887 136.585 43.8271C135.983 43.2656 135.258 42.9849 134.412 42.9849C133.566 42.9849 132.837 43.2656 132.227 43.8271C131.625 44.3887 131.161 45.2065 130.835 46.2808C130.518 47.355 130.359 48.6489 130.359 50.1626C130.359 51.6763 130.518 52.9661 130.835 54.0322C131.153 55.0983 131.613 55.908 132.215 56.4614C132.825 57.0148 133.558 57.2915 134.412 57.2915Z" fill="#1A1A1A"/>
<path d="M112.929 57.3892L118.959 51.0415C119.757 50.2033 120.363 49.5278 120.778 49.0151C121.201 48.4943 121.518 47.9938 121.73 47.5137C121.95 47.0254 122.06 46.5168 122.06 45.9878C122.06 45.4019 121.905 44.881 121.596 44.4253C121.286 43.9696 120.863 43.6156 120.326 43.3633C119.797 43.111 119.203 42.9849 118.544 42.9849C117.852 42.9849 117.246 43.1232 116.725 43.3999C116.204 43.6766 115.801 44.0672 115.517 44.5718C115.24 45.0763 115.102 45.6541 115.102 46.3052H113.026C113.018 45.2798 113.254 44.3724 113.734 43.583C114.223 42.7936 114.894 42.1792 115.749 41.7397C116.603 41.3003 117.559 41.0806 118.617 41.0806C119.667 41.0806 120.607 41.2962 121.437 41.7275C122.275 42.1589 122.93 42.7489 123.402 43.4976C123.874 44.2463 124.11 45.0763 124.11 45.9878C124.11 46.6632 123.988 47.3102 123.744 47.9287C123.5 48.5391 123.089 49.2186 122.511 49.9673C121.942 50.7078 121.124 51.6274 120.058 52.7261L116.005 56.9009V57.0474H124.428V59.0005H112.953L112.929 57.3892Z" fill="#1A1A1A"/>
<path d="M78.29 61.4907H76.4834V38.8345H78.29V61.4907Z" fill="#1A1A1A"/>
<path d="M40.0381 47.9165H43.1143V49.5522H40.0381V60.978H38.1094V39.2739H40.0381V47.9165ZM27.6602 45.8169C27.6602 47.3306 27.8148 48.8198 28.124 50.2847C28.4333 51.7495 28.9948 53.0109 29.8086 54.0688C30.598 53.0353 31.1473 51.7902 31.4565 50.3335C31.7739 48.8687 31.9408 47.3631 31.957 45.8169V43.1069H30.2725V41.4956H36.3027V43.1069H33.7637V45.8169C33.7637 47.7049 34.0282 49.4871 34.5571 51.1636C35.0861 52.84 35.9691 54.1258 37.2061 55.021L35.9365 56.437C34.4798 55.314 33.4504 53.4626 32.8481 50.8828C32.2866 53.5602 31.2653 55.4686 29.7842 56.6079C28.3356 55.4849 27.3184 53.5765 26.7324 50.8828C26.1302 53.4544 25.113 55.3058 23.6807 56.437L22.4111 55.021C23.2412 54.4025 23.9126 53.5806 24.4253 52.5552C24.938 51.5216 25.3001 50.4271 25.5117 49.2715C25.7314 48.1077 25.8454 46.9562 25.8535 45.8169V43.1069H23.1191V41.4956H29.3203V43.1069H27.6602V45.8169Z" fill="#1A1A1A"/>
<path d="M17.0898 43.8149H20.3613V45.4263H17.0898V50.2358H15.1855V39.2739H17.0898V43.8149ZM3.10059 47.5259C4.7526 47.534 6.38021 47.4689 7.9834 47.3306C9.58659 47.1841 11.2223 46.9399 12.8906 46.5981L13.1348 48.2095C11.377 48.5675 9.67204 48.8198 8.02002 48.9663C6.37614 49.1128 4.67122 49.186 2.90527 49.186H1.17188V40.2505H3.10059V47.5259ZM17.0898 56.5835H5.2002V59.1226H17.8955V60.6851H3.2959V55.0698H15.1855V52.8237H3.24707V51.2856H17.0898V56.5835Z" fill="#1A1A1A"/>
<path d="M440.036 20.4102C438.872 20.4102 437.831 20.2148 436.911 19.8242C436 19.4336 435.275 18.8843 434.738 18.1763C434.209 17.4683 433.924 16.6504 433.884 15.7227H436.105C436.146 16.2679 436.341 16.748 436.691 17.1631C437.049 17.5781 437.517 17.8996 438.095 18.1274C438.673 18.3472 439.312 18.457 440.012 18.457C440.777 18.457 441.464 18.3268 442.075 18.0664C442.693 17.7979 443.173 17.4316 443.515 16.9678C443.865 16.4958 444.04 15.9587 444.04 15.3564C444.04 14.7054 443.869 14.1317 443.527 13.6353C443.194 13.1388 442.705 12.7523 442.062 12.4756C441.42 12.1989 440.646 12.0605 439.743 12.0605H438.303V10.1318H439.743C440.451 10.1318 441.082 10.0057 441.635 9.75342C442.189 9.50114 442.616 9.14714 442.917 8.69141C443.226 8.23568 443.381 7.70671 443.381 7.10449C443.381 6.52669 443.243 6.014 442.966 5.56641C442.697 5.11882 442.315 4.77295 441.818 4.52881C441.322 4.27653 440.744 4.15039 440.085 4.15039C439.45 4.15039 438.856 4.26432 438.303 4.49219C437.749 4.72005 437.298 5.04557 436.948 5.46875C436.598 5.88379 436.407 6.37207 436.374 6.93359H434.25C434.291 6.02214 434.576 5.2124 435.104 4.50439C435.633 3.78825 436.337 3.23486 437.216 2.84424C438.095 2.44548 439.06 2.24609 440.109 2.24609C441.2 2.24609 442.152 2.46175 442.966 2.89307C443.788 3.31624 444.418 3.88997 444.858 4.61426C445.297 5.33854 445.513 6.12793 445.505 6.98242C445.513 7.97526 445.249 8.82568 444.711 9.53369C444.174 10.2417 443.438 10.7259 442.502 10.9863V11.1084C443.259 11.2305 443.914 11.4868 444.467 11.8774C445.029 12.2599 445.456 12.7523 445.749 13.3545C446.05 13.9486 446.197 14.6159 446.188 15.3564C446.197 16.3086 445.932 17.1712 445.395 17.9443C444.858 18.7093 444.117 19.3115 443.173 19.751C442.237 20.1904 441.192 20.4102 440.036 20.4102Z" fill="#1A1A1A"/>
<path d="M428.221 20.166H425.999V4.78516H425.901L421.604 7.6416V5.41992L425.999 2.49023H428.221V20.166Z" fill="#1A1A1A"/>
<path d="M411.815 20.4102C410.766 20.4102 409.809 20.2108 408.947 19.812C408.092 19.4051 407.409 18.8477 406.896 18.1396C406.391 17.4235 406.119 16.6178 406.078 15.7227H408.202C408.259 16.2435 408.454 16.7155 408.788 17.1387C409.122 17.5537 409.553 17.8833 410.082 18.1274C410.611 18.3634 411.189 18.4814 411.815 18.4814C412.564 18.4814 413.24 18.3105 413.842 17.9688C414.444 17.627 414.916 17.159 415.258 16.5649C415.6 15.9709 415.771 15.3076 415.771 14.5752C415.771 13.8184 415.591 13.1388 415.233 12.5366C414.883 11.9263 414.395 11.4502 413.769 11.1084C413.15 10.7585 412.45 10.5794 411.669 10.5713C410.098 10.5469 409 11.0758 408.373 12.1582H406.249L407.494 2.49023H417.064V4.44336H409.325L408.666 9.61914H408.837C409.236 9.3099 409.72 9.06169 410.29 8.87451C410.859 8.68734 411.449 8.59375 412.06 8.59375C413.166 8.59375 414.163 8.8501 415.05 9.36279C415.945 9.86735 416.645 10.5713 417.15 11.4746C417.663 12.3779 417.919 13.3952 417.919 14.5264C417.919 15.6494 417.654 16.6585 417.125 17.5537C416.597 18.4489 415.868 19.1488 414.94 19.6533C414.013 20.1579 412.971 20.4102 411.815 20.4102Z" fill="#1A1A1A"/>
<path d="M395.265 19.458H375.392V17.8467H384.327V13.7451H377.882V7.05566H390.87V3.6377H377.833V2.05078H392.75V8.61816H379.786V12.1582H393.263V13.7451H386.207V17.8467H395.265V19.458Z" fill="#1A1A1A"/>
<path d="M371.34 22.1436H369.509V10.7666H366.311V21.0205H364.553V0.927734H366.311V9.17969H369.509V0.439453H371.34V22.1436ZM361.721 4.6875H355.495V15.1367C357.098 15.1286 358.457 15.0838 359.572 15.0024C360.695 14.9129 361.826 14.7542 362.966 14.5264L363.137 16.1377C361.9 16.39 360.679 16.5609 359.475 16.6504C358.278 16.7318 356.781 16.7725 354.982 16.7725H353.591V3.10059H361.721V4.6875Z" fill="#1A1A1A"/>
<path d="M349.979 12.7197H330.179V11.1816H339.139V8.64258H332.693V1.46484H347.513V3.00293H334.573V7.08008H347.659V8.64258H340.994V11.1816H349.979V12.7197ZM340.066 14.3066C341.613 14.3066 342.943 14.4613 344.058 14.7705C345.181 15.0716 346.04 15.5151 346.634 16.1011C347.228 16.687 347.529 17.391 347.537 18.2129C347.529 19.043 347.228 19.751 346.634 20.3369C346.04 20.9229 345.185 21.3664 344.07 21.6675C342.955 21.9767 341.621 22.1354 340.066 22.1436C338.504 22.1354 337.161 21.9767 336.038 21.6675C334.915 21.3664 334.056 20.9229 333.462 20.3369C332.868 19.751 332.571 19.043 332.571 18.2129C332.571 17.391 332.868 16.687 333.462 16.1011C334.056 15.5151 334.915 15.0716 336.038 14.7705C337.161 14.4613 338.504 14.3066 340.066 14.3066ZM340.066 15.8203C338.911 15.8203 337.914 15.918 337.076 16.1133C336.246 16.3005 335.611 16.5731 335.171 16.9312C334.732 17.2892 334.516 17.7165 334.524 18.2129C334.516 18.7174 334.732 19.1488 335.171 19.5068C335.611 19.8649 336.246 20.1375 337.076 20.3247C337.914 20.5119 338.911 20.6055 340.066 20.6055C341.214 20.6055 342.203 20.5119 343.033 20.3247C343.863 20.1375 344.498 19.8649 344.937 19.5068C345.385 19.1406 345.608 18.7093 345.608 18.2129C345.608 17.7165 345.385 17.2892 344.937 16.9312C344.498 16.5731 343.859 16.3005 343.021 16.1133C342.19 15.918 341.206 15.8203 340.066 15.8203Z" fill="#1A1A1A"/>
<path d="M313.554 1.75781C314.457 1.74967 315.287 1.90837 316.044 2.23389C316.809 2.55127 317.444 3.00293 317.948 3.58887H323.637V0.439453H325.565V13.3057H323.637V10.2051H317.96C317.448 10.791 316.809 11.2467 316.044 11.5723C315.287 11.8896 314.457 12.0443 313.554 12.0361C312.479 12.0443 311.515 11.8327 310.661 11.4014C309.806 10.9619 309.135 10.3516 308.646 9.57031C308.158 8.78906 307.914 7.90202 307.914 6.90918C307.914 5.9082 308.158 5.01709 308.646 4.23584C309.135 3.44645 309.806 2.8361 310.661 2.40479C311.515 1.96533 312.479 1.74967 313.554 1.75781ZM313.554 3.41797C312.821 3.40983 312.166 3.55632 311.588 3.85742C311.011 4.15039 310.559 4.56543 310.233 5.10254C309.908 5.63151 309.745 6.23372 309.745 6.90918C309.745 7.5765 309.908 8.17464 310.233 8.70361C310.559 9.23258 311.011 9.64762 311.588 9.94873C312.166 10.2498 312.821 10.4004 313.554 10.4004C314.262 10.4004 314.901 10.2498 315.47 9.94873C316.048 9.64762 316.5 9.23258 316.825 8.70361C317.151 8.17464 317.313 7.5765 317.313 6.90918C317.313 6.23372 317.151 5.63151 316.825 5.10254C316.5 4.56543 316.048 4.15039 315.47 3.85742C314.901 3.55632 314.262 3.40983 313.554 3.41797ZM318.363 13.8184C319.861 13.8184 321.155 13.9811 322.245 14.3066C323.336 14.6322 324.174 15.1042 324.76 15.7227C325.346 16.3411 325.639 17.0817 325.639 17.9443C325.639 18.8151 325.346 19.5597 324.76 20.1782C324.174 20.8049 323.336 21.2809 322.245 21.6064C321.155 21.932 319.861 22.0947 318.363 22.0947C316.858 22.0947 315.56 21.932 314.469 21.6064C313.379 21.2809 312.541 20.8049 311.955 20.1782C311.377 19.5597 311.088 18.8151 311.088 17.9443C311.088 17.0817 311.377 16.3411 311.955 15.7227C312.541 15.1042 313.379 14.6322 314.469 14.3066C315.568 13.9811 316.866 13.8184 318.363 13.8184ZM318.363 15.3076C317.265 15.3076 316.308 15.4134 315.495 15.625C314.681 15.8366 314.054 16.1418 313.615 16.5405C313.183 16.9393 312.968 17.4072 312.968 17.9443C312.968 18.4814 313.183 18.9494 313.615 19.3481C314.054 19.7388 314.681 20.0358 315.495 20.2393C316.308 20.4508 317.265 20.5566 318.363 20.5566C319.47 20.5566 320.426 20.4508 321.232 20.2393C322.046 20.0358 322.668 19.7388 323.1 19.3481C323.539 18.9494 323.759 18.4814 323.759 17.9443C323.759 17.3991 323.539 16.9312 323.1 16.5405C322.668 16.1418 322.046 15.8366 321.232 15.625C320.426 15.4134 319.47 15.3076 318.363 15.3076ZM318.864 5.15137C319.067 5.71289 319.169 6.29883 319.169 6.90918C319.169 7.48698 319.071 8.05664 318.876 8.61816H323.637V5.15137H318.864Z" fill="#1A1A1A"/>
<path d="M294.854 3.75977C294.854 5.15951 294.818 6.40055 294.745 7.48291C294.68 8.56527 294.509 9.79818 294.232 11.1816H297.467V12.7686H288.507V22.1924H286.578V12.7686H277.691V11.1816H292.291C292.584 9.79818 292.767 8.5612 292.84 7.4707C292.914 6.38021 292.95 5.14323 292.95 3.75977V3.44238H280.182V1.85547H294.854V3.75977Z" fill="#1A1A1A"/>
<path d="M272.053 5.44434H275.349V7.05566H272.053V12.7197H270.148V0.463867H272.053V5.44434ZM272.053 21.8506H258.308V13.916H272.053V21.8506ZM260.188 20.2881H270.197V15.4297H260.188V20.2881ZM258.063 9.44824C259.707 9.4401 261.331 9.36279 262.934 9.21631C264.537 9.06169 266.177 8.81348 267.854 8.47168L268.098 10.083C266.332 10.4329 264.619 10.6852 262.958 10.8398C261.298 10.9863 259.602 11.0596 257.868 11.0596H256.135V1.5625H258.063V9.44824Z" fill="#1A1A1A"/>
<path d="M249.446 6.10352H252.718V7.69043H249.446V13.4766H247.542V0.439453H249.446V6.10352ZM243.538 2.05078C243.538 3.86556 243.127 5.52572 242.305 7.03125C241.483 8.53678 240.307 9.83887 238.777 10.9375C237.247 12.028 235.424 12.8825 233.309 13.501L232.503 11.9385C234.244 11.4339 235.766 10.7747 237.068 9.96094C238.37 9.139 239.396 8.19092 240.145 7.1167C240.901 6.04248 241.345 4.88281 241.475 3.6377H233.455V2.05078H243.538ZM242.586 13.7207C244.035 13.7207 245.292 13.8916 246.358 14.2334C247.432 14.5671 248.254 15.0472 248.824 15.6738C249.402 16.3005 249.69 17.041 249.69 17.8955C249.69 18.7663 249.402 19.519 248.824 20.1538C248.254 20.7804 247.432 21.2606 246.358 21.5942C245.292 21.9279 244.035 22.0947 242.586 22.0947C241.146 22.0947 239.888 21.9279 238.814 21.5942C237.748 21.2606 236.922 20.7804 236.336 20.1538C235.758 19.519 235.473 18.7663 235.481 17.8955C235.473 17.041 235.758 16.3005 236.336 15.6738C236.922 15.0472 237.752 14.5671 238.826 14.2334C239.9 13.8916 241.154 13.7207 242.586 13.7207ZM242.586 15.2588C241.536 15.2507 240.617 15.3524 239.827 15.564C239.046 15.7756 238.44 16.0848 238.008 16.4917C237.585 16.8905 237.378 17.3584 237.386 17.8955C237.378 18.4326 237.585 18.9046 238.008 19.3115C238.431 19.7103 239.038 20.0155 239.827 20.2271C240.617 20.4468 241.536 20.5566 242.586 20.5566C243.644 20.5566 244.568 20.4468 245.357 20.2271C246.146 20.0155 246.757 19.7103 247.188 19.3115C247.619 18.9046 247.835 18.4326 247.835 17.8955C247.835 17.3584 247.619 16.8905 247.188 16.4917C246.757 16.0848 246.146 15.7756 245.357 15.564C244.568 15.3524 243.644 15.2507 242.586 15.2588Z" fill="#1A1A1A"/>
<path d="M210.312 6.27441C210.304 7.56022 210.565 8.83789 211.094 10.1074C211.623 11.3688 212.339 12.4919 213.242 13.4766C214.146 14.4613 215.13 15.1937 216.196 15.6738L215.024 17.1875C213.787 16.5771 212.664 15.6698 211.655 14.4653C210.654 13.2528 209.897 11.8774 209.385 10.3394C208.88 11.9751 208.123 13.4399 207.114 14.7339C206.105 16.0197 204.966 16.984 203.696 17.627L202.476 16.0156C203.542 15.5192 204.526 14.7664 205.43 13.7573C206.333 12.7401 207.053 11.5763 207.59 10.2661C208.127 8.94775 208.4 7.61719 208.408 6.27441V2.31934H210.312V6.27441ZM220.493 22.1924H218.564V0.439453H220.493V22.1924Z" fill="#1A1A1A"/>
<path d="M197.96 11.792H196.056V9.00879H190.929V10.9131H181.09V1.46484H182.994V4.58984H189.049V1.46484H190.929V3.56445H196.056V0.439453H197.96V11.792ZM197.96 17.9443H185.851V20.3125H198.79V21.8506H183.946V16.4795H196.056V14.3799H183.897V12.8418H197.96V17.9443ZM189.049 9.35059V6.10352H182.994V9.35059H189.049ZM196.056 7.49512V5.05371H190.929V7.49512H196.056Z" fill="#1A1A1A"/>
<path d="M177.16 13.4766H157.36V11.9385H177.16V13.4766ZM174.597 22.1436H172.644V17.1387H159.582V15.6006H174.597V22.1436ZM174.816 9.83887H159.997V1.02539H174.694V2.56348H161.926V4.63867H174.108V6.12793H161.926V8.34961H174.816V9.83887Z" fill="#1A1A1A"/>
<path d="M144.666 0.708008C146.277 0.708008 147.657 0.854492 148.804 1.14746C149.952 1.44043 150.826 1.86768 151.429 2.4292C152.031 2.99072 152.332 3.67025 152.332 4.46777C152.332 5.27344 152.031 5.95703 151.429 6.51855C150.826 7.08008 149.952 7.50732 148.804 7.80029C147.657 8.09326 146.277 8.24382 144.666 8.25195C143.055 8.24382 141.671 8.09326 140.516 7.80029C139.368 7.50732 138.489 7.08008 137.879 6.51855C137.277 5.95703 136.976 5.27344 136.976 4.46777C136.976 3.67025 137.277 2.99072 137.879 2.4292C138.489 1.86768 139.368 1.44043 140.516 1.14746C141.671 0.854492 143.055 0.708008 144.666 0.708008ZM144.666 2.17285C142.851 2.18913 141.447 2.39665 140.455 2.79541C139.462 3.19417 138.969 3.75163 138.978 4.46777C138.969 5.20833 139.458 5.77799 140.442 6.17676C141.435 6.56738 142.843 6.77083 144.666 6.78711C146.481 6.77083 147.885 6.56738 148.877 6.17676C149.878 5.77799 150.379 5.20833 150.379 4.46777C150.379 3.75163 149.874 3.19417 148.865 2.79541C147.864 2.39665 146.465 2.18913 144.666 2.17285ZM154.554 11.2305H145.594V13.2812H152.015V18.1396H139.124V20.3857H152.674V21.8994H137.22V16.7236H150.135V14.7461H137.171V13.2812H143.689V11.2305H134.778V9.69238H154.554V11.2305Z" fill="#1A1A1A"/>
<path d="M119.813 6.27441C119.813 7.56022 120.066 8.82975 120.57 10.083C121.075 11.3363 121.758 12.4512 122.621 13.4277C123.484 14.3962 124.436 15.1204 125.478 15.6006L124.33 17.1631C123.101 16.5283 122.003 15.5965 121.034 14.3677C120.066 13.1388 119.341 11.7513 118.861 10.2051C118.373 11.8408 117.645 13.3097 116.676 14.6118C115.716 15.9139 114.621 16.8945 113.393 17.5537L112.147 16.0156C113.197 15.5029 114.158 14.7339 115.028 13.7085C115.899 12.675 116.587 11.5072 117.091 10.2051C117.604 8.89486 117.86 7.58464 117.86 6.27441V2.31934H119.813V6.27441ZM130.165 22.1924H128.261V9.42383H123.109V7.86133H128.261V0.439453H130.165V22.1924Z" fill="#1A1A1A"/>
<path d="M78.29 22.6562H76.4834V0H78.29V22.6562Z" fill="#1A1A1A"/>
<path d="M42.6016 19.3115H22.7285V17.7246H31.6152V12.4023H33.4951V17.7246H42.6016V19.3115ZM33.5439 3.58887C33.5439 4.74447 33.9427 5.85531 34.7402 6.92139C35.5459 7.98747 36.5713 8.89079 37.8164 9.63135C39.0697 10.3638 40.3392 10.8398 41.625 11.0596L40.7705 12.6465C39.6475 12.4186 38.5448 12.0239 37.4624 11.4624C36.38 10.9009 35.4035 10.201 34.5327 9.36279C33.6701 8.52458 33.0109 7.60091 32.5552 6.5918C32.0994 7.60091 31.4403 8.52458 30.5776 9.36279C29.715 10.201 28.7425 10.9009 27.6602 11.4624C26.5859 12.0239 25.4873 12.4186 24.3643 12.6465L23.5098 11.0596C24.7956 10.8398 26.057 10.3638 27.2939 9.63135C28.5391 8.89079 29.5563 7.99154 30.3457 6.93359C31.1432 5.86751 31.542 4.7526 31.542 3.58887V1.92871H33.5439V3.58887Z" fill="#1A1A1A"/>
<path d="M7.4707 4.56543C7.4707 5.5013 7.69043 6.39648 8.12988 7.25098C8.57747 8.09733 9.20003 8.84603 9.99756 9.49707C10.8032 10.14 11.735 10.6364 12.793 10.9863L11.8896 12.5C10.6527 12.0931 9.57031 11.4787 8.64258 10.6567C7.72298 9.8348 7.02718 8.87044 6.55518 7.76367C6.09131 9.00879 5.37923 10.0993 4.41895 11.0352C3.45866 11.9629 2.32747 12.6628 1.02539 13.1348L0.0488281 11.5967C1.12305 11.2305 2.07926 10.6934 2.91748 9.98535C3.7557 9.27734 4.40674 8.4554 4.87061 7.51953C5.34261 6.57552 5.58268 5.59082 5.59082 4.56543V3.6377H0.634766V2.05078H12.3535V3.6377H7.4707V4.56543ZM17.0898 5.98145H20.3613V7.59277H17.0898V13.5498H15.1855V0.439453H17.0898V5.98145ZM10.1318 14.1357C11.613 14.1357 12.8906 14.2944 13.9648 14.6118C15.0391 14.9211 15.861 15.3727 16.4307 15.9668C17.0003 16.5609 17.2852 17.2689 17.2852 18.0908C17.2852 18.929 17.0003 19.6493 16.4307 20.2515C15.861 20.8537 15.0391 21.3094 13.9648 21.6187C12.8906 21.936 11.613 22.0947 10.1318 22.0947C8.65072 22.0947 7.36898 21.936 6.28662 21.6187C5.20426 21.3094 4.37419 20.8537 3.79639 20.2515C3.21859 19.6493 2.92969 18.929 2.92969 18.0908C2.92969 17.2689 3.21859 16.5609 3.79639 15.9668C4.37419 15.3727 5.20426 14.9211 6.28662 14.6118C7.36898 14.2944 8.65072 14.1357 10.1318 14.1357ZM10.1318 15.6738C9.04948 15.6738 8.10954 15.7715 7.31201 15.9668C6.51449 16.154 5.90413 16.4307 5.48096 16.7969C5.05778 17.1631 4.85026 17.5944 4.8584 18.0908C4.85026 18.6035 5.05778 19.047 5.48096 19.4214C5.90413 19.7876 6.51042 20.0684 7.2998 20.2637C8.09733 20.459 9.04134 20.5566 10.1318 20.5566C11.2305 20.5566 12.1745 20.459 12.9639 20.2637C13.7614 20.0684 14.3717 19.7876 14.7949 19.4214C15.2181 19.047 15.4297 18.6035 15.4297 18.0908C15.4297 17.5863 15.2181 17.1549 14.7949 16.7969C14.3717 16.4307 13.7614 16.154 12.9639 15.9668C12.1663 15.7715 11.2223 15.6738 10.1318 15.6738Z" fill="#1A1A1A"/>
<path d="M320.263 80.1592L326.22 94.71H326.439L332.396 80.1592H335.033V97.835H332.958V84.4805H332.787L327.294 97.835H325.341L319.848 84.4805H319.701V97.835H317.626V80.1592H320.263Z" fill="#1A1A1A"/>
<path d="M301.514 80.1592H307.52C308.854 80.1592 309.973 80.4033 310.876 80.8916C311.78 81.3799 312.451 82.0472 312.891 82.8936C313.33 83.7318 313.55 84.6921 313.55 85.7744C313.55 86.8486 313.33 87.813 312.891 88.6675C312.451 89.5138 311.78 90.1852 310.876 90.6816C309.981 91.1699 308.87 91.4141 307.544 91.4141H303.711V97.835H301.514V80.1592ZM307.446 89.4609C308.781 89.4609 309.77 89.1273 310.413 88.46C311.056 87.7845 311.377 86.8893 311.377 85.7744C311.377 84.6514 311.056 83.7603 310.413 83.1011C309.77 82.4419 308.773 82.1123 307.422 82.1123H303.711V89.4609H307.446Z" fill="#1A1A1A"/>
<path d="M291.114 98.0791C289.812 98.0791 288.697 97.7251 287.77 97.0171C286.85 96.3091 286.146 95.2756 285.658 93.9165C285.178 92.5575 284.938 90.9176 284.938 88.9971C284.938 87.1009 285.182 85.4733 285.67 84.1143C286.158 82.7471 286.866 81.7054 287.794 80.9893C288.722 80.2731 289.828 79.915 291.114 79.915C292.4 79.915 293.507 80.2731 294.435 80.9893C295.362 81.7054 296.07 82.7471 296.559 84.1143C297.047 85.4733 297.291 87.1009 297.291 88.9971C297.291 90.9176 297.047 92.5575 296.559 93.9165C296.078 95.2756 295.375 96.3091 294.447 97.0171C293.519 97.7251 292.408 98.0791 291.114 98.0791ZM291.114 96.126C291.961 96.126 292.685 95.8493 293.287 95.2959C293.889 94.7425 294.349 93.9328 294.667 92.8667C294.984 91.8006 295.143 90.5107 295.143 88.9971C295.143 87.4834 294.984 86.1895 294.667 85.1152C294.349 84.041 293.889 83.2231 293.287 82.6616C292.685 82.1001 291.961 81.8193 291.114 81.8193C290.268 81.8193 289.54 82.1001 288.929 82.6616C288.327 83.2231 287.863 84.041 287.538 85.1152C287.22 86.1895 287.062 87.4834 287.062 88.9971C287.062 90.5107 287.22 91.8006 287.538 92.8667C287.855 93.9328 288.315 94.7425 288.917 95.2959C289.527 95.8493 290.26 96.126 291.114 96.126Z" fill="#1A1A1A"/>
<path d="M275.222 98.0791C273.92 98.0791 272.805 97.7251 271.877 97.0171C270.957 96.3091 270.253 95.2756 269.765 93.9165C269.285 92.5575 269.045 90.9176 269.045 88.9971C269.045 87.1009 269.289 85.4733 269.777 84.1143C270.266 82.7471 270.974 81.7054 271.901 80.9893C272.829 80.2731 273.936 79.915 275.222 79.915C276.507 79.915 277.614 80.2731 278.542 80.9893C279.47 81.7054 280.178 82.7471 280.666 84.1143C281.154 85.4733 281.398 87.1009 281.398 88.9971C281.398 90.9176 281.154 92.5575 280.666 93.9165C280.186 95.2756 279.482 96.3091 278.554 97.0171C277.626 97.7251 276.516 98.0791 275.222 98.0791ZM275.222 96.126C276.068 96.126 276.792 95.8493 277.395 95.2959C277.997 94.7425 278.457 93.9328 278.774 92.8667C279.091 91.8006 279.25 90.5107 279.25 88.9971C279.25 87.4834 279.091 86.1895 278.774 85.1152C278.457 84.041 277.997 83.2231 277.395 82.6616C276.792 82.1001 276.068 81.8193 275.222 81.8193C274.375 81.8193 273.647 82.1001 273.037 82.6616C272.434 83.2231 271.971 84.041 271.645 85.1152C271.328 86.1895 271.169 87.4834 271.169 88.9971C271.169 90.5107 271.328 91.8006 271.645 92.8667C271.962 93.9328 272.422 94.7425 273.024 95.2959C273.635 95.8493 274.367 96.126 275.222 96.126Z" fill="#1A1A1A"/>
<path d="M263.601 95.4912C263.316 95.4912 263.052 95.422 262.808 95.2837C262.572 95.1372 262.381 94.9419 262.234 94.6978C262.096 94.4536 262.031 94.1891 262.039 93.9043C262.031 93.6276 262.096 93.3713 262.234 93.1353C262.381 92.8911 262.572 92.6999 262.808 92.5615C263.052 92.415 263.316 92.3418 263.601 92.3418C263.878 92.3418 264.134 92.415 264.37 92.5615C264.614 92.6999 264.806 92.8911 264.944 93.1353C265.091 93.3713 265.164 93.6276 265.164 93.9043C265.164 94.1891 265.091 94.4536 264.944 94.6978C264.806 94.9419 264.614 95.1372 264.37 95.2837C264.134 95.422 263.878 95.4912 263.601 95.4912ZM263.601 85.6768C263.316 85.6768 263.052 85.6076 262.808 85.4692C262.572 85.3228 262.381 85.1274 262.234 84.8833C262.096 84.6392 262.031 84.3747 262.039 84.0898C262.031 83.8132 262.096 83.5568 262.234 83.3208C262.381 83.0767 262.572 82.8854 262.808 82.7471C263.052 82.6006 263.316 82.5273 263.601 82.5273C263.878 82.5273 264.134 82.6006 264.37 82.7471C264.614 82.8854 264.806 83.0767 264.944 83.3208C265.091 83.5568 265.164 83.8132 265.164 84.0898C265.164 84.3747 265.091 84.6392 264.944 84.8833C264.806 85.1274 264.614 85.3228 264.37 85.4692C264.134 85.6076 263.878 85.6768 263.601 85.6768Z" fill="#1A1A1A"/>
<path d="M251.957 98.0791C250.818 98.0791 249.76 97.8228 248.783 97.3101C247.815 96.7892 247.017 95.9062 246.391 94.6611C245.772 93.4079 245.463 91.7477 245.463 89.6807C245.463 87.6217 245.731 85.8599 246.269 84.395C246.814 82.9302 247.587 81.8193 248.588 81.0625C249.597 80.2975 250.793 79.915 252.177 79.915C253.194 79.915 254.105 80.1104 254.911 80.501C255.725 80.8916 256.388 81.4409 256.901 82.1489C257.422 82.8569 257.759 83.6748 257.914 84.6025H255.741C255.521 83.7806 255.106 83.1214 254.496 82.625C253.894 82.1204 253.121 81.8682 252.177 81.8682C251.216 81.8682 250.386 82.1367 249.687 82.6738C248.995 83.2028 248.462 83.9718 248.087 84.981C247.721 85.9901 247.538 87.1986 247.538 88.6064H247.758C248.279 87.8659 248.93 87.2922 249.711 86.8853C250.492 86.4702 251.355 86.2627 252.299 86.2627C253.34 86.2627 254.301 86.515 255.18 87.0195C256.067 87.5241 256.767 88.224 257.279 89.1191C257.8 90.0062 258.061 91.0072 258.061 92.1221C258.061 93.2207 257.804 94.2257 257.292 95.1372C256.787 96.0405 256.071 96.7567 255.143 97.2856C254.215 97.8146 253.153 98.0791 251.957 98.0791ZM251.908 96.1504C252.657 96.1504 253.336 95.9714 253.947 95.6133C254.557 95.2552 255.037 94.771 255.387 94.1606C255.745 93.5422 255.928 92.8708 255.937 92.1465C255.928 91.4222 255.753 90.759 255.412 90.1567C255.07 89.5545 254.598 89.0785 253.996 88.7285C253.393 88.3704 252.714 88.1914 251.957 88.1914C251.2 88.1914 250.508 88.3745 249.882 88.7407C249.255 89.1069 248.759 89.5993 248.393 90.2178C248.026 90.8281 247.839 91.4792 247.831 92.1709C247.831 92.8626 248.006 93.5137 248.356 94.124C248.714 94.7344 249.202 95.2267 249.821 95.6011C250.447 95.9673 251.143 96.1504 251.908 96.1504Z" fill="#1A1A1A"/>
<path d="M234.283 89.9736H226.544V88.0449H234.283V89.9736Z" fill="#1A1A1A"/>
<path d="M200.008 80.1592L205.965 94.71H206.185L212.142 80.1592H214.778V97.835H212.703V84.4805H212.532L207.039 97.835H205.086L199.593 84.4805H199.446V97.835H197.371V80.1592H200.008Z" fill="#1A1A1A"/>
<path d="M178.72 97.835L185.189 80.1592H187.509L193.979 97.835H191.659L189.889 92.8545H182.785L181.015 97.835H178.72ZM189.218 90.9258L186.41 83.0156H186.264L183.456 90.9258H189.218Z" fill="#1A1A1A"/>
<path d="M169.834 98.0791C168.532 98.0791 167.417 97.7251 166.489 97.0171C165.57 96.3091 164.866 95.2756 164.377 93.9165C163.897 92.5575 163.657 90.9176 163.657 88.9971C163.657 87.1009 163.901 85.4733 164.39 84.1143C164.878 82.7471 165.586 81.7054 166.514 80.9893C167.441 80.2731 168.548 79.915 169.834 79.915C171.12 79.915 172.227 80.2731 173.154 80.9893C174.082 81.7054 174.79 82.7471 175.278 84.1143C175.767 85.4733 176.011 87.1009 176.011 88.9971C176.011 90.9176 175.767 92.5575 175.278 93.9165C174.798 95.2756 174.094 96.3091 173.167 97.0171C172.239 97.7251 171.128 98.0791 169.834 98.0791ZM169.834 96.126C170.68 96.126 171.405 95.8493 172.007 95.2959C172.609 94.7425 173.069 93.9328 173.386 92.8667C173.704 91.8006 173.862 90.5107 173.862 88.9971C173.862 87.4834 173.704 86.1895 173.386 85.1152C173.069 84.041 172.609 83.2231 172.007 82.6616C171.405 82.1001 170.68 81.8193 169.834 81.8193C168.988 81.8193 168.259 82.1001 167.649 82.6616C167.047 83.2231 166.583 84.041 166.257 85.1152C165.94 86.1895 165.781 87.4834 165.781 88.9971C165.781 90.5107 165.94 91.8006 166.257 92.8667C166.575 93.9328 167.035 94.7425 167.637 95.2959C168.247 95.8493 168.979 96.126 169.834 96.126Z" fill="#1A1A1A"/>
<path d="M153.941 98.0791C152.639 98.0791 151.524 97.7251 150.597 97.0171C149.677 96.3091 148.973 95.2756 148.485 93.9165C148.005 92.5575 147.765 90.9176 147.765 88.9971C147.765 87.1009 148.009 85.4733 148.497 84.1143C148.985 82.7471 149.693 81.7054 150.621 80.9893C151.549 80.2731 152.656 79.915 153.941 79.915C155.227 79.915 156.334 80.2731 157.262 80.9893C158.189 81.7054 158.897 82.7471 159.386 84.1143C159.874 85.4733 160.118 87.1009 160.118 88.9971C160.118 90.9176 159.874 92.5575 159.386 93.9165C158.906 95.2756 158.202 96.3091 157.274 97.0171C156.346 97.7251 155.235 98.0791 153.941 98.0791ZM153.941 96.126C154.788 96.126 155.512 95.8493 156.114 95.2959C156.716 94.7425 157.176 93.9328 157.494 92.8667C157.811 91.8006 157.97 90.5107 157.97 88.9971C157.97 87.4834 157.811 86.1895 157.494 85.1152C157.176 84.041 156.716 83.2231 156.114 82.6616C155.512 82.1001 154.788 81.8193 153.941 81.8193C153.095 81.8193 152.367 82.1001 151.756 82.6616C151.154 83.2231 150.69 84.041 150.365 85.1152C150.047 86.1895 149.889 87.4834 149.889 88.9971C149.889 90.5107 150.047 91.8006 150.365 92.8667C150.682 93.9328 151.142 94.7425 151.744 95.2959C152.354 95.8493 153.087 96.126 153.941 96.126Z" fill="#1A1A1A"/>
<path d="M142.321 95.4912C142.036 95.4912 141.772 95.422 141.528 95.2837C141.292 95.1372 141.1 94.9419 140.954 94.6978C140.815 94.4536 140.75 94.1891 140.758 93.9043C140.75 93.6276 140.815 93.3713 140.954 93.1353C141.1 92.8911 141.292 92.6999 141.528 92.5615C141.772 92.415 142.036 92.3418 142.321 92.3418C142.598 92.3418 142.854 92.415 143.09 92.5615C143.334 92.6999 143.525 92.8911 143.664 93.1353C143.81 93.3713 143.883 93.6276 143.883 93.9043C143.883 94.1891 143.81 94.4536 143.664 94.6978C143.525 94.9419 143.334 95.1372 143.09 95.2837C142.854 95.422 142.598 95.4912 142.321 95.4912ZM142.321 85.6768C142.036 85.6768 141.772 85.6076 141.528 85.4692C141.292 85.3228 141.1 85.1274 140.954 84.8833C140.815 84.6392 140.75 84.3747 140.758 84.0898C140.75 83.8132 140.815 83.5568 140.954 83.3208C141.1 83.0767 141.292 82.8854 141.528 82.7471C141.772 82.6006 142.036 82.5273 142.321 82.5273C142.598 82.5273 142.854 82.6006 143.09 82.7471C143.334 82.8854 143.525 83.0767 143.664 83.3208C143.81 83.5568 143.883 83.8132 143.883 84.0898C143.883 84.3747 143.81 84.6392 143.664 84.8833C143.525 85.1274 143.334 85.3228 143.09 85.4692C142.854 85.6076 142.598 85.6768 142.321 85.6768Z" fill="#1A1A1A"/>
<path d="M130.701 98.0791C129.399 98.0791 128.284 97.7251 127.356 97.0171C126.437 96.3091 125.733 95.2756 125.245 93.9165C124.764 92.5575 124.524 90.9176 124.524 88.9971C124.524 87.1009 124.769 85.4733 125.257 84.1143C125.745 82.7471 126.453 81.7054 127.381 80.9893C128.309 80.2731 129.415 79.915 130.701 79.915C131.987 79.915 133.094 80.2731 134.021 80.9893C134.949 81.7054 135.657 82.7471 136.146 84.1143C136.634 85.4733 136.878 87.1009 136.878 88.9971C136.878 90.9176 136.634 92.5575 136.146 93.9165C135.665 95.2756 134.961 96.3091 134.034 97.0171C133.106 97.7251 131.995 98.0791 130.701 98.0791ZM130.701 96.126C131.548 96.126 132.272 95.8493 132.874 95.2959C133.476 94.7425 133.936 93.9328 134.253 92.8667C134.571 91.8006 134.729 90.5107 134.729 88.9971C134.729 87.4834 134.571 86.1895 134.253 85.1152C133.936 84.041 133.476 83.2231 132.874 82.6616C132.272 82.1001 131.548 81.8193 130.701 81.8193C129.855 81.8193 129.126 82.1001 128.516 82.6616C127.914 83.2231 127.45 84.041 127.125 85.1152C126.807 86.1895 126.648 87.4834 126.648 88.9971C126.648 90.5107 126.807 91.8006 127.125 92.8667C127.442 93.9328 127.902 94.7425 128.504 95.2959C129.114 95.8493 129.847 96.126 130.701 96.126Z" fill="#1A1A1A"/>
<path d="M119.203 97.835H116.981V82.4541H116.884L112.587 85.3105V83.0889L116.981 80.1592H119.203V97.835Z" fill="#1A1A1A"/>
<path d="M78.29 100.325H76.4834V77.6689H78.29V100.325Z" fill="#1A1A1A"/>
<path d="M39.6963 84.7246H42.9678V86.3359H39.6963V94.002H37.7676V78.1084H39.6963V84.7246ZM33.8369 79.793C33.8369 81.624 33.4178 83.3045 32.5796 84.8345C31.7495 86.3644 30.5654 87.6909 29.0273 88.814C27.4974 89.937 25.6826 90.8281 23.583 91.4873L22.7529 89.9492C24.4863 89.404 26.0041 88.7082 27.3062 87.8618C28.6082 87.0073 29.6418 86.0348 30.4067 84.9443C31.1717 83.8457 31.6193 82.6657 31.7495 81.4043H23.6562V79.793H33.8369ZM40.6973 99.3486H26.0977V92.3906H28.002V97.7373H40.6973V99.3486Z" fill="#1A1A1A"/>
<path d="M7.83691 83.9434C7.82878 85.2292 8.08919 86.5068 8.61816 87.7764C9.14714 89.0378 9.86328 90.1608 10.7666 91.1455C11.6699 92.1302 12.6546 92.8626 13.7207 93.3428L12.5488 94.8564C11.3118 94.2461 10.1888 93.3387 9.17969 92.1343C8.17871 90.9217 7.42188 89.5464 6.90918 88.0083C6.40462 89.644 5.64779 91.1089 4.63867 92.4028C3.62956 93.6886 2.49023 94.653 1.2207 95.2959L0 93.6846C1.06608 93.1882 2.05078 92.4354 2.9541 91.4263C3.85742 90.409 4.57764 89.2453 5.11475 87.9351C5.65186 86.6167 5.92448 85.2861 5.93262 83.9434V79.9883H7.83691V83.9434ZM18.0176 99.8613H16.0889V78.1084H18.0176V99.8613Z" fill="#1A1A1A"/>
</svg>
