<svg width="540" height="104" viewBox="0 0 540 104" fill="none" xmlns="http://www.w3.org/2000/svg">
<path d="M526.031 41.2949C527.148 41.3034 528.147 41.5192 529.027 41.9424C529.916 42.3656 530.61 42.958 531.109 43.7197C531.617 44.473 531.871 45.332 531.871 46.2969C531.871 47.2617 531.617 48.125 531.109 48.8867C530.61 49.64 529.916 50.2282 529.027 50.6514C528.147 51.0661 527.148 51.2734 526.031 51.2734C524.897 51.2734 523.886 51.0661 522.997 50.6514C522.108 50.2282 521.414 49.64 520.915 48.8867C520.416 48.125 520.166 47.2617 520.166 46.2969C520.166 45.332 520.416 44.473 520.915 43.7197C521.414 42.958 522.108 42.3656 522.997 41.9424C523.886 41.5192 524.897 41.3034 526.031 41.2949ZM526.031 42.9707C525.286 42.9707 524.614 43.1146 524.013 43.4023C523.42 43.6816 522.955 44.0752 522.616 44.583C522.278 45.0824 522.113 45.6536 522.121 46.2969C522.113 46.9486 522.278 47.5283 522.616 48.0361C522.955 48.5439 523.42 48.9417 524.013 49.2295C524.614 49.5088 525.286 49.6484 526.031 49.6484C526.768 49.6484 527.432 49.5088 528.024 49.2295C528.625 48.9417 529.095 48.5439 529.434 48.0361C529.772 47.5283 529.941 46.9486 529.941 46.2969C529.941 45.6536 529.772 45.0824 529.434 44.583C529.095 44.0752 528.625 43.6816 528.024 43.4023C527.432 43.1146 526.768 42.9707 526.031 42.9707ZM538.27 52.0605H536.289V40.457H538.27V52.0605ZM538.27 58.5859H525.6V61.125H539.082V62.7246H523.645V57.0879H536.289V54.752H523.594V53.1523H538.27V58.5859Z" fill="#1A1A1A"/>
<path d="M502.724 55.3359L511.001 42.5898H513.819V55.209H516.384V57.2148H513.819V60.9727H511.636V57.2148H502.724V55.3359ZM511.636 55.209V45.4844H511.407L505.187 55.0566V55.209H511.636Z" fill="#1A1A1A"/>
<path d="M497.469 53.7871H495.463V52.543H490.893V51.2227H495.463V40.4824H497.469V53.7871ZM480.482 48.9883C485.755 48.9883 490.131 48.8021 493.609 48.4297L493.736 49.7246C491.739 50.0124 489.488 50.2197 486.982 50.3467V53.8633H485.027V50.4229C483.191 50.4652 481.608 50.4863 480.279 50.4863H479.01L478.781 48.9883H480.482ZM497.469 59.2715H484.291V61.3027H498.205V62.7754H482.336V57.875H495.488V56.0469H482.234V54.5996H497.469V59.2715ZM486.145 40.9141C487.253 40.9141 488.231 41.0537 489.077 41.333C489.924 41.6123 490.579 42.0101 491.045 42.5264C491.51 43.0342 491.747 43.6309 491.756 44.3164C491.747 45.0104 491.51 45.6113 491.045 46.1191C490.579 46.627 489.924 47.0163 489.077 47.2871C488.239 47.5579 487.262 47.6934 486.145 47.6934C485.01 47.6934 484.02 47.5579 483.174 47.2871C482.336 47.0163 481.684 46.627 481.219 46.1191C480.762 45.6113 480.533 45.0104 480.533 44.3164C480.533 43.6309 480.762 43.0342 481.219 42.5264C481.684 42.0101 482.34 41.6123 483.187 41.333C484.033 41.0537 485.019 40.9141 486.145 40.9141ZM486.145 42.3105C485.391 42.3105 484.731 42.3952 484.164 42.5645C483.597 42.7253 483.161 42.958 482.856 43.2627C482.552 43.5589 482.404 43.9102 482.412 44.3164C482.404 44.7142 482.552 45.0654 482.856 45.3701C483.161 45.6663 483.597 45.8991 484.164 46.0684C484.731 46.2376 485.391 46.3223 486.145 46.3223C486.889 46.3223 487.541 46.2376 488.1 46.0684C488.667 45.8991 489.103 45.6663 489.407 45.3701C489.72 45.0654 489.877 44.7142 489.877 44.3164C489.877 43.9102 489.72 43.5589 489.407 43.2627C489.103 42.958 488.667 42.7253 488.1 42.5645C487.541 42.3952 486.889 42.3105 486.145 42.3105Z" fill="#1A1A1A"/>
<path d="M463.345 59.2969L469.616 52.6953C470.446 51.8236 471.076 51.1211 471.508 50.5879C471.948 50.0462 472.278 49.5257 472.498 49.0264C472.727 48.5186 472.841 47.9896 472.841 47.4395C472.841 46.8301 472.68 46.2884 472.358 45.8145C472.037 45.3405 471.597 44.9723 471.038 44.71C470.488 44.4476 469.87 44.3164 469.185 44.3164C468.465 44.3164 467.835 44.4603 467.293 44.748C466.751 45.0358 466.332 45.4421 466.036 45.9668C465.748 46.4915 465.604 47.0924 465.604 47.7695H463.446C463.438 46.7031 463.683 45.7594 464.183 44.9385C464.69 44.1175 465.389 43.4785 466.277 43.0215C467.166 42.5645 468.16 42.3359 469.261 42.3359C470.353 42.3359 471.33 42.5602 472.193 43.0088C473.065 43.4574 473.746 44.071 474.237 44.8496C474.728 45.6283 474.974 46.4915 474.974 47.4395C474.974 48.1419 474.847 48.8148 474.593 49.458C474.339 50.0928 473.911 50.7995 473.311 51.5781C472.718 52.3483 471.868 53.3047 470.759 54.4473L466.544 58.7891V58.9414H475.304V60.9727H463.37L463.345 59.2969Z" fill="#1A1A1A"/>
<path d="M457.43 60.9727H455.119V44.9766H455.018L450.549 47.9473V45.6367L455.119 42.5898H457.43V60.9727Z" fill="#1A1A1A"/>
<path d="M437.754 57.1895H435.748V49.3691H429.248V47.7695H435.748V45.0527H429.248V43.4531H435.748V40.4824H437.754V57.1895ZM438.363 62.5469H423.205V55.7676H425.211V60.8711H438.363V62.5469ZM422.393 52.1367C424.102 52.1283 425.715 52.0648 427.229 51.9463C428.753 51.8278 430.323 51.6204 431.939 51.3242L432.143 52.9746C430.433 53.2962 428.791 53.5163 427.217 53.6348C425.651 53.7533 423.941 53.821 422.088 53.8379H420.387V42.1074H422.393V52.1367Z" fill="#1A1A1A"/>
<path d="M409.292 61.2266C408.2 61.2266 407.206 61.0192 406.309 60.6045C405.42 60.1813 404.709 59.6016 404.176 58.8652C403.651 58.1204 403.368 57.2826 403.325 56.3516H405.534C405.593 56.8932 405.797 57.3841 406.144 57.8242C406.491 58.2559 406.939 58.5986 407.489 58.8525C408.039 59.098 408.64 59.2207 409.292 59.2207C410.071 59.2207 410.773 59.043 411.399 58.6875C412.026 58.332 412.517 57.8454 412.872 57.2275C413.228 56.6097 413.405 55.9199 413.405 55.1582C413.405 54.3711 413.219 53.6644 412.847 53.0381C412.483 52.4033 411.975 51.9082 411.323 51.5527C410.68 51.1888 409.952 51.0026 409.14 50.9941C407.506 50.9688 406.364 51.5189 405.712 52.6445H403.503L404.798 42.5898H414.751V44.6211H406.702L406.017 50.0039H406.194C406.609 49.6823 407.113 49.4242 407.705 49.2295C408.298 49.0348 408.911 48.9375 409.546 48.9375C410.697 48.9375 411.734 49.2041 412.656 49.7373C413.587 50.262 414.315 50.9941 414.84 51.9336C415.373 52.873 415.64 53.931 415.64 55.1074C415.64 56.2754 415.365 57.3249 414.814 58.2559C414.264 59.1868 413.507 59.9147 412.542 60.4395C411.577 60.9642 410.494 61.2266 409.292 61.2266Z" fill="#1A1A1A"/>
<path d="M386.975 59.2969L393.246 52.6953C394.076 51.8236 394.706 51.1211 395.138 50.5879C395.578 50.0462 395.908 49.5257 396.128 49.0264C396.356 48.5186 396.471 47.9896 396.471 47.4395C396.471 46.8301 396.31 46.2884 395.988 45.8145C395.667 45.3405 395.227 44.9723 394.668 44.71C394.118 44.4476 393.5 44.3164 392.814 44.3164C392.095 44.3164 391.465 44.4603 390.923 44.748C390.381 45.0358 389.962 45.4421 389.666 45.9668C389.378 46.4915 389.234 47.0924 389.234 47.7695H387.076C387.068 46.7031 387.313 45.7594 387.812 44.9385C388.32 44.1175 389.019 43.4785 389.907 43.0215C390.796 42.5645 391.79 42.3359 392.891 42.3359C393.982 42.3359 394.96 42.5602 395.823 43.0088C396.695 43.4574 397.376 44.071 397.867 44.8496C398.358 45.6283 398.604 46.4915 398.604 47.4395C398.604 48.1419 398.477 48.8148 398.223 49.458C397.969 50.0928 397.541 50.7995 396.94 51.5781C396.348 52.3483 395.497 53.3047 394.389 54.4473L390.174 58.7891V58.9414H398.934V60.9727H387L386.975 59.2969Z" fill="#1A1A1A"/>
<path d="M376.489 61.2266C375.135 61.2266 373.976 60.8584 373.011 60.1221C372.054 59.3857 371.322 58.3109 370.814 56.8975C370.315 55.484 370.065 53.7786 370.065 51.7812C370.065 49.8092 370.319 48.1165 370.827 46.7031C371.335 45.2812 372.071 44.1979 373.036 43.4531C374.001 42.7083 375.152 42.3359 376.489 42.3359C377.826 42.3359 378.978 42.7083 379.942 43.4531C380.907 44.1979 381.644 45.2812 382.151 46.7031C382.659 48.1165 382.913 49.8092 382.913 51.7812C382.913 53.7786 382.659 55.484 382.151 56.8975C381.652 58.3109 380.92 59.3857 379.955 60.1221C378.99 60.8584 377.835 61.2266 376.489 61.2266ZM376.489 59.1953C377.369 59.1953 378.123 58.9076 378.749 58.332C379.375 57.7565 379.854 56.9144 380.184 55.8057C380.514 54.6969 380.679 53.3555 380.679 51.7812C380.679 50.207 380.514 48.8613 380.184 47.7441C379.854 46.627 379.375 45.7764 378.749 45.1924C378.123 44.6084 377.369 44.3164 376.489 44.3164C375.609 44.3164 374.852 44.6084 374.217 45.1924C373.59 45.7764 373.108 46.627 372.77 47.7441C372.439 48.8613 372.274 50.207 372.274 51.7812C372.274 53.3555 372.439 54.6969 372.77 55.8057C373.1 56.9144 373.578 57.7565 374.204 58.332C374.839 58.9076 375.601 59.1953 376.489 59.1953Z" fill="#1A1A1A"/>
<path d="M354.146 59.2969L360.418 52.6953C361.247 51.8236 361.878 51.1211 362.31 50.5879C362.75 50.0462 363.08 49.5257 363.3 49.0264C363.528 48.5186 363.643 47.9896 363.643 47.4395C363.643 46.8301 363.482 46.2884 363.16 45.8145C362.839 45.3405 362.398 44.9723 361.84 44.71C361.29 44.4476 360.672 44.3164 359.986 44.3164C359.267 44.3164 358.636 44.4603 358.095 44.748C357.553 45.0358 357.134 45.4421 356.838 45.9668C356.55 46.4915 356.406 47.0924 356.406 47.7695H354.248C354.24 46.7031 354.485 45.7594 354.984 44.9385C355.492 44.1175 356.19 43.4785 357.079 43.0215C357.968 42.5645 358.962 42.3359 360.062 42.3359C361.154 42.3359 362.132 42.5602 362.995 43.0088C363.867 43.4574 364.548 44.071 365.039 44.8496C365.53 45.6283 365.775 46.4915 365.775 47.4395C365.775 48.1419 365.648 48.8148 365.395 49.458C365.141 50.0928 364.713 50.7995 364.112 51.5781C363.52 52.3483 362.669 53.3047 361.561 54.4473L357.346 58.7891V58.9414H366.105V60.9727H354.172L354.146 59.2969Z" fill="#1A1A1A"/>
<path d="M342.24 52.7969H334.191V50.791H342.24V52.7969Z" fill="#1A1A1A"/>
<path d="M308.828 41.2949C309.945 41.3034 310.944 41.5192 311.824 41.9424C312.713 42.3656 313.407 42.958 313.906 43.7197C314.414 44.473 314.668 45.332 314.668 46.2969C314.668 47.2617 314.414 48.125 313.906 48.8867C313.407 49.64 312.713 50.2282 311.824 50.6514C310.944 51.0661 309.945 51.2734 308.828 51.2734C307.694 51.2734 306.683 51.0661 305.794 50.6514C304.905 50.2282 304.211 49.64 303.712 48.8867C303.213 48.125 302.963 47.2617 302.963 46.2969C302.963 45.332 303.213 44.473 303.712 43.7197C304.211 42.958 304.905 42.3656 305.794 41.9424C306.683 41.5192 307.694 41.3034 308.828 41.2949ZM308.828 42.9707C308.083 42.9707 307.41 43.1146 306.81 43.4023C306.217 43.6816 305.752 44.0752 305.413 44.583C305.075 45.0824 304.91 45.6536 304.918 46.2969C304.91 46.9486 305.075 47.5283 305.413 48.0361C305.752 48.5439 306.217 48.9417 306.81 49.2295C307.41 49.5088 308.083 49.6484 308.828 49.6484C309.564 49.6484 310.229 49.5088 310.821 49.2295C311.422 48.9417 311.892 48.5439 312.23 48.0361C312.569 47.5283 312.738 46.9486 312.738 46.2969C312.738 45.6536 312.569 45.0824 312.23 44.583C311.892 44.0752 311.422 43.6816 310.821 43.4023C310.229 43.1146 309.564 42.9707 308.828 42.9707ZM321.066 52.0605H319.086V40.457H321.066V52.0605ZM321.066 58.5859H308.396V61.125H321.879V62.7246H306.441V57.0879H319.086V54.752H306.391V53.1523H321.066V58.5859Z" fill="#1A1A1A"/>
<path d="M286.917 59.2969L293.188 52.6953C294.018 51.8236 294.648 51.1211 295.08 50.5879C295.52 50.0462 295.85 49.5257 296.07 49.0264C296.299 48.5186 296.413 47.9896 296.413 47.4395C296.413 46.8301 296.252 46.2884 295.931 45.8145C295.609 45.3405 295.169 44.9723 294.61 44.71C294.06 44.4476 293.442 44.3164 292.757 44.3164C292.037 44.3164 291.407 44.4603 290.865 44.748C290.324 45.0358 289.905 45.4421 289.608 45.9668C289.321 46.4915 289.177 47.0924 289.177 47.7695H287.019C287.01 46.7031 287.256 45.7594 287.755 44.9385C288.263 44.1175 288.961 43.4785 289.85 43.0215C290.738 42.5645 291.733 42.3359 292.833 42.3359C293.925 42.3359 294.902 42.5602 295.766 43.0088C296.637 43.4574 297.319 44.071 297.81 44.8496C298.3 45.6283 298.546 46.4915 298.546 47.4395C298.546 48.1419 298.419 48.8148 298.165 49.458C297.911 50.0928 297.484 50.7995 296.883 51.5781C296.29 52.3483 295.44 53.3047 294.331 54.4473L290.116 58.7891V58.9414H298.876V60.9727H286.942L286.917 59.2969Z" fill="#1A1A1A"/>
<path d="M270.617 59.2969L276.889 52.6953C277.718 51.8236 278.349 51.1211 278.78 50.5879C279.22 50.0462 279.55 49.5257 279.771 49.0264C279.999 48.5186 280.113 47.9896 280.113 47.4395C280.113 46.8301 279.952 46.2884 279.631 45.8145C279.309 45.3405 278.869 44.9723 278.311 44.71C277.76 44.4476 277.143 44.3164 276.457 44.3164C275.738 44.3164 275.107 44.4603 274.565 44.748C274.024 45.0358 273.605 45.4421 273.309 45.9668C273.021 46.4915 272.877 47.0924 272.877 47.7695H270.719C270.71 46.7031 270.956 45.7594 271.455 44.9385C271.963 44.1175 272.661 43.4785 273.55 43.0215C274.438 42.5645 275.433 42.3359 276.533 42.3359C277.625 42.3359 278.603 42.5602 279.466 43.0088C280.338 43.4574 281.019 44.071 281.51 44.8496C282.001 45.6283 282.246 46.4915 282.246 47.4395C282.246 48.1419 282.119 48.8148 281.865 49.458C281.611 50.0928 281.184 50.7995 280.583 51.5781C279.991 52.3483 279.14 53.3047 278.031 54.4473L273.816 58.7891V58.9414H282.576V60.9727H270.643L270.617 59.2969Z" fill="#1A1A1A"/>
<path d="M257.365 53.7871H255.359V52.543H250.789V51.2227H255.359V40.4824H257.365V53.7871ZM240.379 48.9883C245.652 48.9883 250.027 48.8021 253.506 48.4297L253.633 49.7246C251.635 50.0124 249.384 50.2197 246.879 50.3467V53.8633H244.924V50.4229C243.087 50.4652 241.505 50.4863 240.176 50.4863H238.906L238.678 48.9883H240.379ZM257.365 59.2715H244.188V61.3027H258.102V62.7754H242.232V57.875H255.385V56.0469H242.131V54.5996H257.365V59.2715ZM246.041 40.9141C247.15 40.9141 248.127 41.0537 248.974 41.333C249.82 41.6123 250.476 42.0101 250.941 42.5264C251.407 43.0342 251.644 43.6309 251.652 44.3164C251.644 45.0104 251.407 45.6113 250.941 46.1191C250.476 46.627 249.82 47.0163 248.974 47.2871C248.136 47.5579 247.158 47.6934 246.041 47.6934C244.907 47.6934 243.917 47.5579 243.07 47.2871C242.232 47.0163 241.581 46.627 241.115 46.1191C240.658 45.6113 240.43 45.0104 240.43 44.3164C240.43 43.6309 240.658 43.0342 241.115 42.5264C241.581 42.0101 242.237 41.6123 243.083 41.333C243.929 41.0537 244.915 40.9141 246.041 40.9141ZM246.041 42.3105C245.288 42.3105 244.628 42.3952 244.061 42.5645C243.493 42.7253 243.058 42.958 242.753 43.2627C242.448 43.5589 242.3 43.9102 242.309 44.3164C242.3 44.7142 242.448 45.0654 242.753 45.3701C243.058 45.6663 243.493 45.8991 244.061 46.0684C244.628 46.2376 245.288 46.3223 246.041 46.3223C246.786 46.3223 247.438 46.2376 247.996 46.0684C248.563 45.8991 248.999 45.6663 249.304 45.3701C249.617 45.0654 249.773 44.7142 249.773 44.3164C249.773 43.9102 249.617 43.5589 249.304 43.2627C248.999 42.958 248.563 42.7253 247.996 42.5645C247.438 42.3952 246.786 42.3105 246.041 42.3105Z" fill="#1A1A1A"/>
<path d="M233.626 60.9727H231.315V44.9766H231.214L226.745 47.9473V45.6367L231.315 42.5898H233.626V60.9727Z" fill="#1A1A1A"/>
<path d="M221.186 60.9727H218.875V44.9766H218.773L214.305 47.9473V45.6367L218.875 42.5898H221.186V60.9727Z" fill="#1A1A1A"/>
<path d="M201.51 57.1895H199.504V49.3691H193.004V47.7695H199.504V45.0527H193.004V43.4531H199.504V40.4824H201.51V57.1895ZM202.119 62.5469H186.961V55.7676H188.967V60.8711H202.119V62.5469ZM186.148 52.1367C187.858 52.1283 189.47 52.0648 190.985 51.9463C192.509 51.8278 194.079 51.6204 195.695 51.3242L195.898 52.9746C194.189 53.2962 192.547 53.5163 190.973 53.6348C189.407 53.7533 187.697 53.821 185.844 53.8379H184.143V42.1074H186.148V52.1367Z" fill="#1A1A1A"/>
<path d="M173.048 61.2266C171.956 61.2266 170.962 61.0192 170.064 60.6045C169.176 60.1813 168.465 59.6016 167.932 58.8652C167.407 58.1204 167.123 57.2826 167.081 56.3516H169.29C169.349 56.8932 169.552 57.3841 169.899 57.8242C170.246 58.2559 170.695 58.5986 171.245 58.8525C171.795 59.098 172.396 59.2207 173.048 59.2207C173.826 59.2207 174.529 59.043 175.155 58.6875C175.782 58.332 176.272 57.8454 176.628 57.2275C176.983 56.6097 177.161 55.9199 177.161 55.1582C177.161 54.3711 176.975 53.6644 176.603 53.0381C176.239 52.4033 175.731 51.9082 175.079 51.5527C174.436 51.1888 173.708 51.0026 172.896 50.9941C171.262 50.9688 170.119 51.5189 169.468 52.6445H167.259L168.554 42.5898H178.507V44.6211H170.458L169.772 50.0039H169.95C170.365 49.6823 170.868 49.4242 171.461 49.2295C172.053 49.0348 172.667 48.9375 173.302 48.9375C174.453 48.9375 175.49 49.2041 176.412 49.7373C177.343 50.262 178.071 50.9941 178.596 51.9336C179.129 52.873 179.396 53.931 179.396 55.1074C179.396 56.2754 179.12 57.3249 178.57 58.2559C178.02 59.1868 177.263 59.9147 176.298 60.4395C175.333 60.9642 174.25 61.2266 173.048 61.2266Z" fill="#1A1A1A"/>
<path d="M150.73 59.2969L157.002 52.6953C157.831 51.8236 158.462 51.1211 158.894 50.5879C159.334 50.0462 159.664 49.5257 159.884 49.0264C160.112 48.5186 160.227 47.9896 160.227 47.4395C160.227 46.8301 160.066 46.2884 159.744 45.8145C159.423 45.3405 158.982 44.9723 158.424 44.71C157.874 44.4476 157.256 44.3164 156.57 44.3164C155.851 44.3164 155.22 44.4603 154.679 44.748C154.137 45.0358 153.718 45.4421 153.422 45.9668C153.134 46.4915 152.99 47.0924 152.99 47.7695H150.832C150.824 46.7031 151.069 45.7594 151.568 44.9385C152.076 44.1175 152.774 43.4785 153.663 43.0215C154.552 42.5645 155.546 42.3359 156.646 42.3359C157.738 42.3359 158.716 42.5602 159.579 43.0088C160.451 43.4574 161.132 44.071 161.623 44.8496C162.114 45.6283 162.359 46.4915 162.359 47.4395C162.359 48.1419 162.232 48.8148 161.979 49.458C161.725 50.0928 161.297 50.7995 160.696 51.5781C160.104 52.3483 159.253 53.3047 158.145 54.4473L153.93 58.7891V58.9414H162.689V60.9727H150.756L150.73 59.2969Z" fill="#1A1A1A"/>
<path d="M140.246 61.2266C138.892 61.2266 137.732 60.8584 136.768 60.1221C135.811 59.3857 135.079 58.3109 134.571 56.8975C134.072 55.484 133.822 53.7786 133.822 51.7812C133.822 49.8092 134.076 48.1165 134.584 46.7031C135.092 45.2812 135.828 44.1979 136.793 43.4531C137.758 42.7083 138.909 42.3359 140.246 42.3359C141.583 42.3359 142.734 42.7083 143.699 43.4531C144.664 44.1979 145.4 45.2812 145.908 46.7031C146.416 48.1165 146.67 49.8092 146.67 51.7812C146.67 53.7786 146.416 55.484 145.908 56.8975C145.409 58.3109 144.677 59.3857 143.712 60.1221C142.747 60.8584 141.592 61.2266 140.246 61.2266ZM140.246 59.1953C141.126 59.1953 141.88 58.9076 142.506 58.332C143.132 57.7565 143.61 56.9144 143.94 55.8057C144.271 54.6969 144.436 53.3555 144.436 51.7812C144.436 50.207 144.271 48.8613 143.94 47.7441C143.61 46.627 143.132 45.7764 142.506 45.1924C141.88 44.6084 141.126 44.3164 140.246 44.3164C139.366 44.3164 138.608 44.6084 137.974 45.1924C137.347 45.7764 136.865 46.627 136.526 47.7441C136.196 48.8613 136.031 50.207 136.031 51.7812C136.031 53.3555 136.196 54.6969 136.526 55.8057C136.856 56.9144 137.335 57.7565 137.961 58.332C138.596 58.9076 139.357 59.1953 140.246 59.1953Z" fill="#1A1A1A"/>
<path d="M117.903 59.2969L124.175 52.6953C125.004 51.8236 125.635 51.1211 126.066 50.5879C126.507 50.0462 126.837 49.5257 127.057 49.0264C127.285 48.5186 127.399 47.9896 127.399 47.4395C127.399 46.8301 127.239 46.2884 126.917 45.8145C126.595 45.3405 126.155 44.9723 125.597 44.71C125.047 44.4476 124.429 44.3164 123.743 44.3164C123.024 44.3164 122.393 44.4603 121.852 44.748C121.31 45.0358 120.891 45.4421 120.595 45.9668C120.307 46.4915 120.163 47.0924 120.163 47.7695H118.005C117.996 46.7031 118.242 45.7594 118.741 44.9385C119.249 44.1175 119.947 43.4785 120.836 43.0215C121.725 42.5645 122.719 42.3359 123.819 42.3359C124.911 42.3359 125.889 42.5602 126.752 43.0088C127.624 43.4574 128.305 44.071 128.796 44.8496C129.287 45.6283 129.532 46.4915 129.532 47.4395C129.532 48.1419 129.405 48.8148 129.151 49.458C128.897 50.0928 128.47 50.7995 127.869 51.5781C127.277 52.3483 126.426 53.3047 125.317 54.4473L121.103 58.7891V58.9414H129.862V60.9727H117.929L117.903 59.2969Z" fill="#1A1A1A"/>
<path d="M81.8789 63.5625H80V40H81.8789V63.5625Z" fill="#1A1A1A"/>
<path d="M42.8584 48.9121H45.4482V51.6035H42.8584V63.3086H39.6084V56.1357L37.6279 58.4082C36.2738 57.3418 35.2962 55.6914 34.6953 53.457C34.0267 55.8014 32.9476 57.5111 31.458 58.5859C30.0023 57.5195 28.9401 55.8226 28.2715 53.4951C27.6706 55.721 26.693 57.3587 25.3389 58.4082L23.3076 56.0469C24.2217 55.3698 24.9242 54.5023 25.415 53.4443C25.9144 52.3864 26.2487 51.2523 26.418 50.042C26.5872 48.8317 26.6761 47.4818 26.6846 45.9922V44.7988H24.2217V42.209H31.0771V44.7988H29.7314V45.9922C29.7314 47.6595 29.8499 49.1914 30.0869 50.5879C30.3324 51.9759 30.7979 53.2116 31.4834 54.2949C32.1605 53.2116 32.6217 51.9717 32.8672 50.5752C33.1126 49.1702 33.2354 47.6426 33.2354 45.9922V44.7988H31.8896V42.209H38.3896V44.7988H36.333V45.9922C36.3245 47.4564 36.4007 48.7979 36.5615 50.0166C36.7308 51.2269 37.0566 52.3568 37.5391 53.4062C38.0215 54.4557 38.7113 55.319 39.6084 55.9961V40.2031H42.8584V48.9121Z" fill="#1A1A1A"/>
<path d="M18.6875 44.5195H21.8105V47.1855H18.6875V51.6289H15.4375V40.2031H18.6875V44.5195ZM4.54492 48.3027C7.61719 48.2604 10.6048 47.9557 13.5078 47.3887L13.8887 50.0293C10.7148 50.6556 7.35482 50.9688 3.80859 50.9688H3.27539H1.29492V41.2188H4.54492V48.3027ZM18.6875 58.9414H6.62695V60.4648H19.3477V63.0547H3.40234V56.5039H15.4121V55.1074H3.35156V52.5684H18.6875V58.9414Z" fill="#1A1A1A"/>
<path d="M458.095 21.2266C456.884 21.2266 455.801 21.0234 454.845 20.6172C453.897 20.2109 453.144 19.6396 452.585 18.9033C452.035 18.167 451.739 17.3164 451.696 16.3516H454.007C454.049 16.9186 454.252 17.418 454.616 17.8496C454.989 18.2812 455.475 18.6156 456.076 18.8525C456.677 19.0811 457.341 19.1953 458.069 19.1953C458.865 19.1953 459.58 19.0599 460.215 18.7891C460.858 18.5098 461.357 18.1289 461.713 17.6465C462.077 17.1556 462.259 16.597 462.259 15.9707C462.259 15.2936 462.081 14.6969 461.726 14.1807C461.379 13.6644 460.871 13.2624 460.202 12.9746C459.534 12.6868 458.729 12.543 457.79 12.543H456.292V10.5371H457.79C458.526 10.5371 459.182 10.4059 459.758 10.1436C460.333 9.88118 460.778 9.51302 461.091 9.03906C461.412 8.5651 461.573 8.01497 461.573 7.38867C461.573 6.78776 461.429 6.25456 461.142 5.78906C460.862 5.32357 460.465 4.96387 459.948 4.70996C459.432 4.44759 458.831 4.31641 458.146 4.31641C457.485 4.31641 456.868 4.4349 456.292 4.67188C455.716 4.90885 455.247 5.2474 454.883 5.6875C454.519 6.11914 454.32 6.62695 454.286 7.21094H452.077C452.119 6.26302 452.416 5.4209 452.966 4.68457C453.516 3.93978 454.248 3.36426 455.162 2.95801C456.076 2.54329 457.079 2.33594 458.171 2.33594C459.305 2.33594 460.295 2.56022 461.142 3.00879C461.996 3.44889 462.652 4.04557 463.109 4.79883C463.566 5.55208 463.791 6.37305 463.782 7.26172C463.791 8.29427 463.516 9.17871 462.957 9.91504C462.398 10.6514 461.632 11.1549 460.659 11.4258V11.5527C461.446 11.6797 462.128 11.9463 462.703 12.3525C463.287 12.7503 463.731 13.2624 464.036 13.8887C464.349 14.5065 464.502 15.2005 464.493 15.9707C464.502 16.9609 464.227 17.8581 463.668 18.6621C463.109 19.4577 462.339 20.084 461.357 20.541C460.384 20.998 459.297 21.2266 458.095 21.2266Z" fill="#1A1A1A"/>
<path d="M445.807 20.9727H443.496V4.97656H443.395L438.926 7.94727V5.63672L443.496 2.58984H445.807V20.9727Z" fill="#1A1A1A"/>
<path d="M428.745 21.2266C427.653 21.2266 426.659 21.0192 425.762 20.6045C424.873 20.1813 424.162 19.6016 423.629 18.8652C423.104 18.1204 422.821 17.2826 422.778 16.3516H424.987C425.047 16.8932 425.25 17.3841 425.597 17.8242C425.944 18.2559 426.392 18.5986 426.942 18.8525C427.493 19.098 428.093 19.2207 428.745 19.2207C429.524 19.2207 430.226 19.043 430.853 18.6875C431.479 18.332 431.97 17.8454 432.325 17.2275C432.681 16.6097 432.858 15.9199 432.858 15.1582C432.858 14.3711 432.672 13.6644 432.3 13.0381C431.936 12.4033 431.428 11.9082 430.776 11.5527C430.133 11.1888 429.405 11.0026 428.593 10.9941C426.959 10.9688 425.817 11.5189 425.165 12.6445H422.956L424.251 2.58984H434.204V4.62109H426.155L425.47 10.0039H425.647C426.062 9.68229 426.566 9.42415 427.158 9.22949C427.751 9.03483 428.364 8.9375 428.999 8.9375C430.15 8.9375 431.187 9.2041 432.109 9.7373C433.04 10.262 433.768 10.9941 434.293 11.9336C434.826 12.873 435.093 13.931 435.093 15.1074C435.093 16.2754 434.818 17.3249 434.268 18.2559C433.717 19.1868 432.96 19.9147 431.995 20.4395C431.03 20.9642 429.947 21.2266 428.745 21.2266Z" fill="#1A1A1A"/>
<path d="M411.532 20.2363H390.864V18.5605H400.157V14.2949H393.454V7.33789H406.962V3.7832H393.403V2.13281H408.917V8.96289H395.435V12.6445H409.45V14.2949H402.112V18.5605H411.532V20.2363Z" fill="#1A1A1A"/>
<path d="M386.65 23.0293H384.746V11.1973H381.42V21.8613H379.592V0.964844H381.42V9.54688H384.746V0.457031H386.65V23.0293ZM376.646 4.875H370.172V15.7422C371.839 15.7337 373.253 15.6872 374.412 15.6025C375.58 15.5094 376.757 15.3444 377.941 15.1074L378.119 16.7832C376.833 17.0456 375.563 17.2233 374.311 17.3164C373.066 17.401 371.509 17.4434 369.639 17.4434H368.191V3.22461H376.646V4.875Z" fill="#1A1A1A"/>
<path d="M364.435 13.2285H343.843V11.6289H353.161V8.98828H346.458V1.52344H361.87V3.12305H348.413V7.36328H362.022V8.98828H355.091V11.6289H364.435V13.2285ZM354.126 14.8789C355.734 14.8789 357.118 15.0397 358.277 15.3613C359.445 15.6745 360.338 16.1357 360.956 16.7451C361.574 17.3545 361.887 18.0866 361.896 18.9414C361.887 19.8047 361.574 20.541 360.956 21.1504C360.338 21.7598 359.45 22.221 358.29 22.5342C357.131 22.8558 355.743 23.0208 354.126 23.0293C352.501 23.0208 351.104 22.8558 349.937 22.5342C348.769 22.221 347.876 21.7598 347.258 21.1504C346.64 20.541 346.331 19.8047 346.331 18.9414C346.331 18.0866 346.64 17.3545 347.258 16.7451C347.876 16.1357 348.769 15.6745 349.937 15.3613C351.104 15.0397 352.501 14.8789 354.126 14.8789ZM354.126 16.4531C352.924 16.4531 351.887 16.5547 351.016 16.7578C350.152 16.9525 349.492 17.236 349.035 17.6084C348.578 17.9808 348.354 18.4251 348.362 18.9414C348.354 19.4661 348.578 19.9147 349.035 20.2871C349.492 20.6595 350.152 20.943 351.016 21.1377C351.887 21.3324 352.924 21.4297 354.126 21.4297C355.319 21.4297 356.348 21.3324 357.211 21.1377C358.074 20.943 358.734 20.6595 359.191 20.2871C359.657 19.9062 359.89 19.4577 359.89 18.9414C359.89 18.4251 359.657 17.9808 359.191 17.6084C358.734 17.236 358.07 16.9525 357.198 16.7578C356.335 16.5547 355.311 16.4531 354.126 16.4531Z" fill="#1A1A1A"/>
<path d="M326.553 1.82812C327.492 1.81966 328.355 1.9847 329.143 2.32324C329.938 2.65332 330.598 3.12305 331.123 3.73242H337.039V0.457031H339.045V13.8379H337.039V10.6133H331.136C330.603 11.2227 329.938 11.6966 329.143 12.0352C328.355 12.3652 327.492 12.526 326.553 12.5176C325.436 12.526 324.433 12.306 323.544 11.8574C322.655 11.4004 321.957 10.7656 321.449 9.95312C320.941 9.14062 320.688 8.2181 320.688 7.18555C320.688 6.14453 320.941 5.21777 321.449 4.40527C321.957 3.58431 322.655 2.94954 323.544 2.50098C324.433 2.04395 325.436 1.81966 326.553 1.82812ZM326.553 3.55469C325.791 3.54622 325.11 3.69857 324.509 4.01172C323.908 4.31641 323.438 4.74805 323.1 5.30664C322.761 5.85677 322.592 6.48307 322.592 7.18555C322.592 7.87956 322.761 8.50163 323.1 9.05176C323.438 9.60189 323.908 10.0335 324.509 10.3467C325.11 10.6598 325.791 10.8164 326.553 10.8164C327.289 10.8164 327.953 10.6598 328.546 10.3467C329.147 10.0335 329.617 9.60189 329.955 9.05176C330.294 8.50163 330.463 7.87956 330.463 7.18555C330.463 6.48307 330.294 5.85677 329.955 5.30664C329.617 4.74805 329.147 4.31641 328.546 4.01172C327.953 3.69857 327.289 3.54622 326.553 3.55469ZM331.555 14.3711C333.112 14.3711 334.458 14.5404 335.592 14.8789C336.726 15.2174 337.598 15.7083 338.207 16.3516C338.816 16.9948 339.121 17.765 339.121 18.6621C339.121 19.5677 338.816 20.3421 338.207 20.9854C337.598 21.637 336.726 22.1322 335.592 22.4707C334.458 22.8092 333.112 22.9785 331.555 22.9785C329.989 22.9785 328.639 22.8092 327.505 22.4707C326.371 22.1322 325.499 21.637 324.89 20.9854C324.289 20.3421 323.988 19.5677 323.988 18.6621C323.988 17.765 324.289 16.9948 324.89 16.3516C325.499 15.7083 326.371 15.2174 327.505 14.8789C328.647 14.5404 329.997 14.3711 331.555 14.3711ZM331.555 15.9199C330.412 15.9199 329.418 16.0299 328.571 16.25C327.725 16.4701 327.073 16.7874 326.616 17.2021C326.168 17.6169 325.943 18.1035 325.943 18.6621C325.943 19.2207 326.168 19.7074 326.616 20.1221C327.073 20.5283 327.725 20.8372 328.571 21.0488C329.418 21.2689 330.412 21.3789 331.555 21.3789C332.706 21.3789 333.7 21.2689 334.538 21.0488C335.384 20.8372 336.032 20.5283 336.48 20.1221C336.938 19.7074 337.166 19.2207 337.166 18.6621C337.166 18.0951 336.938 17.6084 336.48 17.2021C336.032 16.7874 335.384 16.4701 334.538 16.25C333.7 16.0299 332.706 15.9199 331.555 15.9199ZM332.075 5.35742C332.287 5.94141 332.393 6.55078 332.393 7.18555C332.393 7.78646 332.291 8.37891 332.088 8.96289H337.039V5.35742H332.075Z" fill="#1A1A1A"/>
<path d="M307.105 3.91016C307.105 5.36589 307.067 6.65658 306.991 7.78223C306.924 8.90788 306.746 10.1901 306.458 11.6289H309.822V13.2793H300.504V23.0801H298.498V13.2793H289.256V11.6289H304.439C304.744 10.1901 304.935 8.90365 305.011 7.76953C305.087 6.63542 305.125 5.34896 305.125 3.91016V3.58008H291.846V1.92969H307.105V3.91016Z" fill="#1A1A1A"/>
<path d="M283.392 5.66211H286.819V7.33789H283.392V13.2285H281.411V0.482422H283.392V5.66211ZM283.392 22.7246H269.097V14.4727H283.392V22.7246ZM271.052 21.0996H281.462V16.0469H271.052V21.0996ZM268.843 9.82617C270.552 9.81771 272.241 9.7373 273.908 9.58496C275.576 9.42415 277.281 9.16602 279.024 8.81055L279.278 10.4863C277.442 10.8503 275.66 11.1126 273.934 11.2734C272.207 11.4258 270.442 11.502 268.64 11.502H266.837V1.625H268.843V9.82617Z" fill="#1A1A1A"/>
<path d="M259.881 6.34766H263.283V7.99805H259.881V14.0156H257.9V0.457031H259.881V6.34766ZM253.736 2.13281C253.736 4.02018 253.309 5.74674 252.454 7.3125C251.599 8.87826 250.376 10.2324 248.785 11.375C247.194 12.5091 245.298 13.3978 243.098 14.041L242.26 12.416C244.071 11.8913 245.654 11.2057 247.008 10.3594C248.362 9.50456 249.428 8.51855 250.207 7.40137C250.994 6.28418 251.455 5.07812 251.591 3.7832H243.25V2.13281H253.736ZM252.746 14.2695C254.253 14.2695 255.56 14.4473 256.669 14.8027C257.786 15.1497 258.641 15.6491 259.233 16.3008C259.834 16.9525 260.135 17.7227 260.135 18.6113C260.135 19.5169 259.834 20.2998 259.233 20.96C258.641 21.6117 257.786 22.111 256.669 22.458C255.56 22.805 254.253 22.9785 252.746 22.9785C251.248 22.9785 249.94 22.805 248.823 22.458C247.715 22.111 246.855 21.6117 246.246 20.96C245.645 20.2998 245.349 19.5169 245.357 18.6113C245.349 17.7227 245.645 16.9525 246.246 16.3008C246.855 15.6491 247.719 15.1497 248.836 14.8027C249.953 14.4473 251.257 14.2695 252.746 14.2695ZM252.746 15.8691C251.654 15.8607 250.698 15.9665 249.877 16.1865C249.064 16.4066 248.434 16.7282 247.985 17.1514C247.545 17.5661 247.329 18.0527 247.338 18.6113C247.329 19.1699 247.545 19.6608 247.985 20.084C248.425 20.4987 249.056 20.8161 249.877 21.0361C250.698 21.2646 251.654 21.3789 252.746 21.3789C253.846 21.3789 254.807 21.2646 255.628 21.0361C256.449 20.8161 257.084 20.4987 257.532 20.084C257.981 19.6608 258.205 19.1699 258.205 18.6113C258.205 18.0527 257.981 17.5661 257.532 17.1514C257.084 16.7282 256.449 16.4066 255.628 16.1865C254.807 15.9665 253.846 15.8607 252.746 15.8691Z" fill="#1A1A1A"/>
<path d="M219.182 6.52539C219.173 7.86263 219.444 9.19141 219.994 10.5117C220.544 11.8236 221.289 12.9915 222.229 14.0156C223.168 15.0397 224.192 15.8014 225.301 16.3008L224.082 17.875C222.796 17.2402 221.628 16.2965 220.578 15.0439C219.537 13.7829 218.75 12.3525 218.217 10.7529C217.692 12.4541 216.905 13.9775 215.855 15.3232C214.806 16.6605 213.621 17.6634 212.301 18.332L211.031 16.6562C212.14 16.14 213.164 15.3571 214.104 14.3076C215.043 13.2497 215.792 12.0394 216.351 10.6768C216.909 9.30566 217.193 7.92188 217.201 6.52539V2.41211H219.182V6.52539ZM229.77 23.0801H227.764V0.457031H229.77V23.0801Z" fill="#1A1A1A"/>
<path d="M206.335 12.2637H204.354V9.36914H199.022V11.3496H188.79V1.52344H190.771V4.77344H197.067V1.52344H199.022V3.70703H204.354V0.457031H206.335V12.2637ZM206.335 18.6621H193.741V21.125H207.198V22.7246H191.761V17.1387H204.354V14.9551H191.71V13.3555H206.335V18.6621ZM197.067 9.72461V6.34766H190.771V9.72461H197.067ZM204.354 7.79492V5.25586H199.022V7.79492H204.354Z" fill="#1A1A1A"/>
<path d="M184.703 14.0156H164.111V12.416H184.703V14.0156ZM182.037 23.0293H180.006V17.8242H166.422V16.2246H182.037V23.0293ZM182.266 10.2324H166.854V1.06641H182.139V2.66602H168.859V4.82422H181.529V6.37305H168.859V8.68359H182.266V10.2324Z" fill="#1A1A1A"/>
<path d="M150.91 0.736328C152.586 0.736328 154.021 0.888672 155.214 1.19336C156.407 1.49805 157.317 1.94238 157.943 2.52637C158.57 3.11035 158.883 3.81706 158.883 4.64648C158.883 5.48438 158.57 6.19531 157.943 6.7793C157.317 7.36328 156.407 7.80762 155.214 8.1123C154.021 8.41699 152.586 8.57357 150.91 8.58203C149.234 8.57357 147.796 8.41699 146.594 8.1123C145.4 7.80762 144.486 7.36328 143.852 6.7793C143.225 6.19531 142.912 5.48438 142.912 4.64648C142.912 3.81706 143.225 3.11035 143.852 2.52637C144.486 1.94238 145.4 1.49805 146.594 1.19336C147.796 0.888672 149.234 0.736328 150.91 0.736328ZM150.91 2.25977C149.023 2.27669 147.563 2.49251 146.53 2.90723C145.498 3.32194 144.986 3.90169 144.994 4.64648C144.986 5.41667 145.493 6.00911 146.518 6.42383C147.55 6.83008 149.014 7.04167 150.91 7.05859C152.798 7.04167 154.257 6.83008 155.29 6.42383C156.331 6.00911 156.852 5.41667 156.852 4.64648C156.852 3.90169 156.327 3.32194 155.277 2.90723C154.236 2.49251 152.781 2.27669 150.91 2.25977ZM161.193 11.6797H151.875V13.8125H158.553V18.8652H145.146V21.2012H159.238V22.7754H143.166V17.3926H156.598V15.3359H143.115V13.8125H149.895V11.6797H140.627V10.0801H161.193V11.6797Z" fill="#1A1A1A"/>
<path d="M125.063 6.52539C125.063 7.86263 125.326 9.18294 125.851 10.4863C126.375 11.7897 127.086 12.9492 127.983 13.9648C128.881 14.972 129.871 15.7253 130.954 16.2246L129.761 17.8496C128.483 17.1895 127.34 16.2204 126.333 14.9424C125.326 13.6644 124.573 12.2214 124.073 10.6133C123.565 12.3145 122.808 13.8421 121.801 15.1963C120.802 16.5505 119.664 17.5703 118.386 18.2559L117.091 16.6562C118.183 16.123 119.181 15.3232 120.087 14.2568C120.993 13.182 121.708 11.9674 122.232 10.6133C122.766 9.25065 123.032 7.88802 123.032 6.52539V2.41211H125.063V6.52539ZM135.829 23.0801H133.849V9.80078H128.491V8.17578H133.849V0.457031H135.829V23.0801Z" fill="#1A1A1A"/>
<path d="M81.8789 23.5625H80V0H81.8789V23.5625Z" fill="#1A1A1A"/>
<path d="M45.0166 20.541H23.8662V17.9512H32.7021V12.7207H35.9268V17.9512H45.0166V20.541ZM36.0283 3.17383C36.0283 4.29948 36.3542 5.39551 37.0059 6.46191C37.666 7.51986 38.6182 8.43815 39.8623 9.2168C41.1149 9.98698 42.5876 10.5033 44.2803 10.7656L42.9092 13.457C40.9118 13.0931 39.1725 12.4033 37.6914 11.3877C36.2103 10.3721 35.0804 9.13216 34.3018 7.66797C33.5231 9.13216 32.3975 10.3763 30.9248 11.4004C29.4521 12.416 27.7256 13.1016 25.7451 13.457L24.374 10.7656C26.0498 10.5033 27.5055 9.98698 28.7412 9.2168C29.9854 8.43815 30.9333 7.51562 31.585 6.44922C32.2367 5.38281 32.5667 4.29102 32.5752 3.17383V1.52344H36.0283V3.17383Z" fill="#1A1A1A"/>
<path d="M13.4824 4.3418H8.88672C8.89518 5.27279 9.08984 6.15723 9.4707 6.99512C9.86003 7.82454 10.4525 8.5651 11.248 9.2168C12.0436 9.86849 13.0339 10.3678 14.2188 10.7148L12.6699 13.2539C11.4258 12.873 10.3551 12.3145 9.45801 11.5781C8.56087 10.8418 7.84993 9.96582 7.3252 8.9502C6.80046 10.1436 6.0599 11.1803 5.10352 12.0605C4.1556 12.9323 3.00456 13.5924 1.65039 14.041L0 11.4766C1.22721 11.0872 2.25977 10.5244 3.09766 9.78809C3.93555 9.05176 4.55762 8.21387 4.96387 7.27441C5.37858 6.33496 5.5944 5.35742 5.61133 4.3418H0.888672V1.75195H13.4824V4.3418ZM18.6875 5.56055H21.8105V8.20117H18.6875V13.9141H15.4375V0.203125H18.6875V5.56055ZM11.1211 14.3711C12.7122 14.3626 14.0918 14.5361 15.2598 14.8916C16.4362 15.2386 17.3376 15.7464 17.9639 16.415C18.5986 17.0837 18.916 17.8835 18.916 18.8145C18.916 19.7454 18.5986 20.5452 17.9639 21.2139C17.3376 21.891 16.4362 22.4072 15.2598 22.7627C14.0918 23.1266 12.7122 23.3086 11.1211 23.3086C9.49609 23.3086 8.08691 23.1266 6.89355 22.7627C5.70866 22.4072 4.7946 21.891 4.15137 21.2139C3.5166 20.5452 3.19922 19.7454 3.19922 18.8145C3.19922 17.8835 3.5166 17.0837 4.15137 16.415C4.7946 15.7464 5.70866 15.2386 6.89355 14.8916C8.08691 14.5361 9.49609 14.3626 11.1211 14.3711ZM11.1211 16.8848C9.58073 16.8848 8.41276 17.0456 7.61719 17.3672C6.83008 17.6888 6.44076 18.1712 6.44922 18.8145C6.44076 19.4661 6.83431 19.9613 7.62988 20.2998C8.42546 20.6299 9.58919 20.7949 11.1211 20.7949C12.6276 20.7949 13.7702 20.6299 14.5488 20.2998C15.3275 19.9697 15.7168 19.4746 15.7168 18.8145C15.7168 18.1712 15.3275 17.6888 14.5488 17.3672C13.7702 17.0456 12.6276 16.8848 11.1211 16.8848Z" fill="#1A1A1A"/>
<path d="M333.53 82.5898L339.726 97.7227H339.954L346.149 82.5898H348.892V100.973H346.733V87.084H346.556L340.843 100.973H338.812L333.099 87.084H332.946V100.973H330.788V82.5898H333.53Z" fill="#1A1A1A"/>
<path d="M314.031 82.5898H320.277C321.665 82.5898 322.829 82.8438 323.769 83.3516C324.708 83.8594 325.406 84.5534 325.863 85.4336C326.32 86.3053 326.549 87.304 326.549 88.4297C326.549 89.5469 326.32 90.5498 325.863 91.4385C325.406 92.3187 324.708 93.0169 323.769 93.5332C322.838 94.041 321.682 94.2949 320.303 94.2949H316.316V100.973H314.031V82.5898ZM320.201 92.2637C321.589 92.2637 322.618 91.9167 323.286 91.2227C323.955 90.5202 324.289 89.5892 324.289 88.4297C324.289 87.2617 323.955 86.335 323.286 85.6494C322.618 84.9639 321.581 84.6211 320.176 84.6211H316.316V92.2637H320.201Z" fill="#1A1A1A"/>
<path d="M303.216 101.227C301.862 101.227 300.702 100.858 299.737 100.122C298.781 99.3857 298.049 98.3109 297.541 96.8975C297.042 95.484 296.792 93.7786 296.792 91.7812C296.792 89.8092 297.046 88.1165 297.554 86.7031C298.062 85.2812 298.798 84.1979 299.763 83.4531C300.728 82.7083 301.879 82.3359 303.216 82.3359C304.553 82.3359 305.704 82.7083 306.669 83.4531C307.634 84.1979 308.37 85.2812 308.878 86.7031C309.386 88.1165 309.64 89.8092 309.64 91.7812C309.64 93.7786 309.386 95.484 308.878 96.8975C308.379 98.3109 307.646 99.3857 306.682 100.122C305.717 100.858 304.562 101.227 303.216 101.227ZM303.216 99.1953C304.096 99.1953 304.849 98.9076 305.476 98.332C306.102 97.7565 306.58 96.9144 306.91 95.8057C307.24 94.6969 307.405 93.3555 307.405 91.7812C307.405 90.207 307.24 88.8613 306.91 87.7441C306.58 86.627 306.102 85.7764 305.476 85.1924C304.849 84.6084 304.096 84.3164 303.216 84.3164C302.336 84.3164 301.578 84.6084 300.943 85.1924C300.317 85.7764 299.835 86.627 299.496 87.7441C299.166 88.8613 299.001 90.207 299.001 91.7812C299.001 93.3555 299.166 94.6969 299.496 95.8057C299.826 96.9144 300.304 97.7565 300.931 98.332C301.565 98.9076 302.327 99.1953 303.216 99.1953Z" fill="#1A1A1A"/>
<path d="M286.688 101.227C285.333 101.227 284.174 100.858 283.209 100.122C282.253 99.3857 281.521 98.3109 281.013 96.8975C280.513 95.484 280.264 93.7786 280.264 91.7812C280.264 89.8092 280.518 88.1165 281.025 86.7031C281.533 85.2812 282.27 84.1979 283.234 83.4531C284.199 82.7083 285.35 82.3359 286.688 82.3359C288.025 82.3359 289.176 82.7083 290.141 83.4531C291.105 84.1979 291.842 85.2812 292.35 86.7031C292.857 88.1165 293.111 89.8092 293.111 91.7812C293.111 93.7786 292.857 95.484 292.35 96.8975C291.85 98.3109 291.118 99.3857 290.153 100.122C289.188 100.858 288.033 101.227 286.688 101.227ZM286.688 99.1953C287.568 99.1953 288.321 98.9076 288.947 98.332C289.574 97.7565 290.052 96.9144 290.382 95.8057C290.712 94.6969 290.877 93.3555 290.877 91.7812C290.877 90.207 290.712 88.8613 290.382 87.7441C290.052 86.627 289.574 85.7764 288.947 85.1924C288.321 84.6084 287.568 84.3164 286.688 84.3164C285.807 84.3164 285.05 84.6084 284.415 85.1924C283.789 85.7764 283.306 86.627 282.968 87.7441C282.638 88.8613 282.473 90.207 282.473 91.7812C282.473 93.3555 282.638 94.6969 282.968 95.8057C283.298 96.9144 283.776 97.7565 284.402 98.332C285.037 98.9076 285.799 99.1953 286.688 99.1953Z" fill="#1A1A1A"/>
<path d="M274.602 98.5352C274.306 98.5352 274.031 98.4632 273.777 98.3193C273.532 98.167 273.333 97.9639 273.18 97.71C273.037 97.4561 272.969 97.181 272.977 96.8848C272.969 96.597 273.037 96.3304 273.18 96.085C273.333 95.8311 273.532 95.6322 273.777 95.4883C274.031 95.3359 274.306 95.2598 274.602 95.2598C274.89 95.2598 275.157 95.3359 275.402 95.4883C275.656 95.6322 275.855 95.8311 275.999 96.085C276.151 96.3304 276.227 96.597 276.227 96.8848C276.227 97.181 276.151 97.4561 275.999 97.71C275.855 97.9639 275.656 98.167 275.402 98.3193C275.157 98.4632 274.89 98.5352 274.602 98.5352ZM274.602 88.3281C274.306 88.3281 274.031 88.2562 273.777 88.1123C273.532 87.96 273.333 87.7568 273.18 87.5029C273.037 87.249 272.969 86.974 272.977 86.6777C272.969 86.39 273.037 86.1234 273.18 85.8779C273.333 85.624 273.532 85.4251 273.777 85.2812C274.031 85.1289 274.306 85.0527 274.602 85.0527C274.89 85.0527 275.157 85.1289 275.402 85.2812C275.656 85.4251 275.855 85.624 275.999 85.8779C276.151 86.1234 276.227 86.39 276.227 86.6777C276.227 86.974 276.151 87.249 275.999 87.5029C275.855 87.7568 275.656 87.96 275.402 88.1123C275.157 88.2562 274.89 88.3281 274.602 88.3281Z" fill="#1A1A1A"/>
<path d="M262.492 101.227C261.307 101.227 260.207 100.96 259.191 100.427C258.184 99.8851 257.355 98.9668 256.703 97.6719C256.06 96.3685 255.738 94.6419 255.738 92.4922C255.738 90.3509 256.018 88.5186 256.576 86.9951C257.143 85.4717 257.947 84.3164 258.988 83.5293C260.038 82.7337 261.282 82.3359 262.721 82.3359C263.779 82.3359 264.727 82.5391 265.564 82.9453C266.411 83.3516 267.101 83.9229 267.634 84.6592C268.175 85.3955 268.527 86.2461 268.688 87.2109H266.428C266.199 86.3561 265.768 85.6706 265.133 85.1543C264.507 84.6296 263.702 84.3672 262.721 84.3672C261.722 84.3672 260.859 84.6465 260.131 85.2051C259.411 85.7552 258.857 86.555 258.468 87.6045C258.087 88.654 257.896 89.9108 257.896 91.375H258.125C258.667 90.6048 259.344 90.0081 260.156 89.585C260.969 89.1533 261.866 88.9375 262.848 88.9375C263.931 88.9375 264.93 89.1999 265.844 89.7246C266.766 90.2493 267.494 90.9772 268.027 91.9082C268.569 92.8307 268.84 93.8717 268.84 95.0312C268.84 96.1738 268.573 97.2191 268.04 98.167C267.515 99.1064 266.771 99.8512 265.806 100.401C264.841 100.951 263.736 101.227 262.492 101.227ZM262.441 99.2207C263.22 99.2207 263.927 99.0345 264.562 98.6621C265.196 98.2897 265.696 97.7861 266.06 97.1514C266.432 96.5081 266.622 95.8099 266.631 95.0566C266.622 94.3034 266.44 93.6136 266.085 92.9873C265.729 92.361 265.239 91.8659 264.612 91.502C263.986 91.1296 263.279 90.9434 262.492 90.9434C261.705 90.9434 260.986 91.1338 260.334 91.5146C259.682 91.8955 259.166 92.4076 258.785 93.0508C258.404 93.6855 258.21 94.3626 258.201 95.082C258.201 95.8014 258.383 96.4785 258.747 97.1133C259.119 97.748 259.627 98.2601 260.271 98.6494C260.922 99.0303 261.646 99.2207 262.441 99.2207Z" fill="#1A1A1A"/>
<path d="M244.111 92.7969H236.062V90.791H244.111V92.7969Z" fill="#1A1A1A"/>
<path d="M208.465 82.5898L214.66 97.7227H214.889L221.084 82.5898H223.826V100.973H221.668V87.084H221.49L215.777 100.973H213.746L208.033 87.084H207.881V100.973H205.723V82.5898H208.465Z" fill="#1A1A1A"/>
<path d="M186.325 100.973L193.054 82.5898H195.466L202.194 100.973H199.782L197.941 95.793H190.553L188.712 100.973H186.325ZM197.243 93.7871L194.323 85.5605H194.171L191.251 93.7871H197.243Z" fill="#1A1A1A"/>
<path d="M177.084 101.227C175.73 101.227 174.57 100.858 173.605 100.122C172.649 99.3857 171.917 98.3109 171.409 96.8975C170.91 95.484 170.66 93.7786 170.66 91.7812C170.66 89.8092 170.914 88.1165 171.422 86.7031C171.93 85.2812 172.666 84.1979 173.631 83.4531C174.596 82.7083 175.747 82.3359 177.084 82.3359C178.421 82.3359 179.572 82.7083 180.537 83.4531C181.502 84.1979 182.238 85.2812 182.746 86.7031C183.254 88.1165 183.508 89.8092 183.508 91.7812C183.508 93.7786 183.254 95.484 182.746 96.8975C182.247 98.3109 181.515 99.3857 180.55 100.122C179.585 100.858 178.43 101.227 177.084 101.227ZM177.084 99.1953C177.964 99.1953 178.717 98.9076 179.344 98.332C179.97 97.7565 180.448 96.9144 180.778 95.8057C181.108 94.6969 181.273 93.3555 181.273 91.7812C181.273 90.207 181.108 88.8613 180.778 87.7441C180.448 86.627 179.97 85.7764 179.344 85.1924C178.717 84.6084 177.964 84.3164 177.084 84.3164C176.204 84.3164 175.446 84.6084 174.812 85.1924C174.185 85.7764 173.703 86.627 173.364 87.7441C173.034 88.8613 172.869 90.207 172.869 91.7812C172.869 93.3555 173.034 94.6969 173.364 95.8057C173.694 96.9144 174.173 97.7565 174.799 98.332C175.434 98.9076 176.195 99.1953 177.084 99.1953Z" fill="#1A1A1A"/>
<path d="M160.556 101.227C159.201 101.227 158.042 100.858 157.077 100.122C156.121 99.3857 155.389 98.3109 154.881 96.8975C154.382 95.484 154.132 93.7786 154.132 91.7812C154.132 89.8092 154.386 88.1165 154.894 86.7031C155.401 85.2812 156.138 84.1979 157.103 83.4531C158.067 82.7083 159.218 82.3359 160.556 82.3359C161.893 82.3359 163.044 82.7083 164.009 83.4531C164.974 84.1979 165.71 85.2812 166.218 86.7031C166.726 88.1165 166.979 89.8092 166.979 91.7812C166.979 93.7786 166.726 95.484 166.218 96.8975C165.718 98.3109 164.986 99.3857 164.021 100.122C163.057 100.858 161.901 101.227 160.556 101.227ZM160.556 99.1953C161.436 99.1953 162.189 98.9076 162.815 98.332C163.442 97.7565 163.92 96.9144 164.25 95.8057C164.58 94.6969 164.745 93.3555 164.745 91.7812C164.745 90.207 164.58 88.8613 164.25 87.7441C163.92 86.627 163.442 85.7764 162.815 85.1924C162.189 84.6084 161.436 84.3164 160.556 84.3164C159.675 84.3164 158.918 84.6084 158.283 85.1924C157.657 85.7764 157.174 86.627 156.836 87.7441C156.506 88.8613 156.341 90.207 156.341 91.7812C156.341 93.3555 156.506 94.6969 156.836 95.8057C157.166 96.9144 157.644 97.7565 158.271 98.332C158.905 98.9076 159.667 99.1953 160.556 99.1953Z" fill="#1A1A1A"/>
<path d="M148.471 98.5352C148.175 98.5352 147.9 98.4632 147.646 98.3193C147.401 98.167 147.202 97.9639 147.05 97.71C146.906 97.4561 146.838 97.181 146.846 96.8848C146.838 96.597 146.906 96.3304 147.05 96.085C147.202 95.8311 147.401 95.6322 147.646 95.4883C147.9 95.3359 148.175 95.2598 148.471 95.2598C148.759 95.2598 149.026 95.3359 149.271 95.4883C149.525 95.6322 149.724 95.8311 149.868 96.085C150.02 96.3304 150.096 96.597 150.096 96.8848C150.096 97.181 150.02 97.4561 149.868 97.71C149.724 97.9639 149.525 98.167 149.271 98.3193C149.026 98.4632 148.759 98.5352 148.471 98.5352ZM148.471 88.3281C148.175 88.3281 147.9 88.2562 147.646 88.1123C147.401 87.96 147.202 87.7568 147.05 87.5029C146.906 87.249 146.838 86.974 146.846 86.6777C146.838 86.39 146.906 86.1234 147.05 85.8779C147.202 85.624 147.401 85.4251 147.646 85.2812C147.9 85.1289 148.175 85.0527 148.471 85.0527C148.759 85.0527 149.026 85.1289 149.271 85.2812C149.525 85.4251 149.724 85.624 149.868 85.8779C150.02 86.1234 150.096 86.39 150.096 86.6777C150.096 86.974 150.02 87.249 149.868 87.5029C149.724 87.7568 149.525 87.96 149.271 88.1123C149.026 88.2562 148.759 88.3281 148.471 88.3281Z" fill="#1A1A1A"/>
<path d="M136.387 101.227C135.033 101.227 133.873 100.858 132.908 100.122C131.952 99.3857 131.22 98.3109 130.712 96.8975C130.213 95.484 129.963 93.7786 129.963 91.7812C129.963 89.8092 130.217 88.1165 130.725 86.7031C131.232 85.2812 131.969 84.1979 132.934 83.4531C133.898 82.7083 135.049 82.3359 136.387 82.3359C137.724 82.3359 138.875 82.7083 139.84 83.4531C140.805 84.1979 141.541 85.2812 142.049 86.7031C142.557 88.1165 142.811 89.8092 142.811 91.7812C142.811 93.7786 142.557 95.484 142.049 96.8975C141.549 98.3109 140.817 99.3857 139.853 100.122C138.888 100.858 137.732 101.227 136.387 101.227ZM136.387 99.1953C137.267 99.1953 138.02 98.9076 138.646 98.332C139.273 97.7565 139.751 96.9144 140.081 95.8057C140.411 94.6969 140.576 93.3555 140.576 91.7812C140.576 90.207 140.411 88.8613 140.081 87.7441C139.751 86.627 139.273 85.7764 138.646 85.1924C138.02 84.6084 137.267 84.3164 136.387 84.3164C135.507 84.3164 134.749 84.6084 134.114 85.1924C133.488 85.7764 133.006 86.627 132.667 87.7441C132.337 88.8613 132.172 90.207 132.172 91.7812C132.172 93.3555 132.337 94.6969 132.667 95.8057C132.997 96.9144 133.475 97.7565 134.102 98.332C134.736 98.9076 135.498 99.1953 136.387 99.1953Z" fill="#1A1A1A"/>
<path d="M124.429 100.973H122.118V84.9766H122.017L117.548 87.9473V85.6367L122.118 82.5898H124.429V100.973Z" fill="#1A1A1A"/>
<path d="M81.8789 103.562H80V80H81.8789V103.562Z" fill="#1A1A1A"/>
<path d="M42.1982 86.6777H45.3213V89.3438H42.1982V96.7578H38.9229V80.2031H42.1982V86.6777ZM35.9014 81.9297C35.9014 83.9948 35.4782 85.8568 34.6318 87.5156C33.7939 89.166 32.5667 90.5794 30.9502 91.7559C29.3337 92.9323 27.3701 93.8464 25.0596 94.498L23.7139 91.9336C26.2614 91.2227 28.2673 90.2282 29.7314 88.9502C31.2041 87.6722 32.0716 86.2122 32.334 84.5703H24.7295V81.9297H35.9014ZM42.9854 102.902H27.167V95.0566H30.4424V100.312H42.9854V102.902Z" fill="#1A1A1A"/>
<path d="M9.34375 85.4336C9.34375 86.8809 9.5638 88.2816 10.0039 89.6357C10.444 90.9814 11.0999 92.179 11.9717 93.2285C12.8519 94.2695 13.9225 95.0566 15.1836 95.5898L13.2793 98.1797C11.9928 97.5957 10.8841 96.762 9.95312 95.6787C9.0306 94.5869 8.2985 93.3047 7.75684 91.832C7.21517 93.4401 6.46191 94.8366 5.49707 96.0215C4.54069 97.2064 3.37695 98.112 2.00586 98.7383L0.0507812 96.0469C1.35417 95.4967 2.45443 94.68 3.35156 93.5967C4.2487 92.5049 4.92155 91.2565 5.37012 89.8516C5.82715 88.4466 6.0599 86.974 6.06836 85.4336V81.9805H9.34375V85.4336ZM19.7031 103.359H16.4277V80.2031H19.7031V103.359Z" fill="#1A1A1A"/>
</svg>
