<svg width="42" height="42" viewBox="0 0 42 42" fill="none" xmlns="http://www.w3.org/2000/svg">
<rect x="0.0136719" width="41.2622" height="41.2625" fill="#66E0EB"/>
<rect x="7.94824" y="12.0327" width="12.8789" height="13.2244" transform="rotate(-45 7.94824 12.0327)" fill="#E0FCFF"/>
<path d="M7.79478 34.2526L0.0134277 41.2621V28.0234L7.79478 34.2526Z" fill="#2CD5E5"/>
<path d="M26.0997 34.2568H7.82606L17.2969 21.384L26.0997 34.2568Z" fill="#2CD5E5"/>
<path d="M7.94818 12.1548L0.0868699 21.4318L0.0868041 4.01433L7.94818 12.1548Z" fill="#2CD5E5"/>
<path d="M41.2857 41.2504L26.1066 34.2668L35.9893 22.0517L41.2857 41.2504Z" fill="#2CD5E5"/>
<path d="M35.9909 5.70804L35.991 21.9177L26.3866 12.3449L35.9909 5.70804Z" fill="#2CD5E5"/>
<path d="M4.42214 0.0427246L2.43134e-05 3.99117L0 0.0427246L4.42214 0.0427246Z" fill="#2CD5E5"/>
<path d="M7.79037 34.2566H26.1195L41.2759 41.2625H0.0136719L7.79037 34.2566Z" fill="#19BFCE"/>
<path d="M36.0298 21.9056V5.64278L41.2759 0L41.2759 41.2625L36.0298 21.9056Z" fill="#19BFCE"/>
</svg>
