<svg width="642" height="137" viewBox="0 0 642 137" fill="none" xmlns="http://www.w3.org/2000/svg">
<path d="M609.211 129.992H607.641L607.523 117.875H609.328L609.211 129.992ZM608.438 134.961C608.086 134.961 607.785 134.84 607.535 134.598C607.293 134.355 607.172 134.062 607.172 133.719C607.172 133.367 607.293 133.07 607.535 132.828C607.785 132.578 608.086 132.453 608.438 132.453C608.781 132.453 609.074 132.578 609.316 132.828C609.559 133.07 609.68 133.367 609.68 133.719C609.68 134.055 609.559 134.348 609.316 134.598C609.074 134.84 608.781 134.961 608.438 134.961Z" fill="#1A1A1A"/>
<path d="M604.547 133.93H585.609V132.664H590.438V126.91C589.516 126.449 588.801 125.855 588.293 125.129C587.785 124.402 587.531 123.578 587.531 122.656C587.531 121.609 587.848 120.691 588.48 119.902C589.113 119.105 589.996 118.488 591.129 118.051C592.262 117.613 593.555 117.391 595.008 117.383C596.469 117.391 597.766 117.613 598.898 118.051C600.039 118.488 600.926 119.105 601.559 119.902C602.191 120.691 602.508 121.609 602.508 122.656C602.508 123.562 602.258 124.379 601.758 125.105C601.266 125.824 600.57 126.414 599.672 126.875V132.664H604.547V133.93ZM595.008 118.625C593.844 118.617 592.801 118.781 591.879 119.117C590.957 119.453 590.234 119.93 589.711 120.547C589.195 121.164 588.938 121.867 588.938 122.656C588.938 123.438 589.199 124.133 589.723 124.742C590.246 125.352 590.969 125.828 591.891 126.172C592.812 126.508 593.852 126.672 595.008 126.664C596.164 126.672 597.207 126.508 598.137 126.172C599.066 125.828 599.793 125.352 600.316 124.742C600.84 124.133 601.102 123.438 601.102 122.656C601.102 121.867 600.84 121.164 600.316 120.547C599.793 119.93 599.066 119.453 598.137 119.117C597.215 118.781 596.172 118.617 595.008 118.625ZM598.195 132.664V127.449C597.234 127.723 596.172 127.859 595.008 127.859C593.883 127.859 592.844 127.727 591.891 127.461V132.664H598.195Z" fill="#1A1A1A"/>
<path d="M570.844 122.094C570.844 123.172 571.035 124.262 571.418 125.363C571.801 126.465 572.336 127.469 573.023 128.375C573.711 129.281 574.5 129.992 575.391 130.508L574.5 131.656C573.492 131.047 572.609 130.199 571.852 129.113C571.102 128.027 570.539 126.82 570.164 125.492C569.789 126.922 569.203 128.219 568.406 129.383C567.617 130.547 566.703 131.445 565.664 132.078L564.68 130.977C565.594 130.453 566.41 129.727 567.129 128.797C567.848 127.859 568.41 126.812 568.816 125.656C569.223 124.492 569.43 123.32 569.438 122.141V117.992H570.844V122.094ZM582.516 136.672H581.086V116H582.516V136.672ZM578.25 135.594H576.844V124.836H573.07V123.547H576.844V116.469H578.25V135.594Z" fill="#1A1A1A"/>
<path d="M563.062 133.953H544.125V132.688H552.797V128.023H546.422V117.5H547.922V121.391H559.219V117.5H560.672V128.023H554.273V132.688H563.062V133.953ZM559.219 126.781V122.633H547.922V126.781H559.219Z" fill="#1A1A1A"/>
<path d="M540.352 136.672H538.898V128.516H533.332C532.582 130.32 531.609 131.914 530.414 133.297L529.172 132.5C530.719 130.766 531.844 128.773 532.547 126.523C533.258 124.266 533.656 121.938 533.742 119.539H530.18V118.273H535.148C535.148 119.531 535.086 120.711 534.961 121.812H538.898V116H540.352V136.672ZM529.57 118.273C529.57 120.797 529.156 123.234 528.328 125.586C527.508 127.938 526.203 130.039 524.414 131.891L523.242 131.023C524.773 129.492 525.941 127.738 526.746 125.762C527.551 123.777 528.02 121.703 528.152 119.539H523.875V118.273H529.57ZM538.898 127.25V123.031H534.809C534.582 124.547 534.246 125.953 533.801 127.25H538.898Z" fill="#1A1A1A"/>
<path d="M519.352 126.664H505.031V117.805H506.508V125.422H519.352V126.664ZM521.578 133.672H502.641V132.406H521.578V133.672Z" fill="#1A1A1A"/>
<path d="M485.508 116.375C487.023 116.375 488.32 116.516 489.398 116.797C490.484 117.07 491.312 117.477 491.883 118.016C492.461 118.547 492.75 119.195 492.75 119.961C492.75 120.734 492.461 121.395 491.883 121.941C491.312 122.48 490.484 122.891 489.398 123.172C488.32 123.453 487.023 123.594 485.508 123.594C483.992 123.594 482.691 123.453 481.605 123.172C480.527 122.891 479.699 122.48 479.121 121.941C478.551 121.395 478.266 120.734 478.266 119.961C478.266 119.195 478.551 118.547 479.121 118.016C479.699 117.477 480.527 117.07 481.605 116.797C482.691 116.516 483.992 116.375 485.508 116.375ZM485.508 117.523C484.336 117.523 483.32 117.625 482.461 117.828C481.602 118.023 480.941 118.305 480.48 118.672C480.02 119.031 479.789 119.461 479.789 119.961C479.789 120.477 480.02 120.922 480.48 121.297C480.941 121.672 481.598 121.957 482.449 122.152C483.309 122.348 484.328 122.445 485.508 122.445C486.688 122.445 487.707 122.348 488.566 122.152C489.434 121.957 490.098 121.672 490.559 121.297C491.02 120.922 491.25 120.477 491.25 119.961C491.25 119.461 491.02 119.031 490.559 118.672C490.098 118.305 489.434 118.023 488.566 117.828C487.707 117.625 486.688 117.523 485.508 117.523ZM494.953 126.359H476.109V125.141H494.953V126.359ZM492.469 132.758H479.93V135.195H493.125V136.414H478.5V131.609H491.039V129.5H478.43V128.328H492.469V132.758Z" fill="#1A1A1A"/>
<path d="M472.406 128.539H470.93V123.617H467.133V122.352H470.93V116H472.406V128.539ZM472.406 136.367H459.023V129.711H472.406V136.367ZM460.477 135.148H470.953V130.906H460.477V135.148ZM467.414 119.516H455.367V118.297H460.664V115.789H462.117V118.297H467.414V119.516ZM461.391 120.711C462.305 120.711 463.121 120.867 463.84 121.18C464.559 121.484 465.117 121.918 465.516 122.48C465.922 123.035 466.125 123.672 466.125 124.391C466.125 125.117 465.922 125.758 465.516 126.312C465.117 126.859 464.559 127.285 463.84 127.59C463.121 127.895 462.305 128.047 461.391 128.047C460.469 128.047 459.645 127.895 458.918 127.59C458.199 127.285 457.637 126.859 457.23 126.312C456.832 125.758 456.633 125.117 456.633 124.391C456.633 123.672 456.832 123.035 457.23 122.48C457.637 121.918 458.199 121.484 458.918 121.18C459.645 120.867 460.469 120.711 461.391 120.711ZM461.391 121.883C460.742 121.883 460.164 121.992 459.656 122.211C459.148 122.422 458.754 122.719 458.473 123.102C458.191 123.484 458.055 123.914 458.062 124.391C458.055 124.875 458.191 125.309 458.473 125.691C458.754 126.066 459.148 126.359 459.656 126.57C460.164 126.781 460.742 126.891 461.391 126.898C462.031 126.891 462.605 126.781 463.113 126.57C463.621 126.359 464.016 126.066 464.297 125.691C464.578 125.309 464.719 124.875 464.719 124.391C464.719 123.914 464.574 123.484 464.285 123.102C464.004 122.719 463.609 122.422 463.102 122.211C462.602 121.992 462.031 121.883 461.391 121.883Z" fill="#1A1A1A"/>
<path d="M451.664 128.586H450.188V125.562H444.398V124.297H450.188V121.227H444.645C443.965 122.883 442.84 124.324 441.27 125.551C439.707 126.77 437.805 127.719 435.562 128.398L434.93 127.203C436.625 126.688 438.113 126.02 439.395 125.199C440.676 124.379 441.691 123.434 442.441 122.363C443.191 121.285 443.621 120.117 443.73 118.859H435.984V117.594H445.336C445.336 118.43 445.234 119.242 445.031 120.031H450.188V116H451.664V128.586ZM444.938 128.773C446.328 128.773 447.539 128.93 448.57 129.242C449.602 129.547 450.395 129.992 450.949 130.578C451.504 131.164 451.781 131.859 451.781 132.664C451.781 133.477 451.504 134.176 450.949 134.762C450.395 135.348 449.602 135.797 448.57 136.109C447.539 136.422 446.328 136.578 444.938 136.578C443.539 136.578 442.32 136.422 441.281 136.109C440.25 135.797 439.457 135.348 438.902 134.762C438.348 134.176 438.07 133.477 438.07 132.664C438.07 131.859 438.348 131.164 438.902 130.578C439.457 129.992 440.25 129.547 441.281 129.242C442.32 128.93 443.539 128.773 444.938 128.773ZM444.938 129.992C443.852 129.992 442.898 130.102 442.078 130.32C441.266 130.531 440.637 130.84 440.191 131.246C439.746 131.645 439.523 132.117 439.523 132.664C439.523 133.211 439.746 133.688 440.191 134.094C440.637 134.5 441.266 134.812 442.078 135.031C442.898 135.25 443.852 135.359 444.938 135.359C446.008 135.359 446.949 135.25 447.762 135.031C448.574 134.812 449.199 134.5 449.637 134.094C450.082 133.688 450.305 133.211 450.305 132.664C450.305 132.117 450.082 131.645 449.637 131.246C449.199 130.84 448.574 130.531 447.762 130.32C446.957 130.102 446.016 129.992 444.938 129.992Z" fill="#1A1A1A"/>
<path d="M414.891 119.938C414.891 120.867 415.113 121.758 415.559 122.609C416.012 123.461 416.629 124.211 417.41 124.859C418.199 125.5 419.086 125.992 420.07 126.336L419.32 127.508C418.133 127.07 417.09 126.434 416.191 125.598C415.293 124.754 414.625 123.781 414.188 122.68C413.758 123.883 413.074 124.941 412.137 125.855C411.207 126.77 410.125 127.461 408.891 127.93L408.094 126.781C409.102 126.414 410.012 125.887 410.824 125.199C411.637 124.512 412.277 123.719 412.746 122.82C413.215 121.914 413.453 120.961 413.461 119.961V118.766H408.586V117.523H419.695V118.766H414.891V119.938ZM424.195 121.602H427.383V122.891H424.195V128.445H422.719V116H424.195V121.602ZM424.195 136.672H422.719V130.859H410.766V129.617H424.195V136.672Z" fill="#1A1A1A"/>
<path d="M404.953 136.672H403.523V116H404.953V136.672ZM400.781 135.547H399.375V124.789H395.648V123.547H399.375V116.539H400.781V135.547ZM393.281 121.977C393.273 123.188 393.457 124.371 393.832 125.527C394.207 126.684 394.742 127.727 395.438 128.656C396.133 129.578 396.938 130.305 397.852 130.836L396.938 131.961C395.906 131.336 395.012 130.465 394.254 129.348C393.496 128.23 392.938 126.973 392.578 125.574C392.203 127.082 391.625 128.438 390.844 129.641C390.07 130.844 389.156 131.773 388.102 132.43L387.164 131.328C388.086 130.773 388.902 130.008 389.613 129.031C390.324 128.055 390.875 126.957 391.266 125.738C391.656 124.512 391.852 123.258 391.852 121.977V119.773H387.656V118.531H397.266V119.773H393.281V121.977Z" fill="#1A1A1A"/>
<path d="M376.922 122.984H380.109V124.25H376.922V131.516H375.445V116H376.922V122.984ZM373.219 119.891H360.891V118.648H366.328V116.023H367.781V118.648H373.219V119.891ZM367.055 121.156C368.023 121.156 368.879 121.316 369.621 121.637C370.371 121.949 370.949 122.395 371.355 122.973C371.77 123.543 371.977 124.211 371.977 124.977C371.977 125.742 371.77 126.41 371.355 126.98C370.949 127.551 370.371 127.992 369.621 128.305C368.879 128.617 368.023 128.773 367.055 128.773C366.07 128.773 365.203 128.621 364.453 128.316C363.711 128.004 363.133 127.562 362.719 126.992C362.312 126.414 362.109 125.742 362.109 124.977C362.109 124.211 362.312 123.539 362.719 122.961C363.133 122.383 363.711 121.938 364.453 121.625C365.203 121.312 366.07 121.156 367.055 121.156ZM367.055 122.352C366.352 122.352 365.73 122.461 365.191 122.68C364.652 122.898 364.234 123.207 363.938 123.605C363.648 124.004 363.508 124.461 363.516 124.977C363.508 125.484 363.648 125.938 363.938 126.336C364.234 126.727 364.652 127.031 365.191 127.25C365.73 127.461 366.352 127.562 367.055 127.555C367.75 127.562 368.363 127.461 368.895 127.25C369.426 127.031 369.84 126.727 370.137 126.336C370.434 125.938 370.586 125.484 370.594 124.977C370.586 124.461 370.434 124.004 370.137 123.605C369.84 123.207 369.426 122.898 368.895 122.68C368.363 122.461 367.75 122.352 367.055 122.352ZM377.93 136.18H364.125V130.25H365.578V134.938H377.93V136.18Z" fill="#1A1A1A"/>
<path d="M357.094 126.852H355.641V124.016H350.414V125.938H341.156V116.984H342.633V120.148H348.938V116.984H350.414V119.07H355.641V116H357.094V126.852ZM357.094 132.594H345.328V135.148H357.961V136.367H343.875V131.422H355.641V129.148H343.805V127.93H357.094V132.594ZM348.938 124.719V121.367H342.633V124.719H348.938ZM355.641 122.82V120.242H350.414V122.82H355.641Z" fill="#1A1A1A"/>
<path d="M338.18 128.188H319.312V126.969H338.18V128.188ZM335.695 136.672H334.195V131.656H321.422V130.438H335.695V136.672ZM335.883 124.789H321.867V116.586H335.789V117.781H323.367V120.008H335.203V121.203H323.367V123.594H335.883V124.789Z" fill="#1A1A1A"/>
<path d="M309.492 123.688H295.43V116.75H296.883V122.445H309.492V123.688ZM311.695 127.906H292.781V126.688H311.695V127.906ZM309.609 136.156H295.336V130.156H296.789V134.891H309.609V136.156Z" fill="#1A1A1A"/>
<path d="M284.391 126.336H279.703V130.613C282.07 130.52 284.164 130.367 285.984 130.156L286.102 131.258C284.016 131.562 281.82 131.773 279.516 131.891C277.219 132 274.852 132.055 272.414 132.055L272.18 130.766C274.477 130.75 276.492 130.719 278.227 130.672V126.336H273.82V117.992H284.297V119.234H275.273V125.094H284.391V126.336ZM288.891 136.695H287.414V116H288.891V136.695Z" fill="#1A1A1A"/>
<path d="M262.5 136.695H261.023V116H262.5V136.695ZM251.578 117.641C252.586 117.641 253.484 117.934 254.273 118.52C255.07 119.105 255.691 119.941 256.137 121.027C256.582 122.105 256.805 123.359 256.805 124.789C256.805 126.219 256.582 127.477 256.137 128.562C255.691 129.641 255.07 130.473 254.273 131.059C253.484 131.645 252.586 131.938 251.578 131.938C250.562 131.938 249.656 131.645 248.859 131.059C248.07 130.473 247.453 129.641 247.008 128.562C246.57 127.477 246.352 126.219 246.352 124.789C246.352 123.359 246.57 122.105 247.008 121.027C247.453 119.941 248.07 119.105 248.859 118.52C249.656 117.934 250.562 117.641 251.578 117.641ZM251.578 118.953C250.844 118.953 250.188 119.199 249.609 119.691C249.039 120.184 248.59 120.875 248.262 121.766C247.941 122.648 247.781 123.656 247.781 124.789C247.781 125.93 247.941 126.941 248.262 127.824C248.59 128.707 249.039 129.395 249.609 129.887C250.188 130.379 250.844 130.625 251.578 130.625C252.312 130.625 252.965 130.383 253.535 129.898C254.105 129.406 254.551 128.719 254.871 127.836C255.191 126.945 255.352 125.93 255.352 124.789C255.352 123.656 255.191 122.648 254.871 121.766C254.551 120.875 254.105 120.184 253.535 119.691C252.965 119.199 252.312 118.953 251.578 118.953Z" fill="#1A1A1A"/>
<path d="M241.781 128.258H240.305V116H241.781V128.258ZM227.508 125.914C229.492 125.914 231.238 125.867 232.746 125.773C234.262 125.68 235.836 125.5 237.469 125.234L237.656 126.5C235.938 126.758 234.309 126.938 232.77 127.039C231.23 127.133 229.477 127.18 227.508 127.18H225.867V121.484H233.766V118.508H225.82V117.266H235.219V122.703H227.297V125.914H227.508ZM241.781 136.367H228.469V129.453H241.781V136.367ZM229.922 135.148H240.328V130.672H229.922V135.148Z" fill="#1A1A1A"/>
<path d="M220.289 120.242V120.5C220.273 122.234 220.219 123.82 220.125 125.258C220.031 126.688 219.82 128.375 219.492 130.32L217.969 130.133C218.234 128.812 218.43 127.566 218.555 126.395C218.688 125.223 218.766 124.191 218.789 123.301C218.82 122.402 218.836 121.383 218.836 120.242V119.539H206.133V118.297H220.289V120.242ZM222.891 133.531H204.047V132.266H222.891V133.531Z" fill="#1A1A1A"/>
<path d="M183.024 117.641C183.977 117.641 184.824 117.91 185.567 118.449C186.317 118.988 186.91 119.75 187.348 120.734H193.102V116H194.555V136.695H193.102V128.586H187.465C187.035 129.648 186.434 130.473 185.66 131.059C184.895 131.645 184.016 131.938 183.024 131.938C182.024 131.938 181.133 131.645 180.352 131.059C179.578 130.473 178.977 129.641 178.547 128.562C178.117 127.477 177.906 126.219 177.914 124.789C177.906 123.359 178.117 122.105 178.547 121.027C178.977 119.941 179.578 119.105 180.352 118.52C181.133 117.934 182.024 117.641 183.024 117.641ZM183.024 118.953C182.297 118.953 181.653 119.199 181.09 119.691C180.535 120.184 180.102 120.871 179.789 121.754C179.477 122.637 179.321 123.648 179.321 124.789C179.321 125.93 179.473 126.945 179.778 127.836C180.09 128.719 180.528 129.406 181.09 129.898C181.653 130.383 182.297 130.625 183.024 130.625C183.742 130.625 184.383 130.379 184.946 129.887C185.508 129.395 185.946 128.707 186.258 127.824C186.571 126.941 186.727 125.93 186.727 124.789C186.727 123.656 186.571 122.648 186.258 121.766C185.946 120.875 185.508 120.184 184.946 119.691C184.383 119.199 183.742 118.953 183.024 118.953ZM187.793 122C188.02 122.891 188.133 123.82 188.133 124.789C188.133 125.664 188.039 126.508 187.852 127.32H193.102V122H187.793Z" fill="#1A1A1A"/>
<path d="M175.711 133.93H156.773V132.664H165.445V127.344H159.07V117.781H173.297V127.344H166.922V132.664H175.711V133.93ZM160.5 126.148H171.844V119H160.5V126.148Z" fill="#1A1A1A"/>
<path d="M147.211 136.695H145.734V116H147.211V136.695ZM136.289 117.641C137.297 117.641 138.195 117.934 138.984 118.52C139.781 119.105 140.402 119.941 140.848 121.027C141.293 122.105 141.516 123.359 141.516 124.789C141.516 126.219 141.293 127.477 140.848 128.562C140.402 129.641 139.781 130.473 138.984 131.059C138.195 131.645 137.297 131.938 136.289 131.938C135.273 131.938 134.367 131.645 133.57 131.059C132.781 130.473 132.164 129.641 131.719 128.562C131.281 127.477 131.062 126.219 131.062 124.789C131.062 123.359 131.281 122.105 131.719 121.027C132.164 119.941 132.781 119.105 133.57 118.52C134.367 117.934 135.273 117.641 136.289 117.641ZM136.289 118.953C135.555 118.953 134.898 119.199 134.32 119.691C133.75 120.184 133.301 120.875 132.973 121.766C132.652 122.648 132.492 123.656 132.492 124.789C132.492 125.93 132.652 126.941 132.973 127.824C133.301 128.707 133.75 129.395 134.32 129.887C134.898 130.379 135.555 130.625 136.289 130.625C137.023 130.625 137.676 130.383 138.246 129.898C138.816 129.406 139.262 128.719 139.582 127.836C139.902 126.945 140.062 125.93 140.062 124.789C140.062 123.656 139.902 122.648 139.582 121.766C139.262 120.875 138.816 120.184 138.246 119.691C137.676 119.199 137.023 118.953 136.289 118.953Z" fill="#1A1A1A"/>
<path d="M128.344 126.102H109.5V124.859H128.344V126.102ZM126.094 123.008H112.078V116.797H125.859V118.016H113.555V121.766H126.094V123.008ZM125.859 132.758H113.32V135.172H126.516V136.391H111.891V131.586H124.43V129.336H111.82V128.141H125.859V132.758Z" fill="#1A1A1A"/>
<path d="M105.797 128.141H104.32V122.562H99.8203V121.32H104.32V116H105.797V128.141ZM105.797 136.367H92.4141V129.219H105.797V136.367ZM93.8672 135.148H104.344V130.414H93.8672V135.148ZM95.7422 119.797C95.7422 120.688 95.9688 121.559 96.4219 122.41C96.8828 123.262 97.5078 124.02 98.2969 124.684C99.0859 125.34 99.9688 125.844 100.945 126.195L100.172 127.367C99 126.93 97.9609 126.281 97.0547 125.422C96.1484 124.562 95.4766 123.582 95.0391 122.48C94.6016 123.707 93.9062 124.793 92.9531 125.738C92.0078 126.684 90.9141 127.391 89.6719 127.859L88.8984 126.688C89.8828 126.336 90.7852 125.809 91.6055 125.105C92.4258 124.402 93.0742 123.59 93.5508 122.668C94.0273 121.746 94.2656 120.789 94.2656 119.797V118.672H89.4141V117.406H100.523V118.672H95.7422V119.797Z" fill="#1A1A1A"/>
<path d="M78.9141 123.688H64.8516V116.75H66.3047V122.445H78.9141V123.688ZM81.1172 127.906H62.2031V126.688H81.1172V127.906ZM79.0312 136.156H64.7578V130.156H66.2109V134.891H79.0312V136.156Z" fill="#1A1A1A"/>
<path d="M58.4531 136.695H56.9766V116H58.4531V136.695ZM47.5312 117.641C48.5391 117.641 49.4375 117.934 50.2266 118.52C51.0234 119.105 51.6445 119.941 52.0898 121.027C52.5352 122.105 52.7578 123.359 52.7578 124.789C52.7578 126.219 52.5352 127.477 52.0898 128.562C51.6445 129.641 51.0234 130.473 50.2266 131.059C49.4375 131.645 48.5391 131.938 47.5312 131.938C46.5156 131.938 45.6094 131.645 44.8125 131.059C44.0234 130.473 43.4062 129.641 42.9609 128.562C42.5234 127.477 42.3047 126.219 42.3047 124.789C42.3047 123.359 42.5234 122.105 42.9609 121.027C43.4062 119.941 44.0234 119.105 44.8125 118.52C45.6094 117.934 46.5156 117.641 47.5312 117.641ZM47.5312 118.953C46.7969 118.953 46.1406 119.199 45.5625 119.691C44.9922 120.184 44.543 120.875 44.2148 121.766C43.8945 122.648 43.7344 123.656 43.7344 124.789C43.7344 125.93 43.8945 126.941 44.2148 127.824C44.543 128.707 44.9922 129.395 45.5625 129.887C46.1406 130.379 46.7969 130.625 47.5312 130.625C48.2656 130.625 48.918 130.383 49.4883 129.898C50.0586 129.406 50.5039 128.719 50.8242 127.836C51.1445 126.945 51.3047 125.93 51.3047 124.789C51.3047 123.656 51.1445 122.648 50.8242 121.766C50.5039 120.875 50.0586 120.184 49.4883 119.691C48.918 119.199 48.2656 118.953 47.5312 118.953Z" fill="#1A1A1A"/>
<path d="M25.4766 120.359C25.4688 120.875 25.5273 121.457 25.6523 122.105C25.7852 122.754 26.0117 123.41 26.332 124.074C26.6523 124.738 27.0742 125.32 27.5977 125.82C28.3477 125.125 28.8828 124.273 29.2031 123.266C29.5312 122.258 29.6953 121.289 29.6953 120.359V118.859H28.0781V117.617H33.8203V118.859H31.125V120.359C31.1172 121.031 31.2383 121.746 31.4883 122.504C31.7383 123.262 32.1211 123.977 32.6367 124.648C33.1523 125.312 33.7891 125.836 34.5469 126.219L33.7266 127.32C32.9297 126.898 32.2578 126.324 31.7109 125.598C31.1641 124.863 30.7461 124.051 30.457 123.16C30.2227 124.082 29.8711 124.926 29.4023 125.691C28.9336 126.449 28.3203 127.055 27.5625 127.508C26.8281 127.047 26.2266 126.434 25.7578 125.668C25.2891 124.895 24.9414 124.051 24.7148 123.137C24.418 124.027 23.9961 124.84 23.4492 125.574C22.9023 126.309 22.2344 126.891 21.4453 127.32L20.625 126.219C21.3672 125.82 21.9961 125.281 22.5117 124.602C23.0273 123.922 23.4141 123.207 23.6719 122.457C23.9297 121.699 24.0625 121 24.0703 120.359V118.859H21.3047V117.617H27.0938V118.859H25.4766V120.359ZM37.1953 121.555H40.0312V122.844H37.1953V128.492H35.7188V116H37.1953V121.555ZM37.1953 136.672H35.7188V130.672H23.4609V129.43H37.1953V136.672Z" fill="#1A1A1A"/>
<path d="M16.1016 122.398H19.2891V123.664H16.1016V131.164H14.625V116H16.1016V122.398ZM17.1094 136.18H3.30469V129.734H4.75781V134.938H17.1094V136.18ZM2.41406 121.133H9.02344V117.5H10.4766V127.625H0.960938V117.5H2.41406V121.133ZM9.02344 126.406V122.328H2.41406V126.406H9.02344Z" fill="#1A1A1A"/>
<path d="M383.602 105.961C383.25 105.961 382.949 105.84 382.699 105.598C382.457 105.355 382.336 105.062 382.336 104.719C382.336 104.367 382.457 104.07 382.699 103.828C382.949 103.578 383.25 103.453 383.602 103.453C383.945 103.453 384.238 103.578 384.48 103.828C384.723 104.07 384.844 104.367 384.844 104.719C384.844 105.055 384.723 105.348 384.48 105.598C384.238 105.84 383.945 105.961 383.602 105.961Z" fill="#1A1A1A"/>
<path d="M376.734 95.3438H380.297V96.5859H376.734V107.695H375.258V87H376.734V95.3438ZM363.352 101.18C365.43 101.18 367.195 101.129 368.648 101.027C370.109 100.926 371.594 100.734 373.102 100.453L373.312 101.742C371.75 102.023 370.227 102.215 368.742 102.316C367.258 102.418 365.461 102.469 363.352 102.469H361.758V89.0391H371.391V90.2812H363.234V101.18H363.352Z" fill="#1A1A1A"/>
<path d="M357 107.672H355.547V87H357V107.672ZM342.938 100.945H343.125C344.836 100.945 346.512 100.867 348.152 100.711C349.801 100.555 351.477 100.297 353.18 99.9375L353.391 101.227C351.625 101.602 349.914 101.867 348.258 102.023C346.602 102.18 344.891 102.258 343.125 102.258H341.484V89.0391H342.938V100.945Z" fill="#1A1A1A"/>
<path d="M323.273 102.023H334.195V99.3984H335.695V107.367H321.797V99.3984H323.273V102.023ZM334.195 106.148V103.242H323.273V106.148H334.195ZM338.18 97.8047H319.336V96.5391H338.18V97.8047ZM329.508 88.2891C329.508 89.1484 329.891 89.9648 330.656 90.7383C331.43 91.5117 332.402 92.1641 333.574 92.6953C334.746 93.2188 335.906 93.5625 337.055 93.7266L336.492 94.8984C335.453 94.7344 334.418 94.4453 333.387 94.0312C332.363 93.6094 331.438 93.082 330.609 92.4492C329.789 91.8164 329.172 91.1094 328.758 90.3281C328.352 91.1094 327.738 91.8203 326.918 92.4609C326.098 93.0938 325.172 93.6172 324.141 94.0312C323.109 94.4453 322.07 94.7344 321.023 94.8984L320.461 93.7266C321.633 93.5547 322.801 93.2109 323.965 92.6953C325.137 92.1797 326.102 91.5391 326.859 90.7734C327.625 90 328.008 89.1719 328.008 88.2891V87.2109H329.508V88.2891Z" fill="#1A1A1A"/>
<path d="M305.414 101.062C305.414 101.703 305.535 102.34 305.778 102.973C306.02 103.605 306.375 104.195 306.844 104.742C307.321 105.281 307.891 105.73 308.555 106.09C309.211 105.691 309.781 105.207 310.266 104.637C310.75 104.059 311.117 103.457 311.367 102.832C311.617 102.207 311.742 101.617 311.742 101.062V99.7734H313.196V101.062C313.188 101.773 313.36 102.473 313.711 103.16C314.071 103.84 314.578 104.453 315.235 105C315.891 105.547 316.649 105.969 317.508 106.266L316.758 107.391C315.735 107.016 314.848 106.477 314.098 105.773C313.356 105.062 312.805 104.258 312.446 103.359C312.117 104.266 311.625 105.094 310.969 105.844C310.313 106.586 309.524 107.156 308.602 107.555C307.625 107.172 306.801 106.617 306.129 105.891C305.465 105.172 304.977 104.352 304.664 103.43C304.289 104.297 303.735 105.082 303 105.785C302.274 106.48 301.422 107.016 300.446 107.391L299.672 106.266C300.516 105.953 301.266 105.516 301.922 104.953C302.578 104.383 303.086 103.758 303.446 103.078C303.805 102.391 303.985 101.719 303.985 101.062V99.7734H305.414V101.062ZM315.586 98.8594H314.11V87H315.586V98.8594ZM304.477 88.2656C305.508 88.2656 306.426 88.4648 307.231 88.8633C308.043 89.2617 308.676 89.8242 309.129 90.5508C309.59 91.2773 309.821 92.1094 309.821 93.0469C309.821 93.9766 309.59 94.8047 309.129 95.5312C308.676 96.25 308.043 96.8086 307.231 97.207C306.426 97.6055 305.508 97.8047 304.477 97.8047C303.446 97.8047 302.524 97.6055 301.711 97.207C300.899 96.8086 300.262 96.25 299.801 95.5312C299.348 94.8047 299.125 93.9766 299.133 93.0469C299.125 92.1094 299.348 91.2773 299.801 90.5508C300.262 89.8242 300.899 89.2617 301.711 88.8633C302.524 88.4648 303.446 88.2656 304.477 88.2656ZM304.477 89.5312C303.727 89.5312 303.055 89.6836 302.461 89.9883C301.867 90.2852 301.403 90.7031 301.067 91.2422C300.731 91.7734 300.563 92.375 300.563 93.0469C300.563 93.7188 300.731 94.3242 301.067 94.8633C301.403 95.3945 301.867 95.8125 302.461 96.1172C303.055 96.4141 303.727 96.5625 304.477 96.5625C305.227 96.5625 305.899 96.4141 306.492 96.1172C307.086 95.8125 307.551 95.3945 307.887 94.8633C308.223 94.3242 308.391 93.7188 308.391 93.0469C308.391 92.375 308.223 91.7734 307.887 91.2422C307.551 90.7031 307.086 90.2852 306.492 89.9883C305.899 89.6836 305.227 89.5312 304.477 89.5312Z" fill="#1A1A1A"/>
<path d="M282.258 89.0156C282.258 89.9844 282.641 90.9023 283.406 91.7695C284.18 92.6289 285.156 93.3477 286.336 93.9258C287.523 94.5039 288.703 94.8828 289.875 95.0625L289.266 96.2812C288.219 96.0938 287.18 95.7695 286.148 95.3086C285.117 94.8477 284.188 94.2734 283.359 93.5859C282.539 92.8906 281.922 92.1211 281.508 91.2773C281.094 92.1289 280.477 92.9023 279.656 93.5977C278.836 94.2852 277.91 94.8555 276.879 95.3086C275.848 95.7617 274.805 96.0859 273.75 96.2812L273.117 95.0625C274.305 94.8828 275.488 94.5078 276.668 93.9375C277.848 93.3672 278.82 92.6523 279.586 91.793C280.352 90.9336 280.734 90.0078 280.734 89.0156V87.7734H282.258V89.0156ZM290.906 100.031H282.164V107.672H280.734V100.031H272.062V98.7656H290.906V100.031Z" fill="#1A1A1A"/>
<path d="M262.5 97.8047H261.047V87H262.5V97.8047ZM262.523 103.617H250.711V106.172H263.32V107.414H249.281V102.445H261.07V100.102H249.211V98.8828H262.523V103.617ZM252.656 89.2266C252.648 90.2109 252.887 91.1523 253.371 92.0508C253.855 92.9414 254.512 93.7227 255.34 94.3945C256.168 95.0664 257.086 95.5781 258.094 95.9297L257.32 97.1016C256.086 96.6562 254.992 95.9922 254.039 95.1094C253.086 94.2188 252.383 93.1875 251.93 92.0156C251.492 93.2734 250.793 94.3828 249.832 95.3438C248.871 96.3047 247.773 97.0234 246.539 97.5L245.766 96.3047C246.766 95.9453 247.676 95.4102 248.496 94.6992C249.316 93.9805 249.965 93.1484 250.441 92.2031C250.926 91.25 251.172 90.2578 251.18 89.2266V87.6328H252.656V89.2266Z" fill="#1A1A1A"/>
<path d="M240.703 95.5547H244.195V96.8203H240.703V107.672H239.227V87H240.703V95.5547ZM235.406 89.25C235.398 91.2188 235.055 93.0898 234.375 94.8633C233.695 96.6289 232.645 98.2617 231.223 99.7617C229.809 101.262 228.016 102.547 225.844 103.617L225.023 102.445C227.75 101.102 229.863 99.4062 231.363 97.3594C232.863 95.3047 233.707 93.0156 233.895 90.4922H225.938V89.25H235.406Z" fill="#1A1A1A"/>
<path d="M221.086 107.672H219.609V98.5547H215.086V97.2891H219.609V94.125H215.086V92.8594H219.609V87H221.086V107.672ZM211.008 93.4453C211.008 94.4922 211.27 95.5859 211.793 96.7266C212.316 97.8594 213.004 98.8945 213.855 99.832C214.707 100.77 215.602 101.477 216.539 101.953L215.625 103.078C214.883 102.688 214.16 102.152 213.457 101.473C212.762 100.785 212.137 100 211.582 99.1172C211.035 98.2344 210.609 97.3203 210.305 96.375C210 97.3984 209.57 98.3828 209.016 99.3281C208.461 100.273 207.828 101.113 207.117 101.848C206.406 102.574 205.68 103.148 204.938 103.57L203.93 102.469C204.867 101.992 205.766 101.27 206.625 100.301C207.492 99.332 208.191 98.2422 208.723 97.0312C209.254 95.8125 209.523 94.6172 209.531 93.4453V90.4219H204.68V89.1562H215.859V90.4219H211.008V93.4453Z" fill="#1A1A1A"/>
<path d="M199.219 95.5547H202.711V96.8203H199.219V107.672H197.742V87H199.219V95.5547ZM193.922 89.25C193.914 91.2188 193.57 93.0898 192.891 94.8633C192.211 96.6289 191.16 98.2617 189.738 99.7617C188.324 101.262 186.531 102.547 184.359 103.617L183.539 102.445C186.266 101.102 188.379 99.4062 189.879 97.3594C191.379 95.3047 192.223 93.0156 192.41 90.4922H184.453V89.25H193.922Z" fill="#1A1A1A"/>
<path d="M175.711 105.023H156.773V103.758H165.445V99.5859H159.211V93.3984H171.797V89.8359H159.141V88.5938H173.25V94.6406H160.664V98.3438H173.742V99.5859H166.922V103.758H175.711V105.023Z" fill="#1A1A1A"/>
<path d="M151.945 95.2734H155.508V96.5859H151.945V107.672H150.469V87H151.945V95.2734ZM138.398 94.3828H145.031V88.7812H146.484V102.633H136.945V88.7812H138.398V94.3828ZM145.031 101.391V95.6016H138.398V101.391H145.031Z" fill="#1A1A1A"/>
<path d="M128.344 99.2109H109.5V97.9922H128.344V99.2109ZM126.258 107.18H111.984V101.18H113.484V105.938H126.258V107.18ZM118.898 87.7266C120.375 87.7266 121.656 87.8906 122.742 88.2188C123.828 88.5391 124.664 89.0039 125.25 89.6133C125.844 90.2227 126.141 90.9531 126.141 91.8047C126.141 92.6484 125.844 93.3789 125.25 93.9961C124.664 94.6055 123.824 95.0742 122.73 95.4023C121.645 95.7227 120.367 95.8828 118.898 95.8828C117.422 95.8828 116.137 95.7227 115.043 95.4023C113.957 95.0742 113.121 94.6055 112.535 93.9961C111.949 93.3789 111.656 92.6484 111.656 91.8047C111.656 90.9531 111.949 90.2227 112.535 89.6133C113.121 88.9961 113.957 88.5273 115.043 88.207C116.129 87.8867 117.414 87.7266 118.898 87.7266ZM118.898 88.9453C117.75 88.9531 116.742 89.0742 115.875 89.3086C115.008 89.543 114.34 89.875 113.871 90.3047C113.402 90.7344 113.172 91.2344 113.18 91.8047C113.172 92.3828 113.402 92.8867 113.871 93.3164C114.34 93.7383 115.008 94.0664 115.875 94.3008C116.742 94.5273 117.75 94.6406 118.898 94.6406C120.047 94.6406 121.055 94.5273 121.922 94.3008C122.789 94.0664 123.457 93.7383 123.926 93.3164C124.402 92.8867 124.641 92.3828 124.641 91.8047C124.641 91.2344 124.402 90.7344 123.926 90.3047C123.457 89.875 122.789 89.543 121.922 89.3086C121.055 89.0742 120.047 88.9531 118.898 88.9453Z" fill="#1A1A1A"/>
<path d="M107.602 98.3438H98.9062V100.992H105.258V107.367H91.1016V100.992H97.4531V98.3438H88.7578V97.1016H107.602V98.3438ZM105.75 88.9219H102.422V93.6797H105.703V94.9453H90.5859V93.6797H93.8906V88.9219H90.5625V87.7031H105.75V88.9219ZM92.5547 106.148H103.828V102.188H92.5547V106.148ZM100.945 93.6797V88.9219H95.3672V93.6797H100.945Z" fill="#1A1A1A"/>
<path d="M74.8125 90.9375C74.8125 91.8672 75.0352 92.7578 75.4805 93.6094C75.9336 94.4609 76.5508 95.2109 77.332 95.8594C78.1211 96.5 79.0078 96.9922 79.9922 97.3359L79.2422 98.5078C78.0547 98.0703 77.0117 97.4336 76.1133 96.5977C75.2148 95.7539 74.5469 94.7812 74.1094 93.6797C73.6797 94.8828 72.9961 95.9414 72.0586 96.8555C71.1289 97.7695 70.0469 98.4609 68.8125 98.9297L68.0156 97.7812C69.0234 97.4141 69.9336 96.8867 70.7461 96.1992C71.5586 95.5117 72.1992 94.7188 72.668 93.8203C73.1367 92.9141 73.375 91.9609 73.3828 90.9609V89.7656H68.5078V88.5234H79.6172V89.7656H74.8125V90.9375ZM84.1172 92.6016H87.3047V93.8906H84.1172V99.4453H82.6406V87H84.1172V92.6016ZM84.1172 107.672H82.6406V101.859H70.6875V100.617H84.1172V107.672Z" fill="#1A1A1A"/>
<path d="M57.5859 93.9844H60.7734V95.25H57.5859V102.516H56.1094V87H57.5859V93.9844ZM53.8828 90.8906H41.5547V89.6484H46.9922V87.0234H48.4453V89.6484H53.8828V90.8906ZM47.7188 92.1562C48.6875 92.1562 49.543 92.3164 50.2852 92.6367C51.0352 92.9492 51.6133 93.3945 52.0195 93.9727C52.4336 94.543 52.6406 95.2109 52.6406 95.9766C52.6406 96.7422 52.4336 97.4102 52.0195 97.9805C51.6133 98.5508 51.0352 98.9922 50.2852 99.3047C49.543 99.6172 48.6875 99.7734 47.7188 99.7734C46.7344 99.7734 45.8672 99.6211 45.1172 99.3164C44.375 99.0039 43.7969 98.5625 43.3828 97.9922C42.9766 97.4141 42.7734 96.7422 42.7734 95.9766C42.7734 95.2109 42.9766 94.5391 43.3828 93.9609C43.7969 93.3828 44.375 92.9375 45.1172 92.625C45.8672 92.3125 46.7344 92.1562 47.7188 92.1562ZM47.7188 93.3516C47.0156 93.3516 46.3945 93.4609 45.8555 93.6797C45.3164 93.8984 44.8984 94.207 44.6016 94.6055C44.3125 95.0039 44.1719 95.4609 44.1797 95.9766C44.1719 96.4844 44.3125 96.9375 44.6016 97.3359C44.8984 97.7266 45.3164 98.0312 45.8555 98.25C46.3945 98.4609 47.0156 98.5625 47.7188 98.5547C48.4141 98.5625 49.0273 98.4609 49.5586 98.25C50.0898 98.0312 50.5039 97.7266 50.8008 97.3359C51.0977 96.9375 51.25 96.4844 51.2578 95.9766C51.25 95.4609 51.0977 95.0039 50.8008 94.6055C50.5039 94.207 50.0898 93.8984 49.5586 93.6797C49.0273 93.4609 48.4141 93.3516 47.7188 93.3516ZM58.5938 107.18H44.7891V101.25H46.2422V105.938H58.5938V107.18Z" fill="#1A1A1A"/>
<path d="M27.6094 90.3984C27.6094 91.375 27.8398 92.3047 28.3008 93.1875C28.7617 94.0703 29.3906 94.8477 30.1875 95.5195C30.9922 96.1836 31.8906 96.6875 32.8828 97.0312L32.0391 98.1797C30.8672 97.7344 29.832 97.0859 28.9336 96.2344C28.0352 95.375 27.3672 94.3828 26.9297 93.2578C26.5078 94.5312 25.8281 95.6523 24.8906 96.6211C23.9531 97.582 22.8516 98.3125 21.5859 98.8125L20.7891 97.5938C21.8125 97.2266 22.7305 96.6914 23.543 95.9883C24.3555 95.2773 24.9961 94.4453 25.4648 93.4922C25.9336 92.5391 26.1719 91.5234 26.1797 90.4453V88.1953H27.6094V90.3984ZM37.7812 99.2812H36.3047V92.8594H31.4766V91.6172H36.3047V87H37.7812V99.2812ZM30.9844 99.8906C32.4062 99.8984 33.6289 100.055 34.6523 100.359C35.6836 100.664 36.4727 101.109 37.0195 101.695C37.5742 102.273 37.8516 102.969 37.8516 103.781C37.8516 104.586 37.5742 105.273 37.0195 105.844C36.4727 106.422 35.6836 106.859 34.6523 107.156C33.6289 107.453 32.4062 107.602 30.9844 107.602C29.5625 107.602 28.3359 107.453 27.3047 107.156C26.2812 106.859 25.4961 106.422 24.9492 105.844C24.4023 105.273 24.1328 104.586 24.1406 103.781C24.1328 102.969 24.4023 102.273 24.9492 101.695C25.4961 101.117 26.2812 100.676 27.3047 100.371C28.3359 100.059 29.5625 99.8984 30.9844 99.8906ZM30.9844 101.109C29.8906 101.109 28.9336 101.219 28.1133 101.438C27.3008 101.648 26.6758 101.957 26.2383 102.363C25.8008 102.762 25.5859 103.234 25.5938 103.781C25.5859 104.312 25.8008 104.777 26.2383 105.176C26.6758 105.574 27.3008 105.879 28.1133 106.09C28.9336 106.301 29.8906 106.406 30.9844 106.406C32.0781 106.406 33.0312 106.301 33.8438 106.09C34.6641 105.879 35.293 105.574 35.7305 105.176C36.1758 104.777 36.3984 104.312 36.3984 103.781C36.3984 103.234 36.1758 102.762 35.7305 102.363C35.293 101.957 34.6641 101.648 33.8438 101.438C33.0312 101.219 32.0781 101.109 30.9844 101.109Z" fill="#1A1A1A"/>
<path d="M6.32812 88.0078C7.32812 88.0078 8.21484 88.1758 8.98828 88.5117C9.76172 88.8398 10.3633 89.3086 10.793 89.918C11.2227 90.5273 11.4375 91.2344 11.4375 92.0391C11.4375 92.7578 11.2578 93.4062 10.8984 93.9844C10.5469 94.5547 10.043 95.0195 9.38672 95.3789C8.73828 95.7305 7.98438 95.9492 7.125 96.0352V98.2148C9.42188 98.0977 11.4297 97.9062 13.1484 97.6406L13.2656 98.7656C11.2969 99.1172 9.23047 99.3516 7.06641 99.4688C4.91016 99.5781 2.61719 99.6328 0.1875 99.6328L0 98.3672H1.05469C2.60938 98.3672 4.14062 98.3398 5.64844 98.2852V96.0469C4.77344 95.9688 4 95.7539 3.32812 95.4023C2.65625 95.0508 2.13672 94.5859 1.76953 94.0078C1.40234 93.4297 1.21875 92.7734 1.21875 92.0391C1.21875 91.2344 1.43359 90.5273 1.86328 89.918C2.29297 89.3086 2.89453 88.8398 3.66797 88.5117C4.44141 88.1758 5.32812 88.0078 6.32812 88.0078ZM6.32812 89.1562C5.60938 89.1562 4.96484 89.2812 4.39453 89.5312C3.83203 89.7734 3.39453 90.1133 3.08203 90.5508C2.76953 90.9883 2.61719 91.4844 2.625 92.0391C2.61719 92.5938 2.76953 93.0898 3.08203 93.5273C3.39453 93.957 3.83203 94.2969 4.39453 94.5469C4.96484 94.7891 5.60938 94.9141 6.32812 94.9219C7.05469 94.9141 7.69922 94.7891 8.26172 94.5469C8.82422 94.2969 9.26172 93.957 9.57422 93.5273C9.88672 93.0898 10.0469 92.5938 10.0547 92.0391C10.0469 91.4844 9.88672 90.9883 9.57422 90.5508C9.26172 90.1133 8.82422 89.7734 8.26172 89.5312C7.69922 89.2812 7.05469 89.1562 6.32812 89.1562ZM16.0078 94.1719H19.2422V95.4375H16.0078V102.844H14.5312V87H16.0078V94.1719ZM16.7812 107.156H3.11719V101.461H4.59375V105.891H16.7812V107.156Z" fill="#1A1A1A"/>
<path d="M639.984 81.4844H638.602L639.914 75.4141H641.695L639.984 81.4844Z" fill="#1A1A1A"/>
<path d="M628.078 63.0625H633.516V58H634.969V78.6953H633.516V70.0234H628.078V73.375H618.797V60.1094H628.078V63.0625ZM620.25 72.1562H626.625V61.3047H620.25V72.1562ZM633.516 68.7812V64.3047H628.078V68.7812H633.516Z" fill="#1A1A1A"/>
<path d="M606.586 59.4062C608.016 59.4141 609.301 59.6523 610.441 60.1211C611.582 60.5898 612.473 61.25 613.113 62.1016C613.762 62.9531 614.086 63.9297 614.086 65.0312C614.086 66.1328 613.762 67.1094 613.113 67.9609C612.473 68.8125 611.582 69.4688 610.441 69.9297C609.301 70.3906 608.016 70.6172 606.586 70.6094C605.164 70.6172 603.883 70.3906 602.742 69.9297C601.609 69.4688 600.719 68.8125 600.07 67.9609C599.43 67.1094 599.109 66.1328 599.109 65.0312C599.109 63.9297 599.43 62.9531 600.07 62.1016C600.719 61.25 601.609 60.5898 602.742 60.1211C603.883 59.6523 605.164 59.4141 606.586 59.4062ZM606.586 60.625C605.438 60.625 604.398 60.8125 603.469 61.1875C602.547 61.5625 601.82 62.0859 601.289 62.7578C600.758 63.4297 600.492 64.1875 600.492 65.0312C600.492 65.875 600.758 66.6289 601.289 67.293C601.82 67.957 602.547 68.4727 603.469 68.8398C604.398 69.207 605.438 69.3906 606.586 69.3906C607.734 69.3906 608.77 69.207 609.691 68.8398C610.621 68.4727 611.352 67.957 611.883 67.293C612.414 66.6289 612.68 65.875 612.68 65.0312C612.68 64.1875 612.414 63.4297 611.883 62.7578C611.352 62.0859 610.621 61.5625 609.691 61.1875C608.77 60.8125 607.734 60.625 606.586 60.625ZM616.125 75.8359H597.188V74.5703H616.125V75.8359Z" fill="#1A1A1A"/>
<path d="M583.266 72.0625C583.266 72.7031 583.387 73.3398 583.629 73.9727C583.871 74.6055 584.227 75.1953 584.696 75.7422C585.172 76.2812 585.742 76.7305 586.406 77.0898C587.063 76.6914 587.633 76.207 588.117 75.6367C588.602 75.0586 588.969 74.457 589.219 73.832C589.469 73.207 589.594 72.6172 589.594 72.0625V70.7734H591.047V72.0625C591.039 72.7734 591.211 73.4727 591.563 74.1602C591.922 74.8398 592.43 75.4531 593.086 76C593.742 76.5469 594.5 76.9688 595.36 77.2656L594.61 78.3906C593.586 78.0156 592.699 77.4766 591.949 76.7734C591.207 76.0625 590.656 75.2578 590.297 74.3594C589.969 75.2656 589.477 76.0938 588.821 76.8438C588.164 77.5859 587.375 78.1562 586.453 78.5547C585.477 78.1719 584.653 77.6172 583.981 76.8906C583.317 76.1719 582.828 75.3516 582.516 74.4297C582.141 75.2969 581.586 76.082 580.852 76.7852C580.125 77.4805 579.274 78.0156 578.297 78.3906L577.524 77.2656C578.367 76.9531 579.117 76.5156 579.774 75.9531C580.43 75.3828 580.938 74.7578 581.297 74.0781C581.656 73.3906 581.836 72.7188 581.836 72.0625V70.7734H583.266V72.0625ZM593.438 69.8594H591.961V58H593.438V69.8594ZM582.328 59.2656C583.36 59.2656 584.278 59.4648 585.082 59.8633C585.895 60.2617 586.528 60.8242 586.981 61.5508C587.442 62.2773 587.672 63.1094 587.672 64.0469C587.672 64.9766 587.442 65.8047 586.981 66.5312C586.528 67.25 585.895 67.8086 585.082 68.207C584.278 68.6055 583.36 68.8047 582.328 68.8047C581.297 68.8047 580.375 68.6055 579.563 68.207C578.75 67.8086 578.113 67.25 577.653 66.5312C577.199 65.8047 576.977 64.9766 576.985 64.0469C576.977 63.1094 577.199 62.2773 577.653 61.5508C578.113 60.8242 578.75 60.2617 579.563 59.8633C580.375 59.4648 581.297 59.2656 582.328 59.2656ZM582.328 60.5312C581.578 60.5312 580.906 60.6836 580.313 60.9883C579.719 61.2852 579.254 61.7031 578.918 62.2422C578.582 62.7734 578.414 63.375 578.414 64.0469C578.414 64.7188 578.582 65.3242 578.918 65.8633C579.254 66.3945 579.719 66.8125 580.313 67.1172C580.906 67.4141 581.578 67.5625 582.328 67.5625C583.078 67.5625 583.75 67.4141 584.344 67.1172C584.938 66.8125 585.403 66.3945 585.738 65.8633C586.074 65.3242 586.242 64.7188 586.242 64.0469C586.242 63.375 586.074 62.7734 585.738 62.2422C585.403 61.7031 584.938 61.2852 584.344 60.9883C583.75 60.6836 583.078 60.5312 582.328 60.5312Z" fill="#1A1A1A"/>
<path d="M560.109 60.0156C560.109 60.9844 560.492 61.9023 561.258 62.7695C562.031 63.6289 563.008 64.3477 564.188 64.9258C565.375 65.5039 566.555 65.8828 567.727 66.0625L567.117 67.2812C566.07 67.0938 565.031 66.7695 564 66.3086C562.969 65.8477 562.039 65.2734 561.211 64.5859C560.391 63.8906 559.773 63.1211 559.359 62.2773C558.945 63.1289 558.328 63.9023 557.508 64.5977C556.688 65.2852 555.762 65.8555 554.73 66.3086C553.699 66.7617 552.656 67.0859 551.602 67.2812L550.969 66.0625C552.156 65.8828 553.34 65.5078 554.52 64.9375C555.699 64.3672 556.672 63.6523 557.438 62.793C558.203 61.9336 558.586 61.0078 558.586 60.0156V58.7734H560.109V60.0156ZM568.758 71.0312H560.016V78.6719H558.586V71.0312H549.914V69.7656H568.758V71.0312Z" fill="#1A1A1A"/>
<path d="M542.227 68.1016H523.383V66.8594H542.227V68.1016ZM539.977 65.0078H525.961V58.7969H539.742V60.0156H527.438V63.7656H539.977V65.0078ZM539.742 74.7578H527.203V77.1719H540.398V78.3906H525.773V73.5859H538.312V71.3359H525.703V70.1406H539.742V74.7578Z" fill="#1A1A1A"/>
<path d="M513.047 69.3203H503.602V59.9219H513.047V69.3203ZM505.031 68.1016H511.617V61.1641H505.031V68.1016ZM518.742 64.3984H521.93V65.6406H518.742V73.1641H517.266V57.9766H518.742V64.3984ZM519.75 78.1797H505.945V71.7344H507.398V76.9375H519.75V78.1797Z" fill="#1A1A1A"/>
<path d="M493.734 78.6719H492.305V58H493.734V78.6719ZM489.422 77.5703H487.992V67.8672H483.27C481.926 70.4062 479.867 72.5 477.094 74.1484L476.203 73.0703C478.461 71.7266 480.203 70.0977 481.43 68.1836C482.664 66.2695 483.363 64.1875 483.527 61.9375H477.023V60.6719H484.992C484.992 62.8203 484.609 64.8125 483.844 66.6484H487.992V58.5859H489.422V77.5703Z" fill="#1A1A1A"/>
<path d="M460.195 73.3281H470.719V70.9141H472.172V78.3672H458.695V70.9141H460.195V73.3281ZM470.719 77.125V74.5234H460.195V77.125H470.719ZM472.172 69.8594H470.695V58H472.172V69.8594ZM455.391 67.1641C458.234 67.1641 460.738 67.1289 462.902 67.0586C465.066 66.9883 467.164 66.8203 469.195 66.5547L469.289 67.6562C467.43 67.9609 465.438 68.168 463.312 68.2773V71.5938H461.836V68.3477C460.336 68.4023 458.266 68.4297 455.625 68.4297L455.391 67.1641ZM463.102 59.5938C463.102 60.3203 463.332 61 463.793 61.6328C464.254 62.2656 464.879 62.8125 465.668 63.2734C466.457 63.7266 467.344 64.0625 468.328 64.2812L467.672 65.4062C466.43 65.1172 465.344 64.6484 464.414 64C463.484 63.3516 462.805 62.5781 462.375 61.6797C461.953 62.6328 461.273 63.4648 460.336 64.1758C459.406 64.8789 458.32 65.3984 457.078 65.7344L456.375 64.5625C457.359 64.3203 458.246 63.957 459.035 63.4727C459.832 62.9805 460.457 62.4023 460.91 61.7383C461.371 61.0664 461.602 60.3516 461.602 59.5938V58.4688H463.102V59.5938Z" fill="#1A1A1A"/>
<path d="M445.477 69.0391H438.984V74.7109H447.773V75.9766H428.836V74.7109H437.508V69.0391H431.32V59.7344H445.266V60.9766H432.797V67.8203H445.477V69.0391Z" fill="#1A1A1A"/>
<path d="M426.938 68.1016H408.094V66.8594H426.938V68.1016ZM424.688 65.0078H410.672V58.7969H424.453V60.0156H412.148V63.7656H424.688V65.0078ZM424.453 74.7578H411.914V77.1719H425.109V78.3906H410.484V73.5859H423.023V71.3359H410.414V70.1406H424.453V74.7578Z" fill="#1A1A1A"/>
<path d="M406.242 70.2812H397.617V74.5469H396.164V70.2812H387.328V69.0391H406.242V70.2812ZM404.133 78.1797H389.812V72.5547H391.289V76.9375H404.133V78.1797ZM391.359 61.4688H402.234V58.6562H403.711V66.8359H389.883V58.6562H391.359V61.4688ZM402.234 65.5938V62.6406H391.359V65.5938H402.234Z" fill="#1A1A1A"/>
<path d="M377.508 65.6875H363.445V58.75H364.898V64.4453H377.508V65.6875ZM379.711 69.9062H360.797V68.6875H379.711V69.9062ZM377.625 78.1562H363.352V72.1562H364.805V76.8906H377.625V78.1562Z" fill="#1A1A1A"/>
<path d="M355.992 66.6484H359.555V67.9141H355.992V78.6719H354.516V58H355.992V66.6484ZM352.312 62.6406H339.961V61.3984H345.469V58.2109H346.945V61.3984H352.312V62.6406ZM346.242 64.5391C347.203 64.5391 348.062 64.7383 348.82 65.1367C349.578 65.5352 350.168 66.0898 350.59 66.8008C351.02 67.5117 351.234 68.3203 351.234 69.2266C351.234 70.1328 351.02 70.9414 350.59 71.6523C350.168 72.3633 349.578 72.918 348.82 73.3164C348.062 73.7148 347.203 73.9141 346.242 73.9141C345.281 73.9141 344.418 73.7148 343.652 73.3164C342.895 72.918 342.301 72.3633 341.871 71.6523C341.449 70.9414 341.242 70.1328 341.25 69.2266C341.242 68.3203 341.449 67.5117 341.871 66.8008C342.301 66.0898 342.895 65.5352 343.652 65.1367C344.418 64.7383 345.281 64.5391 346.242 64.5391ZM346.242 65.7812C345.562 65.7891 344.949 65.9453 344.402 66.25C343.855 66.5469 343.426 66.957 343.113 67.4805C342.809 67.9961 342.656 68.5781 342.656 69.2266C342.656 69.875 342.809 70.4609 343.113 70.9844C343.426 71.5 343.855 71.9062 344.402 72.2031C344.949 72.4922 345.562 72.6328 346.242 72.625C346.922 72.6328 347.535 72.4922 348.082 72.2031C348.629 71.9062 349.055 71.5 349.359 70.9844C349.672 70.4609 349.828 69.875 349.828 69.2266C349.828 68.5781 349.672 67.9961 349.359 67.4805C349.055 66.957 348.629 66.5469 348.082 66.25C347.535 65.9453 346.922 65.7891 346.242 65.7812Z" fill="#1A1A1A"/>
<path d="M322.945 58.4688C324.43 58.4688 325.715 58.625 326.801 58.9375C327.895 59.2422 328.73 59.6875 329.309 60.2734C329.895 60.8516 330.188 61.5469 330.188 62.3594C330.188 63.1641 329.895 63.8555 329.309 64.4336C328.73 65.0117 327.898 65.4531 326.812 65.7578C325.727 66.0547 324.438 66.2031 322.945 66.2031C321.461 66.2031 320.176 66.0547 319.09 65.7578C318.004 65.4531 317.168 65.0117 316.582 64.4336C315.996 63.8555 315.703 63.1641 315.703 62.3594C315.703 61.5469 315.996 60.8516 316.582 60.2734C317.168 59.6875 318.004 59.2422 319.09 58.9375C320.176 58.625 321.461 58.4688 322.945 58.4688ZM322.945 59.6875C321.789 59.6875 320.777 59.7969 319.91 60.0156C319.051 60.2344 318.387 60.5469 317.918 60.9531C317.449 61.3516 317.219 61.8203 317.227 62.3594C317.219 62.8906 317.445 63.3555 317.906 63.7539C318.375 64.1523 319.043 64.4609 319.91 64.6797C320.777 64.8906 321.789 65 322.945 65.0078C324.094 65 325.102 64.8906 325.969 64.6797C326.836 64.4609 327.504 64.1523 327.973 63.7539C328.449 63.3555 328.688 62.8906 328.688 62.3594C328.688 61.8203 328.449 61.3516 327.973 60.9531C327.504 60.5469 326.836 60.2344 325.969 60.0156C325.102 59.7969 324.094 59.6875 322.945 59.6875ZM330.047 78.3672H315.891V71.6641H330.047V78.3672ZM317.344 77.1484H328.617V72.8594H317.344V77.1484ZM332.391 69.4141H313.547V68.1719H332.391V69.4141Z" fill="#1A1A1A"/>
<path d="M309.844 78.6953H308.367V67.6562H303.562V66.4141H308.367V58H309.844V78.6953ZM299.742 64.7969C299.742 65.9453 299.992 67.0742 300.492 68.1836C300.992 69.2852 301.664 70.2656 302.508 71.125C303.352 71.9766 304.273 72.625 305.273 73.0703L304.406 74.2422C303.203 73.6719 302.121 72.8281 301.16 71.7109C300.199 70.5938 299.496 69.3281 299.051 67.9141C298.613 69.4062 297.918 70.7461 296.965 71.9336C296.02 73.1211 294.953 74.0078 293.766 74.5938L292.898 73.4688C293.883 73 294.785 72.3164 295.605 71.418C296.434 70.5195 297.09 69.4922 297.574 68.3359C298.066 67.1797 298.312 66 298.312 64.7969V62.875H293.414V61.6562H298.312V58.3281H299.789V61.6562H304.594V62.875H299.742V64.7969Z" fill="#1A1A1A"/>
<path d="M271.781 59.6406C272.719 59.6406 273.555 59.9023 274.289 60.4258C275.031 60.9414 275.625 61.6836 276.071 62.6523C276.524 63.6133 276.789 64.7422 276.867 66.0391H281.86V58H283.313V78.6953H281.86V67.2578H276.879C276.824 68.6016 276.574 69.7773 276.129 70.7852C275.692 71.793 275.098 72.5703 274.348 73.1172C273.598 73.6641 272.742 73.9375 271.781 73.9375C270.781 73.9375 269.891 73.6445 269.11 73.0586C268.336 72.4727 267.735 71.6406 267.305 70.5625C266.875 69.4766 266.664 68.2188 266.672 66.7891C266.664 65.3594 266.875 64.1055 267.305 63.0273C267.735 61.9414 268.336 61.1055 269.11 60.5195C269.891 59.9336 270.781 59.6406 271.781 59.6406ZM271.781 60.9531C271.055 60.9531 270.41 61.1992 269.848 61.6914C269.293 62.1836 268.86 62.8711 268.547 63.7539C268.235 64.6367 268.078 65.6484 268.078 66.7891C268.078 67.9297 268.231 68.9453 268.535 69.8359C268.848 70.7188 269.285 71.4062 269.848 71.8984C270.41 72.3828 271.055 72.625 271.781 72.625C272.5 72.625 273.141 72.3789 273.703 71.8867C274.266 71.3945 274.703 70.707 275.016 69.8242C275.328 68.9414 275.485 67.9297 275.485 66.7891C275.485 65.6562 275.328 64.6484 275.016 63.7656C274.703 62.875 274.266 62.1836 273.703 61.6914C273.141 61.1992 272.5 60.9531 271.781 60.9531Z" fill="#1A1A1A"/>
<path d="M257.859 68.3359H253.172V72.6133C255.539 72.5195 257.633 72.3672 259.453 72.1562L259.57 73.2578C257.484 73.5625 255.289 73.7734 252.984 73.8906C250.688 74 248.32 74.0547 245.883 74.0547L245.648 72.7656C247.945 72.75 249.961 72.7188 251.695 72.6719V68.3359H247.289V59.9922H257.766V61.2344H248.742V67.0938H257.859V68.3359ZM262.359 78.6953H260.883V58H262.359V78.6953Z" fill="#1A1A1A"/>
<path d="M234.141 71.1016C235.602 71.1016 236.875 71.2539 237.961 71.5586C239.055 71.8555 239.895 72.2891 240.48 72.8594C241.074 73.4219 241.375 74.0938 241.383 74.875C241.375 75.6484 241.074 76.3125 240.48 76.8672C239.895 77.4297 239.055 77.8594 237.961 78.1562C236.875 78.4531 235.602 78.6016 234.141 78.6016C232.68 78.6016 231.406 78.4531 230.32 78.1562C229.242 77.8594 228.41 77.4297 227.824 76.8672C227.238 76.3125 226.945 75.6484 226.945 74.875C226.945 74.0938 227.238 73.4219 227.824 72.8594C228.41 72.2891 229.242 71.8555 230.32 71.5586C231.406 71.2539 232.68 71.1016 234.141 71.1016ZM234.141 72.2734C233 72.2734 231.996 72.3789 231.129 72.5898C230.262 72.8008 229.59 73.1055 229.113 73.5039C228.645 73.8945 228.414 74.3516 228.422 74.875C228.414 75.3828 228.645 75.8281 229.113 76.2109C229.59 76.5938 230.262 76.8867 231.129 77.0898C231.996 77.3008 233 77.4062 234.141 77.4062C235.281 77.4062 236.285 77.3008 237.152 77.0898C238.02 76.8867 238.691 76.5938 239.168 76.2109C239.645 75.8281 239.883 75.3828 239.883 74.875C239.883 74.3516 239.645 73.8945 239.168 73.5039C238.691 73.1055 238.02 72.8008 237.152 72.5898C236.285 72.3789 235.281 72.2734 234.141 72.2734ZM241.172 60.8594C241.172 61.9766 241.141 62.9297 241.078 63.7188C241.016 64.5078 240.859 65.375 240.609 66.3203L239.156 66.1562C239.406 65.2031 239.562 64.3477 239.625 63.5898C239.688 62.832 239.719 61.9219 239.719 60.8594V60.3203H227.062V59.0781H241.172V60.8594ZM243.633 68.9922H224.789V67.7734H232.828V63.6484H234.281V67.7734H243.633V68.9922Z" fill="#1A1A1A"/>
<path d="M221.648 78.6719H220.219V58H221.648V78.6719ZM217.477 77.5469H216.07V66.7891H212.344V65.5469H216.07V58.5391H217.477V77.5469ZM209.977 63.9766C209.969 65.1875 210.152 66.3711 210.527 67.5273C210.902 68.6836 211.438 69.7266 212.133 70.6562C212.828 71.5781 213.633 72.3047 214.547 72.8359L213.633 73.9609C212.602 73.3359 211.707 72.4648 210.949 71.3477C210.191 70.2305 209.633 68.9727 209.273 67.5742C208.898 69.082 208.32 70.4375 207.539 71.6406C206.766 72.8438 205.852 73.7734 204.797 74.4297L203.859 73.3281C204.781 72.7734 205.598 72.0078 206.309 71.0312C207.02 70.0547 207.57 68.957 207.961 67.7383C208.352 66.5117 208.547 65.2578 208.547 63.9766V61.7734H204.352V60.5312H213.961V61.7734H209.977V63.9766Z" fill="#1A1A1A"/>
<path d="M194.484 78.6953H193.008V58H194.484V78.6953ZM183.562 59.6406C184.57 59.6406 185.469 59.9336 186.258 60.5195C187.055 61.1055 187.676 61.9414 188.121 63.0273C188.566 64.1055 188.789 65.3594 188.789 66.7891C188.789 68.2188 188.566 69.4766 188.121 70.5625C187.676 71.6406 187.055 72.4727 186.258 73.0586C185.469 73.6445 184.57 73.9375 183.562 73.9375C182.547 73.9375 181.641 73.6445 180.844 73.0586C180.055 72.4727 179.438 71.6406 178.992 70.5625C178.555 69.4766 178.336 68.2188 178.336 66.7891C178.336 65.3594 178.555 64.1055 178.992 63.0273C179.438 61.9414 180.055 61.1055 180.844 60.5195C181.641 59.9336 182.547 59.6406 183.562 59.6406ZM183.562 60.9531C182.828 60.9531 182.172 61.1992 181.594 61.6914C181.023 62.1836 180.574 62.875 180.246 63.7656C179.926 64.6484 179.766 65.6562 179.766 66.7891C179.766 67.9297 179.926 68.9414 180.246 69.8242C180.574 70.707 181.023 71.3945 181.594 71.8867C182.172 72.3789 182.828 72.625 183.562 72.625C184.297 72.625 184.949 72.3828 185.52 71.8984C186.09 71.4062 186.535 70.7188 186.855 69.8359C187.176 68.9453 187.336 67.9297 187.336 66.7891C187.336 65.6562 187.176 64.6484 186.855 63.7656C186.535 62.875 186.09 62.1836 185.52 61.6914C184.949 61.1992 184.297 60.9531 183.562 60.9531Z" fill="#1A1A1A"/>
<path d="M172.875 64.3984H176.062V65.6641H172.875V73.3047H171.398V57.9766H172.875V64.3984ZM173.883 78.1797H160.078V71.7109H161.531V76.9375H173.883V78.1797ZM162.609 59.5C163.617 59.5 164.523 59.7148 165.328 60.1445C166.141 60.5664 166.777 61.1602 167.238 61.9258C167.707 62.6836 167.945 63.5469 167.953 64.5156C167.945 65.4922 167.707 66.3672 167.238 67.1406C166.777 67.9062 166.141 68.5039 165.328 68.9336C164.523 69.3633 163.617 69.5781 162.609 69.5781C161.594 69.5781 160.676 69.3633 159.855 68.9336C159.043 68.5039 158.402 67.9062 157.934 67.1406C157.473 66.3672 157.242 65.4922 157.242 64.5156C157.242 63.5469 157.473 62.6836 157.934 61.9258C158.402 61.1602 159.043 60.5664 159.855 60.1445C160.676 59.7148 161.594 59.5 162.609 59.5ZM162.609 60.7891C161.875 60.7891 161.207 60.9531 160.605 61.2812C160.012 61.6016 159.543 62.0469 159.199 62.6172C158.855 63.1875 158.688 63.8203 158.695 64.5156C158.688 65.2188 158.855 65.8594 159.199 66.4375C159.543 67.0078 160.012 67.457 160.605 67.7852C161.207 68.1055 161.875 68.2656 162.609 68.2656C163.344 68.2656 164.008 68.1055 164.602 67.7852C165.195 67.457 165.66 67.0078 165.996 66.4375C166.34 65.8672 166.516 65.2266 166.523 64.5156C166.516 63.8125 166.34 63.1797 165.996 62.6172C165.66 62.0469 165.195 61.6016 164.602 61.2812C164.008 60.9531 163.344 60.7891 162.609 60.7891Z" fill="#1A1A1A"/>
<path d="M152.672 69.0391H146.18V74.7109H154.969V75.9766H136.031V74.7109H144.703V69.0391H138.516V59.7344H152.461V60.9766H139.992V67.8203H152.672V69.0391Z" fill="#1A1A1A"/>
<path d="M115.758 59.3828C116.805 59.3828 117.738 59.582 118.559 59.9805C119.387 60.3789 120.035 60.9414 120.504 61.668C120.973 62.3945 121.211 63.2266 121.219 64.1641C121.211 65.0234 121.008 65.7969 120.609 66.4844C120.211 67.1641 119.656 67.7109 118.945 68.125C118.242 68.5391 117.43 68.793 116.508 68.8867V72.6367C118.703 72.5508 120.688 72.3906 122.461 72.1562L122.578 73.2812C120.758 73.5781 118.848 73.7812 116.848 73.8906C114.848 74 112.773 74.0547 110.625 74.0547H109.523L109.242 72.7891C111.766 72.7734 113.695 72.7422 115.031 72.6953V68.8867C114.094 68.8008 113.266 68.5508 112.547 68.1367C111.828 67.7227 111.27 67.1758 110.871 66.4961C110.48 65.8086 110.289 65.0312 110.297 64.1641C110.289 63.2266 110.516 62.3945 110.977 61.668C111.438 60.9414 112.082 60.3789 112.91 59.9805C113.738 59.582 114.688 59.3828 115.758 59.3828ZM115.758 60.6484C114.984 60.6562 114.289 60.8125 113.672 61.1172C113.062 61.4141 112.586 61.8281 112.242 62.3594C111.898 62.8906 111.727 63.4922 111.727 64.1641C111.727 64.8359 111.898 65.4414 112.242 65.9805C112.594 66.5117 113.074 66.9258 113.684 67.2227C114.293 67.5195 114.984 67.6641 115.758 67.6562C116.523 67.6641 117.207 67.5195 117.809 67.2227C118.418 66.9258 118.895 66.5117 119.238 65.9805C119.582 65.4414 119.758 64.8359 119.766 64.1641C119.758 63.4922 119.582 62.8906 119.238 62.3594C118.895 61.8281 118.418 61.4141 117.809 61.1172C117.207 60.8125 116.523 60.6562 115.758 60.6484ZM125.32 66.6719H128.883V67.9375H125.32V78.6719H123.867V58H125.32V66.6719Z" fill="#1A1A1A"/>
<path d="M105.469 70.5625H91.2656V59.875H105.211V61.1172H92.7656V64.4922H104.789V65.7109H92.7656V69.3203H105.469V70.5625ZM107.695 75.8828H88.7578V74.6172H107.695V75.8828Z" fill="#1A1A1A"/>
<path d="M79.0312 60.2031C79.0312 63.3906 78.2852 66.2617 76.793 68.8164C75.3008 71.3711 72.8203 73.4922 69.3516 75.1797L68.5312 73.9844C72.3203 72.1641 74.9258 69.6992 76.3477 66.5898L68.8594 67.3047L68.5781 65.9453L76.8164 65.3828C77.2305 64.1875 77.4805 62.875 77.5664 61.4453H69.6094V60.2031H79.0312ZM85.0078 78.6719H83.5547V58H85.0078V78.6719Z" fill="#1A1A1A"/>
<path d="M57.5859 64.9844H60.7734V66.25H57.5859V73.5156H56.1094V58H57.5859V64.9844ZM53.8828 61.8906H41.5547V60.6484H46.9922V58.0234H48.4453V60.6484H53.8828V61.8906ZM47.7188 63.1562C48.6875 63.1562 49.543 63.3164 50.2852 63.6367C51.0352 63.9492 51.6133 64.3945 52.0195 64.9727C52.4336 65.543 52.6406 66.2109 52.6406 66.9766C52.6406 67.7422 52.4336 68.4102 52.0195 68.9805C51.6133 69.5508 51.0352 69.9922 50.2852 70.3047C49.543 70.6172 48.6875 70.7734 47.7188 70.7734C46.7344 70.7734 45.8672 70.6211 45.1172 70.3164C44.375 70.0039 43.7969 69.5625 43.3828 68.9922C42.9766 68.4141 42.7734 67.7422 42.7734 66.9766C42.7734 66.2109 42.9766 65.5391 43.3828 64.9609C43.7969 64.3828 44.375 63.9375 45.1172 63.625C45.8672 63.3125 46.7344 63.1562 47.7188 63.1562ZM47.7188 64.3516C47.0156 64.3516 46.3945 64.4609 45.8555 64.6797C45.3164 64.8984 44.8984 65.207 44.6016 65.6055C44.3125 66.0039 44.1719 66.4609 44.1797 66.9766C44.1719 67.4844 44.3125 67.9375 44.6016 68.3359C44.8984 68.7266 45.3164 69.0312 45.8555 69.25C46.3945 69.4609 47.0156 69.5625 47.7188 69.5547C48.4141 69.5625 49.0273 69.4609 49.5586 69.25C50.0898 69.0312 50.5039 68.7266 50.8008 68.3359C51.0977 67.9375 51.25 67.4844 51.2578 66.9766C51.25 66.4609 51.0977 66.0039 50.8008 65.6055C50.5039 65.207 50.0898 64.8984 49.5586 64.6797C49.0273 64.4609 48.4141 64.3516 47.7188 64.3516ZM58.5938 78.1797H44.7891V72.25H46.2422V76.9375H58.5938V78.1797Z" fill="#1A1A1A"/>
<path d="M36.8438 64.3047H40.0547V65.5469H36.8438V72.9766H35.3672V57.9766H36.8438V64.3047ZM23.3438 67.9375C25.5625 67.9375 27.3633 67.8906 28.7461 67.7969C30.1289 67.7031 31.5156 67.5156 32.9062 67.2344L33.1172 68.4766C31.7031 68.7422 30.3203 68.9297 28.9688 69.0391C27.625 69.1484 26 69.2031 24.0938 69.2031H23.3438H21.7734V59.8281H30.9375V61.0703H23.25V67.9375H23.3438ZM37.8516 78.1797H24.0469V71.4766H25.5V76.9375H37.8516V78.1797Z" fill="#1A1A1A"/>
<path d="M16.1016 64.4453H19.2891V65.7109H16.1016V73.2344H14.6016V58H16.1016V64.4453ZM10.5234 59.6172C10.5234 61.3281 10.1211 62.9062 9.31641 64.3516C8.51172 65.7969 7.37109 67.0586 5.89453 68.1367C4.42578 69.207 2.70312 70.0625 0.726562 70.7031L0.09375 69.5078C1.78125 68.9688 3.26562 68.2695 4.54688 67.4102C5.82812 66.5508 6.84766 65.5664 7.60547 64.457C8.36328 63.3398 8.80078 62.1406 8.91797 60.8594H0.914062V59.6172H10.5234ZM17.1094 78.1797H3.28125V71.6641H4.75781V76.9375H17.1094V78.1797Z" fill="#1A1A1A"/>
<path d="M570.281 47.9609C569.93 47.9609 569.629 47.8398 569.379 47.5977C569.137 47.3555 569.016 47.0625 569.016 46.7188C569.016 46.3672 569.137 46.0703 569.379 45.8281C569.629 45.5781 569.93 45.4531 570.281 45.4531C570.625 45.4531 570.918 45.5781 571.16 45.8281C571.402 46.0703 571.523 46.3672 571.523 46.7188C571.523 47.0547 571.402 47.3477 571.16 47.5977C570.918 47.8398 570.625 47.9609 570.281 47.9609Z" fill="#1A1A1A"/>
<path d="M563.414 37.3438H566.977V38.5859H563.414V49.6953H561.938V29H563.414V37.3438ZM550.031 43.1797C552.109 43.1797 553.875 43.1289 555.328 43.0273C556.789 42.9258 558.273 42.7344 559.781 42.4531L559.992 43.7422C558.43 44.0234 556.906 44.2148 555.422 44.3164C553.938 44.418 552.141 44.4688 550.031 44.4688H548.438V31.0391H558.07V32.2812H549.914V43.1797H550.031Z" fill="#1A1A1A"/>
<path d="M543.68 49.6719H542.227V29H543.68V49.6719ZM529.617 42.9453H529.805C531.516 42.9453 533.191 42.8672 534.832 42.7109C536.48 42.5547 538.156 42.2969 539.859 41.9375L540.07 43.2266C538.305 43.6016 536.594 43.8672 534.938 44.0234C533.281 44.1797 531.57 44.2578 529.805 44.2578H528.164V31.0391H529.617V42.9453Z" fill="#1A1A1A"/>
<path d="M522.984 40.8594H521.508V29H522.984V40.8594ZM506.086 39.0078C508.461 39.0078 510.5 38.9805 512.203 38.9258V36.4766H508.008V30.0547H517.758V31.2969H509.508V35.2812H517.969V36.4766H513.68V38.8555C515.914 38.7539 517.906 38.5781 519.656 38.3281L519.727 39.4297C517.695 39.7734 515.578 40 513.375 40.1094C511.172 40.2188 508.828 40.2734 506.344 40.2734L506.086 39.0078ZM510.984 44.2344H521.531V41.8203H522.984V49.3672H509.508V41.8203H510.984V44.2344ZM521.531 48.1484V45.4297H510.984V48.1484H521.531Z" fill="#1A1A1A"/>
<path d="M490.946 30.2891C491.821 30.2812 492.621 30.4336 493.348 30.7461C494.074 31.0586 494.676 31.5 495.153 32.0703H500.836V29H502.313V41.2812H500.836V38.1641H495.176C494.699 38.7422 494.094 39.1914 493.36 39.5117C492.633 39.8242 491.828 39.9766 490.946 39.9688C489.922 39.9766 489.004 39.7773 488.192 39.3711C487.387 38.9648 486.754 38.3945 486.293 37.6602C485.84 36.918 485.617 36.0781 485.625 35.1406C485.617 34.1953 485.84 33.3555 486.293 32.6211C486.754 31.8789 487.387 31.3047 488.192 30.8984C489.004 30.4844 489.922 30.2812 490.946 30.2891ZM490.946 31.5547C490.196 31.5547 489.524 31.7109 488.93 32.0234C488.336 32.3281 487.871 32.7539 487.535 33.3008C487.199 33.8477 487.031 34.4609 487.031 35.1406C487.031 35.8125 487.199 36.4219 487.535 36.9688C487.871 37.5078 488.336 37.9297 488.93 38.2344C489.531 38.5391 490.203 38.6875 490.946 38.6797C491.672 38.6875 492.328 38.5391 492.914 38.2344C493.508 37.9297 493.973 37.5078 494.309 36.9688C494.645 36.4219 494.813 35.8125 494.813 35.1406C494.813 34.4609 494.645 33.8516 494.309 33.3125C493.973 32.7656 493.508 32.3359 492.914 32.0234C492.328 31.7109 491.672 31.5547 490.946 31.5547ZM495.516 41.7734C496.938 41.7812 498.16 41.9414 499.184 42.2539C500.215 42.5586 501.004 43.0039 501.551 43.5898C502.106 44.1758 502.383 44.875 502.383 45.6875C502.383 46.5078 502.106 47.2109 501.551 47.7969C501.004 48.3828 500.215 48.8281 499.184 49.1328C498.153 49.4453 496.93 49.6016 495.516 49.6016C494.094 49.6016 492.867 49.4453 491.836 49.1328C490.813 48.8281 490.028 48.3828 489.481 47.7969C488.934 47.2109 488.664 46.5078 488.672 45.6875C488.664 44.875 488.934 44.1758 489.481 43.5898C490.028 43.0039 490.813 42.5586 491.836 42.2539C492.867 41.9414 494.094 41.7812 495.516 41.7734ZM495.516 42.9688C494.422 42.9688 493.465 43.082 492.645 43.3086C491.832 43.5273 491.203 43.8438 490.758 44.2578C490.321 44.6641 490.102 45.1406 490.102 45.6875C490.102 46.2344 490.321 46.7148 490.758 47.1289C491.203 47.5352 491.832 47.8477 492.645 48.0664C493.465 48.293 494.422 48.4062 495.516 48.4062C496.61 48.4062 497.567 48.293 498.387 48.0664C499.207 47.8477 499.84 47.5352 500.285 47.1289C500.731 46.7148 500.953 46.2344 500.953 45.6875C500.953 45.1406 500.731 44.6641 500.285 44.2578C499.84 43.8438 499.207 43.5273 498.387 43.3086C497.567 43.082 496.61 42.9688 495.516 42.9688ZM495.891 33.3125C496.125 33.8906 496.242 34.5 496.242 35.1406C496.242 35.7656 496.133 36.3594 495.914 36.9219H500.836V33.3125H495.891Z" fill="#1A1A1A"/>
<path d="M483.422 40.9062H474.867V45.3359H473.367V40.9062H464.508V39.6406H483.422V40.9062ZM481.312 49.1797H467.016V43.1797H468.469V47.8906H481.312V49.1797ZM473.93 29.5625C475.391 29.5625 476.664 29.7305 477.75 30.0664C478.844 30.3945 479.688 30.8711 480.281 31.4961C480.875 32.1133 481.172 32.8438 481.172 33.6875C481.172 34.5234 480.875 35.25 480.281 35.8672C479.688 36.4766 478.844 36.9453 477.75 37.2734C476.664 37.6016 475.391 37.7656 473.93 37.7656C472.477 37.7656 471.203 37.6016 470.109 37.2734C469.023 36.9453 468.184 36.4766 467.59 35.8672C466.996 35.25 466.703 34.5234 466.711 33.6875C466.703 32.8438 466.996 32.1133 467.59 31.4961C468.184 30.8711 469.023 30.3945 470.109 30.0664C471.203 29.7305 472.477 29.5625 473.93 29.5625ZM473.93 30.8047C472.812 30.8047 471.824 30.9258 470.965 31.168C470.105 31.4023 469.438 31.7383 468.961 32.1758C468.492 32.6055 468.258 33.1094 468.258 33.6875C468.258 34.25 468.496 34.7461 468.973 35.1758C469.449 35.6055 470.113 35.9375 470.965 36.1719C471.824 36.4062 472.812 36.5234 473.93 36.5234C475.055 36.5234 476.047 36.4062 476.906 36.1719C477.766 35.9375 478.434 35.6055 478.91 35.1758C479.387 34.7461 479.625 34.25 479.625 33.6875C479.625 33.1094 479.387 32.6055 478.91 32.1758C478.434 31.7383 477.766 31.4023 476.906 31.168C476.047 30.9258 475.055 30.8047 473.93 30.8047Z" fill="#1A1A1A"/>
<path d="M453.914 37.5547H457.406V38.8203H453.914V49.6719H452.438V29H453.914V37.5547ZM448.617 31.25C448.609 33.2188 448.266 35.0898 447.586 36.8633C446.906 38.6289 445.855 40.2617 444.434 41.7617C443.02 43.2617 441.227 44.5469 439.055 45.6172L438.234 44.4453C440.961 43.1016 443.074 41.4062 444.574 39.3594C446.074 37.3047 446.918 35.0156 447.105 32.4922H439.148V31.25H448.617Z" fill="#1A1A1A"/>
<path d="M427.383 32.1406C427.383 33.3047 427.785 34.4219 428.59 35.4922C429.402 36.5547 430.414 37.4531 431.625 38.1875C432.836 38.9141 434.008 39.3828 435.141 39.5938L434.414 40.8594C433.398 40.6094 432.371 40.1953 431.332 39.6172C430.301 39.0391 429.363 38.3281 428.52 37.4844C427.676 36.6328 427.047 35.7031 426.633 34.6953C426.219 35.7031 425.59 36.6328 424.746 37.4844C423.902 38.3281 422.961 39.0391 421.922 39.6172C420.891 40.1953 419.867 40.6094 418.852 40.8594L418.148 39.5938C419.281 39.375 420.445 38.9023 421.641 38.1758C422.844 37.4492 423.844 36.5547 424.641 35.4922C425.445 34.4297 425.852 33.3125 425.859 32.1406V30.5H427.383V32.1406ZM436.195 46.7656H417.258V45.5234H436.195V46.7656Z" fill="#1A1A1A"/>
<path d="M415.406 42.5938H406.617V49.6719H405.188V42.5938H396.492V41.375H415.406V42.5938ZM400.453 32.8906H411.445V29.8672H412.922V38.7031H398.977V29.8672H400.453V32.8906ZM411.445 37.4844V34.1094H400.453V37.4844H411.445Z" fill="#1A1A1A"/>
<path d="M392.812 41.5391H391.336V36.6172H387.539V35.3516H391.336V29H392.812V41.5391ZM392.812 49.3672H379.43V42.7109H392.812V49.3672ZM380.883 48.1484H391.359V43.9062H380.883V48.1484ZM387.82 32.5156H375.773V31.2969H381.07V28.7891H382.523V31.2969H387.82V32.5156ZM381.797 33.7109C382.711 33.7109 383.527 33.8672 384.246 34.1797C384.965 34.4844 385.523 34.918 385.922 35.4805C386.328 36.0352 386.531 36.6719 386.531 37.3906C386.531 38.1172 386.328 38.7578 385.922 39.3125C385.523 39.8594 384.965 40.2852 384.246 40.5898C383.527 40.8945 382.711 41.0469 381.797 41.0469C380.875 41.0469 380.051 40.8945 379.324 40.5898C378.605 40.2852 378.043 39.8594 377.637 39.3125C377.238 38.7578 377.039 38.1172 377.039 37.3906C377.039 36.6719 377.238 36.0352 377.637 35.4805C378.043 34.918 378.605 34.4844 379.324 34.1797C380.051 33.8672 380.875 33.7109 381.797 33.7109ZM381.797 34.8828C381.148 34.8828 380.57 34.9922 380.062 35.2109C379.555 35.4219 379.16 35.7188 378.879 36.1016C378.598 36.4844 378.461 36.9141 378.469 37.3906C378.461 37.875 378.598 38.3086 378.879 38.6914C379.16 39.0664 379.555 39.3594 380.062 39.5703C380.57 39.7812 381.148 39.8906 381.797 39.8984C382.438 39.8906 383.012 39.7812 383.52 39.5703C384.027 39.3594 384.422 39.0664 384.703 38.6914C384.984 38.3086 385.125 37.875 385.125 37.3906C385.125 36.9141 384.98 36.4844 384.691 36.1016C384.41 35.7188 384.016 35.4219 383.508 35.2109C383.008 34.9922 382.438 34.8828 381.797 34.8828Z" fill="#1A1A1A"/>
<path d="M360.961 35.3984C360.961 36.5156 361.156 37.6211 361.547 38.7148C361.938 39.8086 362.484 40.7969 363.188 41.6797C363.891 42.5625 364.695 43.25 365.602 43.7422L364.734 44.8672C363.695 44.2812 362.785 43.4492 362.004 42.3711C361.23 41.293 360.652 40.0859 360.27 38.75C359.902 40.1719 359.332 41.4609 358.559 42.6172C357.793 43.7734 356.891 44.6719 355.852 45.3125L354.938 44.1875C355.844 43.6562 356.645 42.9219 357.34 41.9844C358.035 41.0469 358.574 40.0039 358.957 38.8555C359.348 37.707 359.547 36.5547 359.555 35.3984V34.1797H355.43V32.9375H359.555V29.7734H360.984V32.9375H365.039V34.1797H360.961V35.3984ZM372.633 49.6719H371.203V29H372.633V49.6719ZM368.461 48.5469H367.055V38.5391H363.539V37.2734H367.055V29.5391H368.461V48.5469Z" fill="#1A1A1A"/>
<path d="M338.695 31.0156C338.695 31.9844 339.078 32.9023 339.844 33.7695C340.617 34.6289 341.594 35.3477 342.773 35.9258C343.961 36.5039 345.141 36.8828 346.312 37.0625L345.703 38.2812C344.656 38.0938 343.617 37.7695 342.586 37.3086C341.555 36.8477 340.625 36.2734 339.797 35.5859C338.977 34.8906 338.359 34.1211 337.945 33.2773C337.531 34.1289 336.914 34.9023 336.094 35.5977C335.273 36.2852 334.348 36.8555 333.316 37.3086C332.285 37.7617 331.242 38.0859 330.188 38.2812L329.555 37.0625C330.742 36.8828 331.926 36.5078 333.105 35.9375C334.285 35.3672 335.258 34.6523 336.023 33.793C336.789 32.9336 337.172 32.0078 337.172 31.0156V29.7734H338.695V31.0156ZM347.344 42.0312H338.602V49.6719H337.172V42.0312H328.5V40.7656H347.344V42.0312Z" fill="#1A1A1A"/>
<path d="M314.531 35.5859C314.531 36.6719 314.785 37.7773 315.293 38.9023C315.801 40.0195 316.477 41.0312 317.32 41.9375C318.164 42.8359 319.062 43.5156 320.016 43.9766L319.148 45.1484C318.383 44.7656 317.652 44.2422 316.957 43.5781C316.262 42.9062 315.641 42.1445 315.094 41.293C314.555 40.4336 314.133 39.5312 313.828 38.5859C313.516 39.6016 313.074 40.5742 312.504 41.5039C311.941 42.4336 311.301 43.2578 310.582 43.9766C309.863 44.6953 309.125 45.2578 308.367 45.6641L307.453 44.4922C308.391 44.0234 309.293 43.3086 310.16 42.3477C311.035 41.3867 311.742 40.3086 312.281 39.1133C312.82 37.9102 313.094 36.7344 313.102 35.5859V32.4219H308.18V31.1562H319.359V32.4219H314.531V35.5859ZM323.672 37.5078H327.234V38.7734H323.672V49.6719H322.195V29H323.672V37.5078Z" fill="#1A1A1A"/>
<path d="M294.141 31.6484C294.133 32.6172 294.371 33.5469 294.855 34.4375C295.34 35.3281 295.996 36.1094 296.824 36.7812C297.66 37.4453 298.578 37.9453 299.578 38.2812L298.828 39.4531C297.594 39.0078 296.496 38.3477 295.535 37.4727C294.574 36.5898 293.867 35.5703 293.414 34.4141C292.977 35.6562 292.273 36.7578 291.305 37.7188C290.344 38.6719 289.242 39.3828 288 39.8516L287.227 38.6797C288.234 38.3125 289.148 37.7773 289.969 37.0742C290.797 36.3633 291.449 35.5391 291.926 34.6016C292.41 33.6562 292.656 32.6719 292.664 31.6484V29.7031H294.141V31.6484ZM304.008 40.0625H302.531V29H304.008V40.0625ZM292.219 43.8828H302.555V41.1641H304.008V49.3672H290.766V41.1641H292.219V43.8828ZM302.555 48.1484V45.1016H292.219V48.1484H302.555Z" fill="#1A1A1A"/>
<path d="M273.094 32.3516C273.094 33.3047 273.324 34.2266 273.785 35.1172C274.254 36 274.891 36.7812 275.695 37.4609C276.5 38.1328 277.391 38.6406 278.367 38.9844L277.523 40.1797C276.359 39.7344 275.324 39.0703 274.418 38.1875C273.52 37.3047 272.852 36.2891 272.414 35.1406C272 36.4141 271.332 37.5312 270.41 38.4922C269.488 39.4531 268.406 40.1875 267.164 40.6953L266.367 39.4766C267.375 39.1016 268.277 38.5586 269.074 37.8477C269.871 37.1367 270.5 36.3047 270.961 35.3516C271.422 34.3984 271.656 33.3828 271.664 32.3047V30.0312H273.094V32.3516ZM283.312 49.6719H281.836V43.6016H269.508V42.4062H283.312V49.6719ZM283.312 41.1875H281.836V34.7422H277.008V33.5H281.836V29H283.312V41.1875Z" fill="#1A1A1A"/>
<path d="M264.469 46.9531H245.531V45.6875H254.203V41.0234H247.828V30.5H249.328V34.3906H260.625V30.5H262.078V41.0234H255.68V45.6875H264.469V46.9531ZM260.625 39.7812V35.6328H249.328V39.7812H260.625Z" fill="#1A1A1A"/>
<path d="M235.688 36.6875H221.625V29.75H223.078V35.4453H235.688V36.6875ZM237.891 40.9062H218.977V39.6875H237.891V40.9062ZM235.805 49.1562H221.531V43.1562H222.984V47.8906H235.805V49.1562Z" fill="#1A1A1A"/>
<path d="M217.195 46.9531H198.258V45.6875H206.93V41.0234H200.555V30.5H202.055V34.3906H213.352V30.5H214.805V41.0234H208.406V45.6875H217.195V46.9531ZM213.352 39.7812V35.6328H202.055V39.7812H213.352Z" fill="#1A1A1A"/>
<path d="M187.969 33.9219H177.469V32.7031H181.969V29.6328H183.469V32.7031H187.969V33.9219ZM182.719 35.4688C183.57 35.4766 184.332 35.6797 185.004 36.0781C185.676 36.4688 186.199 37.0156 186.574 37.7188C186.957 38.4219 187.148 39.2188 187.148 40.1094C187.148 41.0078 186.957 41.8125 186.574 42.5234C186.199 43.2344 185.676 43.7891 185.004 44.1875C184.332 44.5781 183.57 44.7734 182.719 44.7734C181.867 44.7734 181.105 44.5781 180.434 44.1875C179.762 43.7891 179.234 43.2344 178.852 42.5234C178.477 41.8125 178.289 41.0078 178.289 40.1094C178.289 39.2188 178.477 38.4219 178.852 37.7188C179.234 37.0156 179.762 36.4688 180.434 36.0781C181.105 35.6797 181.867 35.4766 182.719 35.4688ZM182.719 36.7344C182.125 36.7422 181.59 36.8945 181.113 37.1914C180.645 37.4883 180.277 37.8945 180.012 38.4102C179.746 38.918 179.617 39.4844 179.625 40.1094C179.617 40.7422 179.746 41.3164 180.012 41.832C180.277 42.3477 180.645 42.75 181.113 43.0391C181.59 43.3281 182.125 43.4688 182.719 43.4609C183.305 43.4688 183.832 43.3281 184.301 43.0391C184.777 42.75 185.148 42.3477 185.414 41.832C185.688 41.3164 185.828 40.7422 185.836 40.1094C185.828 39.4844 185.688 38.918 185.414 38.4102C185.148 37.8945 184.777 37.4883 184.301 37.1914C183.832 36.8945 183.305 36.7422 182.719 36.7344ZM195.047 49.6719H193.641V39.0547H190.523V48.6172H189.141V29.5156H190.523V37.8125H193.641V29H195.047V49.6719Z" fill="#1A1A1A"/>
<path d="M163.641 32.3984C163.641 33.375 163.871 34.3047 164.332 35.1875C164.793 36.0703 165.422 36.8477 166.219 37.5195C167.023 38.1836 167.922 38.6875 168.914 39.0312L168.07 40.1797C166.898 39.7344 165.863 39.0859 164.965 38.2344C164.066 37.375 163.398 36.3828 162.961 35.2578C162.539 36.5312 161.859 37.6523 160.922 38.6211C159.984 39.582 158.883 40.3125 157.617 40.8125L156.82 39.5938C157.844 39.2266 158.762 38.6914 159.574 37.9883C160.387 37.2773 161.027 36.4453 161.496 35.4922C161.965 34.5391 162.203 33.5234 162.211 32.4453V30.1953H163.641V32.3984ZM173.812 41.2812H172.336V34.8594H167.508V33.6172H172.336V29H173.812V41.2812ZM167.016 41.8906C168.438 41.8984 169.66 42.0547 170.684 42.3594C171.715 42.6641 172.504 43.1094 173.051 43.6953C173.605 44.2734 173.883 44.9688 173.883 45.7812C173.883 46.5859 173.605 47.2734 173.051 47.8438C172.504 48.4219 171.715 48.8594 170.684 49.1562C169.66 49.4531 168.438 49.6016 167.016 49.6016C165.594 49.6016 164.367 49.4531 163.336 49.1562C162.312 48.8594 161.527 48.4219 160.98 47.8438C160.434 47.2734 160.164 46.5859 160.172 45.7812C160.164 44.9688 160.434 44.2734 160.98 43.6953C161.527 43.1172 162.312 42.6758 163.336 42.3711C164.367 42.0586 165.594 41.8984 167.016 41.8906ZM167.016 43.1094C165.922 43.1094 164.965 43.2188 164.145 43.4375C163.332 43.6484 162.707 43.957 162.27 44.3633C161.832 44.7617 161.617 45.2344 161.625 45.7812C161.617 46.3125 161.832 46.7773 162.27 47.1758C162.707 47.5742 163.332 47.8789 164.145 48.0898C164.965 48.3008 165.922 48.4062 167.016 48.4062C168.109 48.4062 169.062 48.3008 169.875 48.0898C170.695 47.8789 171.324 47.5742 171.762 47.1758C172.207 46.7773 172.43 46.3125 172.43 45.7812C172.43 45.2344 172.207 44.7617 171.762 44.3633C171.324 43.957 170.695 43.6484 169.875 43.4375C169.062 43.2188 168.109 43.1094 167.016 43.1094Z" fill="#1A1A1A"/>
<path d="M142.359 30.0078C143.359 30.0078 144.246 30.1758 145.02 30.5117C145.793 30.8398 146.395 31.3086 146.824 31.918C147.254 32.5273 147.469 33.2344 147.469 34.0391C147.469 34.7578 147.289 35.4062 146.93 35.9844C146.578 36.5547 146.074 37.0195 145.418 37.3789C144.77 37.7305 144.016 37.9492 143.156 38.0352V40.2148C145.453 40.0977 147.461 39.9062 149.18 39.6406L149.297 40.7656C147.328 41.1172 145.262 41.3516 143.098 41.4688C140.941 41.5781 138.648 41.6328 136.219 41.6328L136.031 40.3672H137.086C138.641 40.3672 140.172 40.3398 141.68 40.2852V38.0469C140.805 37.9688 140.031 37.7539 139.359 37.4023C138.688 37.0508 138.168 36.5859 137.801 36.0078C137.434 35.4297 137.25 34.7734 137.25 34.0391C137.25 33.2344 137.465 32.5273 137.895 31.918C138.324 31.3086 138.926 30.8398 139.699 30.5117C140.473 30.1758 141.359 30.0078 142.359 30.0078ZM142.359 31.1562C141.641 31.1562 140.996 31.2812 140.426 31.5312C139.863 31.7734 139.426 32.1133 139.113 32.5508C138.801 32.9883 138.648 33.4844 138.656 34.0391C138.648 34.5938 138.801 35.0898 139.113 35.5273C139.426 35.957 139.863 36.2969 140.426 36.5469C140.996 36.7891 141.641 36.9141 142.359 36.9219C143.086 36.9141 143.73 36.7891 144.293 36.5469C144.855 36.2969 145.293 35.957 145.605 35.5273C145.918 35.0898 146.078 34.5938 146.086 34.0391C146.078 33.4844 145.918 32.9883 145.605 32.5508C145.293 32.1133 144.855 31.7734 144.293 31.5312C143.73 31.2812 143.086 31.1562 142.359 31.1562ZM152.039 36.1719H155.273V37.4375H152.039V44.8438H150.562V29H152.039V36.1719ZM152.812 49.1562H139.148V43.4609H140.625V47.8906H152.812V49.1562Z" fill="#1A1A1A"/>
<path d="M118.898 29.375C120.414 29.375 121.711 29.5156 122.789 29.7969C123.875 30.0703 124.703 30.4766 125.273 31.0156C125.852 31.5469 126.141 32.1953 126.141 32.9609C126.141 33.7344 125.852 34.3945 125.273 34.9414C124.703 35.4805 123.875 35.8906 122.789 36.1719C121.711 36.4531 120.414 36.5938 118.898 36.5938C117.383 36.5938 116.082 36.4531 114.996 36.1719C113.918 35.8906 113.09 35.4805 112.512 34.9414C111.941 34.3945 111.656 33.7344 111.656 32.9609C111.656 32.1953 111.941 31.5469 112.512 31.0156C113.09 30.4766 113.918 30.0703 114.996 29.7969C116.082 29.5156 117.383 29.375 118.898 29.375ZM118.898 30.5234C117.727 30.5234 116.711 30.625 115.852 30.8281C114.992 31.0234 114.332 31.3047 113.871 31.6719C113.41 32.0312 113.18 32.4609 113.18 32.9609C113.18 33.4766 113.41 33.9219 113.871 34.2969C114.332 34.6719 114.988 34.957 115.84 35.1523C116.699 35.3477 117.719 35.4453 118.898 35.4453C120.078 35.4453 121.098 35.3477 121.957 35.1523C122.824 34.957 123.488 34.6719 123.949 34.2969C124.41 33.9219 124.641 33.4766 124.641 32.9609C124.641 32.4609 124.41 32.0312 123.949 31.6719C123.488 31.3047 122.824 31.0234 121.957 30.8281C121.098 30.625 120.078 30.5234 118.898 30.5234ZM128.344 39.3594H109.5V38.1406H128.344V39.3594ZM125.859 45.7578H113.32V48.1953H126.516V49.4141H111.891V44.6094H124.43V42.5H111.82V41.3281H125.859V45.7578Z" fill="#1A1A1A"/>
<path d="M107.602 40.3438H98.9062V42.9922H105.258V49.3672H91.1016V42.9922H97.4531V40.3438H88.7578V39.1016H107.602V40.3438ZM105.75 30.9219H102.422V35.6797H105.703V36.9453H90.5859V35.6797H93.8906V30.9219H90.5625V29.7031H105.75V30.9219ZM92.5547 48.1484H103.828V44.1875H92.5547V48.1484ZM100.945 35.6797V30.9219H95.3672V35.6797H100.945Z" fill="#1A1A1A"/>
<path d="M74.8125 32.9375C74.8125 33.8672 75.0352 34.7578 75.4805 35.6094C75.9336 36.4609 76.5508 37.2109 77.332 37.8594C78.1211 38.5 79.0078 38.9922 79.9922 39.3359L79.2422 40.5078C78.0547 40.0703 77.0117 39.4336 76.1133 38.5977C75.2148 37.7539 74.5469 36.7812 74.1094 35.6797C73.6797 36.8828 72.9961 37.9414 72.0586 38.8555C71.1289 39.7695 70.0469 40.4609 68.8125 40.9297L68.0156 39.7812C69.0234 39.4141 69.9336 38.8867 70.7461 38.1992C71.5586 37.5117 72.1992 36.7188 72.668 35.8203C73.1367 34.9141 73.375 33.9609 73.3828 32.9609V31.7656H68.5078V30.5234H79.6172V31.7656H74.8125V32.9375ZM84.1172 34.6016H87.3047V35.8906H84.1172V41.4453H82.6406V29H84.1172V34.6016ZM84.1172 49.6719H82.6406V43.8594H70.6875V42.6172H84.1172V49.6719Z" fill="#1A1A1A"/>
<path d="M48.2578 30.5469C49.3281 30.5469 50.2812 30.75 51.1172 31.1562C51.9531 31.5547 52.6055 32.1172 53.0742 32.8438C53.543 33.5625 53.7812 34.3906 53.7891 35.3281C53.7812 36.2734 53.543 37.1094 53.0742 37.8359C52.6055 38.5547 51.9531 39.1133 51.1172 39.5117C50.2891 39.9102 49.3359 40.1094 48.2578 40.1094C47.1875 40.1094 46.2305 39.9102 45.3867 39.5117C44.5508 39.1133 43.8984 38.5508 43.4297 37.8242C42.9609 37.0977 42.7266 36.2656 42.7266 35.3281C42.7266 34.3984 42.9609 33.5703 43.4297 32.8438C43.9062 32.1172 44.5625 31.5547 45.3984 31.1562C46.2344 30.75 47.1875 30.5469 48.2578 30.5469ZM48.2578 31.8594C47.4766 31.8594 46.7734 32.0078 46.1484 32.3047C45.5312 32.6016 45.0469 33.0156 44.6953 33.5469C44.3438 34.0703 44.1719 34.6641 44.1797 35.3281C44.1719 35.9922 44.3438 36.5898 44.6953 37.1211C45.0469 37.6523 45.5312 38.0664 46.1484 38.3633C46.7734 38.6602 47.4766 38.8047 48.2578 38.7969C49.0391 38.8047 49.7383 38.6602 50.3555 38.3633C50.9727 38.0664 51.457 37.6523 51.8086 37.1211C52.1602 36.5898 52.3359 35.9922 52.3359 35.3281C52.3359 34.6641 52.1602 34.0703 51.8086 33.5469C51.457 33.0156 50.9727 32.6016 50.3555 32.3047C49.7383 32.0078 49.0391 31.8594 48.2578 31.8594ZM58.3125 49.6953H56.8359V29H58.3125V49.6953ZM43.1953 43.7188C45.4531 43.7188 47.5977 43.6719 49.6289 43.5781C51.6602 43.4766 53.5859 43.2891 55.4062 43.0156L55.5234 44.1406C54.0547 44.4141 52.5234 44.6172 50.9297 44.75C49.3438 44.875 47.875 44.9531 46.5234 44.9844C45.1719 45.0156 43.6094 45.0312 41.8359 45.0312L41.6016 43.7188H43.1953Z" fill="#1A1A1A"/>
<path d="M31.1484 40.3203H21.7031V30.9219H31.1484V40.3203ZM23.1328 39.1016H29.7188V32.1641H23.1328V39.1016ZM36.8438 35.3984H40.0312V36.6406H36.8438V44.1641H35.3672V28.9766H36.8438V35.3984ZM37.8516 49.1797H24.0469V42.7344H25.5V47.9375H37.8516V49.1797Z" fill="#1A1A1A"/>
<path d="M19.4062 38.6562H15.9141V49.6719H14.4375V29H15.9141V37.3906H19.4062V38.6562ZM2.36719 43.0859H2.50781H2.92969C4.51562 43.0859 6.06641 43.0117 7.58203 42.8633C9.10547 42.7148 10.6641 42.4688 12.2578 42.125L12.4453 43.4141C10.75 43.7578 9.09766 44 7.48828 44.1406C5.88672 44.2812 4.22656 44.3516 2.50781 44.3516H0.914062V31.0391H2.36719V43.0859Z" fill="#1A1A1A"/>
<path d="M330.633 1.64062C331.571 1.64062 332.406 1.90234 333.141 2.42578C333.883 2.94141 334.477 3.68359 334.922 4.65234C335.375 5.61328 335.641 6.74219 335.719 8.03906H340.711V0H342.164V20.6953H340.711V9.25781H335.731C335.676 10.6016 335.426 11.7773 334.981 12.7852C334.543 13.793 333.949 14.5703 333.199 15.1172C332.449 15.6641 331.594 15.9375 330.633 15.9375C329.633 15.9375 328.742 15.6445 327.961 15.0586C327.188 14.4727 326.586 13.6406 326.156 12.5625C325.727 11.4766 325.516 10.2188 325.524 8.78906C325.516 7.35938 325.727 6.10547 326.156 5.02734C326.586 3.94141 327.188 3.10547 327.961 2.51953C328.742 1.93359 329.633 1.64062 330.633 1.64062ZM330.633 2.95312C329.906 2.95312 329.262 3.19922 328.699 3.69141C328.145 4.18359 327.711 4.87109 327.399 5.75391C327.086 6.63672 326.93 7.64844 326.93 8.78906C326.93 9.92969 327.082 10.9453 327.387 11.8359C327.699 12.7188 328.137 13.4062 328.699 13.8984C329.262 14.3828 329.906 14.625 330.633 14.625C331.352 14.625 331.992 14.3789 332.555 13.8867C333.117 13.3945 333.555 12.707 333.867 11.8242C334.18 10.9414 334.336 9.92969 334.336 8.78906C334.336 7.65625 334.18 6.64844 333.867 5.76562C333.555 4.875 333.117 4.18359 332.555 3.69141C331.992 3.19922 331.352 2.95312 330.633 2.95312Z" fill="#1A1A1A"/>
<path d="M307.102 7.99219H307.172C309.008 7.99219 310.645 7.9375 312.082 7.82812C313.52 7.71094 314.969 7.5 316.43 7.19531L316.641 8.46094C315.156 8.75 313.715 8.95703 312.316 9.08203C310.918 9.19922 309.375 9.25781 307.688 9.25781H307.172H305.602V0.984375H307.102V7.99219ZM321.422 11.1562H319.945V4.59375H313.664V3.375H319.945V0H321.422V11.1562ZM321.961 13.5703H307.383V12.3516H313.945V10.1719H315.422V12.3516H321.961V13.5703ZM314.672 14.5312C315.867 14.5391 316.895 14.6641 317.754 14.9062C318.621 15.1406 319.285 15.4844 319.746 15.9375C320.215 16.3906 320.453 16.9375 320.461 17.5781C320.453 18.2188 320.215 18.7656 319.746 19.2188C319.285 19.6719 318.621 20.0156 317.754 20.25C316.895 20.4844 315.867 20.6016 314.672 20.6016C313.477 20.6016 312.445 20.4844 311.578 20.25C310.711 20.0156 310.043 19.6719 309.574 19.2188C309.113 18.7656 308.883 18.2188 308.883 17.5781C308.883 16.9375 309.113 16.3906 309.574 15.9375C310.043 15.4844 310.711 15.1406 311.578 14.9062C312.445 14.6641 313.477 14.5391 314.672 14.5312ZM314.672 15.6797C313.789 15.6797 313.023 15.7578 312.375 15.9141C311.727 16.0625 311.227 16.2812 310.875 16.5703C310.523 16.8516 310.352 17.1875 310.359 17.5781C310.352 17.9688 310.523 18.3086 310.875 18.5977C311.227 18.8867 311.727 19.1055 312.375 19.2539C313.031 19.4102 313.797 19.4844 314.672 19.4766C315.547 19.4844 316.305 19.4102 316.945 19.2539C317.594 19.1055 318.09 18.8867 318.434 18.5977C318.785 18.3086 318.961 17.9688 318.961 17.5781C318.961 16.9844 318.578 16.5195 317.812 16.1836C317.047 15.8477 316 15.6797 314.672 15.6797Z" fill="#1A1A1A"/>
<path d="M294.773 20.6953H293.273V15.375H288.352V14.2031H293.273V0H294.773V20.6953ZM277.758 11.0156C280.516 11.0156 283.004 10.9766 285.223 10.8984C287.449 10.8125 289.57 10.625 291.586 10.3359L291.703 11.4609C289.867 11.7656 287.711 11.9922 285.234 12.1406V20.0156H283.758V12.2109C282.18 12.2734 280.25 12.3047 277.969 12.3047L277.758 11.0156ZM284.578 1.07812C285.594 1.07812 286.496 1.24609 287.285 1.58203C288.074 1.91797 288.688 2.39062 289.125 3C289.562 3.60156 289.781 4.29688 289.781 5.08594C289.781 5.89062 289.562 6.59766 289.125 7.20703C288.688 7.80859 288.074 8.27344 287.285 8.60156C286.496 8.92969 285.594 9.09375 284.578 9.09375C283.555 9.09375 282.648 8.92969 281.859 8.60156C281.07 8.27344 280.457 7.80859 280.02 7.20703C279.59 6.60547 279.375 5.89844 279.375 5.08594C279.375 4.29688 279.594 3.60156 280.031 3C280.469 2.39062 281.078 1.91797 281.859 1.58203C282.648 1.24609 283.555 1.07812 284.578 1.07812ZM284.578 2.27344C283.844 2.27344 283.184 2.39453 282.598 2.63672C282.02 2.87891 281.566 3.21484 281.238 3.64453C280.918 4.07422 280.758 4.55469 280.758 5.08594C280.758 5.64062 280.918 6.13672 281.238 6.57422C281.566 7.00391 282.02 7.33984 282.598 7.58203C283.176 7.82422 283.836 7.94531 284.578 7.94531C285.305 7.94531 285.953 7.82422 286.523 7.58203C287.102 7.33984 287.551 7.00391 287.871 6.57422C288.199 6.13672 288.367 5.64062 288.375 5.08594C288.367 4.55469 288.199 4.07422 287.871 3.64453C287.551 3.21484 287.102 2.87891 286.523 2.63672C285.953 2.39453 285.305 2.27344 284.578 2.27344Z" fill="#1A1A1A"/>
<path d="M263.039 6.375C263.039 7.48438 263.234 8.58594 263.625 9.67969C264.016 10.7734 264.562 11.7578 265.266 12.6328C265.977 13.5078 266.789 14.1875 267.703 14.6719L266.812 15.8203C265.773 15.2344 264.863 14.4062 264.082 13.3359C263.309 12.2578 262.73 11.0508 262.348 9.71484C261.98 11.1367 261.41 12.4258 260.637 13.582C259.871 14.7305 258.969 15.6172 257.93 16.2422L257.016 15.1172C257.914 14.5938 258.711 13.8672 259.406 12.9375C260.102 12.0078 260.645 10.9688 261.035 9.82031C261.426 8.67188 261.625 7.52344 261.633 6.375V5.22656H257.438V3.98438H261.633V0.773438H263.062V3.98438H267.188V5.22656H263.039V6.375ZM274.781 20.6719H273.352V9.77344H270.188V19.5938H268.781V0.46875H270.188V8.48438H273.352V0H274.781V20.6719Z" fill="#1A1A1A"/>
<path d="M247.711 20.6719H246.234V14.5078H233.719V13.3125H247.711V20.6719ZM247.711 12.1875H246.234V0H247.711V12.1875ZM235.266 3.72656C235.266 4.30469 235.336 4.9375 235.477 5.625C235.617 6.3125 235.855 7.00391 236.191 7.69922C236.527 8.38672 236.965 8.98828 237.504 9.50391C238.285 8.77734 238.848 7.88281 239.191 6.82031C239.543 5.75 239.719 4.71875 239.719 3.72656V1.24219H241.125V3.72656C241.117 4.49219 241.23 5.27734 241.465 6.08203C241.707 6.87891 242.082 7.62109 242.59 8.30859C243.098 8.99609 243.734 9.53906 244.5 9.9375L243.656 11.0156C242.867 10.5781 242.207 9.99219 241.676 9.25781C241.145 8.51562 240.738 7.68359 240.457 6.76172C240.215 7.71484 239.852 8.58203 239.367 9.36328C238.883 10.1367 238.258 10.7578 237.492 11.2266C236.727 10.75 236.098 10.1094 235.605 9.30469C235.121 8.5 234.758 7.61328 234.516 6.64453C234.227 7.57422 233.82 8.42188 233.297 9.1875C232.773 9.95312 232.125 10.5625 231.352 11.0156L230.484 9.9375C231.242 9.50781 231.871 8.93359 232.371 8.21484C232.879 7.48828 233.25 6.73047 233.484 5.94141C233.727 5.14453 233.852 4.40625 233.859 3.72656V1.24219H235.266V3.72656Z" fill="#1A1A1A"/>
<path d="M220.336 1.59375C220.336 4.25781 219.562 6.57031 218.016 8.53125C216.469 10.4844 214.109 11.9922 210.938 13.0547L210.305 11.8594C213.773 10.7109 216.195 9.01172 217.57 6.76172L210.422 7.3125L210.117 6.04688L218.133 5.64844C218.508 4.76562 218.73 3.83594 218.801 2.85938H211.148V1.59375H220.336ZM225.938 6.58594H229.125V7.85156H225.938V15.5156H224.438V0H225.938V6.58594ZM226.945 20.1797H213.117V13.9688H214.594V18.9375H226.945V20.1797Z" fill="#1A1A1A"/>
<path d="M199.406 6.98438H202.594V8.25H199.406V15.5156H197.93V0H199.406V6.98438ZM195.703 3.89062H183.375V2.64844H188.812V0.0234375H190.266V2.64844H195.703V3.89062ZM189.539 5.15625C190.508 5.15625 191.363 5.31641 192.105 5.63672C192.855 5.94922 193.434 6.39453 193.84 6.97266C194.254 7.54297 194.461 8.21094 194.461 8.97656C194.461 9.74219 194.254 10.4102 193.84 10.9805C193.434 11.5508 192.855 11.9922 192.105 12.3047C191.363 12.6172 190.508 12.7734 189.539 12.7734C188.555 12.7734 187.688 12.6211 186.938 12.3164C186.195 12.0039 185.617 11.5625 185.203 10.9922C184.797 10.4141 184.594 9.74219 184.594 8.97656C184.594 8.21094 184.797 7.53906 185.203 6.96094C185.617 6.38281 186.195 5.9375 186.938 5.625C187.688 5.3125 188.555 5.15625 189.539 5.15625ZM189.539 6.35156C188.836 6.35156 188.215 6.46094 187.676 6.67969C187.137 6.89844 186.719 7.20703 186.422 7.60547C186.133 8.00391 185.992 8.46094 186 8.97656C185.992 9.48438 186.133 9.9375 186.422 10.3359C186.719 10.7266 187.137 11.0312 187.676 11.25C188.215 11.4609 188.836 11.5625 189.539 11.5547C190.234 11.5625 190.848 11.4609 191.379 11.25C191.91 11.0312 192.324 10.7266 192.621 10.3359C192.918 9.9375 193.07 9.48438 193.078 8.97656C193.07 8.46094 192.918 8.00391 192.621 7.60547C192.324 7.20703 191.91 6.89844 191.379 6.67969C190.848 6.46094 190.234 6.35156 189.539 6.35156ZM200.414 20.1797H186.609V14.25H188.062V18.9375H200.414V20.1797Z" fill="#1A1A1A"/>
<path d="M175.664 10.8984H156.75V9.70312H175.664V10.8984ZM173.273 17.0156H160.57V19.2422H173.977V20.3672H159.117V15.9141H171.797V13.9219H159.07V12.7734H173.273V17.0156ZM173.203 4.78125H160.688V6.82031H173.555V7.94531H159.234V3.72656H171.727V1.80469H159.164V0.703125H173.203V4.78125Z" fill="#1A1A1A"/>
<path d="M153 20.6953H151.523V0H153V20.6953ZM142.078 1.64062C143.086 1.64062 143.984 1.93359 144.773 2.51953C145.57 3.10547 146.191 3.94141 146.637 5.02734C147.082 6.10547 147.305 7.35938 147.305 8.78906C147.305 10.2188 147.082 11.4766 146.637 12.5625C146.191 13.6406 145.57 14.4727 144.773 15.0586C143.984 15.6445 143.086 15.9375 142.078 15.9375C141.062 15.9375 140.156 15.6445 139.359 15.0586C138.57 14.4727 137.953 13.6406 137.508 12.5625C137.07 11.4766 136.852 10.2188 136.852 8.78906C136.852 7.35938 137.07 6.10547 137.508 5.02734C137.953 3.94141 138.57 3.10547 139.359 2.51953C140.156 1.93359 141.062 1.64062 142.078 1.64062ZM142.078 2.95312C141.344 2.95312 140.688 3.19922 140.109 3.69141C139.539 4.18359 139.09 4.875 138.762 5.76562C138.441 6.64844 138.281 7.65625 138.281 8.78906C138.281 9.92969 138.441 10.9414 138.762 11.8242C139.09 12.707 139.539 13.3945 140.109 13.8867C140.688 14.3789 141.344 14.625 142.078 14.625C142.812 14.625 143.465 14.3828 144.035 13.8984C144.605 13.4062 145.051 12.7188 145.371 11.8359C145.691 10.9453 145.852 9.92969 145.852 8.78906C145.852 7.65625 145.691 6.64844 145.371 5.76562C145.051 4.875 144.605 4.18359 144.035 3.69141C143.465 3.19922 142.812 2.95312 142.078 2.95312Z" fill="#1A1A1A"/>
<path d="M132.773 12.7969H131.367V6.86719H128.227V12.0703H126.797V0.398438H128.227V5.625H131.367V0H132.773V12.7969ZM124.406 1.75781C124.398 4.17188 123.691 6.3125 122.285 8.17969C120.887 10.0391 118.891 11.5234 116.297 12.6328L115.523 11.5078C117.719 10.5938 119.445 9.41016 120.703 7.95703C121.969 6.49609 122.684 4.84375 122.848 3H116.344V1.75781H124.406ZM126.023 13.0312C127.461 13.0312 128.707 13.1836 129.762 13.4883C130.816 13.7852 131.625 14.2188 132.188 14.7891C132.758 15.3594 133.047 16.0391 133.055 16.8281C133.047 17.6094 132.758 18.2812 132.188 18.8438C131.625 19.4062 130.816 19.8359 129.762 20.1328C128.707 20.4297 127.461 20.5781 126.023 20.5781C124.578 20.5781 123.328 20.4297 122.273 20.1328C121.227 19.8359 120.422 19.4062 119.859 18.8438C119.297 18.2812 119.016 17.6094 119.016 16.8281C119.016 16.0391 119.297 15.3594 119.859 14.7891C120.422 14.2188 121.227 13.7852 122.273 13.4883C123.328 13.1836 124.578 13.0312 126.023 13.0312ZM126.023 14.2266C124.898 14.2266 123.918 14.332 123.082 14.543C122.246 14.7539 121.602 15.0586 121.148 15.457C120.703 15.8477 120.484 16.3047 120.492 16.8281C120.484 17.3516 120.703 17.8086 121.148 18.1992C121.602 18.582 122.246 18.875 123.082 19.0781C123.918 19.2812 124.898 19.3828 126.023 19.3828C127.133 19.3828 128.105 19.2812 128.941 19.0781C129.777 18.875 130.422 18.582 130.875 18.1992C131.328 17.8086 131.555 17.3516 131.555 16.8281C131.555 16.3047 131.328 15.8477 130.875 15.457C130.422 15.0586 129.777 14.7539 128.941 14.543C128.105 14.332 127.133 14.2266 126.023 14.2266Z" fill="#1A1A1A"/>
<path d="M110.648 4.64062H113.836V5.88281H110.648V10.5938H109.172V0H110.648V4.64062ZM110.648 16.4531H99.1172V19.1484H111.445V20.3672H97.6641V15.3047H109.172V12.8438H97.6172V11.625H110.648V16.4531ZM100.336 0.796875C101.359 0.796875 102.273 0.988281 103.078 1.37109C103.883 1.75391 104.512 2.29297 104.965 2.98828C105.418 3.67578 105.648 4.46094 105.656 5.34375C105.648 6.23438 105.418 7.02734 104.965 7.72266C104.512 8.41797 103.883 8.95703 103.078 9.33984C102.273 9.72266 101.359 9.91406 100.336 9.91406C99.3203 9.91406 98.4062 9.72266 97.5938 9.33984C96.7891 8.95703 96.1562 8.41797 95.6953 7.72266C95.2422 7.02734 95.0156 6.23438 95.0156 5.34375C95.0156 4.46094 95.2422 3.67578 95.6953 2.98828C96.1562 2.29297 96.7891 1.75391 97.5938 1.37109C98.4062 0.988281 99.3203 0.796875 100.336 0.796875ZM100.336 2.03906C99.6016 2.03906 98.9414 2.18359 98.3555 2.47266C97.7695 2.75391 97.3086 3.14844 96.9727 3.65625C96.6367 4.15625 96.4688 4.71875 96.4688 5.34375C96.4688 5.97656 96.6367 6.55078 96.9727 7.06641C97.3086 7.57422 97.7695 7.97266 98.3555 8.26172C98.9414 8.55078 99.6016 8.69531 100.336 8.69531C101.07 8.69531 101.73 8.55078 102.316 8.26172C102.902 7.97266 103.363 7.57422 103.699 7.06641C104.035 6.55078 104.203 5.97656 104.203 5.34375C104.203 4.71875 104.035 4.15625 103.699 3.65625C103.363 3.14844 102.902 2.75391 102.316 2.47266C101.73 2.18359 101.07 2.03906 100.336 2.03906Z" fill="#1A1A1A"/>
<path d="M74.8359 3.35156C74.8359 4.30469 75.0664 5.22656 75.5273 6.11719C75.9961 7 76.6328 7.78125 77.4375 8.46094C78.2422 9.13281 79.1328 9.64062 80.1094 9.98438L79.2656 11.1797C78.1016 10.7344 77.0664 10.0703 76.1602 9.1875C75.2617 8.30469 74.5938 7.28906 74.1562 6.14062C73.7422 7.41406 73.0742 8.53125 72.1523 9.49219C71.2305 10.4531 70.1484 11.1875 68.9062 11.6953L68.1094 10.4766C69.1172 10.1016 70.0195 9.55859 70.8164 8.84766C71.6133 8.13672 72.2422 7.30469 72.7031 6.35156C73.1641 5.39844 73.3984 4.38281 73.4062 3.30469V1.03125H74.8359V3.35156ZM85.0547 20.6719H83.5781V14.6016H71.25V13.4062H85.0547V20.6719ZM85.0547 12.1875H83.5781V5.74219H78.75V4.5H83.5781V0H85.0547V12.1875Z" fill="#1A1A1A"/>
<path d="M66.2109 17.9531H47.2734V16.6875H55.9453V12.0234H49.5703V1.5H51.0703V5.39062H62.3672V1.5H63.8203V12.0234H57.4219V16.6875H66.2109V17.9531ZM62.3672 10.7812V6.63281H51.0703V10.7812H62.3672Z" fill="#1A1A1A"/>
<path d="M39.5859 12.2109H20.7422V10.9922H39.5859V12.2109ZM37.5 20.1797H23.2266V14.1797H24.7266V18.9375H37.5V20.1797ZM30.1406 0.726562C31.6172 0.726562 32.8984 0.890625 33.9844 1.21875C35.0703 1.53906 35.9062 2.00391 36.4922 2.61328C37.0859 3.22266 37.3828 3.95312 37.3828 4.80469C37.3828 5.64844 37.0859 6.37891 36.4922 6.99609C35.9062 7.60547 35.0664 8.07422 33.9727 8.40234C32.8867 8.72266 31.6094 8.88281 30.1406 8.88281C28.6641 8.88281 27.3789 8.72266 26.2852 8.40234C25.1992 8.07422 24.3633 7.60547 23.7773 6.99609C23.1914 6.37891 22.8984 5.64844 22.8984 4.80469C22.8984 3.95312 23.1914 3.22266 23.7773 2.61328C24.3633 1.99609 25.1992 1.52734 26.2852 1.20703C27.3711 0.886719 28.6562 0.726562 30.1406 0.726562ZM30.1406 1.94531C28.9922 1.95312 27.9844 2.07422 27.1172 2.30859C26.25 2.54297 25.582 2.875 25.1133 3.30469C24.6445 3.73438 24.4141 4.23438 24.4219 4.80469C24.4141 5.38281 24.6445 5.88672 25.1133 6.31641C25.582 6.73828 26.25 7.06641 27.1172 7.30078C27.9844 7.52734 28.9922 7.64062 30.1406 7.64062C31.2891 7.64062 32.2969 7.52734 33.1641 7.30078C34.0312 7.06641 34.6992 6.73828 35.168 6.31641C35.6445 5.88672 35.8828 5.38281 35.8828 4.80469C35.8828 4.23438 35.6445 3.73438 35.168 3.30469C34.6992 2.875 34.0312 2.54297 33.1641 2.30859C32.2969 2.07422 31.2891 1.95312 30.1406 1.94531Z" fill="#1A1A1A"/>
<path d="M6.79688 3.9375C6.79688 4.86719 7.01953 5.75781 7.46484 6.60938C7.91797 7.46094 8.53516 8.21094 9.31641 8.85938C10.1055 9.5 10.9922 9.99219 11.9766 10.3359L11.2266 11.5078C10.0391 11.0703 8.99609 10.4336 8.09766 9.59766C7.19922 8.75391 6.53125 7.78125 6.09375 6.67969C5.66406 7.88281 4.98047 8.94141 4.04297 9.85547C3.11328 10.7695 2.03125 11.4609 0.796875 11.9297L0 10.7812C1.00781 10.4141 1.91797 9.88672 2.73047 9.19922C3.54297 8.51172 4.18359 7.71875 4.65234 6.82031C5.12109 5.91406 5.35938 4.96094 5.36719 3.96094V2.76562H0.492188V1.52344H11.6016V2.76562H6.79688V3.9375ZM16.1016 5.60156H19.2891V6.89062H16.1016V12.4453H14.625V0H16.1016V5.60156ZM16.1016 20.6719H14.625V14.8594H2.67188V13.6172H16.1016V20.6719Z" fill="#1A1A1A"/>
</svg>
