<svg width="58" height="66" viewBox="0 0 58 66" fill="none" xmlns="http://www.w3.org/2000/svg">
<path fill-rule="evenodd" clip-rule="evenodd" d="M4.08538 0C6.34167 0 8.17076 1.82909 8.17076 4.08538V12.6698C13.3596 7.37364 20.5924 4.08538 28.5977 4.08538C41.0556 4.08538 51.6431 12.0491 55.567 23.1508C56.3189 25.2782 55.2039 27.6122 53.0766 28.3641C50.9493 29.116 48.6152 28.001 47.8633 25.8737C45.0572 17.9344 37.4853 12.2561 28.5977 12.2561C21.9183 12.2561 15.9821 15.4632 12.2535 20.4269H24.5123C26.7686 20.4269 28.5977 22.256 28.5977 24.5123C28.5977 26.7686 26.7686 28.5977 24.5123 28.5977H4.08538C1.82909 28.5977 0 26.7686 0 24.5123V4.08538C0 1.82909 1.82909 0 4.08538 0ZM4.11874 37.0019C6.24606 36.25 8.58013 37.365 9.33203 39.4924C12.1382 47.4316 19.71 53.1099 28.5977 53.1099C35.277 53.1099 41.2132 49.9028 44.9418 44.9392L32.683 44.9392C30.4267 44.9392 28.5977 43.1101 28.5977 40.8538C28.5977 38.5975 30.4267 36.7684 32.683 36.7684H53.1099C54.1934 36.7684 55.2326 37.1988 55.9987 37.965C56.7649 38.7311 57.1953 39.7703 57.1953 40.8538V61.2807C57.1953 63.537 55.3662 65.3661 53.1099 65.3661C50.8536 65.3661 49.0246 63.537 49.0246 61.2807V52.6963C43.8357 57.9924 36.6029 61.2807 28.5977 61.2807C16.1397 61.2807 5.55222 53.317 1.62832 42.2152C0.876416 40.0879 1.99142 37.7538 4.11874 37.0019Z" fill="#21272A"/>
</svg>
