<svg width="287" height="33" viewBox="0 0 287 33" fill="none" xmlns="http://www.w3.org/2000/svg">
<path d="M274.043 4.5C274.043 6.09375 274.494 7.65234 275.396 9.17578C276.311 10.6992 277.629 12.0234 279.352 13.1484C281.086 14.2734 283.113 15.0352 285.434 15.4336L283.465 19.1602C280.723 18.6211 278.332 17.6191 276.293 16.1543C274.266 14.6895 272.725 12.9082 271.67 10.8105C270.592 12.8965 269.033 14.6719 266.994 16.1367C264.967 17.6016 262.594 18.6094 259.875 19.1602L257.941 15.4336C260.227 15.0234 262.225 14.2559 263.936 13.1309C265.646 12.0059 266.959 10.6816 267.873 9.1582C268.787 7.62305 269.25 6.07031 269.262 4.5V2.17969H274.043V4.5ZM286.488 28.3359H257.203V24.6445H286.488V28.3359Z" fill="#1A1A1A"/>
<path d="M255.34 22.2539H242.824V32.2734H238.395V22.2539H226.055V18.7383H255.34V22.2539ZM233.93 5.20312H247.359V1.51172H251.859V15.6445H229.5V1.51172H233.93V5.20312ZM247.359 12.0586V8.71875H233.93V12.0586H247.359Z" fill="#1A1A1A"/>
<path d="M221.941 19.6172H217.477V13.3242H213.328V9.66797H217.477V0.28125H221.941V19.6172ZM221.941 31.9219H200.426V20.9883H221.941V31.9219ZM204.926 28.3359H217.547V24.5039H204.926V28.3359ZM213.891 6.64453H195.047V3.05859H202.289V0H206.719V3.05859H213.891V6.64453ZM204.504 7.69922C205.98 7.69922 207.299 7.94531 208.459 8.4375C209.631 8.92969 210.539 9.60938 211.184 10.4766C211.84 11.3438 212.168 12.3281 212.168 13.4297C212.168 14.5781 211.84 15.5918 211.184 16.4707C210.539 17.3379 209.637 18.0176 208.477 18.5098C207.316 18.9902 205.992 19.2305 204.504 19.2305C203.027 19.2305 201.703 18.9902 200.531 18.5098C199.359 18.0176 198.445 17.332 197.789 16.4531C197.133 15.5742 196.805 14.5664 196.805 13.4297C196.805 12.3281 197.133 11.3438 197.789 10.4766C198.457 9.60938 199.377 8.92969 200.549 8.4375C201.721 7.94531 203.039 7.69922 204.504 7.69922ZM204.504 11.0742C203.449 11.0742 202.617 11.2793 202.008 11.6895C201.41 12.0996 201.117 12.6797 201.129 13.4297C201.117 14.2266 201.41 14.8418 202.008 15.2754C202.617 15.709 203.449 15.9258 204.504 15.9258C205.547 15.9258 206.367 15.709 206.965 15.2754C207.574 14.8418 207.879 14.2266 207.879 13.4297C207.879 12.6797 207.574 12.0996 206.965 11.6895C206.355 11.2793 205.535 11.0742 204.504 11.0742Z" fill="#1A1A1A"/>
<path d="M173.848 10.0195C173.848 12.6328 174.357 15.0234 175.377 17.1914C176.408 19.3594 177.996 21.0234 180.141 22.1836L177.68 25.4531C176.285 24.7383 175.096 23.7656 174.111 22.5352C173.127 21.3047 172.348 19.8809 171.773 18.2637C171.188 20.0332 170.402 21.5977 169.418 22.957C168.434 24.3164 167.238 25.4062 165.832 26.2266L163.266 22.8516C165.434 21.5977 167.027 19.8223 168.047 17.5254C169.078 15.2285 169.605 12.7266 169.629 10.0195V9.28125H164.461V5.69531H169.629V1.37109H173.812V5.69531H178.875V9.28125H173.848V10.0195ZM191.531 32.2734H187.277V0.28125H191.531V32.2734ZM184.992 30.7969H180.773V16.0664H177.012V12.4102H180.773V0.808594H184.992V30.7969Z" fill="#1A1A1A"/>
<path d="M141.434 2.77734C141.434 4.06641 141.867 5.33789 142.734 6.5918C143.602 7.83398 144.879 8.91211 146.566 9.82617C148.254 10.7402 150.27 11.3438 152.613 11.6367L150.855 15.2578C148.113 14.8594 145.729 14.0625 143.701 12.8672C141.686 11.6602 140.139 10.1719 139.061 8.40234C137.994 10.1719 136.459 11.6602 134.455 12.8672C132.451 14.0625 130.09 14.8594 127.371 15.2578L125.578 11.6367C127.898 11.3438 129.902 10.7402 131.59 9.82617C133.277 8.91211 134.555 7.83398 135.422 6.5918C136.289 5.33789 136.723 4.06641 136.723 2.77734V1.23047H141.434V2.77734ZM153.633 21.3398H141.188V32.2734H136.758V21.3398H124.453V17.6836H153.633V21.3398Z" fill="#1A1A1A"/>
<path d="M105.152 9C105.141 10.6758 105.428 12.3574 106.014 14.0449C106.611 15.7324 107.502 17.2793 108.686 18.6855C109.869 20.0801 111.305 21.1641 112.992 21.9375L110.496 25.4531C108.762 24.6562 107.256 23.502 105.979 21.9902C104.701 20.4668 103.693 18.709 102.955 16.7168C102.217 18.9082 101.186 20.8359 99.8613 22.5C98.5488 24.1641 96.9961 25.418 95.2031 26.2617L92.6016 22.7109C94.3125 21.9141 95.7715 20.7832 96.9785 19.3184C98.1855 17.8418 99.0938 16.207 99.7031 14.4141C100.324 12.6211 100.641 10.8164 100.652 9V7.03125H93.8672V3.375H111.586V7.03125H105.152V9ZM118.582 12.4805H123.293V16.2422H118.582V32.2734H114.082V0.28125H118.582V12.4805Z" fill="#1A1A1A"/>
<path d="M74.4961 4.21875C74.4844 5.51953 74.748 6.76758 75.2871 7.96289C75.8262 9.14648 76.6582 10.207 77.7832 11.1445C78.9199 12.0703 80.332 12.7734 82.0195 13.2539L79.875 16.7344C78.0703 16.207 76.5234 15.416 75.2344 14.3613C73.9453 13.3066 72.9258 12.0527 72.1758 10.5996C71.4375 12.1816 70.4004 13.5527 69.0645 14.7129C67.7285 15.8613 66.1289 16.7109 64.2656 17.2617L62.1211 13.7461C63.832 13.2422 65.2617 12.498 66.4102 11.5137C67.5703 10.5176 68.4258 9.39258 68.9766 8.13867C69.5391 6.87305 69.8203 5.56641 69.8203 4.21875V1.23047H74.4961V4.21875ZM89.0156 17.4727H84.5156V0.28125H89.0156V17.4727ZM72.0352 21.8672H84.5508V18.8789H89.0156V31.9219H67.6055V18.8789H72.0352V21.8672ZM84.5508 28.3008V25.3477H72.0352V28.3008H84.5508Z" fill="#1A1A1A"/>
<path d="M43.1016 5.27344C43.0898 6.64453 43.3418 7.95117 43.8574 9.19336C44.3848 10.4238 45.1934 11.5254 46.2832 12.498C47.3848 13.4707 48.75 14.2148 50.3789 14.7305L47.9883 18.2812C46.3125 17.7188 44.877 16.8926 43.6816 15.8027C42.498 14.7129 41.5547 13.418 40.8516 11.918C40.125 13.5469 39.1289 14.9531 37.8633 16.1367C36.6094 17.3203 35.0977 18.2227 33.3281 18.8438L30.9023 15.2578C32.625 14.707 34.0547 13.9102 35.1914 12.8672C36.3281 11.8125 37.1719 10.6172 37.7227 9.28125C38.2734 7.93359 38.5547 6.50391 38.5664 4.99219V1.93359H43.1016V5.27344ZM58.0781 32.2734H53.6133V24.3281H36.1055V20.7773H58.0781V32.2734ZM58.0781 19.3359H53.6133V9.91406H47.6016V6.22266H53.6133V0.28125H58.0781V19.3359Z" fill="#1A1A1A"/>
<path d="M29.2852 28.5469H0V24.8906H12.3398V18.9844H3.09375V2.32031H7.59375V7.27734H21.5508V2.32031H26.0156V18.9844H16.8047V24.8906H29.2852V28.5469ZM21.5508 15.3984V10.8633H7.59375V15.3984H21.5508Z" fill="#1A1A1A"/>
</svg>
