<svg width="41" height="41" viewBox="0 0 41 41" fill="none" xmlns="http://www.w3.org/2000/svg">
<rect x="0.0136719" width="40.9766" height="41" fill="#FFEC60"/>
<rect width="12.7934" height="13.1365" transform="matrix(0.706908 -0.707306 0.706908 0.707306 7.89258 11.9561)" fill="#FFFCE5"/>
<path d="M7.74083 34.0347L0.0133348 40.9997L0.0862687 24.4689L7.74083 34.0347Z" fill="#FFDC14"/>
<path d="M25.9191 34.0389H7.7719L17.1772 21.2479L25.9191 34.0389Z" fill="#FFDC14"/>
<path d="M7.89317 12.0775L0.0862687 21.2955L0.0862033 3.98882L7.89317 12.0775Z" fill="#FFDC14"/>
<path d="M41 40.988L25.9259 34.0488L35.7403 21.9114L41 40.988Z" fill="#FFDC14"/>
<path d="M35.7418 5.67176L35.7419 21.7782L26.204 12.2664L35.7418 5.67176Z" fill="#FFDC14"/>
<path d="M4.39153 0.0424805L2.41452e-05 3.96581L0 0.0424805L4.39153 0.0424805Z" fill="#FFDC14"/>
<path d="M7.73655 34.0387H25.9388L40.9903 41H0.0136719L7.73655 34.0387Z" fill="#F8BA27"/>
<path d="M35.7806 21.7663V5.60689L40.9904 0L40.9903 41L35.7806 21.7663Z" fill="#F8BA27"/>
</svg>
