<svg width="303" height="32" viewBox="0 0 303 32" fill="none" xmlns="http://www.w3.org/2000/svg">
<path d="M301.641 21.1641H297.668L297.246 3.19922H302.027L301.641 21.1641ZM299.672 28.9336C299.18 28.9336 298.723 28.8105 298.301 28.5645C297.879 28.3184 297.545 27.9844 297.299 27.5625C297.053 27.1406 296.93 26.6836 296.93 26.1914C296.93 25.7109 297.053 25.2656 297.299 24.8555C297.545 24.4336 297.879 24.0996 298.301 23.8535C298.723 23.6074 299.18 23.4844 299.672 23.4844C300.141 23.4844 300.58 23.6074 300.99 23.8535C301.412 24.0996 301.746 24.4336 301.992 24.8555C302.25 25.2656 302.379 25.7109 302.379 26.1914C302.379 26.6836 302.25 27.1406 301.992 27.5625C301.746 27.9844 301.412 28.3184 300.99 28.5645C300.58 28.8105 300.141 28.9336 299.672 28.9336Z" fill="black"/>
<path d="M293.414 27.9141H264.375V24.7148H271.09V16.6816C269.801 15.9316 268.799 15 268.084 13.8867C267.381 12.7734 267.035 11.5195 267.047 10.125C267.035 8.47266 267.533 7.00781 268.541 5.73047C269.549 4.45312 270.949 3.46875 272.742 2.77734C274.535 2.07422 276.562 1.72266 278.824 1.72266C281.098 1.72266 283.131 2.07422 284.924 2.77734C286.729 3.46875 288.135 4.45312 289.143 5.73047C290.162 6.99609 290.672 8.46094 290.672 10.125C290.672 11.4844 290.326 12.7207 289.635 13.834C288.955 14.9355 287.988 15.8555 286.734 16.5938V24.7148H293.414V27.9141ZM278.824 4.81641C277.242 4.81641 275.848 5.0332 274.641 5.4668C273.445 5.88867 272.514 6.49805 271.846 7.29492C271.189 8.0918 270.867 9.03516 270.879 10.125C270.867 11.2031 271.189 12.1406 271.846 12.9375C272.514 13.7344 273.451 14.3496 274.658 14.7832C275.865 15.2168 277.254 15.4336 278.824 15.4336C280.395 15.4336 281.783 15.2168 282.99 14.7832C284.209 14.3496 285.152 13.7344 285.82 12.9375C286.5 12.1406 286.84 11.2031 286.84 10.125C286.84 9.04688 286.5 8.10938 285.82 7.3125C285.152 6.50391 284.215 5.88867 283.008 5.4668C281.801 5.0332 280.406 4.81641 278.824 4.81641ZM282.762 24.7148V18.0879C281.52 18.3574 280.207 18.4922 278.824 18.4922C277.5 18.4922 276.211 18.3633 274.957 18.1055V24.7148H282.762Z" fill="black"/>
<path d="M243.176 8.33203C243.176 10.1133 243.387 11.8418 243.809 13.5176C244.242 15.1934 244.916 16.7285 245.83 18.123C246.744 19.5176 247.887 20.6484 249.258 21.5156L247.113 24.5039C245.73 23.6719 244.559 22.5586 243.598 21.1641C242.637 19.7578 241.881 18.1465 241.33 16.3301C240.732 18.3105 239.918 20.0684 238.887 21.6035C237.855 23.1387 236.613 24.3516 235.16 25.2422L232.734 22.3242C234.223 21.4219 235.465 20.2383 236.461 18.7734C237.457 17.3086 238.195 15.6973 238.676 13.9395C239.168 12.1816 239.414 10.3711 239.414 8.50781V2.8125H243.176V8.33203ZM260.684 31.7812H256.922V0H260.684V31.7812ZM254.074 30.2344H250.383V14.168H245.848V10.9336H250.383V0.5625H254.074V30.2344Z" fill="black"/>
<path d="M231.188 27.9492H202.148V24.75H214.664V18.5625H205.348V2.10938H209.25V7.3125H223.98V2.10938H227.883V18.5625H218.531V24.75H231.188V27.9492ZM223.98 15.3984V10.4414H209.25V15.3984H223.98Z" fill="black"/>
<path d="M186.539 8.19141H170.965V5.0625H176.871V0.914062H180.738V5.0625H186.539V8.19141ZM178.805 9.87891C180.141 9.87891 181.33 10.1953 182.373 10.8281C183.428 11.4492 184.248 12.3223 184.834 13.4473C185.432 14.5723 185.73 15.8438 185.73 17.2617C185.73 18.7031 185.432 19.9922 184.834 21.1289C184.248 22.2656 183.428 23.1562 182.373 23.8008C181.33 24.4336 180.141 24.75 178.805 24.75C177.48 24.75 176.291 24.4336 175.236 23.8008C174.182 23.1562 173.355 22.2656 172.758 21.1289C172.16 19.9922 171.867 18.7031 171.879 17.2617C171.867 15.8438 172.16 14.5723 172.758 13.4473C173.355 12.3223 174.182 11.4492 175.236 10.8281C176.291 10.1953 177.48 9.87891 178.805 9.87891ZM178.805 13.1133C178.113 13.1133 177.504 13.2891 176.977 13.6406C176.449 13.9805 176.039 14.4668 175.746 15.0996C175.453 15.7207 175.312 16.4414 175.324 17.2617C175.312 18.1055 175.453 18.8438 175.746 19.4766C176.039 20.1094 176.449 20.5957 176.977 20.9355C177.504 21.2637 178.113 21.4219 178.805 21.4102C179.484 21.4219 180.088 21.2637 180.615 20.9355C181.143 20.5957 181.553 20.1094 181.846 19.4766C182.139 18.8438 182.285 18.1055 182.285 17.2617C182.285 16.4414 182.139 15.7207 181.846 15.0996C181.553 14.4668 181.143 13.9805 180.615 13.6406C180.088 13.2891 179.484 13.1133 178.805 13.1133ZM198.352 31.7812H194.625V16.2422H191.531V30.3398H187.875V0.667969H191.531V13.0781H194.625V0H198.352V31.7812Z" fill="black"/>
<path d="M166.395 19.4766H162.457V0.0351562H166.395V19.4766ZM166.395 31.7812H162.457V24.1523H144.703V20.9531H166.395V31.7812ZM156.199 11.25H145.441V14.8008C148.324 14.7891 150.809 14.7246 152.895 14.6074C154.98 14.4785 157.113 14.25 159.293 13.9219L159.785 17.0508C157.418 17.4258 155.086 17.6777 152.789 17.8066C150.504 17.9355 147.68 18 144.316 18H141.609V8.22656H152.332V4.99219H141.539V1.82812H156.199V11.25Z" fill="black"/>
<path d="M134.297 3.9375C134.297 5.625 134.256 7.10156 134.174 8.36719C134.104 9.63281 133.922 11.0156 133.629 12.5156H137.707V15.6445H108.879V12.5156H129.744C129.932 11.5195 130.084 10.4707 130.201 9.36914L112.043 10.125L111.586 7.10156L130.359 6.64453C130.383 6.12891 130.395 5.37891 130.395 4.39453H112.395V1.30078H134.297V3.9375ZM134.473 25.9453H116.016V28.3359H135.598V31.3945H112.148V23.0977H130.57V20.918H112.078V17.9297H134.473V25.9453Z" fill="black"/>
<path d="M83.6016 0.492188C86.0156 0.492188 88.0723 0.703125 89.7715 1.125C91.4824 1.54688 92.7891 2.16797 93.6914 2.98828C94.5938 3.79688 95.0508 4.78125 95.0625 5.94141C95.0508 7.69922 94.0488 9.04688 92.0566 9.98438C90.0645 10.9219 87.2461 11.4023 83.6016 11.4258C79.9453 11.4023 77.1211 10.9219 75.1289 9.98438C73.1367 9.04688 72.1406 7.69922 72.1406 5.94141C72.1406 4.78125 72.5918 3.79688 73.4941 2.98828C74.3965 2.16797 75.7031 1.54688 77.4141 1.125C79.125 0.703125 81.1875 0.492188 83.6016 0.492188ZM83.6016 3.375C81.1875 3.375 79.3535 3.59766 78.0996 4.04297C76.8457 4.47656 76.2305 5.10938 76.2539 5.94141C76.2422 6.80859 76.8516 7.45312 78.082 7.875C79.3125 8.29688 81.1523 8.50781 83.6016 8.50781C86.0859 8.50781 87.9434 8.29688 89.1738 7.875C90.4043 7.45312 91.0195 6.80859 91.0195 5.94141C91.0195 5.10938 90.3926 4.47656 89.1387 4.04297C87.8848 3.59766 86.0391 3.375 83.6016 3.375ZM98.1211 16.2422H69.1523V13.1133H98.1211V16.2422ZM94.5 26.1562H76.4297V28.5117H95.3789V31.5H72.5977V23.3789H90.668V21.2695H72.5625V18.3867H94.5V26.1562Z" fill="black"/>
<path d="M54.4219 2.35547C54.3984 6.77344 53.2383 10.4883 50.9414 13.5C48.6445 16.5117 44.9883 18.8555 39.9727 20.5312L38.3906 17.4727C42.8555 16.0078 46.0547 14.0039 47.9883 11.4609L38.918 12.1641L38.3555 9.07031L49.5703 8.61328C49.9219 7.6875 50.1621 6.65625 50.291 5.51953H39.9727V2.35547H54.4219ZM63.1055 9.42188H67.5352V12.6562H63.1055V23.5195H59.1328V0H63.1055V9.42188ZM64.3008 31.1484H42.6797V21.3047H46.6523V27.9844H64.3008V31.1484Z" fill="black"/>
<path d="M3.86719 7.10156H11.4258V2.28516H15.3281V18.2109H0V2.28516H3.86719V7.10156ZM11.4258 15.1172V10.125H3.86719V15.1172H11.4258ZM24.8555 23.4141H20.918V0.0351562H24.8555V23.4141ZM25.5938 31.1484H3.69141V21.0234H7.62891V27.9844H25.5938V31.1484Z" fill="black"/>
</svg>
