<svg width="2641" height="1335" viewBox="0 0 2641 1335" fill="none" xmlns="http://www.w3.org/2000/svg">
<g opacity="0.12">
<path d="M0 206.349L2640.79 206.349" stroke="black" stroke-width="2"/>
<path d="M0 82.5417L2640.79 82.5415" stroke="black" stroke-width="2"/>
<path d="M0 247.612L2640.79 247.611" stroke="black" stroke-width="2"/>
<path d="M0 123.804L2640.79 123.804" stroke="black" stroke-width="2"/>
<path d="M0 288.874L2640.79 288.874" stroke="black" stroke-width="2"/>
<path d="M0 123.807L2640.79 123.807" stroke="black" stroke-width="2"/>
<path d="M0 0.000244141L2640.79 2.73404e-05" stroke="black" stroke-width="2"/>
<path d="M0 165.07L2640.79 165.07" stroke="black" stroke-width="2"/>
<path d="M0 41.2629L2640.79 41.2627" stroke="black" stroke-width="2"/>
<path d="M0 206.332L2640.79 206.332" stroke="black" stroke-width="2"/>
<path d="M0 82.5251L2640.79 82.5249" stroke="black" stroke-width="2"/>
<path d="M0 330.136L2640.79 330.136" stroke="black" stroke-width="2"/>
<path d="M330.099 0L330.099 1335.01" stroke="black" stroke-width="2"/>
<path d="M123.787 0.000244141L123.787 1335.01" stroke="black" stroke-width="2"/>
<path d="M288.836 0L288.836 1335.01" stroke="black" stroke-width="2"/>
<path d="M82.5244 0.000244141L82.5246 1335.01" stroke="black" stroke-width="2"/>
<path d="M247.574 0L247.574 1335.01" stroke="black" stroke-width="2"/>
<path d="M41.2627 0.000244141L41.2629 1335.01" stroke="black" stroke-width="2"/>
<path d="M206.312 0L206.312 1335.01" stroke="black" stroke-width="2"/>
<path d="M0 0.000244141L0.000170051 1335.01" stroke="black" stroke-width="2"/>
<path d="M495.147 0L495.148 1335.01" stroke="black" stroke-width="2"/>
<path d="M453.886 0L453.886 1335.01" stroke="black" stroke-width="2"/>
<path d="M412.623 0L412.623 1335.01" stroke="black" stroke-width="2"/>
<path d="M206.312 0.000244141L206.312 1335.01" stroke="black" stroke-width="2"/>
<path d="M371.36 0L371.361 1335.01" stroke="black" stroke-width="2"/>
<path d="M165.05 0.000244141L165.05 1335.01" stroke="black" stroke-width="2"/>
<path d="M660.197 0.000488281L660.197 1335.01" stroke="black" stroke-width="2"/>
<path d="M618.935 0.000488281L618.935 1335.01" stroke="black" stroke-width="2"/>
<path d="M577.673 0.000488281L577.673 1335.01" stroke="black" stroke-width="2"/>
<path d="M536.41 0.000488281L536.41 1335.01" stroke="black" stroke-width="2"/>
<path d="M825.246 0.000488281L825.246 1335.01" stroke="black" stroke-width="2"/>
<path d="M783.984 0.000488281L783.985 1335.01" stroke="black" stroke-width="2"/>
<path d="M742.722 0.000488281L742.722 1335.01" stroke="black" stroke-width="2"/>
<path d="M701.459 0.000488281L701.459 1335.01" stroke="black" stroke-width="2"/>
<path d="M907.771 0L907.772 1335.01" stroke="black" stroke-width="2"/>
<path d="M866.509 0L866.509 1335.01" stroke="black" stroke-width="2"/>
<path d="M1072.82 0L1072.82 1335.01" stroke="black" stroke-width="2"/>
<path d="M1031.56 0L1031.56 1335.01" stroke="black" stroke-width="2"/>
<path d="M990.296 0L990.296 1335.01" stroke="black" stroke-width="2"/>
<path d="M949.033 0L949.033 1335.01" stroke="black" stroke-width="2"/>
<path d="M1237.87 0L1237.87 1335.01" stroke="black" stroke-width="2"/>
<path d="M1196.61 0L1196.61 1335.01" stroke="black" stroke-width="2"/>
<path d="M1155.34 0L1155.34 1335.01" stroke="black" stroke-width="2"/>
<path d="M1114.08 0L1114.08 1335.01" stroke="black" stroke-width="2"/>
<path d="M1402.92 0L1402.92 1335.01" stroke="black" stroke-width="2"/>
<path d="M1361.66 0L1361.66 1335.01" stroke="black" stroke-width="2"/>
<path d="M1320.39 0L1320.39 1335.01" stroke="black" stroke-width="2"/>
<path d="M1279.13 0L1279.13 1335.01" stroke="black" stroke-width="2"/>
<path d="M1485.44 0L1485.44 1335.01" stroke="black" stroke-width="2"/>
<path d="M1444.18 0L1444.18 1335.01" stroke="black" stroke-width="2"/>
<path d="M1650.49 0L1650.49 1335.01" stroke="black" stroke-width="2"/>
<path d="M2186.9 0L2186.9 1335.01" stroke="black" stroke-width="2"/>
<path d="M1609.23 0L1609.23 1335.01" stroke="black" stroke-width="2"/>
<path d="M2145.64 0L2145.64 1335.01" stroke="black" stroke-width="2"/>
<path d="M1567.97 0L1567.97 1335.01" stroke="black" stroke-width="2"/>
<path d="M2104.38 0L2104.38 1335.01" stroke="black" stroke-width="2"/>
<path d="M1526.71 0L1526.71 1335.01" stroke="black" stroke-width="2"/>
<path d="M1815.54 0.000488281L1815.54 1335.01" stroke="black" stroke-width="2"/>
<path d="M2351.95 0.000488281L2351.95 1335.01" stroke="black" stroke-width="2"/>
<path d="M1774.28 0.000488281L1774.28 1335.01" stroke="black" stroke-width="2"/>
<path d="M2310.69 0.000488281L2310.69 1335.01" stroke="black" stroke-width="2"/>
<path d="M1733.02 0.000488281L1733.02 1335.01" stroke="black" stroke-width="2"/>
<path d="M2269.43 0.000488281L2269.43 1335.01" stroke="black" stroke-width="2"/>
<path d="M1691.75 0.000488281L1691.76 1335.01" stroke="black" stroke-width="2"/>
<path d="M2228.17 0.000488281L2228.17 1335.01" stroke="black" stroke-width="2"/>
<path d="M1980.59 0.000488281L1980.59 1335.01" stroke="black" stroke-width="2"/>
<path d="M2517 0.000488281L2517 1335.01" stroke="black" stroke-width="2"/>
<path d="M1939.33 0.000488281L1939.33 1335.01" stroke="black" stroke-width="2"/>
<path d="M2475.74 0.000488281L2475.74 1335.01" stroke="black" stroke-width="2"/>
<path d="M1898.07 0.000488281L1898.07 1335.01" stroke="black" stroke-width="2"/>
<path d="M2434.48 0.000488281L2434.48 1335.01" stroke="black" stroke-width="2"/>
<path d="M2063.12 0.000488281L2063.12 1335.01" stroke="black" stroke-width="2"/>
<path d="M2599.53 0.000488281L2599.53 1335.01" stroke="black" stroke-width="2"/>
<path d="M2021.85 0.000488281L2021.85 1335.01" stroke="black" stroke-width="2"/>
<path d="M2558.26 0.000488281L2558.26 1335.01" stroke="black" stroke-width="2"/>
<path d="M1856.8 0.000488281L1856.8 1335.01" stroke="black" stroke-width="2"/>
<path d="M2393.21 0.000488281L2393.22 1335.01" stroke="black" stroke-width="2"/>
<path d="M0 371.399L2640.79 371.398" stroke="black" stroke-width="2"/>
<path d="M0 412.661L2640.79 412.661" stroke="black" stroke-width="2"/>
<path d="M0 453.923L2640.79 453.923" stroke="black" stroke-width="2"/>
<path d="M0 495.186L2640.79 495.186" stroke="black" stroke-width="2"/>
<path d="M0 536.458L2640.79 536.458" stroke="black" stroke-width="2"/>
<path d="M0 577.721L2640.79 577.721" stroke="black" stroke-width="2"/>
<path d="M0 618.985L2640.79 618.985" stroke="black" stroke-width="2"/>
<path d="M0 660.249L2640.79 660.249" stroke="black" stroke-width="2"/>
<path d="M0 701.512L2640.79 701.512" stroke="black" stroke-width="2"/>
<path d="M0 742.779L2640.79 742.779" stroke="black" stroke-width="2"/>
<path d="M0 784.042L2640.79 784.041" stroke="black" stroke-width="2"/>
<path d="M0 825.304L2640.79 825.304" stroke="black" stroke-width="2"/>
<path d="M0 866.566L2640.79 866.566" stroke="black" stroke-width="2"/>
<path d="M0 907.829L2640.79 907.828" stroke="black" stroke-width="2"/>
<path d="M0 948.423L2640.79 948.423" stroke="black" stroke-width="2"/>
<path d="M0 989.685L2640.79 989.685" stroke="black" stroke-width="2"/>
<path d="M0 1030.94L2640.79 1030.94" stroke="black" stroke-width="2"/>
<path d="M0 1072.2L2640.79 1072.2" stroke="black" stroke-width="2"/>
<path d="M0 1113.46L2640.79 1113.46" stroke="black" stroke-width="2"/>
<path d="M0 1154.73L2640.79 1154.73" stroke="black" stroke-width="2"/>
<path d="M0 948.423L2640.79 948.423" stroke="black" stroke-width="2"/>
<path d="M0 1072.2L2640.79 1072.2" stroke="black" stroke-width="2"/>
<path d="M0 1113.46L2640.79 1113.46" stroke="black" stroke-width="2"/>
<path d="M0 1154.73L2640.79 1154.73" stroke="black" stroke-width="2"/>
<path d="M0 1237.32L2640.79 1237.32" stroke="black" stroke-width="2"/>
<path d="M-2.21875 1319.92L2638.57 1319.91" stroke="black" stroke-width="2"/>
<path d="M0 1195.73L2640.79 1195.73" stroke="black" stroke-width="2"/>
<path d="M0 1278.32L2640.79 1278.32" stroke="black" stroke-width="2"/>
<path d="M2104.38 0.000488281L2104.38 1335.01" stroke="black" stroke-width="2"/>
<path d="M2640.79 0.000488281L2640.79 1335.01" stroke="black" stroke-width="2"/>
<path d="M0 1335.01L2640.79 1335.01" stroke="black" stroke-width="2"/>
<path d="M0 1335.01L2640.79 1335.01" stroke="black" stroke-width="2"/>
</g>
</svg>
