<svg width="551" height="62" viewBox="0 0 551 62" fill="none" xmlns="http://www.w3.org/2000/svg">
<path d="M547.914 43.8882C547.914 45.1252 547.902 46.179 547.877 47.0498C547.853 47.9206 547.784 48.9012 547.67 49.9917C547.556 51.0822 547.377 52.2541 547.133 53.5073L545.253 53.2876C545.497 52.0994 545.676 50.9723 545.79 49.9062C545.904 48.832 545.973 47.8636 545.998 47.001C546.022 46.1383 546.034 45.1007 546.034 43.8882V43.0581H532.558V41.4712H547.914V43.8882ZM550.258 57.9019H530.482V56.3149H535.39V49.1616H537.294V56.3149H540.81V49.1616H542.689V56.3149H550.258V57.9019Z" fill="#1A1A1A"/>
<path d="M521.864 43.1802H508.925V41.6177H514.442V39.1763H516.347V41.6177H521.864V43.1802ZM515.395 44.3032C516.428 44.3114 517.335 44.4782 518.117 44.8037C518.906 45.1211 519.516 45.5768 519.948 46.1709C520.387 46.7568 520.611 47.4445 520.619 48.2339C520.611 49.0151 520.387 49.7028 519.948 50.2969C519.516 50.8828 518.906 51.3385 518.117 51.6641C517.335 51.9814 516.428 52.1401 515.395 52.1401C514.361 52.1401 513.445 51.9814 512.648 51.6641C511.859 51.3385 511.244 50.8828 510.805 50.2969C510.373 49.7028 510.162 49.0151 510.17 48.2339C510.162 47.4445 510.373 46.7568 510.805 46.1709C511.244 45.5768 511.859 45.1211 512.648 44.8037C513.445 44.4782 514.361 44.3114 515.395 44.3032ZM515.395 45.7925C514.719 45.8006 514.121 45.9064 513.6 46.1099C513.087 46.3133 512.689 46.5981 512.404 46.9644C512.127 47.3306 511.993 47.7537 512.001 48.2339C511.993 48.7059 512.127 49.1209 512.404 49.479C512.689 49.8371 513.087 50.1138 513.6 50.3091C514.121 50.5044 514.719 50.6021 515.395 50.6021C516.062 50.6021 516.652 50.5044 517.165 50.3091C517.685 50.1138 518.088 49.8371 518.373 49.479C518.658 49.1209 518.804 48.7059 518.812 48.2339C518.804 47.7537 518.658 47.3306 518.373 46.9644C518.088 46.5981 517.685 46.3133 517.165 46.1099C516.652 45.9064 516.062 45.8006 515.395 45.7925ZM525.844 45.3042H529.115V46.9155H525.844V52.8481H523.939V39.2739H525.844V45.3042ZM525.844 60.978H523.939V55.6069H511.635V54.0444H525.844V60.978Z" fill="#1A1A1A"/>
<path d="M505.824 60.978H503.993V49.6011H500.795V59.855H499.037V39.7622H500.795V48.0142H503.993V39.2739H505.824V60.978ZM496.205 43.522H489.979V53.9712C491.583 53.9631 492.942 53.9183 494.057 53.8369C495.18 53.7474 496.311 53.5887 497.45 53.3608L497.621 54.9722C496.384 55.2244 495.163 55.3953 493.959 55.4849C492.763 55.5662 491.265 55.6069 489.467 55.6069H488.075V41.9351H496.205V43.522Z" fill="#1A1A1A"/>
<path d="M473.427 45.939C473.427 47.1353 473.691 48.3275 474.22 49.5156C474.749 50.6956 475.461 51.7495 476.356 52.6772C477.26 53.5968 478.244 54.2886 479.311 54.7524L478.236 56.2661C476.959 55.6802 475.807 54.7972 474.782 53.6172C473.756 52.429 472.991 51.0903 472.487 49.6011C471.982 51.1961 471.217 52.6406 470.192 53.9346C469.175 55.2204 468.048 56.1766 466.811 56.8032L465.663 55.2896C466.688 54.7931 467.645 54.0444 468.532 53.0435C469.427 52.0425 470.143 50.9154 470.68 49.6621C471.217 48.4007 471.49 47.1597 471.498 45.939V43.1069H466.371V41.52H478.603V43.1069H473.427V45.939ZM483.559 60.978H481.63V39.2739H483.559V60.978Z" fill="#1A1A1A"/>
<path d="M462.05 52.1401H460.121V48.7222H455.043V50.5776H445.082V40.9341H455.043V42.814H460.121V39.2739H462.05V52.1401ZM446.986 49.0151H453.163V42.4966H446.986V49.0151ZM454.848 52.7749C456.353 52.7749 457.651 52.9377 458.742 53.2632C459.832 53.5806 460.666 54.0485 461.244 54.667C461.83 55.2773 462.123 56.0138 462.123 56.8765C462.123 57.731 461.83 58.4593 461.244 59.0615C460.666 59.6719 459.832 60.1357 458.742 60.4531C457.651 60.7705 456.353 60.9292 454.848 60.9292C453.342 60.9292 452.044 60.7705 450.954 60.4531C449.863 60.1357 449.025 59.6719 448.439 59.0615C447.861 58.4593 447.572 57.731 447.572 56.8765C447.572 56.0138 447.861 55.2773 448.439 54.667C449.025 54.0485 449.863 53.5806 450.954 53.2632C452.044 52.9377 453.342 52.7749 454.848 52.7749ZM454.848 54.2642C453.741 54.2723 452.781 54.3822 451.967 54.5938C451.161 54.7972 450.543 55.0942 450.111 55.4849C449.68 55.8755 449.468 56.3394 449.477 56.8765C449.468 57.3892 449.68 57.8368 450.111 58.2192C450.551 58.6017 451.173 58.8947 451.979 59.0981C452.793 59.3097 453.749 59.4155 454.848 59.4155C455.946 59.4155 456.898 59.3097 457.704 59.0981C458.51 58.8947 459.128 58.6058 459.56 58.2314C459.999 57.849 460.219 57.3973 460.219 56.8765C460.219 56.3394 460.003 55.8755 459.572 55.4849C459.14 55.0942 458.522 54.7972 457.716 54.5938C456.911 54.3822 455.954 54.2723 454.848 54.2642ZM460.121 47.1108V44.4009H455.043V47.1108H460.121Z" fill="#1A1A1A"/>
<path d="M415.175 61.4907H413.368V38.8345H415.175V61.4907Z" fill="#1A1A1A"/>
<path d="M376.649 42.106V42.3989C376.633 43.4813 376.592 44.4823 376.527 45.4019C376.462 46.3215 376.316 47.3631 376.088 48.5269L374.159 48.3804C374.387 47.2329 374.538 46.2157 374.611 45.3286C374.692 44.4416 374.741 43.522 374.757 42.5698H365.834V40.9585H376.649V42.106ZM371.059 50.4312C373.858 50.3172 376.243 50.1219 378.212 49.8452L378.334 51.2612C376.308 51.6112 374.147 51.8472 371.852 51.9692C369.565 52.0832 367.177 52.1401 364.687 52.1401L364.491 50.5532H364.76L369.154 50.4922V45.7681H371.059V50.4312ZM381.63 46.354H384.804V47.9897H381.63V55.6069H379.677V39.2739H381.63V46.354ZM382.338 60.5142H367.836V54.1421H369.765V58.9028H382.338V60.5142Z" fill="#1A1A1A"/>
<path d="M353.969 42.3501C353.961 43.2778 354.323 44.1649 355.055 45.0112C355.788 45.8494 356.744 46.5575 357.924 47.1353C359.104 47.7131 360.333 48.0955 361.61 48.2827L360.902 49.7964C359.755 49.6011 358.648 49.2756 357.582 48.8198C356.524 48.3641 355.584 47.7944 354.762 47.1108C353.94 46.4191 353.318 45.6501 352.895 44.8037C352.471 45.6501 351.849 46.415 351.027 47.0986C350.205 47.7822 349.265 48.356 348.207 48.8198C347.157 49.2756 346.067 49.6011 344.936 49.7964L344.179 48.2827C345.448 48.0955 346.673 47.7131 347.853 47.1353C349.033 46.5575 349.989 45.8494 350.722 45.0112C351.454 44.1649 351.82 43.2778 351.82 42.3501V42.2036H344.862V40.6411H360.902V42.2036H353.969V42.3501ZM362.782 53.2388H353.798V60.978H351.918V53.2388H343.007V51.6519H362.782V53.2388Z" fill="#1A1A1A"/>
<path d="M162.329 24.1577H193.375V25.8545H162.329V24.1577ZM198.862 24.1577H243.468V25.8545H198.862V24.1577ZM250.682 24.1577H295.468V25.8545H250.682V24.1577ZM301.604 24.1577H338.062V25.8545H301.604V24.1577ZM349.909 24.1577H442.812V25.8545H349.909V24.1577ZM450.018 24.1577H494.812V25.8545H450.018V24.1577ZM500.94 24.1577H549.268V25.8545H500.94V24.1577Z" fill="black"/>
<path d="M543.188 22.8271H541.284L546.973 1.66016H548.901L543.188 22.8271Z" fill="#1A1A1A"/>
<path d="M537.866 20.166H535.645V4.78516H535.547L531.25 7.6416V5.41992L535.645 2.49023H537.866V20.166Z" fill="#1A1A1A"/>
<path d="M523.389 20.4346C522.127 20.4346 521.029 20.1538 520.093 19.5923C519.157 19.0308 518.437 18.2373 517.932 17.2119C517.436 16.1865 517.188 14.9984 517.188 13.6475C517.188 12.2965 517.436 11.1003 517.932 10.0586C518.437 9.00879 519.141 8.19499 520.044 7.61719C520.955 7.03125 522.005 6.73828 523.193 6.73828C524.194 6.73828 525.126 6.96208 525.989 7.40967C526.851 7.84912 527.551 8.56527 528.088 9.55811C528.634 10.5428 528.906 11.8083 528.906 13.3545V14.2334H519.287C519.32 15.153 519.511 15.9383 519.861 16.5894C520.211 17.2404 520.687 17.7368 521.289 18.0786C521.899 18.4123 522.599 18.5791 523.389 18.5791C524.137 18.5791 524.768 18.4408 525.281 18.1641C525.802 17.8792 526.196 17.513 526.465 17.0654H528.711C528.499 17.7327 528.145 18.3228 527.649 18.8354C527.161 19.34 526.55 19.7347 525.818 20.0195C525.094 20.2962 524.284 20.4346 523.389 20.4346ZM526.782 12.4512C526.782 11.7106 526.632 11.0514 526.331 10.4736C526.038 9.8877 525.618 9.4279 525.073 9.09424C524.528 8.76058 523.901 8.59375 523.193 8.59375C522.453 8.59375 521.794 8.76872 521.216 9.11865C520.646 9.46859 520.194 9.94059 519.861 10.5347C519.535 11.1206 519.348 11.7594 519.299 12.4512H526.782Z" fill="#1A1A1A"/>
<path d="M509.058 20.4346C507.861 20.4346 506.803 20.1538 505.884 19.5923C504.972 19.0226 504.264 18.221 503.76 17.1875C503.255 16.154 503.003 14.9577 503.003 13.5986C503.003 12.2396 503.255 11.0433 503.76 10.0098C504.264 8.9681 504.972 8.16243 505.884 7.59277C506.803 7.02311 507.861 6.73828 509.058 6.73828C510.246 6.73828 511.292 7.02311 512.195 7.59277C513.106 8.16243 513.81 8.9681 514.307 10.0098C514.811 11.0433 515.063 12.2396 515.063 13.5986C515.063 14.9577 514.811 16.154 514.307 17.1875C513.81 18.221 513.106 19.0226 512.195 19.5923C511.292 20.1538 510.246 20.4346 509.058 20.4346ZM509.058 18.5791C509.912 18.5791 510.632 18.3553 511.218 17.9077C511.804 17.452 512.24 16.8498 512.524 16.1011C512.817 15.3442 512.964 14.5101 512.964 13.5986C512.964 12.6872 512.817 11.853 512.524 11.0962C512.24 10.3394 511.804 9.73307 511.218 9.27734C510.632 8.82161 509.912 8.59375 509.058 8.59375C508.187 8.59375 507.454 8.82161 506.86 9.27734C506.274 9.73307 505.835 10.3394 505.542 11.0962C505.249 11.853 505.103 12.6872 505.103 13.5986C505.103 14.5101 505.249 15.3442 505.542 16.1011C505.835 16.8498 506.274 17.452 506.86 17.9077C507.454 18.3553 508.187 18.5791 509.058 18.5791Z" fill="#1A1A1A"/>
<path d="M500.293 6.90918V21.1182C500.293 22.3877 499.967 23.3765 499.316 24.0845C498.665 24.7925 497.705 25.1465 496.436 25.1465H495.996V23.1934H496.411C497.013 23.1934 497.461 23.0143 497.754 22.6562C498.047 22.3063 498.193 21.7936 498.193 21.1182V6.90918H500.293ZM499.219 4.71191C498.812 4.71191 498.466 4.57764 498.181 4.30908C497.896 4.04053 497.754 3.71094 497.754 3.32031C497.754 2.92969 497.896 2.6001 498.181 2.33154C498.466 2.06299 498.812 1.92871 499.219 1.92871C499.626 1.92871 499.976 2.06299 500.269 2.33154C500.562 2.6001 500.708 2.92969 500.708 3.32031C500.708 3.71094 500.562 4.04053 500.269 4.30908C499.976 4.57764 499.626 4.71191 499.219 4.71191Z" fill="#1A1A1A"/>
<path d="M484.18 16.4062C484.18 15.0309 484.648 14.0625 485.583 13.501C486.528 12.9395 487.72 12.6058 489.16 12.5C489.714 12.4593 490.332 12.4227 491.016 12.3901C491.707 12.3494 492.285 12.321 492.749 12.3047V11.2305C492.749 10.376 492.493 9.72087 491.98 9.26514C491.475 8.80127 490.731 8.56934 489.746 8.56934C488.94 8.56934 488.281 8.73617 487.769 9.06982C487.256 9.39535 486.922 9.82259 486.768 10.3516H484.57C484.66 9.64355 484.937 9.01693 485.4 8.47168C485.864 7.92643 486.479 7.50326 487.244 7.20215C488.017 6.8929 488.883 6.73828 489.844 6.73828C491.113 6.73828 492.261 7.0638 493.286 7.71484C494.312 8.35775 494.824 9.59473 494.824 11.4258V20.166H492.749V18.3594H492.651C492.489 18.7012 492.236 19.0348 491.895 19.3604C491.561 19.6777 491.121 19.9463 490.576 20.166C490.039 20.3776 489.412 20.4834 488.696 20.4834C487.85 20.4834 487.085 20.3206 486.401 19.9951C485.718 19.6696 485.177 19.2017 484.778 18.5913C484.379 17.9728 484.18 17.2445 484.18 16.4062ZM486.279 16.5039C486.279 17.1794 486.532 17.7002 487.036 18.0664C487.549 18.4245 488.224 18.6035 489.062 18.6035C489.819 18.6035 490.474 18.453 491.028 18.1519C491.589 17.8507 492.017 17.452 492.31 16.9556C492.603 16.4591 492.749 15.9261 492.749 15.3564V14.0259L489.404 14.2578C488.411 14.3229 487.642 14.5386 487.097 14.9048C486.552 15.271 486.279 15.804 486.279 16.5039Z" fill="#1A1A1A"/>
<path d="M472.998 20.166H470.898V6.90918H472.925V8.98438H473.096C473.429 8.27637 473.914 7.72705 474.548 7.33643C475.191 6.93766 476.001 6.73828 476.978 6.73828C477.889 6.73828 478.678 6.92546 479.346 7.2998C480.013 7.66602 480.53 8.22347 480.896 8.97217C481.262 9.72087 481.445 10.6445 481.445 11.7432V20.166H479.346V11.8896C479.346 10.8643 479.081 10.0627 478.552 9.48486C478.023 8.90706 477.287 8.61816 476.343 8.61816C475.692 8.61816 475.114 8.76058 474.609 9.04541C474.105 9.3221 473.71 9.73307 473.425 10.2783C473.14 10.8154 472.998 11.4583 472.998 12.207V20.166Z" fill="#1A1A1A"/>
<path d="M462.646 20.4346C461.385 20.4346 460.286 20.1538 459.351 19.5923C458.415 19.0308 457.694 18.2373 457.19 17.2119C456.694 16.1865 456.445 14.9984 456.445 13.6475C456.445 12.2965 456.694 11.1003 457.19 10.0586C457.694 9.00879 458.398 8.19499 459.302 7.61719C460.213 7.03125 461.263 6.73828 462.451 6.73828C463.452 6.73828 464.384 6.96208 465.247 7.40967C466.109 7.84912 466.809 8.56527 467.346 9.55811C467.891 10.5428 468.164 11.8083 468.164 13.3545V14.2334H458.545C458.577 15.153 458.769 15.9383 459.119 16.5894C459.469 17.2404 459.945 17.7368 460.547 18.0786C461.157 18.4123 461.857 18.5791 462.646 18.5791C463.395 18.5791 464.026 18.4408 464.539 18.1641C465.059 17.8792 465.454 17.513 465.723 17.0654H467.969C467.757 17.7327 467.403 18.3228 466.907 18.8354C466.418 19.34 465.808 19.7347 465.076 20.0195C464.351 20.2962 463.542 20.4346 462.646 20.4346ZM466.04 12.4512C466.04 11.7106 465.889 11.0514 465.588 10.4736C465.295 9.8877 464.876 9.4279 464.331 9.09424C463.786 8.76058 463.159 8.59375 462.451 8.59375C461.711 8.59375 461.051 8.76872 460.474 9.11865C459.904 9.46859 459.452 9.94059 459.119 10.5347C458.793 11.1206 458.606 11.7594 458.557 12.4512H466.04Z" fill="#1A1A1A"/>
<path d="M445.679 25.1465C445.256 25.1465 444.865 25.1302 444.507 25.0977V23.2178C444.8 23.2503 445.142 23.2666 445.532 23.2666C445.882 23.2666 446.175 23.23 446.411 23.1567C446.647 23.0835 446.883 22.9004 447.119 22.6074C447.355 22.3226 447.583 21.875 447.803 21.2646L448.193 20.2637L443.286 6.90918H445.581L449.194 17.4316H449.341L452.954 6.90918H455.249L449.634 22.0703C449.243 23.1038 448.722 23.8729 448.071 24.3774C447.42 24.8901 446.623 25.1465 445.679 25.1465Z" fill="#1A1A1A"/>
<path d="M436.572 22.8271H434.668L440.356 1.66016H442.285L436.572 22.8271Z" fill="#1A1A1A"/>
<path d="M427.222 20.4346C426.025 20.4346 424.967 20.1538 424.048 19.5923C423.136 19.0226 422.428 18.221 421.924 17.1875C421.419 16.154 421.167 14.9577 421.167 13.5986C421.167 12.2396 421.419 11.0433 421.924 10.0098C422.428 8.9681 423.136 8.16243 424.048 7.59277C424.967 7.02311 426.025 6.73828 427.222 6.73828C428.41 6.73828 429.456 7.02311 430.359 7.59277C431.27 8.16243 431.974 8.9681 432.471 10.0098C432.975 11.0433 433.228 12.2396 433.228 13.5986C433.228 14.9577 432.975 16.154 432.471 17.1875C431.974 18.221 431.27 19.0226 430.359 19.5923C429.456 20.1538 428.41 20.4346 427.222 20.4346ZM427.222 18.5791C428.076 18.5791 428.796 18.3553 429.382 17.9077C429.968 17.452 430.404 16.8498 430.688 16.1011C430.981 15.3442 431.128 14.5101 431.128 13.5986C431.128 12.6872 430.981 11.853 430.688 11.0962C430.404 10.3394 429.968 9.73307 429.382 9.27734C428.796 8.82161 428.076 8.59375 427.222 8.59375C426.351 8.59375 425.618 8.82161 425.024 9.27734C424.438 9.73307 423.999 10.3394 423.706 11.0962C423.413 11.853 423.267 12.6872 423.267 13.5986C423.267 14.5101 423.413 15.3442 423.706 16.1011C423.999 16.8498 424.438 17.452 425.024 17.9077C425.618 18.3553 426.351 18.5791 427.222 18.5791Z" fill="#1A1A1A"/>
<path d="M416.357 6.90918H418.457V20.166H416.357V6.90918ZM417.407 4.71191C417 4.71191 416.654 4.57764 416.37 4.30908C416.085 4.04053 415.942 3.71094 415.942 3.32031C415.942 2.92969 416.085 2.6001 416.37 2.33154C416.654 2.06299 417 1.92871 417.407 1.92871C417.814 1.92871 418.164 2.06299 418.457 2.33154C418.75 2.6001 418.896 2.92969 418.896 3.32031C418.896 3.71094 418.75 4.04053 418.457 4.30908C418.164 4.57764 417.814 4.71191 417.407 4.71191Z" fill="#1A1A1A"/>
<path d="M411.499 20.3125C411.214 20.3125 410.949 20.2433 410.705 20.105C410.469 19.9585 410.278 19.7632 410.132 19.519C409.993 19.2749 409.928 19.0104 409.936 18.7256C409.928 18.4489 409.993 18.1925 410.132 17.9565C410.278 17.7124 410.469 17.5212 410.705 17.3828C410.949 17.2363 411.214 17.1631 411.499 17.1631C411.775 17.1631 412.032 17.2363 412.268 17.3828C412.512 17.5212 412.703 17.7124 412.841 17.9565C412.988 18.1925 413.061 18.4489 413.061 18.7256C413.061 19.0104 412.988 19.2749 412.841 19.519C412.703 19.7632 412.512 19.9585 412.268 20.105C412.032 20.2433 411.775 20.3125 411.499 20.3125Z" fill="#1A1A1A"/>
<path d="M395.508 2.49023H397.607V9.00879H397.778C398.096 8.52865 398.36 8.15837 398.572 7.89795C398.792 7.62939 399.158 7.36898 399.67 7.1167C400.183 6.86442 400.83 6.73828 401.611 6.73828C402.718 6.73828 403.699 7.01904 404.553 7.58057C405.408 8.13395 406.075 8.92741 406.555 9.96094C407.035 10.9945 407.275 12.1989 407.275 13.5742C407.275 14.9495 407.035 16.158 406.555 17.1997C406.075 18.2332 405.408 19.0308 404.553 19.5923C403.707 20.1538 402.734 20.4346 401.636 20.4346C400.863 20.4346 400.22 20.3084 399.707 20.0562C399.194 19.7957 398.812 19.519 398.56 19.2261C398.315 18.9331 398.055 18.571 397.778 18.1396H397.534V20.166H395.508V2.49023ZM397.559 13.5254C397.559 14.5264 397.705 15.4053 397.998 16.1621C398.291 16.9189 398.718 17.509 399.28 17.9321C399.849 18.3472 400.529 18.5547 401.318 18.5547C402.132 18.5547 402.828 18.339 403.406 17.9077C403.984 17.4683 404.419 16.8701 404.712 16.1133C405.005 15.3483 405.151 14.4857 405.151 13.5254C405.151 12.5895 405.005 11.7513 404.712 11.0107C404.427 10.2702 403.996 9.68831 403.418 9.26514C402.848 8.83382 402.148 8.61816 401.318 8.61816C400.521 8.61816 399.837 8.82161 399.268 9.22852C398.706 9.63542 398.279 10.2091 397.986 10.9497C397.701 11.6821 397.559 12.5407 397.559 13.5254Z" fill="#1A1A1A"/>
<path d="M389.795 6.90918H391.87V20.166H389.795V17.9199H389.648C389.307 18.6442 388.802 19.2301 388.135 19.6777C387.476 20.1172 386.67 20.3369 385.718 20.3369C384.863 20.3369 384.115 20.1538 383.472 19.7876C382.829 19.4132 382.324 18.8517 381.958 18.103C381.6 17.3543 381.421 16.4307 381.421 15.332V6.90918H383.521V15.1855C383.521 15.8122 383.643 16.3615 383.887 16.8335C384.131 17.3055 384.469 17.6717 384.9 17.9321C385.339 18.1844 385.84 18.3105 386.401 18.3105C386.93 18.3105 387.455 18.1763 387.976 17.9077C388.505 17.6392 388.94 17.2363 389.282 16.6992C389.624 16.154 389.795 15.4948 389.795 14.7217V6.90918Z" fill="#1A1A1A"/>
<path d="M369.458 20.166H367.358V2.49023H369.458V8.98438H369.629C370.296 7.48698 371.598 6.73828 373.535 6.73828C374.935 6.73828 376.038 7.16146 376.843 8.00781C377.649 8.84603 378.052 10.0911 378.052 11.7432V20.166H375.952V11.8896C375.952 10.8561 375.68 10.0545 375.134 9.48486C374.597 8.90706 373.853 8.61816 372.9 8.61816C372.233 8.61816 371.639 8.76058 371.118 9.04541C370.605 9.3221 370.199 9.73307 369.897 10.2783C369.604 10.8154 369.458 11.4583 369.458 12.207V20.166Z" fill="#1A1A1A"/>
<path d="M364.355 8.66699H361.572V16.3574C361.572 17.1387 361.727 17.6636 362.036 17.9321C362.345 18.2007 362.769 18.335 363.306 18.335C363.713 18.335 364.128 18.3187 364.551 18.2861V20.2393C364.128 20.3044 363.639 20.3369 363.086 20.3369C362.467 20.3369 361.882 20.2108 361.328 19.9585C360.775 19.6981 360.323 19.3075 359.973 18.7866C359.623 18.2658 359.448 17.6351 359.448 16.8945V8.66699H357.446V6.90918H359.448V3.73535H361.572V6.90918H364.355V8.66699Z" fill="#1A1A1A"/>
<path d="M353.125 6.90918H355.225V20.166H353.125V6.90918ZM354.175 4.71191C353.768 4.71191 353.422 4.57764 353.137 4.30908C352.852 4.04053 352.71 3.71094 352.71 3.32031C352.71 2.92969 352.852 2.6001 353.137 2.33154C353.422 2.06299 353.768 1.92871 354.175 1.92871C354.582 1.92871 354.932 2.06299 355.225 2.33154C355.518 2.6001 355.664 2.92969 355.664 3.32031C355.664 3.71094 355.518 4.04053 355.225 4.30908C354.932 4.57764 354.582 4.71191 354.175 4.71191Z" fill="#1A1A1A"/>
<path d="M344.019 25.415C342.952 25.415 342.008 25.2645 341.187 24.9634C340.373 24.6623 339.726 24.2228 339.246 23.645C338.765 23.0672 338.485 22.3714 338.403 21.5576H340.601C340.747 22.2249 341.113 22.7295 341.699 23.0713C342.293 23.4131 343.066 23.584 344.019 23.584C345.19 23.584 346.094 23.3236 346.729 22.8027C347.363 22.2819 347.681 21.4844 347.681 20.4102V17.7246H347.51C347.274 18.1234 347.026 18.4733 346.765 18.7744C346.505 19.0755 346.114 19.3522 345.593 19.6045C345.081 19.8486 344.434 19.9707 343.652 19.9707C342.57 19.9707 341.602 19.7062 340.747 19.1772C339.893 18.6483 339.221 17.8874 338.733 16.8945C338.253 15.8936 338.013 14.7135 338.013 13.3545C338.013 12.0199 338.253 10.8521 338.733 9.85107C339.213 8.8501 339.88 8.08105 340.735 7.54395C341.589 7.00684 342.57 6.73828 343.677 6.73828C344.45 6.73828 345.093 6.86442 345.605 7.1167C346.126 7.36898 346.497 7.62939 346.716 7.89795C346.944 8.15837 347.225 8.52865 347.559 9.00879H347.729V6.90918H349.78V20.5322C349.78 21.6309 349.528 22.5423 349.023 23.2666C348.527 23.999 347.847 24.5402 346.985 24.8901C346.122 25.2401 345.133 25.415 344.019 25.415ZM343.945 18.0908C345.15 18.0908 346.082 17.6839 346.741 16.8701C347.4 16.0482 347.729 14.9007 347.729 13.4277C347.729 12.4756 347.583 11.6374 347.29 10.9131C346.997 10.1888 346.566 9.62728 345.996 9.22852C345.435 8.82161 344.751 8.61816 343.945 8.61816C343.123 8.61816 342.428 8.82975 341.858 9.25293C341.288 9.67611 340.857 10.2539 340.564 10.9863C340.279 11.7106 340.137 12.5244 340.137 13.4277C340.137 14.3555 340.279 15.1693 340.564 15.8691C340.857 16.569 341.288 17.1143 341.858 17.5049C342.428 17.8955 343.123 18.0908 343.945 18.0908Z" fill="#1A1A1A"/>
<path d="M333.789 20.3125C333.504 20.3125 333.239 20.2433 332.995 20.105C332.759 19.9585 332.568 19.7632 332.422 19.519C332.283 19.2749 332.218 19.0104 332.226 18.7256C332.218 18.4489 332.283 18.1925 332.422 17.9565C332.568 17.7124 332.759 17.5212 332.995 17.3828C333.239 17.2363 333.504 17.1631 333.789 17.1631C334.065 17.1631 334.322 17.2363 334.558 17.3828C334.802 17.5212 334.993 17.7124 335.132 17.9565C335.278 18.1925 335.351 18.4489 335.351 18.7256C335.351 19.0104 335.278 19.2749 335.132 19.519C334.993 19.7632 334.802 19.9585 334.558 20.105C334.322 20.2433 334.065 20.3125 333.789 20.3125Z" fill="#1A1A1A"/>
<path d="M324.048 20.4346C322.786 20.4346 321.688 20.1538 320.752 19.5923C319.816 19.0308 319.096 18.2373 318.591 17.2119C318.095 16.1865 317.847 14.9984 317.847 13.6475C317.847 12.2965 318.095 11.1003 318.591 10.0586C319.096 9.00879 319.8 8.19499 320.703 7.61719C321.615 7.03125 322.664 6.73828 323.853 6.73828C324.854 6.73828 325.785 6.96208 326.648 7.40967C327.511 7.84912 328.21 8.56527 328.748 9.55811C329.293 10.5428 329.565 11.8083 329.565 13.3545V14.2334H319.946C319.979 15.153 320.17 15.9383 320.52 16.5894C320.87 17.2404 321.346 17.7368 321.948 18.0786C322.559 18.4123 323.258 18.5791 324.048 18.5791C324.797 18.5791 325.427 18.4408 325.94 18.1641C326.461 17.8792 326.855 17.513 327.124 17.0654H329.37C329.159 17.7327 328.805 18.3228 328.308 18.8354C327.82 19.34 327.209 19.7347 326.477 20.0195C325.753 20.2962 324.943 20.4346 324.048 20.4346ZM327.441 12.4512C327.441 11.7106 327.291 11.0514 326.99 10.4736C326.697 9.8877 326.278 9.4279 325.732 9.09424C325.187 8.76058 324.561 8.59375 323.853 8.59375C323.112 8.59375 322.453 8.76872 321.875 9.11865C321.305 9.46859 320.854 9.94059 320.52 10.5347C320.194 11.1206 320.007 11.7594 319.958 12.4512H327.441Z" fill="#1A1A1A"/>
<path d="M309.717 20.4346C308.521 20.4346 307.463 20.1538 306.543 19.5923C305.632 19.0226 304.924 18.221 304.419 17.1875C303.914 16.154 303.662 14.9577 303.662 13.5986C303.662 12.2396 303.914 11.0433 304.419 10.0098C304.924 8.9681 305.632 8.16243 306.543 7.59277C307.463 7.02311 308.521 6.73828 309.717 6.73828C310.905 6.73828 311.951 7.02311 312.854 7.59277C313.765 8.16243 314.469 8.9681 314.966 10.0098C315.47 11.0433 315.723 12.2396 315.723 13.5986C315.723 14.9577 315.47 16.154 314.966 17.1875C314.469 18.221 313.765 19.0226 312.854 19.5923C311.951 20.1538 310.905 20.4346 309.717 20.4346ZM309.717 18.5791C310.571 18.5791 311.292 18.3553 311.877 17.9077C312.463 17.452 312.899 16.8498 313.184 16.1011C313.477 15.3442 313.623 14.5101 313.623 13.5986C313.623 12.6872 313.477 11.853 313.184 11.0962C312.899 10.3394 312.463 9.73307 311.877 9.27734C311.292 8.82161 310.571 8.59375 309.717 8.59375C308.846 8.59375 308.114 8.82161 307.52 9.27734C306.934 9.73307 306.494 10.3394 306.201 11.0962C305.908 11.853 305.762 12.6872 305.762 13.5986C305.762 14.5101 305.908 15.3442 306.201 16.1011C306.494 16.8498 306.934 17.452 307.52 17.9077C308.114 18.3553 308.846 18.5791 309.717 18.5791Z" fill="#1A1A1A"/>
<path d="M300.952 6.90918V21.1182C300.952 22.3877 300.627 23.3765 299.976 24.0845C299.325 24.7925 298.364 25.1465 297.095 25.1465H296.655V23.1934H297.07C297.673 23.1934 298.12 23.0143 298.413 22.6562C298.706 22.3063 298.853 21.7936 298.853 21.1182V6.90918H300.952ZM299.878 4.71191C299.471 4.71191 299.125 4.57764 298.84 4.30908C298.556 4.04053 298.413 3.71094 298.413 3.32031C298.413 2.92969 298.556 2.6001 298.84 2.33154C299.125 2.06299 299.471 1.92871 299.878 1.92871C300.285 1.92871 300.635 2.06299 300.928 2.33154C301.221 2.6001 301.367 2.92969 301.367 3.32031C301.367 3.71094 301.221 4.04053 300.928 4.30908C300.635 4.57764 300.285 4.71191 299.878 4.71191Z" fill="#1A1A1A"/>
<path d="M284.839 16.4062C284.839 15.0309 285.307 14.0625 286.243 13.501C287.187 12.9395 288.379 12.6058 289.819 12.5C290.373 12.4593 290.991 12.4227 291.675 12.3901C292.367 12.3494 292.944 12.321 293.408 12.3047V11.2305C293.408 10.376 293.152 9.72087 292.639 9.26514C292.135 8.80127 291.39 8.56934 290.405 8.56934C289.6 8.56934 288.94 8.73617 288.428 9.06982C287.915 9.39535 287.581 9.82259 287.427 10.3516H285.229C285.319 9.64355 285.596 9.01693 286.06 8.47168C286.523 7.92643 287.138 7.50326 287.903 7.20215C288.676 6.8929 289.543 6.73828 290.503 6.73828C291.772 6.73828 292.92 7.0638 293.945 7.71484C294.971 8.35775 295.483 9.59473 295.483 11.4258V20.166H293.408V18.3594H293.311C293.148 18.7012 292.896 19.0348 292.554 19.3604C292.22 19.6777 291.781 19.9463 291.235 20.166C290.698 20.3776 290.072 20.4834 289.355 20.4834C288.509 20.4834 287.744 20.3206 287.061 19.9951C286.377 19.6696 285.836 19.2017 285.437 18.5913C285.038 17.9728 284.839 17.2445 284.839 16.4062ZM286.938 16.5039C286.938 17.1794 287.191 17.7002 287.695 18.0664C288.208 18.4245 288.883 18.6035 289.722 18.6035C290.479 18.6035 291.134 18.453 291.687 18.1519C292.249 17.8507 292.676 17.452 292.969 16.9556C293.262 16.4591 293.408 15.9261 293.408 15.3564V14.0259L290.063 14.2578C289.071 14.3229 288.302 14.5386 287.756 14.9048C287.211 15.271 286.938 15.804 286.938 16.5039Z" fill="#1A1A1A"/>
<path d="M273.657 20.166H271.558V6.90918H273.584V8.98438H273.755C274.089 8.27637 274.573 7.72705 275.208 7.33643C275.85 6.93766 276.66 6.73828 277.637 6.73828C278.548 6.73828 279.338 6.92546 280.005 7.2998C280.672 7.66602 281.189 8.22347 281.555 8.97217C281.921 9.72087 282.104 10.6445 282.104 11.7432V20.166H280.005V11.8896C280.005 10.8643 279.74 10.0627 279.211 9.48486C278.682 8.90706 277.946 8.61816 277.002 8.61816C276.351 8.61816 275.773 8.76058 275.269 9.04541C274.764 9.3221 274.369 9.73307 274.084 10.2783C273.8 10.8154 273.657 11.4583 273.657 12.207V20.166Z" fill="#1A1A1A"/>
<path d="M263.306 20.4346C262.044 20.4346 260.946 20.1538 260.01 19.5923C259.074 19.0308 258.354 18.2373 257.849 17.2119C257.353 16.1865 257.104 14.9984 257.104 13.6475C257.104 12.2965 257.353 11.1003 257.849 10.0586C258.354 9.00879 259.058 8.19499 259.961 7.61719C260.872 7.03125 261.922 6.73828 263.11 6.73828C264.111 6.73828 265.043 6.96208 265.906 7.40967C266.768 7.84912 267.468 8.56527 268.005 9.55811C268.551 10.5428 268.823 11.8083 268.823 13.3545V14.2334H259.204C259.237 15.153 259.428 15.9383 259.778 16.5894C260.128 17.2404 260.604 17.7368 261.206 18.0786C261.816 18.4123 262.516 18.5791 263.306 18.5791C264.054 18.5791 264.685 18.4408 265.198 18.1641C265.719 17.8792 266.113 17.513 266.382 17.0654H268.628C268.416 17.7327 268.062 18.3228 267.566 18.8354C267.078 19.34 266.467 19.7347 265.735 20.0195C265.011 20.2962 264.201 20.4346 263.306 20.4346ZM266.699 12.4512C266.699 11.7106 266.549 11.0514 266.248 10.4736C265.955 9.8877 265.535 9.4279 264.99 9.09424C264.445 8.76058 263.818 8.59375 263.11 8.59375C262.37 8.59375 261.711 8.76872 261.133 9.11865C260.563 9.46859 260.111 9.94059 259.778 10.5347C259.452 11.1206 259.265 11.7594 259.216 12.4512H266.699Z" fill="#1A1A1A"/>
<path d="M246.338 25.1465C245.915 25.1465 245.524 25.1302 245.166 25.0977V23.2178C245.459 23.2503 245.801 23.2666 246.191 23.2666C246.541 23.2666 246.834 23.23 247.07 23.1567C247.306 23.0835 247.542 22.9004 247.778 22.6074C248.014 22.3226 248.242 21.875 248.462 21.2646L248.853 20.2637L243.945 6.90918H246.24L249.854 17.4316H250L253.613 6.90918H255.908L250.293 22.0703C249.902 23.1038 249.382 23.8729 248.73 24.3774C248.079 24.8901 247.282 25.1465 246.338 25.1465Z" fill="#1A1A1A"/>
<path d="M237.231 22.8271H235.327L241.016 1.66016H242.944L237.231 22.8271Z" fill="#1A1A1A"/>
<path d="M228.882 22.8271H226.978L232.666 1.66016H234.595L228.882 22.8271Z" fill="#1A1A1A"/>
<path d="M223.437 20.3125C223.152 20.3125 222.888 20.2433 222.644 20.105C222.408 19.9585 222.216 19.7632 222.07 19.519C221.932 19.2749 221.867 19.0104 221.875 18.7256C221.867 18.4489 221.932 18.1925 222.07 17.9565C222.216 17.7124 222.408 17.5212 222.644 17.3828C222.888 17.2363 223.152 17.1631 223.437 17.1631C223.714 17.1631 223.97 17.2363 224.206 17.3828C224.45 17.5212 224.642 17.7124 224.78 17.9565C224.926 18.1925 225 18.4489 225 18.7256C225 19.0104 224.926 19.2749 224.78 19.519C224.642 19.7632 224.45 19.9585 224.206 20.105C223.97 20.2433 223.714 20.3125 223.437 20.3125ZM223.437 10.498C223.152 10.498 222.888 10.4289 222.644 10.2905C222.408 10.144 222.216 9.94873 222.07 9.70459C221.932 9.46045 221.867 9.19596 221.875 8.91113C221.867 8.63444 221.932 8.37809 222.07 8.14209C222.216 7.89795 222.408 7.70671 222.644 7.56836C222.888 7.42188 223.152 7.34863 223.437 7.34863C223.714 7.34863 223.97 7.42188 224.206 7.56836C224.45 7.70671 224.642 7.89795 224.78 8.14209C224.926 8.37809 225 8.63444 225 8.91113C225 9.19596 224.926 9.46045 224.78 9.70459C224.642 9.94873 224.45 10.144 224.206 10.2905C223.97 10.4289 223.714 10.498 223.437 10.498Z" fill="#1A1A1A"/>
<path d="M216.919 10.3516C216.764 9.77376 216.463 9.32617 216.016 9.00879C215.576 8.68327 214.982 8.52051 214.233 8.52051C213.696 8.52051 213.212 8.61003 212.781 8.78906C212.358 8.95996 212.024 9.20003 211.78 9.50928C211.544 9.81038 211.426 10.1481 211.426 10.5225C211.426 10.9619 211.609 11.3363 211.975 11.6455C212.349 11.9548 212.923 12.1989 213.696 12.3779L215.674 12.8662C216.862 13.151 217.749 13.5905 218.335 14.1846C218.921 14.7705 219.214 15.5273 219.214 16.4551C219.214 17.2282 219.006 17.9159 218.591 18.5181C218.184 19.1121 217.59 19.5801 216.809 19.9219C216.028 20.2637 215.096 20.4346 214.014 20.4346C212.524 20.4346 211.344 20.1172 210.474 19.4824C209.603 18.8395 209.082 17.9118 208.911 16.6992H211.108C211.23 17.3421 211.528 17.8223 212 18.1396C212.472 18.4489 213.127 18.6035 213.965 18.6035C214.909 18.6035 215.658 18.4204 216.211 18.0542C216.764 17.688 217.041 17.1956 217.041 16.5771C217.041 16.1051 216.866 15.7145 216.516 15.4053C216.166 15.0879 215.617 14.8438 214.868 14.6729L212.866 14.209C211.711 13.9404 210.832 13.501 210.229 12.8906C209.627 12.2803 209.326 11.5316 209.326 10.6445C209.326 9.89583 209.53 9.22445 209.937 8.63037C210.352 8.0363 210.929 7.57243 211.67 7.23877C212.419 6.90511 213.273 6.73828 214.233 6.73828C215.129 6.73828 215.918 6.88883 216.602 7.18994C217.285 7.49105 217.826 7.91423 218.225 8.45947C218.632 9.00472 218.88 9.63542 218.97 10.3516H216.919Z" fill="#1A1A1A"/>
<path d="M195.068 6.90918H197.095V9.00879H197.339C197.599 8.58561 197.852 8.23161 198.096 7.94678C198.34 7.65381 198.718 7.38118 199.231 7.12891C199.744 6.86849 200.391 6.73828 201.172 6.73828C202.279 6.73828 203.255 7.01904 204.102 7.58057C204.956 8.13395 205.619 8.92741 206.091 9.96094C206.571 10.9945 206.812 12.1989 206.812 13.5742C206.812 14.9495 206.571 16.158 206.091 17.1997C205.619 18.2332 204.956 19.0308 204.102 19.5923C203.255 20.1538 202.287 20.4346 201.196 20.4346C200.423 20.4346 199.776 20.3084 199.255 20.0562C198.743 19.7957 198.356 19.515 198.096 19.2139C197.835 18.9046 197.583 18.5465 197.339 18.1396H197.168V25.1465H195.068V6.90918ZM197.119 13.5254C197.119 14.5264 197.266 15.4053 197.559 16.1621C197.852 16.9189 198.283 17.509 198.853 17.9321C199.422 18.3472 200.106 18.5547 200.903 18.5547C201.717 18.5547 202.409 18.339 202.979 17.9077C203.556 17.4683 203.988 16.8701 204.272 16.1133C204.565 15.3483 204.712 14.4857 204.712 13.5254C204.712 12.5895 204.565 11.7513 204.272 11.0107C203.988 10.2702 203.56 9.68831 202.991 9.26514C202.421 8.83382 201.725 8.61816 200.903 8.61816C200.09 8.61816 199.398 8.82161 198.828 9.22852C198.267 9.63542 197.839 10.2091 197.546 10.9497C197.262 11.6821 197.119 12.5407 197.119 13.5254Z" fill="#1A1A1A"/>
<path d="M192.358 8.66699H189.575V16.3574C189.575 17.1387 189.73 17.6636 190.039 17.9321C190.348 18.2007 190.771 18.335 191.309 18.335C191.715 18.335 192.131 18.3187 192.554 18.2861V20.2393C192.131 20.3044 191.642 20.3369 191.089 20.3369C190.47 20.3369 189.884 20.2108 189.331 19.9585C188.778 19.6981 188.326 19.3075 187.976 18.7866C187.626 18.2658 187.451 17.6351 187.451 16.8945V8.66699H185.449V6.90918H187.451V3.73535H189.575V6.90918H192.358V8.66699Z" fill="#1A1A1A"/>
<path d="M183.862 8.66699H181.079V16.3574C181.079 17.1387 181.234 17.6636 181.543 17.9321C181.852 18.2007 182.275 18.335 182.812 18.335C183.219 18.335 183.634 18.3187 184.058 18.2861V20.2393C183.634 20.3044 183.146 20.3369 182.593 20.3369C181.974 20.3369 181.388 20.2108 180.835 19.9585C180.282 19.6981 179.83 19.3075 179.48 18.7866C179.13 18.2658 178.955 17.6351 178.955 16.8945V8.66699H176.953V6.90918H178.955V3.73535H181.079V6.90918H183.862V8.66699Z" fill="#1A1A1A"/>
<path d="M166.113 20.166H164.014V2.49023H166.113V8.98438H166.284C166.951 7.48698 168.254 6.73828 170.19 6.73828C171.59 6.73828 172.693 7.16146 173.499 8.00781C174.304 8.84603 174.707 10.0911 174.707 11.7432V20.166H172.607V11.8896C172.607 10.8561 172.335 10.0545 171.79 9.48486C171.252 8.90706 170.508 8.61816 169.556 8.61816C168.888 8.61816 168.294 8.76058 167.773 9.04541C167.261 9.3221 166.854 9.73307 166.553 10.2783C166.26 10.8154 166.113 11.4583 166.113 12.207V20.166Z" fill="#1A1A1A"/>
<path d="M121.777 22.6562H119.971V0H121.777V22.6562Z" fill="#1A1A1A"/>
<path d="M82.5195 13.7451H67.5049V2.31934H82.2754V3.93066H69.458V7.15332H81.8115V8.69141H69.458V12.1826H82.5195V13.7451ZM84.8145 19.3115H64.9414V17.7246H84.8145V19.3115Z" fill="#1A1A1A"/>
<path d="M61.2305 22.1924H59.3018V0.439453H61.2305V22.1924ZM49.6826 2.12402C50.7568 2.13216 51.7131 2.44954 52.5513 3.07617C53.3895 3.69466 54.0446 4.57357 54.5166 5.71289C54.9886 6.85221 55.2246 8.17871 55.2246 9.69238C55.2246 11.2061 54.9886 12.5326 54.5166 13.6719C54.0446 14.8112 53.3895 15.6901 52.5513 16.3086C51.7131 16.9271 50.7568 17.2363 49.6826 17.2363C48.6084 17.2363 47.6481 16.9271 46.8018 16.3086C45.9635 15.6901 45.3084 14.8112 44.8364 13.6719C44.3726 12.5326 44.1406 11.2061 44.1406 9.69238C44.1406 8.17871 44.3726 6.85221 44.8364 5.71289C45.3084 4.57357 45.9635 3.69466 46.8018 3.07617C47.64 2.44954 48.6003 2.13216 49.6826 2.12402ZM49.6826 3.83301C48.9583 3.84115 48.3154 4.08936 47.7539 4.57764C47.2005 5.05778 46.7692 5.74137 46.46 6.62842C46.1507 7.50732 45.9961 8.52865 45.9961 9.69238C45.9961 10.8561 46.1507 11.8815 46.46 12.7686C46.7692 13.6475 47.2046 14.327 47.7661 14.8071C48.3276 15.2873 48.9665 15.5273 49.6826 15.5273C50.3988 15.5273 51.0376 15.2873 51.5991 14.8071C52.1606 14.327 52.596 13.6475 52.9053 12.7686C53.2145 11.8815 53.3691 10.8561 53.3691 9.69238C53.3691 8.52865 53.2145 7.50732 52.9053 6.62842C52.596 5.74137 52.1606 5.05778 51.5991 4.57764C51.0457 4.08936 50.4069 3.84115 49.6826 3.83301Z" fill="#1A1A1A"/>
<path d="M29.0039 6.27441C29.0039 7.51953 29.2562 8.76465 29.7607 10.0098C30.2653 11.2467 30.9448 12.3535 31.7993 13.3301C32.6619 14.3066 33.6019 15.0472 34.6191 15.5518L33.4473 17.0898C32.251 16.4632 31.1768 15.5436 30.2246 14.3311C29.2806 13.1185 28.5685 11.7594 28.0884 10.2539C27.6082 11.8571 26.884 13.3057 25.9155 14.5996C24.9471 15.8854 23.8525 16.8538 22.6318 17.5049L21.4111 15.9668C22.4609 15.4541 23.4172 14.6851 24.2798 13.6597C25.1506 12.6261 25.8382 11.4624 26.3428 10.1685C26.8555 8.86637 27.1159 7.56836 27.124 6.27441V2.31934H29.0039V6.27441ZM38.5254 9.25293H42.1631V10.9131H38.5254V22.1436H36.6211V0.439453H38.5254V9.25293Z" fill="#1A1A1A"/>
<path d="M18.5059 13.8916H16.6748V0.439453H18.5059V13.8916ZM14.5752 13.8184H12.7441V12.5732H8.88672V11.1816H12.7441V0.830078H14.5752V13.8184ZM0 8.88672C2.11589 8.88672 4.16667 8.84603 6.15234 8.76465C8.14616 8.68327 9.94466 8.52051 11.5479 8.27637L11.6943 9.57031C10.3434 9.85514 8.74023 10.0667 6.88477 10.2051V13.8184H5.0293V10.3149C3.64583 10.3719 2.04264 10.4004 0.219727 10.4004L0 8.88672ZM5.76172 16.7236H16.6016V14.6729H18.5059V21.8506H3.88184V14.6729H5.76172V16.7236ZM16.6016 20.3125V18.2617H5.76172V20.3125H16.6016ZM5.88379 1.2207C6.8278 1.2207 7.65788 1.35091 8.37402 1.61133C9.09017 1.87174 9.64762 2.24609 10.0464 2.73438C10.4451 3.21452 10.6445 3.78418 10.6445 4.44336C10.6445 5.08626 10.4451 5.65186 10.0464 6.14014C9.64762 6.62028 9.0861 6.99056 8.36182 7.25098C7.64567 7.51139 6.81966 7.6416 5.88379 7.6416C4.94792 7.6416 4.12191 7.51139 3.40576 7.25098C2.68962 6.99056 2.13216 6.62028 1.7334 6.14014C1.34277 5.65186 1.14746 5.08626 1.14746 4.44336C1.14746 3.78418 1.34277 3.21452 1.7334 2.73438C2.13216 2.24609 2.68555 1.87174 3.39355 1.61133C4.1097 1.35091 4.93978 1.2207 5.88379 1.2207ZM5.88379 2.6123C4.97233 2.60417 4.24805 2.76286 3.71094 3.08838C3.17383 3.4139 2.90527 3.86556 2.90527 4.44336C2.90527 5.00488 3.16976 5.4484 3.69873 5.77393C4.23584 6.09131 4.96419 6.25 5.88379 6.25C6.80339 6.25 7.53581 6.09131 8.08105 5.77393C8.6263 5.4484 8.90299 5.00488 8.91113 4.44336C8.90299 3.8737 8.6263 3.42204 8.08105 3.08838C7.53581 2.75472 6.80339 2.59603 5.88379 2.6123Z" fill="#1A1A1A"/>
</svg>
