<svg width="42" height="42" viewBox="0 0 42 42" fill="none" xmlns="http://www.w3.org/2000/svg">
<rect x="0.0136719" width="41.2622" height="41.2625" fill="#66E0EB"/>
<rect x="7.94824" y="12.0327" width="12.8789" height="13.2244" transform="rotate(-45 7.94824 12.0327)" fill="#E0FCFF"/>
<path d="M7.79478 34.2528L0.0134277 41.2624V28.0237L7.79478 34.2528Z" fill="#49D8E5"/>
<path d="M26.0997 34.257H7.82606L17.2969 21.3842L26.0997 34.257Z" fill="#49D8E5"/>
<path d="M7.94818 12.1551L0.0868699 21.4321L0.0868041 4.01457L7.94818 12.1551Z" fill="#49D8E5"/>
<path d="M41.2857 41.2506L26.1066 34.267L35.9893 22.0519L41.2857 41.2506Z" fill="#49D8E5"/>
<path d="M35.9909 5.70829L35.991 21.9179L26.3866 12.3452L35.9909 5.70829Z" fill="#49D8E5"/>
<path d="M4.42214 0.0429688L2.43134e-05 3.99142L0 0.0429688L4.42214 0.0429688Z" fill="#49D8E5"/>
<path d="M7.79037 34.2566H26.1195L41.2759 41.2625H0.0136719L7.79037 34.2566Z" fill="#25B9C7"/>
<path d="M36.0298 21.9056V5.64278L41.2759 0L41.2759 41.2625L36.0298 21.9056Z" fill="#25B9C7"/>
</svg>
