<svg width="1087" height="103" viewBox="0 0 1087 103" fill="none" xmlns="http://www.w3.org/2000/svg">
<path d="M830.645 97.6475C830.338 97.6475 830.052 97.5728 829.788 97.4233C829.533 97.2651 829.327 97.0542 829.169 96.7905C829.019 96.5269 828.949 96.2412 828.958 95.9336C828.949 95.6348 829.019 95.3579 829.169 95.103C829.327 94.8394 829.533 94.6328 829.788 94.4834C830.052 94.3252 830.338 94.2461 830.645 94.2461C830.944 94.2461 831.221 94.3252 831.476 94.4834C831.74 94.6328 831.946 94.8394 832.095 95.103C832.254 95.3579 832.333 95.6348 832.333 95.9336C832.333 96.2412 832.254 96.5269 832.095 96.7905C831.946 97.0542 831.74 97.2651 831.476 97.4233C831.221 97.5728 830.944 97.6475 830.645 97.6475Z" fill="#1A1A1A"/>
<path d="M822.973 85.4658H826.901V87.2061H822.973V99.6777H820.916V76.1846H822.973V85.4658ZM816.803 80.1924H807.917V92.0576C810.105 92.0576 812.017 91.9961 813.652 91.873C815.287 91.75 816.952 91.5303 818.648 91.2139L818.912 93.0068C817.181 93.3232 815.48 93.5342 813.81 93.6396C812.14 93.7451 810.105 93.7979 807.706 93.7979H805.86V78.4785H816.803V80.1924Z" fill="#1A1A1A"/>
<path d="M795.129 85.5713H790.383V88.854C792.738 88.7397 794.874 88.5771 796.79 88.3662L796.948 89.8955C792.817 90.458 787.808 90.7393 781.919 90.7393L781.603 89.0518C784.23 89.0342 786.472 88.9946 788.326 88.9331V85.5713H783.738V77.7139H794.944V79.4277H785.821V83.8838H795.129V85.5713ZM800.824 93.7451H798.741V76.2109H800.824V93.7451ZM801.589 99.124H785.61V92.5322H787.667V97.3838H801.589V99.124Z" fill="#1A1A1A"/>
<path d="M771.451 99.625H769.474V76.1846H771.451V99.625ZM766.521 98.4385H764.543V87.4961H759.573C758.079 90.3613 755.763 92.7168 752.625 94.5625L751.412 93.0596C753.917 91.583 755.833 89.8164 757.16 87.7598C758.496 85.6943 759.261 83.4092 759.454 80.9043H752.414V79.1904H761.511C761.493 81.5811 761.102 83.7871 760.337 85.8086H764.543V76.8174H766.521V98.4385Z" fill="#1A1A1A"/>
<path d="M736.04 81.0889C736.04 82.0117 736.282 82.8994 736.765 83.752C737.257 84.6045 737.943 85.356 738.822 86.0063C739.709 86.6567 740.725 87.1533 741.867 87.4961L740.892 89.0781C739.547 88.6738 738.365 88.0586 737.345 87.2324C736.334 86.3975 735.57 85.4175 735.051 84.2925C734.55 85.5229 733.777 86.5952 732.731 87.5093C731.694 88.4146 730.477 89.0957 729.079 89.5527L728.051 87.918C729.211 87.5664 730.239 87.0522 731.136 86.3755C732.041 85.6899 732.744 84.8901 733.245 83.9761C733.755 83.062 734.01 82.0996 734.01 81.0889V80.6406H728.71V78.9268H734.01V76.0791H736.093V78.9268H741.34V80.6406H736.04V81.0889ZM746.376 81.9854H749.909V83.7256H746.376V89.8164H744.319V76.1846H746.376V81.9854ZM746.798 92.7695H740.153C740.268 93.5605 740.681 94.3164 741.393 95.0371C742.113 95.749 743.027 96.3599 744.135 96.8696C745.251 97.3794 746.438 97.7354 747.694 97.9375L746.93 99.5459C745.172 99.2559 743.581 98.7021 742.157 97.8848C740.733 97.0674 739.692 96.083 739.033 94.9316C738.382 96.0742 737.354 97.0454 735.948 97.8452C734.542 98.6538 732.964 99.2119 731.215 99.5195L730.424 97.9375C731.689 97.7354 732.876 97.3838 733.983 96.8828C735.1 96.373 736.014 95.7622 736.726 95.0503C737.438 94.3384 737.851 93.5781 737.965 92.7695H731.347V91.082H746.798V92.7695Z" fill="#1A1A1A"/>
<path d="M719.376 88.709H697.913V87.0742H719.376V88.709ZM716.687 95.5645H702.606V97.8057H717.451V99.3086H700.523V94.1406H714.63V92.1367H700.497V90.5811H716.687V95.5645ZM716.607 81.748H702.765V83.8047H717.029V85.3076H700.708V80.3242H714.524V78.3994H700.629V76.8965H716.607V81.748Z" fill="#1A1A1A"/>
<path d="M693.536 88.8672H686.285V94.9316H696.067V96.6719H674.604V94.9316H684.255V88.8672H677.347V78.1094H693.299V79.7969H679.43V87.1797H693.536V88.8672Z" fill="#1A1A1A"/>
<path d="M672.706 89.6846H651.27V87.9707H660.92V84.3584H662.95V87.9707H672.706V89.6846ZM662.977 77.6611C662.977 78.6543 663.376 79.5991 664.176 80.4956C664.976 81.3921 666.018 82.1479 667.301 82.7632C668.593 83.3696 669.938 83.7695 671.335 83.9629L670.491 85.624C669.287 85.4131 668.123 85.0703 666.998 84.5957C665.873 84.1123 664.866 83.5146 663.979 82.8027C663.1 82.0908 662.423 81.2954 661.948 80.4165C661.474 81.2954 660.792 82.0908 659.905 82.8027C659.017 83.5146 658.006 84.1123 656.873 84.5957C655.739 85.0703 654.565 85.4131 653.353 85.624L652.562 83.9629C653.959 83.7695 655.299 83.3696 656.583 82.7632C657.866 82.1479 658.903 81.3921 659.694 80.4956C660.494 79.5991 660.894 78.6543 660.894 77.6611V76.5537H662.977V77.6611ZM669.99 99.625H667.907V93.6396H653.643V91.9785H669.99V99.625Z" fill="#1A1A1A"/>
<path d="M628.831 77.8984C630.053 77.8984 631.138 78.1313 632.087 78.5972C633.045 79.063 633.792 79.7134 634.329 80.5483C634.865 81.3833 635.133 82.3369 635.133 83.4092C635.133 84.4814 634.865 85.4351 634.329 86.27C633.792 87.105 633.045 87.7554 632.087 88.2212C631.138 88.687 630.053 88.9199 628.831 88.9199C627.609 88.9199 626.515 88.687 625.548 88.2212C624.59 87.7554 623.839 87.105 623.294 86.27C622.758 85.4351 622.494 84.4814 622.503 83.4092C622.494 82.3369 622.758 81.3833 623.294 80.5483C623.839 79.7134 624.59 79.063 625.548 78.5972C626.515 78.1313 627.609 77.8984 628.831 77.8984ZM628.831 79.7178C628.005 79.7178 627.262 79.876 626.603 80.1924C625.953 80.5 625.443 80.9351 625.074 81.4976C624.705 82.0513 624.524 82.6885 624.533 83.4092C624.524 84.1299 624.705 84.7715 625.074 85.334C625.443 85.8877 625.953 86.3228 626.603 86.6392C627.262 86.9468 628.005 87.1006 628.831 87.1006C629.648 87.1006 630.382 86.9468 631.033 86.6392C631.683 86.3228 632.188 85.8877 632.549 85.334C632.918 84.7715 633.103 84.1299 633.103 83.4092C633.103 82.6885 632.918 82.0513 632.549 81.4976C632.188 80.9351 631.683 80.5 631.033 80.1924C630.382 79.876 629.648 79.7178 628.831 79.7178ZM640.38 99.6777H638.323V76.1846H640.38V99.6777ZM621.29 92.7432C624.331 92.7432 627.095 92.6948 629.583 92.5981C632.079 92.5015 634.474 92.2861 636.768 91.9521L636.926 93.4814C634.57 93.9209 632.167 94.2021 629.714 94.3252C627.271 94.4482 624.56 94.5098 621.58 94.5098L621.29 92.7432Z" fill="#1A1A1A"/>
<path d="M609.662 89.1045H598.825V78.3203H609.662V89.1045ZM600.855 87.4434H607.658V80.0078H600.855V87.4434ZM616.148 83.3301H619.682V85.0703H616.148V93.376H614.092V76.1846H616.148V83.3301ZM617.229 99.124H601.488V91.7412H603.519V97.3838H617.229V99.124Z" fill="#1A1A1A"/>
<path d="M596.426 87.2852H592.629V99.625H590.572V76.1846H592.629V85.5449H596.426V87.2852ZM577.521 91.9258C579.357 91.917 581.155 91.8291 582.913 91.6621C584.67 91.4951 586.468 91.2227 588.305 90.8447L588.568 92.6113C586.661 92.998 584.793 93.2705 582.965 93.4287C581.146 93.5869 579.27 93.666 577.336 93.666H575.464V78.5049H577.521V91.9258Z" fill="#1A1A1A"/>
<path d="M562.597 102.895H560.646L562.096 95.7227H564.653L562.597 102.895Z" fill="#1A1A1A"/>
<path d="M556.269 80.9043V81.1943C556.251 83.1279 556.189 84.8638 556.084 86.4019C555.987 87.9312 555.759 89.7021 555.398 91.7148L553.289 91.4775C553.57 90.0889 553.772 88.7793 553.896 87.5488C554.027 86.3184 554.106 85.2241 554.133 84.2661C554.168 83.3081 554.186 82.1875 554.186 80.9043V80.2715H539.736V78.5576H556.269V80.9043ZM558.826 96.3027H537.469V94.5889H545.854V86.2041H547.884V94.5889H558.826V96.3027Z" fill="#1A1A1A"/>
<path d="M535.491 92.1104H525.814V99.6777H523.784V92.1104H514.134V90.3701H535.491V92.1104ZM525.841 80.8252C525.841 81.7656 526.232 82.6665 527.014 83.5278C527.796 84.3804 528.825 85.1055 530.099 85.7031C531.374 86.3008 532.714 86.6963 534.12 86.8896L533.355 88.5508C532.143 88.3662 530.974 88.0454 529.849 87.5884C528.732 87.1313 527.735 86.5645 526.856 85.8877C525.986 85.2109 525.309 84.4551 524.826 83.6201C524.342 84.4639 523.657 85.2241 522.769 85.9009C521.89 86.5776 520.888 87.1445 519.763 87.6016C518.638 88.0498 517.465 88.3662 516.243 88.5508L515.479 86.8896C516.885 86.6963 518.225 86.3052 519.5 85.7163C520.774 85.1187 521.807 84.3936 522.598 83.541C523.389 82.6797 523.784 81.7744 523.784 80.8252V80.7988H516.217V79.1113H523.784V76.1846H525.814V79.1113H533.435V80.7988H525.841V80.8252Z" fill="#1A1A1A"/>
<path d="M510.231 89.6582H508.148V83.6992H502.664V88.208H491.906V77.8457H502.664V81.9854H508.148V76.1846H510.231V89.6582ZM493.963 86.5469H500.634V79.5332H493.963V86.5469ZM510.231 99.3086H494.912V90.8711H510.231V99.3086ZM496.969 97.6211H508.201V92.5586H496.969V97.6211Z" fill="#1A1A1A"/>
<path d="M469.02 82.4863C469.011 83.875 469.292 85.2549 469.863 86.626C470.435 87.9883 471.208 89.2012 472.184 90.2646C473.159 91.3281 474.223 92.1191 475.374 92.6377L474.108 94.2725C472.772 93.6133 471.56 92.6333 470.47 91.3325C469.389 90.0229 468.571 88.5376 468.018 86.8765C467.473 88.6431 466.655 90.2251 465.565 91.6226C464.476 93.0112 463.245 94.0527 461.874 94.7471L460.556 93.0068C461.707 92.4707 462.771 91.6577 463.746 90.5679C464.722 89.4692 465.5 88.2124 466.08 86.7974C466.66 85.3735 466.954 83.9365 466.963 82.4863V78.2148H469.02V82.4863ZM480.015 99.6777H477.932V76.1846H480.015V99.6777Z" fill="#1A1A1A"/>
<path d="M445.289 80.4297C445.28 81.458 445.513 82.4424 445.988 83.3828C446.471 84.3145 447.148 85.1362 448.018 85.8481C448.897 86.5601 449.912 87.1094 451.063 87.4961L450.009 89.1572C448.673 88.7002 447.508 88.019 446.515 87.1138C445.522 86.1997 444.771 85.1406 444.261 83.9365C443.76 85.2725 442.991 86.4414 441.954 87.4434C440.925 88.4453 439.717 89.2012 438.328 89.7109L437.247 88.0234C438.416 87.6191 439.449 87.0391 440.345 86.2832C441.242 85.5186 441.94 84.6353 442.441 83.6333C442.942 82.6226 443.197 81.5635 443.206 80.4561V79.5332H437.88V77.8457H450.51V79.5332H445.289V80.4297ZM455.678 82.0381H459.211V83.7783H455.678V90.001H453.621V76.1846H455.678V82.0381ZM455.678 99.3086H440.886V91.082H455.678V99.3086ZM442.916 97.6211H453.621V92.7432H442.916V97.6211Z" fill="#1A1A1A"/>
<path d="M417.92 76.6064C419.66 76.6064 421.15 76.7646 422.389 77.0811C423.628 77.3887 424.573 77.8457 425.224 78.4521C425.874 79.0498 426.199 79.7793 426.199 80.6406C426.199 81.959 425.479 82.9697 424.037 83.6729C422.596 84.376 420.557 84.7363 417.92 84.7539C416.18 84.7451 414.686 84.5825 413.438 84.2661C412.198 83.9497 411.249 83.4883 410.59 82.8818C409.939 82.2666 409.614 81.5195 409.614 80.6406C409.614 79.7793 409.939 79.0498 410.59 78.4521C411.249 77.8457 412.198 77.3887 413.438 77.0811C414.686 76.7646 416.18 76.6064 417.92 76.6064ZM417.92 78.1621C416.628 78.1621 415.521 78.2632 414.598 78.4653C413.675 78.6587 412.972 78.9443 412.488 79.3223C412.005 79.6914 411.768 80.1309 411.776 80.6406C411.768 81.4492 412.299 82.0732 413.372 82.5127C414.444 82.9521 415.96 83.1719 417.92 83.1719C419.871 83.1719 421.387 82.9521 422.468 82.5127C423.549 82.0732 424.09 81.4492 424.09 80.6406C424.09 80.1309 423.844 79.6914 423.352 79.3223C422.859 78.9531 422.152 78.6675 421.229 78.4653C420.306 78.2632 419.203 78.1621 417.92 78.1621ZM428.599 88.0234H407.241V86.3359H428.599V88.0234ZM425.856 95.3008H411.935V97.7266H426.568V99.3613H409.878V93.7715H423.826V91.6357H409.825V90.0537H425.856V95.3008Z" fill="#1A1A1A"/>
<path d="M391.737 79.9814C391.737 81.0273 391.983 82.0381 392.476 83.0137C392.977 83.9805 393.667 84.833 394.545 85.5713C395.433 86.3096 396.439 86.8721 397.564 87.2588L396.431 88.8936C395.139 88.4189 394 87.7202 393.016 86.7974C392.032 85.8657 391.28 84.7891 390.762 83.5674C390.261 84.9561 389.505 86.1689 388.494 87.2061C387.483 88.2432 386.297 89.0254 384.935 89.5527L383.827 87.8916C384.987 87.4521 386.007 86.8281 386.886 86.0195C387.773 85.2109 388.463 84.2749 388.956 83.2114C389.448 82.1392 389.698 81.0098 389.707 79.8232V77.3975H391.737V79.9814ZM402.231 82.3018H405.765V84.042H402.231V90.4492H400.175V76.1846H402.231V82.3018ZM394.717 91.0557C396.316 91.0557 397.696 91.2227 398.856 91.5566C400.017 91.8906 400.904 92.3784 401.52 93.02C402.135 93.6528 402.442 94.4131 402.442 95.3008C402.442 96.2061 402.135 96.9795 401.52 97.6211C400.904 98.2627 400.017 98.7461 398.856 99.0713C397.705 99.4053 396.325 99.5723 394.717 99.5723C393.108 99.5723 391.72 99.4053 390.551 99.0713C389.391 98.7373 388.499 98.2495 387.875 97.6079C387.25 96.9751 386.938 96.2061 386.938 95.3008C386.938 94.4131 387.25 93.6528 387.875 93.02C388.499 92.3784 389.395 91.8906 390.564 91.5566C391.733 91.2227 393.117 91.0557 394.717 91.0557ZM394.717 92.7168C393.548 92.7168 392.533 92.8223 391.671 93.0332C390.81 93.2354 390.151 93.5342 389.694 93.9297C389.237 94.3164 389.013 94.7734 389.021 95.3008C389.013 95.8457 389.237 96.3159 389.694 96.7114C390.151 97.1069 390.806 97.4058 391.658 97.6079C392.52 97.8188 393.539 97.9287 394.717 97.9375C396.51 97.9199 397.912 97.6826 398.922 97.2256C399.933 96.7686 400.438 96.127 400.438 95.3008C400.438 94.7646 400.21 94.3032 399.753 93.9165C399.296 93.5298 398.637 93.2354 397.775 93.0332C396.914 92.8223 395.895 92.7168 394.717 92.7168Z" fill="#1A1A1A"/>
<path d="M367.216 77.0547C368.376 77.0635 369.413 77.2876 370.327 77.7271C371.25 78.1665 371.971 78.7817 372.489 79.5728C373.017 80.355 373.28 81.2471 373.28 82.249C373.28 83.251 373.017 84.1475 372.489 84.9385C371.971 85.7207 371.25 86.3315 370.327 86.771C369.413 87.2017 368.376 87.417 367.216 87.417C366.038 87.417 364.988 87.2017 364.065 86.771C363.142 86.3315 362.421 85.7207 361.903 84.9385C361.384 84.1475 361.125 83.251 361.125 82.249C361.125 81.2471 361.384 80.355 361.903 79.5728C362.421 78.7817 363.142 78.1665 364.065 77.7271C364.988 77.2876 366.038 77.0635 367.216 77.0547ZM367.216 78.7949C366.442 78.7949 365.744 78.9443 365.12 79.2432C364.504 79.5332 364.021 79.9419 363.669 80.4692C363.318 80.9878 363.146 81.5811 363.155 82.249C363.146 82.9258 363.318 83.5278 363.669 84.0552C364.021 84.5825 364.504 84.9956 365.12 85.2944C365.744 85.5845 366.442 85.7295 367.216 85.7295C367.98 85.7295 368.67 85.5845 369.286 85.2944C369.91 84.9956 370.397 84.5825 370.749 84.0552C371.101 83.5278 371.276 82.9258 371.276 82.249C371.276 81.5811 371.101 80.9878 370.749 80.4692C370.397 79.9419 369.91 79.5332 369.286 79.2432C368.67 78.9443 367.98 78.7949 367.216 78.7949ZM379.925 88.2344H377.868V76.1846H379.925V88.2344ZM379.925 95.0107H366.768V97.6475H380.769V99.3086H364.737V93.4551H377.868V91.0293H364.685V89.3682H379.925V95.0107Z" fill="#1A1A1A"/>
<path d="M348.785 83.9365H352.318V85.6768H348.785V93.7715H346.729V76.2109H348.785V83.9365ZM344.487 80.7725H330.513V79.085H336.472V76.2109H338.528V79.085H344.487V80.7725ZM337.5 82.0645C338.607 82.0645 339.583 82.2446 340.427 82.605C341.279 82.9653 341.943 83.4751 342.417 84.1343C342.892 84.7935 343.134 85.5625 343.143 86.4414C343.134 87.3115 342.892 88.0718 342.417 88.7222C341.943 89.3726 341.279 89.8779 340.427 90.2383C339.583 90.5898 338.607 90.7656 337.5 90.7656C336.384 90.7656 335.395 90.5898 334.534 90.2383C333.681 89.8779 333.018 89.3726 332.543 88.7222C332.077 88.0718 331.849 87.3115 331.857 86.4414C331.849 85.5625 332.077 84.7935 332.543 84.1343C333.018 83.4751 333.681 82.9653 334.534 82.605C335.395 82.2446 336.384 82.0645 337.5 82.0645ZM337.5 83.6992C336.771 83.6992 336.125 83.8135 335.562 84.042C335.008 84.2617 334.578 84.5825 334.27 85.0044C333.971 85.4175 333.826 85.8965 333.835 86.4414C333.826 86.9863 333.971 87.4653 334.27 87.8784C334.578 88.2827 335.008 88.5947 335.562 88.8145C336.125 89.0342 336.771 89.1396 337.5 89.1309C338.221 89.1396 338.858 89.0342 339.412 88.8145C339.974 88.5947 340.409 88.2827 340.717 87.8784C341.024 87.4653 341.183 86.9863 341.191 86.4414C341.183 85.8965 341.024 85.4175 340.717 85.0044C340.409 84.5825 339.974 84.2617 339.412 84.042C338.858 83.8135 338.221 83.6992 337.5 83.6992ZM349.866 99.124H334.125V92.374H336.155V97.3838H349.866V99.124Z" fill="#1A1A1A"/>
<path d="M315.062 80.2979C315.053 81.2998 315.286 82.2578 315.76 83.1719C316.244 84.0859 316.92 84.8901 317.791 85.5845C318.669 86.2788 319.685 86.8105 320.836 87.1797L319.834 88.7881C318.489 88.3574 317.316 87.7026 316.314 86.8237C315.312 85.936 314.556 84.9033 314.046 83.7256C313.537 85.0264 312.763 86.1602 311.726 87.127C310.689 88.085 309.463 88.8057 308.048 89.2891L306.967 87.6543C308.145 87.2588 309.186 86.6963 310.091 85.9668C310.997 85.2285 311.7 84.376 312.201 83.4092C312.71 82.4336 312.97 81.4053 312.979 80.3242V79.4805H307.652V77.7666H320.282V79.4805H315.062V80.2979ZM325.45 81.6162H328.983V83.3564H325.45V89.0254H323.394V76.1846H325.45V81.6162ZM312.662 93.0332H323.394V90.1592H325.45V99.3086H310.605V90.1592H312.662V93.0332ZM323.394 97.6211V94.668H312.662V97.6211H323.394Z" fill="#1A1A1A"/>
<path d="M305.147 90.0273H283.79V88.3135H293.44V85.4922H286.638V76.7383H288.694V79.4541H300.296V76.7383H302.353V85.4922H295.497V88.3135H305.147V90.0273ZM302.511 99.625H300.428V94.0088H286.163V92.3477H302.511V99.625ZM300.296 83.8311V81.0361H288.694V83.8311H300.296Z" fill="#1A1A1A"/>
<path d="M272.637 84.9648H256.579V77.0547H258.636V83.3037H272.637V84.9648ZM275.115 89.8428H253.652V88.1553H275.115V89.8428ZM272.769 99.0449H256.447V92.2422H258.504V97.3311H272.769V99.0449Z" fill="#1A1A1A"/>
<path d="M249.697 99.6777H247.641V76.1846H249.697V99.6777ZM242.578 86.7051H233.824V92.2422C235.925 92.2422 237.876 92.1807 239.678 92.0576C241.488 91.9346 243.387 91.7148 245.373 91.3984L245.584 93.1387C243.554 93.4639 241.611 93.688 239.757 93.811C237.902 93.9253 235.872 93.9824 233.666 93.9824H231.715V85.0176H240.495V80.0869H231.662V78.373H242.578V86.7051Z" fill="#1A1A1A"/>
<path d="M228.445 91.3721H218.663V99.625H216.633V91.3721H206.982V89.6318H228.445V91.3721ZM217.661 77.1338C219.296 77.1338 220.737 77.3447 221.985 77.7666C223.233 78.1797 224.2 78.7773 224.886 79.5596C225.571 80.3418 225.914 81.2559 225.914 82.3018C225.914 83.3213 225.571 84.2178 224.886 84.9912C224.2 85.7559 223.233 86.3491 221.985 86.771C220.737 87.1841 219.296 87.3906 217.661 87.3906C216.026 87.3906 214.585 87.1841 213.337 86.771C212.089 86.3491 211.122 85.7559 210.437 84.9912C209.751 84.2178 209.408 83.3213 209.408 82.3018C209.408 81.2559 209.751 80.3418 210.437 79.5596C211.122 78.7773 212.089 78.1797 213.337 77.7666C214.585 77.3447 216.026 77.1338 217.661 77.1338ZM217.661 78.8213C216.448 78.8213 215.376 78.9663 214.444 79.2563C213.521 79.5376 212.805 79.9419 212.295 80.4692C211.786 80.9966 211.535 81.6074 211.544 82.3018C211.535 82.9873 211.786 83.5894 212.295 84.1079C212.805 84.6265 213.521 85.0264 214.444 85.3076C215.376 85.5889 216.448 85.7295 217.661 85.7295C218.865 85.7295 219.933 85.5889 220.865 85.3076C221.796 85.0264 222.517 84.6265 223.027 84.1079C223.545 83.5894 223.805 82.9873 223.805 82.3018C223.805 81.6074 223.545 80.9966 223.027 80.4692C222.517 79.9419 221.796 79.5376 220.865 79.2563C219.933 78.9663 218.865 78.8213 217.661 78.8213Z" fill="#1A1A1A"/>
<path d="M185.15 82.4863C185.15 83.875 185.423 85.2461 185.968 86.5996C186.513 87.9531 187.251 89.1572 188.183 90.2119C189.114 91.2578 190.143 92.04 191.268 92.5586L190.028 94.2461C188.701 93.5605 187.515 92.5542 186.469 91.2271C185.423 89.8999 184.641 88.4014 184.122 86.7314C183.595 88.498 182.808 90.0845 181.762 91.4907C180.725 92.897 179.543 93.9561 178.216 94.668L176.871 93.0068C178.005 92.4531 179.042 91.6226 179.982 90.5151C180.923 89.3989 181.666 88.1377 182.21 86.7314C182.764 85.3164 183.041 83.9014 183.041 82.4863V78.2148H185.15V82.4863ZM196.33 99.6777H194.273V85.8877H188.71V84.2002H194.273V76.1846H196.33V99.6777Z" fill="#1A1A1A"/>
<path d="M173.654 99.625H171.65V76.1846H173.654V99.625ZM168.935 98.4385H166.957V87.0479H163.938C163.868 88.5596 163.617 89.8735 163.187 90.9897C162.756 92.0972 162.171 92.9541 161.433 93.5605C160.695 94.1582 159.847 94.457 158.889 94.457C157.878 94.457 156.99 94.1274 156.226 93.4683C155.47 92.8003 154.885 91.8511 154.472 90.6206C154.059 89.3901 153.853 87.9531 153.853 86.3096C153.853 84.666 154.059 83.229 154.472 81.9985C154.885 80.7681 155.47 79.8232 156.226 79.1641C156.99 78.4961 157.878 78.1621 158.889 78.1621C159.829 78.1621 160.664 78.4521 161.394 79.0322C162.123 79.6123 162.703 80.4429 163.134 81.5239C163.573 82.605 163.837 83.875 163.925 85.334H166.957V76.6855H168.935V98.4385ZM158.889 80.1133C158.256 80.1133 157.707 80.3638 157.241 80.8647C156.775 81.3657 156.415 82.0864 156.16 83.0269C155.914 83.9585 155.795 85.0527 155.804 86.3096C155.795 87.5664 155.914 88.6606 156.16 89.5923C156.415 90.5239 156.775 91.2402 157.241 91.7412C157.715 92.2422 158.265 92.4883 158.889 92.4795C159.513 92.4883 160.058 92.2422 160.523 91.7412C160.998 91.2402 161.363 90.5239 161.618 89.5923C161.873 88.6606 162 87.5664 162 86.3096C162 85.0439 161.873 83.9453 161.618 83.0137C161.363 82.082 161.002 81.3657 160.537 80.8647C160.071 80.3638 159.521 80.1133 158.889 80.1133Z" fill="#1A1A1A"/>
<path d="M151.664 89.6846H130.228V87.9707H139.878V84.3584H141.908V87.9707H151.664V89.6846ZM141.935 77.6611C141.935 78.6543 142.334 79.5991 143.134 80.4956C143.934 81.3921 144.976 82.1479 146.259 82.7632C147.551 83.3696 148.896 83.7695 150.293 83.9629L149.449 85.624C148.245 85.4131 147.081 85.0703 145.956 84.5957C144.831 84.1123 143.824 83.5146 142.937 82.8027C142.058 82.0908 141.381 81.2954 140.906 80.4165C140.432 81.2954 139.75 82.0908 138.863 82.8027C137.975 83.5146 136.964 84.1123 135.831 84.5957C134.697 85.0703 133.523 85.4131 132.311 85.624L131.52 83.9629C132.917 83.7695 134.257 83.3696 135.541 82.7632C136.824 82.1479 137.861 81.3921 138.652 80.4956C139.452 79.5991 139.852 78.6543 139.852 77.6611V76.5537H141.935V77.6611ZM148.948 99.625H146.865V93.6396H132.601V91.9785H148.948V99.625Z" fill="#1A1A1A"/>
<path d="M121.474 90.0273H100.116V88.3135H109.767V85.4922H102.964V76.7383H105.021V79.4541H116.622V76.7383H118.679V85.4922H111.823V88.3135H121.474V90.0273ZM118.837 99.625H116.754V94.0088H102.489V92.3477H118.837V99.625ZM116.622 83.8311V81.0361H105.021V83.8311H116.622Z" fill="#1A1A1A"/>
<path d="M95.1064 83.3037H98.6396V85.0439H95.1064V93.4287H93.0498V76.2109H95.1064V83.3037ZM96.1875 99.124H80.4463V91.7412H82.4766V97.3838H96.1875V99.124ZM79.8135 81.8535H86.6426V77.8984H88.6992V89.4736H77.7832V77.8984H79.8135V81.8535ZM86.6426 87.7861V83.4883H79.8135V87.7861H86.6426Z" fill="#1A1A1A"/>
<path d="M54.3428 77.8984C55.5645 77.8984 56.6499 78.1313 57.5991 78.5972C58.5571 79.063 59.3042 79.7134 59.8403 80.5483C60.3765 81.3833 60.6445 82.3369 60.6445 83.4092C60.6445 84.4814 60.3765 85.4351 59.8403 86.27C59.3042 87.105 58.5571 87.7554 57.5991 88.2212C56.6499 88.687 55.5645 88.9199 54.3428 88.9199C53.1211 88.9199 52.0269 88.687 51.0601 88.2212C50.1021 87.7554 49.3506 87.105 48.8057 86.27C48.2695 85.4351 48.0059 84.4814 48.0146 83.4092C48.0059 82.3369 48.2695 81.3833 48.8057 80.5483C49.3506 79.7134 50.1021 79.063 51.0601 78.5972C52.0269 78.1313 53.1211 77.8984 54.3428 77.8984ZM54.3428 79.7178C53.5166 79.7178 52.7739 79.876 52.1147 80.1924C51.4644 80.5 50.9546 80.9351 50.5854 81.4976C50.2163 82.0513 50.0361 82.6885 50.0449 83.4092C50.0361 84.1299 50.2163 84.7715 50.5854 85.334C50.9546 85.8877 51.4644 86.3228 52.1147 86.6392C52.7739 86.9468 53.5166 87.1006 54.3428 87.1006C55.1602 87.1006 55.894 86.9468 56.5444 86.6392C57.1948 86.3228 57.7002 85.8877 58.0605 85.334C58.4297 84.7715 58.6143 84.1299 58.6143 83.4092C58.6143 82.6885 58.4297 82.0513 58.0605 81.4976C57.7002 80.9351 57.1948 80.5 56.5444 80.1924C55.894 79.876 55.1602 79.7178 54.3428 79.7178ZM65.8916 99.6777H63.835V76.1846H65.8916V99.6777ZM46.8018 92.7432C49.8428 92.7432 52.6069 92.6948 55.0942 92.5981C57.5903 92.5015 59.9854 92.2861 62.2793 91.9521L62.4375 93.4814C60.082 93.9209 57.6782 94.2021 55.2261 94.3252C52.7827 94.4482 50.0713 94.5098 47.0918 94.5098L46.8018 92.7432Z" fill="#1A1A1A"/>
<path d="M44.7715 86.9424H23.335V85.2549H29.9663C30.5288 83.0664 30.8496 80.9219 30.9287 78.8213H25.3389V77.1338H32.9854V77.7402C32.9678 78.5225 32.9414 79.2124 32.9062 79.8101C32.8799 80.3989 32.8008 81.1768 32.6689 82.1436C32.5371 83.1104 32.335 84.1475 32.0625 85.2549H39.2344C39.542 83.9629 39.7529 82.8027 39.8672 81.7744C39.9814 80.7373 40.0474 79.7529 40.0649 78.8213H34.5674V77.1338H42.082V78.083C42.082 79.1992 42.0381 80.3154 41.9502 81.4316C41.8623 82.5391 41.6514 83.8135 41.3174 85.2549H44.7715V86.9424ZM42.1348 91.0557H28.0811V93.5342H41.5283V95.0898H28.0811V97.6738H42.293V99.3086H25.998V89.4473H42.1348V91.0557Z" fill="#1A1A1A"/>
<path d="M18.9844 99.124H2.76855V92.374H4.85156V97.3838H18.9844V99.124ZM21.4365 90.502H0V88.7617H9.65039V84.7803H11.6807V88.7617H21.4365V90.502ZM11.707 77.8721C11.707 78.9355 12.0981 79.9507 12.8804 80.9175C13.6626 81.8755 14.6865 82.6885 15.9521 83.3564C17.2178 84.0156 18.5449 84.4551 19.9336 84.6748L19.1162 86.3096C17.9209 86.0811 16.7695 85.7119 15.6621 85.2021C14.5547 84.6836 13.5615 84.0508 12.6826 83.3037C11.8125 82.5479 11.1445 81.7129 10.6787 80.7988C10.2041 81.7217 9.53174 82.561 8.66162 83.3169C7.80029 84.0728 6.81152 84.7056 5.69531 85.2153C4.58789 85.7251 3.43652 86.0898 2.24121 86.3096L1.39746 84.6748C2.78613 84.4463 4.11328 83.998 5.37891 83.3301C6.64453 82.6621 7.66846 81.8491 8.45068 80.8911C9.23291 79.9331 9.62402 78.9268 9.62402 77.8721V76.8174H11.707V77.8721Z" fill="#1A1A1A"/>
<path d="M823.869 59.6475C823.561 59.6475 823.276 59.5728 823.012 59.4233C822.757 59.2651 822.551 59.0542 822.392 58.7905C822.243 58.5269 822.173 58.2412 822.181 57.9336C822.173 57.6348 822.243 57.3579 822.392 57.103C822.551 56.8394 822.757 56.6328 823.012 56.4834C823.276 56.3252 823.561 56.2461 823.869 56.2461C824.168 56.2461 824.445 56.3252 824.699 56.4834C824.963 56.6328 825.17 56.8394 825.319 57.103C825.477 57.3579 825.556 57.6348 825.556 57.9336C825.556 58.2412 825.477 58.5269 825.319 58.7905C825.17 59.0542 824.963 59.2651 824.699 59.4233C824.445 59.5728 824.168 59.6475 823.869 59.6475Z" fill="#1A1A1A"/>
<path d="M816.196 47.4658H820.125V49.2061H816.196V61.6777H814.14V38.1846H816.196V47.4658ZM810.026 42.1924H801.141V54.0576C803.329 54.0576 805.241 53.9961 806.875 53.873C808.51 53.75 810.176 53.5303 811.872 53.2139L812.136 55.0068C810.404 55.3232 808.704 55.5342 807.034 55.6396C805.364 55.7451 803.329 55.7979 800.93 55.7979H799.084V40.4785H810.026V42.1924Z" fill="#1A1A1A"/>
<path d="M796.104 51.7109H774.721V50.0234H796.104V51.7109ZM793.652 47.4395H777.437V39.2129H793.441V40.9004H779.493V45.7256H793.652V47.4395ZM793.837 61.0977H777.489V54.2422H779.546V59.3574H793.837V61.0977Z" fill="#1A1A1A"/>
<path d="M763.225 51.1045H752.388V40.3203H763.225V51.1045ZM754.418 49.4434H761.221V42.0078H754.418V49.4434ZM769.711 45.3301H773.244V47.0703H769.711V55.376H767.654V38.1846H769.711V45.3301ZM770.792 61.124H755.051V53.7412H757.081V59.3838H770.792V61.124Z" fill="#1A1A1A"/>
<path d="M731.953 38.6064C733.693 38.6064 735.183 38.7646 736.422 39.0811C737.662 39.3887 738.606 39.8457 739.257 40.4521C739.907 41.0498 740.232 41.7793 740.232 42.6406C740.232 43.959 739.512 44.9697 738.07 45.6729C736.629 46.376 734.59 46.7363 731.953 46.7539C730.213 46.7451 728.719 46.5825 727.471 46.2661C726.231 45.9497 725.282 45.4883 724.623 44.8818C723.973 44.2666 723.647 43.5195 723.647 42.6406C723.647 41.7793 723.973 41.0498 724.623 40.4521C725.282 39.8457 726.231 39.3887 727.471 39.0811C728.719 38.7646 730.213 38.6064 731.953 38.6064ZM731.953 40.1621C730.661 40.1621 729.554 40.2632 728.631 40.4653C727.708 40.6587 727.005 40.9443 726.521 41.3223C726.038 41.6914 725.801 42.1309 725.81 42.6406C725.801 43.4492 726.333 44.0732 727.405 44.5127C728.477 44.9521 729.993 45.1719 731.953 45.1719C733.904 45.1719 735.42 44.9521 736.501 44.5127C737.583 44.0732 738.123 43.4492 738.123 42.6406C738.123 42.1309 737.877 41.6914 737.385 41.3223C736.893 40.9531 736.185 40.6675 735.262 40.4653C734.339 40.2632 733.236 40.1621 731.953 40.1621ZM742.632 50.0234H721.274V48.3359H742.632V50.0234ZM739.89 57.3008H725.968V59.7266H740.602V61.3613H723.911V55.7715H737.859V53.6357H723.858V52.0537H739.89V57.3008Z" fill="#1A1A1A"/>
<path d="M719.376 52.001H697.913V50.2871H719.376V52.001ZM716.607 44.3018H702.765V46.6484H717.108V48.2568H700.708V42.7461H714.524V40.4258H700.629V38.7646H716.607V44.3018ZM716.607 61.3086H700.84V54.1367H716.607V61.3086ZM702.87 59.6211H714.577V55.8242H702.87V59.6211Z" fill="#1A1A1A"/>
<path d="M694.854 43.5371H675.659V41.8232H684.255V38.6328H686.285V41.8232H694.854V43.5371ZM696.067 58.751H674.604V57.0371H696.067V58.751ZM685.283 45.0928C686.848 45.084 688.21 45.2642 689.37 45.6333C690.53 46.0024 691.422 46.5342 692.046 47.2285C692.67 47.9229 692.982 48.749 692.982 49.707C692.982 50.6562 692.67 51.478 692.046 52.1724C691.422 52.8667 690.53 53.3984 689.37 53.7676C688.21 54.1367 686.848 54.3213 685.283 54.3213C683.701 54.3213 682.33 54.1367 681.17 53.7676C680.01 53.3984 679.118 52.8667 678.494 52.1724C677.878 51.478 677.575 50.6562 677.584 49.707C677.575 48.749 677.878 47.9229 678.494 47.2285C679.118 46.5254 680.01 45.9937 681.17 45.6333C682.33 45.2642 683.701 45.084 685.283 45.0928ZM685.283 46.7803C684.132 46.7715 683.13 46.8857 682.277 47.123C681.425 47.3604 680.77 47.7031 680.313 48.1514C679.856 48.5908 679.632 49.1094 679.641 49.707C679.632 50.3047 679.856 50.8232 680.313 51.2627C680.77 51.7021 681.425 52.0405 682.277 52.2778C683.13 52.5151 684.132 52.6338 685.283 52.6338C686.417 52.6338 687.406 52.5195 688.25 52.291C689.093 52.0537 689.739 51.7153 690.188 51.2759C690.645 50.8276 690.873 50.3047 690.873 49.707C690.873 49.1094 690.645 48.5908 690.188 48.1514C689.739 47.7031 689.093 47.3604 688.25 47.123C687.406 46.8857 686.417 46.7715 685.283 46.7803Z" fill="#1A1A1A"/>
<path d="M652.166 39.8984C653.388 39.8984 654.473 40.1313 655.422 40.5972C656.38 41.063 657.127 41.7134 657.664 42.5483C658.2 43.3833 658.468 44.3369 658.468 45.4092C658.468 46.4814 658.2 47.4351 657.664 48.27C657.127 49.105 656.38 49.7554 655.422 50.2212C654.473 50.687 653.388 50.9199 652.166 50.9199C650.944 50.9199 649.85 50.687 648.883 50.2212C647.925 49.7554 647.174 49.105 646.629 48.27C646.093 47.4351 645.829 46.4814 645.838 45.4092C645.829 44.3369 646.093 43.3833 646.629 42.5483C647.174 41.7134 647.925 41.063 648.883 40.5972C649.85 40.1313 650.944 39.8984 652.166 39.8984ZM652.166 41.7178C651.34 41.7178 650.597 41.876 649.938 42.1924C649.288 42.5 648.778 42.9351 648.409 43.4976C648.04 44.0513 647.859 44.6885 647.868 45.4092C647.859 46.1299 648.04 46.7715 648.409 47.334C648.778 47.8877 649.288 48.3228 649.938 48.6392C650.597 48.9468 651.34 49.1006 652.166 49.1006C652.983 49.1006 653.717 48.9468 654.368 48.6392C655.018 48.3228 655.523 47.8877 655.884 47.334C656.253 46.7715 656.438 46.1299 656.438 45.4092C656.438 44.6885 656.253 44.0513 655.884 43.4976C655.523 42.9351 655.018 42.5 654.368 42.1924C653.717 41.876 652.983 41.7178 652.166 41.7178ZM663.715 61.6777H661.658V38.1846H663.715V61.6777ZM644.625 54.7432C647.666 54.7432 650.43 54.6948 652.917 54.5981C655.414 54.5015 657.809 54.2861 660.103 53.9521L660.261 55.4814C657.905 55.9209 655.501 56.2021 653.049 56.3252C650.606 56.4482 647.895 56.5098 644.915 56.5098L644.625 54.7432Z" fill="#1A1A1A"/>
<path d="M640.512 50.7617H638.455V38.1846H640.512V50.7617ZM627.381 54.7959H638.455V51.9482H640.512V61.3086H625.324V51.9482H627.381V54.7959ZM638.455 59.6211V56.457H627.381V59.6211H638.455ZM627.855 39.3447C629.033 39.3359 630.088 39.5557 631.02 40.0039C631.951 40.4521 632.681 41.0894 633.208 41.9155C633.735 42.7329 633.999 43.6689 633.999 44.7236C633.999 45.7695 633.735 46.7012 633.208 47.5186C632.681 48.3359 631.951 48.9731 631.02 49.4302C630.088 49.8784 629.033 50.1025 627.855 50.1025C626.678 50.1025 625.623 49.8784 624.691 49.4302C623.76 48.9731 623.03 48.3359 622.503 47.5186C621.976 46.7012 621.712 45.7695 621.712 44.7236C621.712 43.6689 621.976 42.7329 622.503 41.9155C623.03 41.0894 623.76 40.4521 624.691 40.0039C625.623 39.5557 626.678 39.3359 627.855 39.3447ZM627.855 41.085C627.064 41.0762 626.353 41.23 625.72 41.5464C625.096 41.854 624.608 42.2847 624.256 42.8384C623.905 43.3921 623.733 44.0205 623.742 44.7236C623.733 45.4268 623.905 46.0596 624.256 46.6221C624.608 47.1758 625.096 47.6108 625.72 47.9272C626.353 48.2349 627.064 48.3887 627.855 48.3887C628.638 48.3887 629.341 48.2349 629.965 47.9272C630.589 47.6108 631.077 47.1758 631.428 46.6221C631.789 46.0596 631.969 45.4268 631.969 44.7236C631.969 44.0205 631.789 43.3921 631.428 42.8384C631.077 42.2847 630.589 41.854 629.965 41.5464C629.341 41.23 628.638 41.0762 627.855 41.085Z" fill="#1A1A1A"/>
<path d="M619.181 50.1553H597.823V48.4414H607.447V46.1211H600.592V38.9756H616.412V46.1211H609.478V48.4414H619.181V50.1553ZM602.648 44.46H614.355V40.6367H602.648V44.46ZM616.438 57.3535H602.517V59.7266H617.15V61.3613H600.46V55.7979H614.408V53.7148H600.407V52.1064H616.438V57.3535Z" fill="#1A1A1A"/>
<path d="M586.037 45.9365H589.57V47.6768H586.037V55.7715H583.98V38.2109H586.037V45.9365ZM581.739 42.7725H567.765V41.085H573.724V38.2109H575.78V41.085H581.739V42.7725ZM574.752 44.0645C575.859 44.0645 576.835 44.2446 577.679 44.605C578.531 44.9653 579.195 45.4751 579.669 46.1343C580.144 46.7935 580.386 47.5625 580.395 48.4414C580.386 49.3115 580.144 50.0718 579.669 50.7222C579.195 51.3726 578.531 51.8779 577.679 52.2383C576.835 52.5898 575.859 52.7656 574.752 52.7656C573.636 52.7656 572.647 52.5898 571.786 52.2383C570.933 51.8779 570.27 51.3726 569.795 50.7222C569.329 50.0718 569.101 49.3115 569.109 48.4414C569.101 47.5625 569.329 46.7935 569.795 46.1343C570.27 45.4751 570.933 44.9653 571.786 44.605C572.647 44.2446 573.636 44.0645 574.752 44.0645ZM574.752 45.6992C574.022 45.6992 573.376 45.8135 572.814 46.042C572.26 46.2617 571.83 46.5825 571.522 47.0044C571.223 47.4175 571.078 47.8965 571.087 48.4414C571.078 48.9863 571.223 49.4653 571.522 49.8784C571.83 50.2827 572.26 50.5947 572.814 50.8145C573.376 51.0342 574.022 51.1396 574.752 51.1309C575.473 51.1396 576.11 51.0342 576.664 50.8145C577.226 50.5947 577.661 50.2827 577.969 49.8784C578.276 49.4653 578.435 48.9863 578.443 48.4414C578.435 47.8965 578.276 47.4175 577.969 47.0044C577.661 46.5825 577.226 46.2617 576.664 46.042C576.11 45.8135 575.473 45.6992 574.752 45.6992ZM587.118 61.124H571.377V54.374H573.407V59.3838H587.118V61.124Z" fill="#1A1A1A"/>
<path d="M565.734 51.5H544.377V49.7861H549.677V46.4902C548.728 46.1211 548.002 45.6421 547.501 45.0532C547 44.4556 546.75 43.7656 546.75 42.9834C546.75 42.0693 547.084 41.2871 547.752 40.6367C548.42 39.9863 549.374 39.4897 550.613 39.147C551.861 38.8042 553.342 38.6328 555.056 38.6328C556.752 38.6328 558.22 38.8042 559.459 39.147C560.707 39.4897 561.665 39.9863 562.333 40.6367C563.001 41.2871 563.335 42.0693 563.335 42.9834C563.335 43.7568 563.084 44.4424 562.583 45.04C562.091 45.6289 561.375 46.1079 560.435 46.4771V49.7861H565.734V51.5ZM555.056 53.293C556.734 53.293 558.176 53.4512 559.38 53.7676C560.584 54.084 561.507 54.5542 562.148 55.1782C562.79 55.7935 563.115 56.5449 563.124 57.4326C563.115 58.3115 562.79 59.0586 562.148 59.6738C561.507 60.2979 560.584 60.7681 559.38 61.0845C558.176 61.4097 556.734 61.5723 555.056 61.5723C553.359 61.5723 551.905 61.4097 550.692 61.0845C549.488 60.7681 548.565 60.2979 547.923 59.6738C547.282 59.0586 546.961 58.3115 546.961 57.4326C546.961 56.5449 547.277 55.7935 547.91 55.1782C548.552 54.5542 549.479 54.084 550.692 53.7676C551.905 53.4512 553.359 53.293 555.056 53.293ZM555.056 54.875C553.157 54.8926 551.681 55.1255 550.626 55.5737C549.58 56.0132 549.062 56.6328 549.07 57.4326C549.062 57.96 549.294 58.4126 549.769 58.7905C550.244 59.1685 550.929 59.4585 551.826 59.6606C552.731 59.8628 553.808 59.9639 555.056 59.9639C556.286 59.9639 557.35 59.8628 558.246 59.6606C559.151 59.4585 559.841 59.1685 560.316 58.7905C560.799 58.4126 561.041 57.96 561.041 57.4326C561.041 56.6328 560.509 56.0132 559.446 55.5737C558.391 55.1255 556.928 54.8926 555.056 54.875ZM555.056 40.2676C553.79 40.2676 552.691 40.3774 551.76 40.5972C550.828 40.8169 550.112 41.1333 549.611 41.5464C549.119 41.9507 548.877 42.4297 548.886 42.9834C548.877 43.5459 549.119 44.0337 549.611 44.4468C550.112 44.8511 550.824 45.1631 551.747 45.3828C552.678 45.5938 553.781 45.6992 555.056 45.6992C556.321 45.6992 557.416 45.5938 558.338 45.3828C559.261 45.1631 559.973 44.8511 560.474 44.4468C560.975 44.0337 561.226 43.5459 561.226 42.9834C561.226 42.4297 560.975 41.9507 560.474 41.5464C559.973 41.1333 559.257 40.8169 558.325 40.5972C557.402 40.3774 556.312 40.2676 555.056 40.2676ZM558.378 49.7861V47.0439C557.367 47.2197 556.26 47.3076 555.056 47.3076C553.852 47.3076 552.744 47.2197 551.733 47.0439V49.7861H558.378Z" fill="#1A1A1A"/>
<path d="M542.505 58.6191H521.042V56.8789H530.719V51.1836H532.802V56.8789H542.505V58.6191ZM532.802 42.6406C532.802 43.8359 533.232 44.9785 534.094 46.0684C534.955 47.1494 536.058 48.0635 537.403 48.8105C538.748 49.5488 540.105 50.0322 541.477 50.2607L540.633 51.8955C539.411 51.6582 538.211 51.2539 537.034 50.6826C535.865 50.1025 534.814 49.3818 533.883 48.5205C532.951 47.6592 532.244 46.7056 531.76 45.6597C531.277 46.7144 530.569 47.6768 529.638 48.5469C528.715 49.417 527.669 50.1465 526.5 50.7354C525.34 51.3242 524.162 51.7461 522.967 52.001L522.097 50.3398C523.441 50.1025 524.777 49.606 526.104 48.8501C527.432 48.0942 528.521 47.167 529.374 46.0684C530.235 44.9697 530.666 43.8271 530.666 42.6406V42.0605H522.809V40.3203H540.659V42.0605H532.802V42.6406Z" fill="#1A1A1A"/>
<path d="M512.288 52.2381H490.931V50.5506H512.288V52.2381ZM509.915 61.1238H493.699V54.2947H495.782V59.3836H509.915V61.1238ZM501.609 39.0281C503.279 39.0193 504.738 39.1995 505.986 39.5687C507.234 39.9378 508.197 40.4739 508.874 41.1771C509.55 41.8714 509.889 42.702 509.889 43.6688C509.889 44.6356 509.55 45.4705 508.874 46.1736C508.197 46.868 507.234 47.4041 505.986 47.782C504.738 48.1512 503.279 48.3358 501.609 48.3358C499.922 48.3358 498.454 48.1512 497.206 47.782C495.958 47.4041 494.996 46.868 494.319 46.1736C493.642 45.4705 493.304 44.6356 493.304 43.6688C493.304 42.702 493.642 41.8714 494.319 41.1771C494.996 40.4739 495.958 39.9378 497.206 39.5687C498.454 39.1995 499.922 39.0193 501.609 39.0281ZM501.609 40.6893C500.361 40.6893 499.271 40.8123 498.34 41.0584C497.408 41.2957 496.688 41.6385 496.178 42.0867C495.677 42.535 495.431 43.0623 495.439 43.6688C495.431 44.2752 495.677 44.8026 496.178 45.2508C496.688 45.699 497.408 46.0462 498.34 46.2923C499.271 46.5296 500.361 46.6483 501.609 46.6483C502.849 46.6483 503.934 46.5296 504.866 46.2923C505.797 46.0462 506.514 45.699 507.015 45.2508C507.524 44.8026 507.779 44.2752 507.779 43.6688C507.779 43.0623 507.524 42.535 507.015 42.0867C506.514 41.6385 505.797 41.2957 504.866 41.0584C503.934 40.8123 502.849 40.6893 501.609 40.6893Z" fill="#1A1A1A"/>
<path d="M487.028 52.1592H484.945V46.0156H480.226V44.3018H484.945V38.1846H487.028V52.1592ZM479.25 52.8975C480.876 52.8975 482.278 53.0688 483.456 53.4116C484.633 53.7544 485.534 54.251 486.158 54.9014C486.791 55.5518 487.107 56.334 487.107 57.248C487.107 58.1621 486.791 58.9443 486.158 59.5947C485.534 60.2539 484.633 60.7549 483.456 61.0977C482.278 61.4404 480.876 61.6162 479.25 61.625C477.624 61.6162 476.222 61.4404 475.044 61.0977C473.867 60.7549 472.961 60.2539 472.329 59.5947C471.705 58.9443 471.393 58.1621 471.393 57.248C471.393 56.334 471.705 55.5518 472.329 54.9014C472.961 54.251 473.867 53.7544 475.044 53.4116C476.222 53.0688 477.624 52.8975 479.25 52.8975ZM479.25 54.5059C478.063 54.5059 477.031 54.6157 476.152 54.8354C475.273 55.0552 474.601 55.3716 474.135 55.7847C473.669 56.1978 473.44 56.6855 473.449 57.248C473.44 57.8018 473.669 58.2852 474.135 58.6982C474.601 59.1025 475.273 59.4146 476.152 59.6343C477.031 59.854 478.063 59.9639 479.25 59.9639C480.437 59.9639 481.465 59.854 482.335 59.6343C483.214 59.4146 483.886 59.1025 484.352 58.6982C484.818 58.2852 485.051 57.8018 485.051 57.248C485.051 56.6855 484.818 56.1978 484.352 55.7847C483.886 55.3716 483.214 55.0552 482.335 54.8354C481.465 54.6157 480.437 54.5059 479.25 54.5059ZM475.743 42.4824C475.743 43.4932 475.985 44.4731 476.468 45.4224C476.952 46.3628 477.628 47.2021 478.499 47.9404C479.377 48.6699 480.384 49.2324 481.518 49.6279L480.437 51.2891C479.127 50.8145 477.976 50.1113 476.982 49.1797C475.998 48.248 475.255 47.1714 474.754 45.9497C474.245 47.3208 473.467 48.5337 472.421 49.5884C471.384 50.6343 470.171 51.4209 468.782 51.9482L467.701 50.2871C468.853 49.8652 469.881 49.2588 470.786 48.4678C471.691 47.668 472.395 46.7495 472.896 45.7124C473.405 44.6753 473.66 43.6074 473.66 42.5088V41.6387H468.36V39.8984H480.99V41.6387H475.743V42.4824Z" fill="#1A1A1A"/>
<path d="M457.26 42.0078V42.377C457.242 43.7744 457.189 45.1675 457.102 46.5562C457.014 47.936 456.838 49.5225 456.574 51.3154L454.491 51.1309C454.772 49.3906 454.957 47.835 455.045 46.4639C455.133 45.084 455.177 43.7568 455.177 42.4824H445.342V40.7949H457.26V42.0078ZM451.116 54.6113C454.008 54.5059 456.574 54.3213 458.815 54.0576L458.921 55.6133C456.873 55.9385 454.715 56.1626 452.448 56.2856C450.18 56.3999 447.829 56.457 445.395 56.457H444.287L444.023 54.7432C446.265 54.7256 447.952 54.7036 449.086 54.6772V47.4922H451.116V54.6113ZM462.349 47.9932H466.146V49.7861H462.349V61.625H460.292V38.1846H462.349V47.9932Z" fill="#1A1A1A"/>
<path d="M432.633 43.0361C432.633 44.3809 432.615 45.5542 432.58 46.5562C432.554 47.5581 432.479 48.7271 432.356 50.063C432.233 51.3989 432.035 52.8535 431.763 54.4268L429.653 54.2158C429.943 52.7305 430.159 51.333 430.299 50.0234C430.44 48.7051 430.523 47.5449 430.55 46.543C430.585 45.5322 430.603 44.3633 430.603 43.0361V42.4033H416.47V40.6895H432.633V43.0361ZM435.507 58.1709H414.149V56.457H435.507V58.1709Z" fill="#1A1A1A"/>
<path d="M402.258 64.8945H400.307L401.757 57.7227H404.314L402.258 64.8945Z" fill="#1A1A1A"/>
<path d="M395.93 42.9043V43.1943C395.912 45.1279 395.851 46.8638 395.745 48.4019C395.648 49.9312 395.42 51.7021 395.06 53.7148L392.95 53.4775C393.231 52.0889 393.434 50.7793 393.557 49.5488C393.688 48.3184 393.768 47.2241 393.794 46.2661C393.829 45.3081 393.847 44.1875 393.847 42.9043V42.2715H379.397V40.5576H395.93V42.9043ZM398.487 58.3027H377.13V56.5889H385.515V48.2041H387.545V56.5889H398.487V58.3027Z" fill="#1A1A1A"/>
<path d="M367.77 50.0234H362.628V54.6377C365.115 54.541 367.374 54.374 369.404 54.1367L369.562 55.6924C367.242 56.0352 364.825 56.2637 362.312 56.3779C359.798 56.4834 357.1 56.5361 354.217 56.5361L353.927 54.7959C356.493 54.7959 358.708 54.7695 360.571 54.7168V50.0234H355.72V40.4258H367.664V42.1133H357.75V48.3096H367.77V50.0234ZM373.017 61.6777H370.96V38.1846H373.017V61.6777Z" fill="#1A1A1A"/>
<path d="M338.528 41.876C338.52 42.9746 338.757 44.0249 339.24 45.0269C339.724 46.02 340.405 46.8901 341.284 47.6372C342.171 48.3843 343.187 48.9512 344.329 49.3379L343.169 50.9463C341.868 50.4541 340.73 49.7466 339.754 48.8237C338.779 47.9009 338.041 46.8242 337.54 45.5938C337.039 47 336.27 48.2305 335.232 49.2852C334.195 50.3311 332.974 51.1221 331.567 51.6582L330.434 49.9707C331.629 49.5488 332.679 48.9424 333.584 48.1514C334.499 47.3516 335.206 46.4199 335.707 45.3564C336.208 44.2842 336.463 43.1504 336.472 41.9551V39.5293H338.528V41.876ZM349.893 52.0801H347.81V44.9346H342.589V43.2207H347.81V38.1846H349.893V52.0801ZM342.114 52.7656C343.74 52.7656 345.142 52.9414 346.32 53.293C347.498 53.6357 348.398 54.1411 349.022 54.8091C349.655 55.4683 349.972 56.2637 349.972 57.1953C349.972 58.1182 349.655 58.9048 349.022 59.5552C348.398 60.2144 347.498 60.7153 346.32 61.0581C345.142 61.4009 343.74 61.5723 342.114 61.5723C340.488 61.5723 339.086 61.4009 337.909 61.0581C336.731 60.7153 335.826 60.2144 335.193 59.5552C334.569 58.9048 334.257 58.1182 334.257 57.1953C334.257 56.2637 334.569 55.4683 335.193 54.8091C335.826 54.1411 336.731 53.6357 337.909 53.293C339.086 52.9414 340.488 52.7656 342.114 52.7656ZM342.114 54.4004C340.928 54.4004 339.895 54.5146 339.016 54.7432C338.137 54.9629 337.465 55.2837 336.999 55.7056C336.533 56.1274 336.305 56.624 336.313 57.1953C336.305 57.749 336.533 58.2324 336.999 58.6455C337.465 59.0498 338.137 59.3618 339.016 59.5815C339.895 59.8013 340.928 59.9111 342.114 59.9111C343.301 59.9111 344.329 59.8013 345.199 59.5815C346.078 59.3618 346.75 59.0498 347.216 58.6455C347.682 58.2324 347.915 57.749 347.915 57.1953C347.915 56.624 347.682 56.1274 347.216 55.7056C346.75 55.2837 346.078 54.9629 345.199 54.7432C344.329 54.5146 343.301 54.4004 342.114 54.4004Z" fill="#1A1A1A"/>
<path d="M314.271 39.292C315.404 39.292 316.411 39.4854 317.29 39.8721C318.177 40.2588 318.867 40.8037 319.359 41.5068C319.852 42.2012 320.098 43.0098 320.098 43.9326C320.098 44.7236 319.9 45.4399 319.504 46.0815C319.118 46.7231 318.564 47.2505 317.843 47.6636C317.131 48.0767 316.31 48.3403 315.378 48.4546V50.7485C317.76 50.6343 319.913 50.4277 321.838 50.1289L321.996 51.6846C319.799 52.0801 317.505 52.3394 315.114 52.4624C312.732 52.5767 310.148 52.6338 307.362 52.6338L307.099 50.9199H308.312C309.867 50.9199 311.528 50.8936 313.295 50.8408V48.4678C312.337 48.3623 311.489 48.1074 310.75 47.7031C310.021 47.29 309.454 46.7627 309.05 46.1211C308.654 45.4707 308.461 44.7412 308.47 43.9326C308.461 43.0186 308.698 42.21 309.182 41.5068C309.674 40.8037 310.359 40.2588 311.238 39.8721C312.126 39.4854 313.137 39.292 314.271 39.292ZM314.271 40.9004C313.523 40.9004 312.855 41.0278 312.267 41.2827C311.678 41.5376 311.221 41.8936 310.896 42.3506C310.57 42.8076 310.412 43.335 310.421 43.9326C310.412 44.5127 310.57 45.0312 310.896 45.4883C311.221 45.9365 311.678 46.2881 312.267 46.543C312.855 46.7979 313.523 46.9297 314.271 46.9385C315.026 46.9297 315.694 46.7979 316.274 46.543C316.863 46.2881 317.32 45.9365 317.646 45.4883C317.971 45.0312 318.138 44.5127 318.146 43.9326C318.138 43.335 317.971 42.8076 317.646 42.3506C317.32 41.8848 316.863 41.5288 316.274 41.2827C315.694 41.0278 315.026 40.9004 314.271 40.9004ZM325.424 46.1475H328.931V47.9141H325.424V56.1406H323.341V38.2109H325.424V46.1475ZM326.268 61.0977H310.526V54.585H312.609V59.3574H326.268V61.0977Z" fill="#1A1A1A"/>
<path d="M298.477 58.7246H277.014V56.9844H286.664V52.5547H279.703V45.3301H293.73V41.6387H279.65V39.9248H295.761V47.0176H281.76V50.8408H296.314V52.5547H288.694V56.9844H298.477V58.7246Z" fill="#1A1A1A"/>
<path d="M264.357 39.7139C265.983 39.7139 267.447 39.9819 268.748 40.5181C270.048 41.0542 271.068 41.8101 271.806 42.7856C272.553 43.7612 272.927 44.8818 272.927 46.1475C272.927 47.4219 272.553 48.5513 271.806 49.5356C271.068 50.5112 270.048 51.2671 268.748 51.8032C267.447 52.3306 265.983 52.5898 264.357 52.5811C262.731 52.5898 261.268 52.3306 259.967 51.8032C258.667 51.2671 257.643 50.5112 256.896 49.5356C256.157 48.5513 255.788 47.4219 255.788 46.1475C255.788 44.8818 256.157 43.7612 256.896 42.7856C257.643 41.8101 258.667 41.0542 259.967 40.5181C261.268 39.9819 262.731 39.7139 264.357 39.7139ZM264.357 41.4014C263.109 41.3926 261.98 41.5903 260.969 41.9946C259.967 42.3989 259.181 42.9658 258.609 43.6953C258.038 44.416 257.757 45.2334 257.766 46.1475C257.757 47.0791 258.038 47.9053 258.609 48.626C259.181 49.3467 259.967 49.9048 260.969 50.3003C261.98 50.6958 263.109 50.8936 264.357 50.8936C265.597 50.8936 266.713 50.6958 267.706 50.3003C268.708 49.9048 269.495 49.3467 270.066 48.626C270.637 47.9053 270.923 47.0791 270.923 46.1475C270.923 45.2334 270.637 44.416 270.066 43.6953C269.495 42.9658 268.708 42.3989 267.706 41.9946C266.713 41.5903 265.597 41.3926 264.357 41.4014ZM275.142 58.5137H253.679V56.7734H275.142V58.5137Z" fill="#1A1A1A"/>
<path d="M251.701 52.0273H230.344V50.3135H239.994V47.4922H233.191V38.7383H235.248V41.4541H246.85V38.7383H248.906V47.4922H242.051V50.3135H251.701V52.0273ZM249.064 61.625H246.981V56.0088H232.717V54.3477H249.064V61.625ZM246.85 45.8311V43.0361H235.248V45.8311H246.85Z" fill="#1A1A1A"/>
<path d="M225.334 45.3037H228.867V47.0439H225.334V55.4287H223.277V38.2109H225.334V45.3037ZM226.415 61.124H210.674V53.7412H212.704V59.3838H226.415V61.124ZM210.041 43.8535H216.87V39.8984H218.927V51.4736H208.011V39.8984H210.041V43.8535ZM216.87 49.7861V45.4883H210.041V49.7861H216.87Z" fill="#1A1A1A"/>
<path d="M184.57 39.8984C185.792 39.8984 186.877 40.1313 187.827 40.5972C188.785 41.063 189.532 41.7134 190.068 42.5483C190.604 43.3833 190.872 44.3369 190.872 45.4092C190.872 46.4814 190.604 47.4351 190.068 48.27C189.532 49.105 188.785 49.7554 187.827 50.2212C186.877 50.687 185.792 50.9199 184.57 50.9199C183.349 50.9199 182.254 50.687 181.288 50.2212C180.33 49.7554 179.578 49.105 179.033 48.27C178.497 47.4351 178.233 46.4814 178.242 45.4092C178.233 44.3369 178.497 43.3833 179.033 42.5483C179.578 41.7134 180.33 41.063 181.288 40.5972C182.254 40.1313 183.349 39.8984 184.57 39.8984ZM184.57 41.7178C183.744 41.7178 183.001 41.876 182.342 42.1924C181.692 42.5 181.182 42.9351 180.813 43.4976C180.444 44.0513 180.264 44.6885 180.272 45.4092C180.264 46.1299 180.444 46.7715 180.813 47.334C181.182 47.8877 181.692 48.3228 182.342 48.6392C183.001 48.9468 183.744 49.1006 184.57 49.1006C185.388 49.1006 186.122 48.9468 186.772 48.6392C187.422 48.3228 187.928 47.8877 188.288 47.334C188.657 46.7715 188.842 46.1299 188.842 45.4092C188.842 44.6885 188.657 44.0513 188.288 43.4976C187.928 42.9351 187.422 42.5 186.772 42.1924C186.122 41.876 185.388 41.7178 184.57 41.7178ZM196.119 61.6777H194.062V38.1846H196.119V61.6777ZM177.029 54.7432C180.07 54.7432 182.834 54.6948 185.322 54.5981C187.818 54.5015 190.213 54.2861 192.507 53.9521L192.665 55.4814C190.31 55.9209 187.906 56.2021 185.454 56.3252C183.01 56.4482 180.299 56.5098 177.319 56.5098L177.029 54.7432Z" fill="#1A1A1A"/>
<path d="M161.288 39.3447C162.448 39.3359 163.481 39.5293 164.386 39.9248C165.3 40.3203 166.012 40.8828 166.522 41.6123C167.041 42.3418 167.3 43.1768 167.3 44.1172C167.3 45.0576 167.041 45.8926 166.522 46.6221C166.012 47.3516 165.3 47.9185 164.386 48.3228C163.481 48.7271 162.448 48.9248 161.288 48.916C160.128 48.9248 159.091 48.7271 158.177 48.3228C157.271 47.9185 156.56 47.3516 156.041 46.6221C155.531 45.8926 155.276 45.0576 155.276 44.1172C155.276 43.1768 155.531 42.3418 156.041 41.6123C156.56 40.8828 157.271 40.3203 158.177 39.9248C159.091 39.5293 160.128 39.3359 161.288 39.3447ZM161.288 41.0322C160.515 41.0234 159.825 41.1509 159.218 41.4146C158.612 41.6694 158.137 42.0342 157.794 42.5088C157.46 42.9834 157.298 43.5195 157.307 44.1172C157.298 44.7236 157.46 45.2642 157.794 45.7388C158.137 46.2046 158.612 46.5693 159.218 46.833C159.825 47.0879 160.515 47.2109 161.288 47.2021C162.07 47.2109 162.765 47.0879 163.371 46.833C163.986 46.5693 164.465 46.2046 164.808 45.7388C165.151 45.2642 165.322 44.7236 165.322 44.1172C165.322 43.5195 165.151 42.9834 164.808 42.5088C164.465 42.0342 163.986 41.6694 163.371 41.4146C162.765 41.1509 162.07 41.0234 161.288 41.0322ZM172.89 61.6514H170.859V38.2109H172.89V61.6514ZM153.51 50.9199C156.401 50.9199 159.148 50.8672 161.75 50.7617C164.351 50.6475 166.816 50.4189 169.146 50.0762L169.277 51.6318C167.212 52.0098 164.936 52.2778 162.448 52.436V60.9131H160.392V52.5547C158.836 52.625 156.639 52.6689 153.8 52.6865L153.51 50.9199Z" fill="#1A1A1A"/>
<path d="M148.553 45.1719H152.112V46.9121H148.553V55.165H146.496V38.1846H148.553V45.1719ZM141.776 41.9551H133.392V49.2588C135.896 49.2588 137.9 49.2104 139.403 49.1138C140.915 49.0083 142.418 48.8018 143.912 48.4941L144.176 50.208C142.576 50.5156 140.977 50.7266 139.377 50.8408C137.777 50.9463 135.703 50.999 133.154 50.999H131.335V40.2148H141.776V41.9551ZM149.634 61.124H133.893V53.4512H135.923V59.3838H149.634V61.124Z" fill="#1A1A1A"/>
<path d="M121.474 52.2381H100.116V50.5506H121.474V52.2381ZM119.101 61.1238H102.885V54.2947H104.968V59.3836H119.101V61.1238ZM110.795 39.0281C112.465 39.0193 113.924 39.1995 115.172 39.5687C116.42 39.9378 117.382 40.4739 118.059 41.1771C118.736 41.8714 119.074 42.702 119.074 43.6688C119.074 44.6356 118.736 45.4705 118.059 46.1736C117.382 46.868 116.42 47.4041 115.172 47.782C113.924 48.1512 112.465 48.3358 110.795 48.3358C109.107 48.3358 107.64 48.1512 106.392 47.782C105.144 47.4041 104.181 46.868 103.504 46.1736C102.828 45.4705 102.489 44.6356 102.489 43.6688C102.489 42.702 102.828 41.8714 103.504 41.1771C104.181 40.4739 105.144 39.9378 106.392 39.5687C107.64 39.1995 109.107 39.0193 110.795 39.0281ZM110.795 40.6893C109.547 40.6893 108.457 40.8123 107.525 41.0584C106.594 41.2957 105.873 41.6385 105.363 42.0867C104.862 42.535 104.616 43.0623 104.625 43.6688C104.616 44.2752 104.862 44.8026 105.363 45.2508C105.873 45.699 106.594 46.0462 107.525 46.2923C108.457 46.5296 109.547 46.6483 110.795 46.6483C112.034 46.6483 113.12 46.5296 114.051 46.2923C114.983 46.0462 115.699 45.699 116.2 45.2508C116.71 44.8026 116.965 44.2752 116.965 43.6688C116.965 43.0623 116.71 42.535 116.2 42.0867C115.699 41.6385 114.983 41.2957 114.051 41.0584C113.12 40.8123 112.034 40.6893 110.795 40.6893Z" fill="#1A1A1A"/>
<path d="M84.7178 42.5352C84.7178 43.5635 84.9551 44.5522 85.4297 45.5015C85.9131 46.4419 86.5898 47.2769 87.46 48.0063C88.3301 48.7358 89.3408 49.3027 90.4922 49.707L89.4375 51.3154C88.1104 50.8408 86.9502 50.1465 85.957 49.2324C84.9639 48.3096 84.2168 47.2417 83.7158 46.0288C83.2148 47.3472 82.4502 48.5073 81.4219 49.5093C80.3936 50.5024 79.1895 51.2539 77.8096 51.7637L76.7021 50.1553C77.8623 49.7422 78.895 49.1489 79.8003 48.3755C80.7056 47.6021 81.4087 46.71 81.9097 45.6992C82.4194 44.6885 82.6787 43.6338 82.6875 42.5352V41.5332H77.335V39.8457H89.9912V41.5332H84.7178V42.5352ZM95.1064 44.3809H98.6396V46.1475H95.1064V52.3174H93.0498V38.1846H95.1064V44.3809ZM95.1064 61.625H93.0498V55.2441H79.7607V53.5566H95.1064V61.625Z" fill="#1A1A1A"/>
<path d="M65.6279 46.9648H49.5703V39.0547H51.627V45.3037H65.6279V46.9648ZM68.1064 51.8428H46.6436V50.1553H68.1064V51.8428ZM65.7598 61.0449H49.4385V54.2422H51.4951V59.3311H65.7598V61.0449Z" fill="#1A1A1A"/>
<path d="M31.5879 44.4863C31.5879 45.875 31.8604 47.2461 32.4053 48.5996C32.9502 49.9531 33.6885 51.1572 34.6201 52.2119C35.5518 53.2578 36.5801 54.04 37.7051 54.5586L36.4658 56.2461C35.1387 55.5605 33.9521 54.5542 32.9062 53.2271C31.8604 51.8999 31.0781 50.4014 30.5596 48.7314C30.0322 50.498 29.2456 52.0845 28.1997 53.4907C27.1626 54.897 25.9805 55.9561 24.6533 56.668L23.3086 55.0068C24.4424 54.4531 25.4795 53.6226 26.4199 52.5151C27.3604 51.3989 28.103 50.1377 28.6479 48.7314C29.2017 47.3164 29.4785 45.9014 29.4785 44.4863V40.2148H31.5879V44.4863ZM42.7676 61.6777H40.7109V47.8877H35.1475V46.2002H40.7109V38.1846H42.7676V61.6777Z" fill="#1A1A1A"/>
<path d="M19.3271 50.3662H17.2969V38.1846H19.3271V50.3662ZM19.3535 57.0898H6.19629V59.7002H20.1973V61.3613H4.16602V55.5342H17.2969V53.1348H4.11328V51.5H19.3535V57.0898ZM8.4375 41.5068C8.4375 42.5088 8.69238 43.4624 9.20215 44.3677C9.71191 45.2729 10.4238 46.064 11.3379 46.7407C12.252 47.4175 13.2979 47.9316 14.4756 48.2832L13.4473 49.8916C12.0586 49.4521 10.8369 48.7886 9.78223 47.9009C8.73633 47.0044 7.9541 45.9585 7.43555 44.7632C6.92578 46.0728 6.13477 47.2197 5.0625 48.2041C3.99902 49.1885 2.75098 49.918 1.31836 50.3926L0.342773 48.7578C1.51172 48.3711 2.54883 47.813 3.4541 47.0835C4.36816 46.3452 5.08008 45.4971 5.58984 44.5391C6.09961 43.5723 6.35449 42.5615 6.35449 41.5068V41.2432H0.870117V39.5293H13.8428V41.2432H8.4375V41.5068Z" fill="#1A1A1A"/>
<path d="M1084.48 21.6475C1084.17 21.6475 1083.89 21.5728 1083.63 21.4233C1083.37 21.2651 1083.16 21.0542 1083.01 20.7905C1082.86 20.5269 1082.79 20.2412 1082.79 19.9336C1082.79 19.6348 1082.86 19.3579 1083.01 19.103C1083.16 18.8394 1083.37 18.6328 1083.63 18.4834C1083.89 18.3252 1084.17 18.2461 1084.48 18.2461C1084.78 18.2461 1085.06 18.3252 1085.31 18.4834C1085.58 18.6328 1085.78 18.8394 1085.93 19.103C1086.09 19.3579 1086.17 19.6348 1086.17 19.9336C1086.17 20.2412 1086.09 20.5269 1085.93 20.7905C1085.78 21.0542 1085.58 21.2651 1085.31 21.4233C1085.06 21.5728 1084.78 21.6475 1084.48 21.6475Z" fill="#1A1A1A"/>
<path d="M1076.81 9.46582H1080.74V11.2061H1076.81V23.6777H1074.75V0.18457H1076.81V9.46582ZM1070.64 4.19238H1061.75V16.0576C1063.94 16.0576 1065.85 15.9961 1067.49 15.873C1069.12 15.75 1070.79 15.5303 1072.49 15.2139L1072.75 17.0068C1071.02 17.3232 1069.32 17.5342 1067.65 17.6396C1065.98 17.7451 1063.94 17.7979 1061.54 17.7979H1059.7V2.47852H1070.64V4.19238Z" fill="#1A1A1A"/>
<path d="M1043.77 5.2207C1043.77 6.25781 1044.03 7.25537 1044.54 8.21338C1045.05 9.1626 1045.76 9.99756 1046.67 10.7183C1047.59 11.4302 1048.62 11.9707 1049.78 12.3398L1048.73 14.001C1047.36 13.5352 1046.15 12.8408 1045.12 11.918C1044.08 10.9951 1043.3 9.91406 1042.77 8.6748C1042.26 10.0107 1041.48 11.1841 1040.42 12.1948C1039.38 13.2056 1038.16 13.9658 1036.76 14.4756L1035.68 12.8145C1036.84 12.4014 1037.87 11.8081 1038.79 11.0347C1039.7 10.2612 1040.41 9.37354 1040.92 8.37158C1041.43 7.36084 1041.69 6.31055 1041.69 5.2207V3.84961H1036.2V2.16211H1049.18V3.84961H1043.77V5.2207ZM1054.69 17.4023H1052.63V0.210938H1054.69V17.4023ZM1055.43 23.124H1039.55V15.7676H1041.61V21.3838H1055.43V23.124Z" fill="#1A1A1A"/>
<path d="M1030.14 9.72949H1033.94V11.4697H1030.14V23.625H1028.08V0.18457H1030.14V9.72949ZM1024.08 2.71582C1024.08 6.20508 1023.2 9.36914 1021.45 12.208C1019.7 15.0381 1016.99 17.3584 1013.32 19.1689L1012.16 17.5342C1015.17 16.0312 1017.51 14.1768 1019.16 11.9707C1020.81 9.75586 1021.75 7.25098 1021.99 4.45605H1013.24V2.71582H1024.08Z" fill="#1A1A1A"/>
<path d="M1003.32 12.709H981.861V11.0742H1003.32V12.709ZM1000.63 19.5645H986.555V21.8057H1001.4V23.3086H984.472V18.1406H998.578V16.1367H984.445V14.5811H1000.63V19.5645ZM1000.56 5.74805H986.713V7.80469H1000.98V9.30762H984.656V4.32422H998.473V2.39941H984.577V0.896484H1000.56V5.74805Z" fill="#1A1A1A"/>
<path d="M968.783 4.58789H961.479V9.09668H968.44V10.7578H961.479V16.0576C963.352 16.0488 964.881 16.0093 966.067 15.939C967.254 15.8599 968.458 15.7061 969.68 15.4775L969.864 17.1914C968.555 17.4463 967.258 17.6177 965.975 17.7056C964.701 17.7847 963.044 17.8242 961.005 17.8242H959.502V2.90039H968.783V4.58789ZM978.645 23.625H976.641V11.3379H973.424V22.4385H971.42V0.685547H973.424V9.62402H976.641V0.18457H978.645V23.625Z" fill="#1A1A1A"/>
<path d="M948.507 4.50879H935.244V2.82129H940.939V0H942.996V2.82129H948.507V4.50879ZM941.941 5.72168C942.979 5.72168 943.901 5.90186 944.71 6.26221C945.527 6.62256 946.16 7.12793 946.608 7.77832C947.065 8.42871 947.294 9.18457 947.294 10.0459C947.294 10.9072 947.065 11.6675 946.608 12.3267C946.16 12.9858 945.527 13.4956 944.71 13.856C943.901 14.2163 942.979 14.3965 941.941 14.3965C940.896 14.3965 939.968 14.2163 939.16 13.856C938.36 13.4956 937.736 12.9902 937.288 12.3398C936.848 11.6807 936.633 10.916 936.642 10.0459C936.633 9.18457 936.848 8.42871 937.288 7.77832C937.736 7.11914 938.36 6.61377 939.16 6.26221C939.968 5.90186 940.896 5.72168 941.941 5.72168ZM941.941 7.27734C941.273 7.28613 940.685 7.40918 940.175 7.64648C939.665 7.875 939.27 8.2002 938.988 8.62207C938.707 9.03516 938.566 9.50977 938.566 10.0459C938.566 10.5908 938.707 11.0742 938.988 11.4961C939.27 11.9092 939.665 12.23 940.175 12.4585C940.685 12.6782 941.273 12.7881 941.941 12.7881C942.609 12.7881 943.203 12.6782 943.721 12.4585C944.24 12.23 944.64 11.9092 944.921 11.4961C945.211 11.0742 945.36 10.5908 945.369 10.0459C945.36 9.50977 945.211 9.03516 944.921 8.62207C944.631 8.2002 944.227 7.875 943.708 7.64648C943.198 7.40918 942.609 7.28613 941.941 7.27734ZM954.65 15.3457H952.567V12.1025H948.48V10.3887H952.567V7.54102H948.507V5.82715H952.567V0.18457H954.65V15.3457ZM946.925 15.583C948.551 15.583 949.953 15.7412 951.13 16.0576C952.308 16.3652 953.209 16.8223 953.833 17.4287C954.466 18.0264 954.782 18.7471 954.782 19.5908C954.782 20.417 954.466 21.1289 953.833 21.7266C953.209 22.3242 952.304 22.7812 951.117 23.0977C949.939 23.4141 948.542 23.5723 946.925 23.5723C945.29 23.5723 943.879 23.4141 942.693 23.0977C941.515 22.7812 940.61 22.3242 939.977 21.7266C939.353 21.1289 939.041 20.417 939.041 19.5908C939.041 18.7471 939.353 18.0264 939.977 17.4287C940.61 16.8223 941.515 16.3652 942.693 16.0576C943.871 15.7412 945.281 15.583 946.925 15.583ZM946.925 17.1914C945.738 17.1914 944.714 17.2881 943.853 17.4814C942.992 17.666 942.328 17.9385 941.862 18.2988C941.405 18.6592 941.177 19.0898 941.177 19.5908C941.177 20.083 941.405 20.5093 941.862 20.8696C942.328 21.2212 942.992 21.4893 943.853 21.6738C944.723 21.8672 945.747 21.9639 946.925 21.9639C948.085 21.9639 949.091 21.8672 949.944 21.6738C950.796 21.4893 951.451 21.2212 951.908 20.8696C952.365 20.5093 952.594 20.083 952.594 19.5908C952.594 19.0898 952.365 18.6592 951.908 18.2988C951.451 17.9385 950.796 17.666 949.944 17.4814C949.1 17.2881 948.094 17.1914 946.925 17.1914Z" fill="#1A1A1A"/>
<path d="M926.464 14.2381H905.106V12.5506H926.464V14.2381ZM924.091 23.1238H907.875V16.2947H909.958V21.3836H924.091V23.1238ZM915.785 1.02814C917.455 1.01935 918.914 1.19953 920.162 1.56867C921.41 1.93781 922.373 2.47394 923.049 3.17706C923.726 3.8714 924.064 4.70197 924.064 5.66876C924.064 6.63556 923.726 7.47052 923.049 8.17365C922.373 8.86798 921.41 9.40411 920.162 9.78204C918.914 10.1512 917.455 10.3358 915.785 10.3358C914.098 10.3358 912.63 10.1512 911.382 9.78204C910.134 9.40411 909.171 8.86798 908.495 8.17365C907.818 7.47052 907.479 6.63556 907.479 5.66876C907.479 4.70197 907.818 3.8714 908.495 3.17706C909.171 2.47394 910.134 1.93781 911.382 1.56867C912.63 1.19953 914.098 1.01935 915.785 1.02814ZM915.785 2.68927C914.537 2.68927 913.447 2.81232 912.516 3.05841C911.584 3.29572 910.863 3.63849 910.354 4.08673C909.853 4.53497 909.606 5.06232 909.615 5.66876C909.606 6.27521 909.853 6.80255 910.354 7.25079C910.863 7.69904 911.584 8.04621 912.516 8.2923C913.447 8.5296 914.537 8.64826 915.785 8.64826C917.024 8.64826 918.11 8.5296 919.042 8.2923C919.973 8.04621 920.689 7.69904 921.19 7.25079C921.7 6.80255 921.955 6.27521 921.955 5.66876C921.955 5.06232 921.7 4.53497 921.19 4.08673C920.689 3.63849 919.973 3.29572 919.042 3.05841C918.11 2.81232 917.024 2.68927 915.785 2.68927Z" fill="#1A1A1A"/>
<path d="M900.097 7.33008H903.63V9.07031H900.097V17.3496H898.014V0.18457H900.097V7.33008ZM893.769 2.00391C893.769 3.98145 893.316 5.79639 892.411 7.44873C891.514 9.10107 890.235 10.5337 888.574 11.7466C886.922 12.9595 884.962 13.9219 882.694 14.6338L881.798 12.9727C883.67 12.3838 885.309 11.6323 886.715 10.7183C888.122 9.79541 889.238 8.74512 890.064 7.56738C890.89 6.38086 891.374 5.10645 891.514 3.74414H882.773V2.00391H893.769ZM901.178 23.124H885.41V15.6094H887.467V21.3838H901.178V23.124Z" fill="#1A1A1A"/>
<path d="M866.769 6.48633C866.76 7.875 867.041 9.25488 867.612 10.626C868.184 11.9883 868.957 13.2012 869.933 14.2646C870.908 15.3281 871.972 16.1191 873.123 16.6377L871.857 18.2725C870.521 17.6133 869.309 16.6333 868.219 15.3325C867.138 14.0229 866.32 12.5376 865.767 10.8765C865.222 12.6431 864.404 14.2251 863.314 15.6226C862.225 17.0112 860.994 18.0527 859.623 18.7471L858.305 17.0068C859.456 16.4707 860.52 15.6577 861.495 14.5679C862.471 13.4692 863.249 12.2124 863.829 10.7974C864.409 9.37354 864.703 7.93652 864.712 6.48633V2.21484H866.769V6.48633ZM877.764 23.6777H875.681V0.18457H877.764V23.6777Z" fill="#1A1A1A"/>
<path d="M846.545 26.8945H844.594L846.044 19.7227H848.602L846.545 26.8945Z" fill="#1A1A1A"/>
<path d="M833.045 5.82715H838.793V0.18457H840.85V23.6777H838.793V14.001H833.045V17.6924H822.366V2.53125H833.045V5.82715ZM824.423 16.0312H831.041V4.16602H824.423V16.0312ZM838.793 12.2871V7.54102H833.045V12.2871H838.793Z" fill="#1A1A1A"/>
<path d="M817.409 23.6777H815.326V0.18457H817.409V23.6777ZM804.938 2.00391C806.098 2.0127 807.13 2.35547 808.036 3.03223C808.941 3.7002 809.648 4.64941 810.158 5.87988C810.668 7.11035 810.923 8.54297 810.923 10.1777C810.923 11.8125 810.668 13.2451 810.158 14.4756C809.648 15.7061 808.941 16.6553 808.036 17.3232C807.13 17.9912 806.098 18.3252 804.938 18.3252C803.777 18.3252 802.74 17.9912 801.826 17.3232C800.921 16.6553 800.213 15.7061 799.704 14.4756C799.203 13.2451 798.952 11.8125 798.952 10.1777C798.952 8.54297 799.203 7.11035 799.704 5.87988C800.213 4.64941 800.921 3.7002 801.826 3.03223C802.731 2.35547 803.769 2.0127 804.938 2.00391ZM804.938 3.84961C804.155 3.8584 803.461 4.12646 802.854 4.65381C802.257 5.17236 801.791 5.91064 801.457 6.86865C801.123 7.81787 800.956 8.9209 800.956 10.1777C800.956 11.4346 801.123 12.542 801.457 13.5C801.791 14.4492 802.261 15.1831 802.868 15.7017C803.474 16.2202 804.164 16.4795 804.938 16.4795C805.711 16.4795 806.401 16.2202 807.007 15.7017C807.614 15.1831 808.084 14.4492 808.418 13.5C808.752 12.542 808.919 11.4346 808.919 10.1777C808.919 8.9209 808.752 7.81787 808.418 6.86865C808.084 5.91064 807.614 5.17236 807.007 4.65381C806.41 4.12646 805.72 3.8584 804.938 3.84961Z" fill="#1A1A1A"/>
<path d="M793.547 5.2998H796.632V7.04004H793.547V12.6826H791.49V0.18457H793.547V5.2998ZM780.205 2.82129C780.205 3.87598 780.381 4.9834 780.732 6.14355C781.093 7.29492 781.686 8.28369 782.512 9.10986C783.312 8.30127 783.888 7.32568 784.239 6.18311C784.591 5.03174 784.767 3.91992 784.767 2.84766V1.21289H785.215V1.18652H786.691V2.82129C786.691 3.7002 786.819 4.5835 787.074 5.47119C787.337 6.35889 787.746 7.18066 788.3 7.93652C788.862 8.69238 789.574 9.29004 790.436 9.72949L789.302 11.2061C788.432 10.749 787.707 10.1338 787.126 9.36035C786.546 8.57812 786.098 7.69043 785.782 6.69727C785.158 8.93848 784.063 10.5293 782.499 11.4697C781.655 10.96 780.961 10.2788 780.416 9.42627C779.88 8.56494 779.471 7.61133 779.19 6.56543C778.865 7.57617 778.412 8.48584 777.832 9.29443C777.261 10.0942 776.549 10.7314 775.696 11.2061L774.562 9.72949C775.389 9.25488 776.079 8.62646 776.632 7.84424C777.186 7.05322 777.59 6.21826 777.845 5.33936C778.109 4.46045 778.245 3.62109 778.254 2.82129V1.18652H780.205V2.82129ZM794.522 15.6885H777.911V14.0537H785.215V11.707H787.271V14.0537H794.522V15.6885ZM786.243 16.7959C787.676 16.7959 788.902 16.9277 789.921 17.1914C790.941 17.4551 791.719 17.8418 792.255 18.3516C792.8 18.8525 793.072 19.459 793.072 20.1709C793.072 21.2783 792.475 22.1221 791.279 22.7021C790.093 23.2822 788.414 23.5723 786.243 23.5723C784.028 23.5723 782.323 23.2822 781.128 22.7021C779.941 22.1221 779.353 21.2783 779.361 20.1709C779.353 19.459 779.616 18.8525 780.152 18.3516C780.697 17.8418 781.484 17.4551 782.512 17.1914C783.541 16.9277 784.784 16.7959 786.243 16.7959ZM786.243 18.2988C784.688 18.3076 783.488 18.479 782.644 18.813C781.809 19.1382 781.4 19.5908 781.418 20.1709C781.4 20.7773 781.809 21.2432 782.644 21.5684C783.488 21.8936 784.688 22.0518 786.243 22.043C787.764 22.0605 788.941 21.9023 789.776 21.5684C790.62 21.2432 791.042 20.7773 791.042 20.1709C791.042 19.5908 790.62 19.1382 789.776 18.813C788.941 18.4878 787.764 18.3164 786.243 18.2988Z" fill="#1A1A1A"/>
<path d="M763.963 23.6777H761.88V0.18457H763.963V23.6777ZM751.491 2.00391C752.651 2.0127 753.684 2.35547 754.589 3.03223C755.495 3.7002 756.202 4.64941 756.712 5.87988C757.222 7.11035 757.477 8.54297 757.477 10.1777C757.477 11.8125 757.222 13.2451 756.712 14.4756C756.202 15.7061 755.495 16.6553 754.589 17.3232C753.684 17.9912 752.651 18.3252 751.491 18.3252C750.331 18.3252 749.294 17.9912 748.38 17.3232C747.475 16.6553 746.767 15.7061 746.257 14.4756C745.756 13.2451 745.506 11.8125 745.506 10.1777C745.506 8.54297 745.756 7.11035 746.257 5.87988C746.767 4.64941 747.475 3.7002 748.38 3.03223C749.285 2.35547 750.322 2.0127 751.491 2.00391ZM751.491 3.84961C750.709 3.8584 750.015 4.12646 749.408 4.65381C748.811 5.17236 748.345 5.91064 748.011 6.86865C747.677 7.81787 747.51 8.9209 747.51 10.1777C747.51 11.4346 747.677 12.542 748.011 13.5C748.345 14.4492 748.815 15.1831 749.421 15.7017C750.028 16.2202 750.718 16.4795 751.491 16.4795C752.265 16.4795 752.955 16.2202 753.561 15.7017C754.167 15.1831 754.638 14.4492 754.972 13.5C755.306 12.542 755.473 11.4346 755.473 10.1777C755.473 8.9209 755.306 7.81787 754.972 6.86865C754.638 5.91064 754.167 5.17236 753.561 4.65381C752.963 4.12646 752.273 3.8584 751.491 3.84961Z" fill="#1A1A1A"/>
<path d="M742.685 11.707H721.301V10.0459H742.685V11.707ZM740.127 8.12109H724.148V1.00195H739.89V2.66309H726.231V6.43359H740.127V8.12109ZM739.916 19.248H725.994V21.6738H740.628V23.3613H723.938V17.6924H737.886V15.4248H723.885V13.8164H739.916V19.248Z" fill="#1A1A1A"/>
<path d="M716.291 6.14355H719.824V7.91016H716.291V13.9482H714.234V0.18457H716.291V6.14355ZM709.857 1.6875C709.857 3.64746 709.418 5.41846 708.539 7.00049C707.66 8.58252 706.395 9.94043 704.742 11.0742C703.09 12.1992 701.104 13.0693 698.783 13.6846L697.939 12.0762C699.847 11.5576 701.503 10.8765 702.91 10.0327C704.316 9.18018 705.423 8.19141 706.232 7.06641C707.041 5.94141 707.515 4.71973 707.656 3.40137H698.994V1.6875H709.857ZM716.291 23.625H714.234V16.7168H700.945V15.0293H716.291V23.625Z" fill="#1A1A1A"/>
<path d="M696.094 20.6191H674.631V18.8789H684.308V13.1836H686.391V18.8789H696.094V20.6191ZM686.391 4.64062C686.391 5.83594 686.821 6.97852 687.683 8.06836C688.544 9.14941 689.647 10.0635 690.992 10.8105C692.336 11.5488 693.694 12.0322 695.065 12.2607L694.222 13.8955C693 13.6582 691.8 13.2539 690.623 12.6826C689.454 12.1025 688.403 11.3818 687.472 10.5205C686.54 9.65918 685.833 8.70557 685.349 7.65967C684.866 8.71436 684.158 9.67676 683.227 10.5469C682.304 11.417 681.258 12.1465 680.089 12.7354C678.929 13.3242 677.751 13.7461 676.556 14.001L675.686 12.3398C677.03 12.1025 678.366 11.606 679.693 10.8501C681.021 10.0942 682.11 9.16699 682.963 8.06836C683.824 6.96973 684.255 5.82715 684.255 4.64062V4.06055H676.397V2.32031H694.248V4.06055H686.391V4.64062Z" fill="#1A1A1A"/>
<path d="M652.192 1.89844C653.414 1.89844 654.5 2.13135 655.449 2.59717C656.407 3.06299 657.154 3.71338 657.69 4.54834C658.226 5.3833 658.494 6.33691 658.494 7.40918C658.494 8.48145 658.226 9.43506 657.69 10.27C657.154 11.105 656.407 11.7554 655.449 12.2212C654.5 12.687 653.414 12.9199 652.192 12.9199C650.971 12.9199 649.876 12.687 648.91 12.2212C647.952 11.7554 647.2 11.105 646.655 10.27C646.119 9.43506 645.855 8.48145 645.864 7.40918C645.855 6.33691 646.119 5.3833 646.655 4.54834C647.2 3.71338 647.952 3.06299 648.91 2.59717C649.876 2.13135 650.971 1.89844 652.192 1.89844ZM652.192 3.71777C651.366 3.71777 650.624 3.87598 649.964 4.19238C649.314 4.5 648.804 4.93506 648.435 5.49756C648.066 6.05127 647.886 6.68848 647.895 7.40918C647.886 8.12988 648.066 8.77148 648.435 9.33398C648.804 9.8877 649.314 10.3228 649.964 10.6392C650.624 10.9468 651.366 11.1006 652.192 11.1006C653.01 11.1006 653.744 10.9468 654.394 10.6392C655.044 10.3228 655.55 9.8877 655.91 9.33398C656.279 8.77148 656.464 8.12988 656.464 7.40918C656.464 6.68848 656.279 6.05127 655.91 5.49756C655.55 4.93506 655.044 4.5 654.394 4.19238C653.744 3.87598 653.01 3.71777 652.192 3.71777ZM663.741 23.6777H661.685V0.18457H663.741V23.6777ZM644.651 16.7432C647.692 16.7432 650.457 16.6948 652.944 16.5981C655.44 16.5015 657.835 16.2861 660.129 15.9521L660.287 17.4814C657.932 17.9209 655.528 18.2021 653.076 18.3252C650.632 18.4482 647.921 18.5098 644.941 18.5098L644.651 16.7432Z" fill="#1A1A1A"/>
<path d="M640.512 13.8164H638.481V0.18457H640.512V13.8164ZM641.118 17.1123H634.157C634.192 17.833 634.579 18.5449 635.317 19.248C636.056 19.9424 637.014 20.54 638.191 21.041C639.378 21.5332 640.626 21.8584 641.936 22.0166L641.171 23.625C640.002 23.458 638.886 23.1724 637.822 22.7681C636.759 22.3638 635.814 21.8672 634.988 21.2783C634.17 20.6807 633.533 20.0259 633.076 19.314C632.619 20.0347 631.969 20.6938 631.125 21.2915C630.29 21.8892 629.328 22.3857 628.238 22.7812C627.157 23.1855 626.027 23.4668 624.85 23.625L624.111 22.043C625.43 21.9023 626.691 21.5859 627.895 21.0938C629.099 20.5928 630.079 19.9907 630.835 19.2876C631.591 18.5845 631.986 17.8594 632.021 17.1123H625.087V15.4775H632.048V13.21H634.104V15.4775H641.118V17.1123ZM624.48 4.8252H631.389V1.18652H633.445V11.6543H622.424V1.18652H624.48V4.8252ZM631.389 9.99316V6.43359H624.48V9.99316H631.389Z" fill="#1A1A1A"/>
<path d="M610.084 21.6475C609.776 21.6475 609.49 21.5728 609.227 21.4233C608.972 21.2651 608.765 21.0542 608.607 20.7905C608.458 20.5269 608.387 20.2412 608.396 19.9336C608.387 19.6348 608.458 19.3579 608.607 19.103C608.765 18.8394 608.972 18.6328 609.227 18.4834C609.49 18.3252 609.776 18.2461 610.084 18.2461C610.383 18.2461 610.659 18.3252 610.914 18.4834C611.178 18.6328 611.385 18.8394 611.534 19.103C611.692 19.3579 611.771 19.6348 611.771 19.9336C611.771 20.2412 611.692 20.5269 611.534 20.7905C611.385 21.0542 611.178 21.2651 610.914 21.4233C610.659 21.5728 610.383 21.6475 610.084 21.6475Z" fill="#1A1A1A"/>
<path d="M602.411 9.46582H606.34V11.2061H602.411V23.6777H600.354V0.18457H602.411V9.46582ZM596.241 4.19238H587.355V16.0576C589.544 16.0576 591.456 15.9961 593.09 15.873C594.725 15.75 596.391 15.5303 598.087 15.2139L598.351 17.0068C596.619 17.3232 594.918 17.5342 593.249 17.6396C591.579 17.7451 589.544 17.7979 587.145 17.7979H585.299V2.47852H596.241V4.19238Z" fill="#1A1A1A"/>
<path d="M582.398 20.6191H560.936V18.8789H570.612V13.1836H572.695V18.8789H582.398V20.6191ZM572.695 4.64062C572.695 5.83594 573.126 6.97852 573.987 8.06836C574.849 9.14941 575.952 10.0635 577.296 10.8105C578.641 11.5488 579.999 12.0322 581.37 12.2607L580.526 13.8955C579.305 13.6582 578.105 13.2539 576.927 12.6826C575.758 12.1025 574.708 11.3818 573.776 10.5205C572.845 9.65918 572.137 8.70557 571.654 7.65967C571.17 8.71436 570.463 9.67676 569.531 10.5469C568.608 11.417 567.562 12.1465 566.394 12.7354C565.233 13.3242 564.056 13.7461 562.86 14.001L561.99 12.3398C563.335 12.1025 564.671 11.606 565.998 10.8501C567.325 10.0942 568.415 9.16699 569.268 8.06836C570.129 6.96973 570.56 5.82715 570.56 4.64062V4.06055H562.702V2.32031H580.553V4.06055H572.695V4.64062Z" fill="#1A1A1A"/>
<path d="M556.137 3.77051C556.137 5.28223 556.097 6.62256 556.018 7.7915C555.948 8.96045 555.763 10.292 555.464 11.7861H558.958V13.5H549.281V23.6777H547.198V13.5H537.601V11.7861H553.368C553.685 10.292 553.882 8.95605 553.961 7.77832C554.041 6.60059 554.08 5.26465 554.08 3.77051V3.42773H540.29V1.71387H556.137V3.77051Z" fill="#1A1A1A"/>
<path d="M515.162 1.89844C516.384 1.89844 517.469 2.13135 518.418 2.59717C519.376 3.06299 520.124 3.71338 520.66 4.54834C521.196 5.3833 521.464 6.33691 521.464 7.40918C521.464 8.48145 521.196 9.43506 520.66 10.27C520.124 11.105 519.376 11.7554 518.418 12.2212C517.469 12.687 516.384 12.9199 515.162 12.9199C513.94 12.9199 512.846 12.687 511.879 12.2212C510.921 11.7554 510.17 11.105 509.625 10.27C509.089 9.43506 508.825 8.48145 508.834 7.40918C508.825 6.33691 509.089 5.3833 509.625 4.54834C510.17 3.71338 510.921 3.06299 511.879 2.59717C512.846 2.13135 513.94 1.89844 515.162 1.89844ZM515.162 3.71777C514.336 3.71777 513.593 3.87598 512.934 4.19238C512.284 4.5 511.774 4.93506 511.405 5.49756C511.036 6.05127 510.855 6.68848 510.864 7.40918C510.855 8.12988 511.036 8.77148 511.405 9.33398C511.774 9.8877 512.284 10.3228 512.934 10.6392C513.593 10.9468 514.336 11.1006 515.162 11.1006C515.979 11.1006 516.713 10.9468 517.364 10.6392C518.014 10.3228 518.52 9.8877 518.88 9.33398C519.249 8.77148 519.434 8.12988 519.434 7.40918C519.434 6.68848 519.249 6.05127 518.88 5.49756C518.52 4.93506 518.014 4.5 517.364 4.19238C516.713 3.87598 515.979 3.71777 515.162 3.71777ZM526.711 23.6777H524.654V0.18457H526.711V23.6777ZM507.621 16.7432C510.662 16.7432 513.426 16.6948 515.914 16.5981C518.41 16.5015 520.805 16.2861 523.099 15.9521L523.257 17.4814C520.901 17.9209 518.498 18.2021 516.045 18.3252C513.602 18.4482 510.891 18.5098 507.911 18.5098L507.621 16.7432Z" fill="#1A1A1A"/>
<path d="M505.512 12.8672H495.835V15.3721C498.067 15.4688 499.799 15.873 501.029 16.585C502.269 17.2881 502.893 18.2549 502.901 19.4854C502.893 20.3467 502.567 21.0806 501.926 21.687C501.284 22.3022 500.361 22.7681 499.157 23.0845C497.953 23.4097 496.512 23.5723 494.833 23.5723C493.146 23.5723 491.695 23.4097 490.482 23.0845C489.27 22.7681 488.342 22.3022 487.701 21.687C487.059 21.0806 486.738 20.3467 486.738 19.4854C486.738 18.2549 487.354 17.2881 488.584 16.585C489.814 15.873 491.555 15.4688 493.805 15.3721V12.8672H484.154V11.1533H505.512V12.8672ZM494.833 16.9541C493.576 16.9629 492.5 17.0684 491.603 17.2705C490.707 17.4727 490.021 17.7627 489.546 18.1406C489.072 18.5098 488.839 18.958 488.848 19.4854C488.839 20.0039 489.072 20.4478 489.546 20.8169C490.021 21.186 490.707 21.4673 491.603 21.6606C492.508 21.8628 493.585 21.9639 494.833 21.9639C496.063 21.9639 497.127 21.8628 498.023 21.6606C498.929 21.4673 499.619 21.186 500.093 20.8169C500.577 20.4478 500.818 20.0039 500.818 19.4854C500.818 18.9668 500.577 18.5186 500.093 18.1406C499.619 17.7627 498.933 17.4727 498.037 17.2705C497.14 17.0684 496.072 16.9629 494.833 16.9541ZM503.613 2.97949H496.178C496.222 3.83203 496.626 4.62305 497.391 5.35254C498.155 6.07324 499.153 6.67529 500.383 7.15869C501.614 7.6333 502.928 7.94531 504.325 8.09473L503.561 9.72949C502.26 9.57129 501.025 9.28125 499.856 8.85938C498.687 8.42871 497.663 7.87939 496.784 7.21143C495.905 6.54346 495.255 5.7876 494.833 4.94385C494.42 5.7876 493.774 6.54346 492.895 7.21143C492.016 7.87939 490.992 8.42871 489.823 8.85938C488.654 9.28125 487.415 9.57129 486.105 9.72949L485.367 8.09473C486.738 7.94531 488.035 7.6333 489.256 7.15869C490.487 6.67529 491.484 6.06885 492.249 5.33936C493.022 4.60986 493.436 3.82324 493.488 2.97949H486.105V1.29199H503.613V2.97949Z" fill="#1A1A1A"/>
<path d="M469.257 4.06055C469.257 5.0625 469.516 6.02051 470.035 6.93457C470.553 7.84863 471.27 8.64844 472.184 9.33398C473.098 10.0195 474.135 10.5381 475.295 10.8896L474.24 12.5244C472.869 12.085 471.656 11.417 470.602 10.5205C469.556 9.61523 468.765 8.56055 468.229 7.35645C467.719 8.63965 466.937 9.76904 465.882 10.7446C464.827 11.7114 463.597 12.4365 462.19 12.9199L461.109 11.2852C462.278 10.916 463.32 10.3667 464.234 9.63721C465.157 8.90771 465.877 8.05957 466.396 7.09277C466.915 6.12598 467.174 5.11523 467.174 4.06055V3.4541H461.689V1.7666H474.662V3.4541H469.257V4.06055ZM480.173 12.8672H478.116V0.18457H480.173V12.8672ZM467.042 16.875H478.116V14.0273H480.173V23.3086H464.985V14.0273H467.042V16.875ZM478.116 21.6211V18.5361H467.042V21.6211H478.116Z" fill="#1A1A1A"/>
<path d="M443.707 4.00781V4.37695C443.689 5.77441 443.637 7.16748 443.549 8.55615C443.461 9.93604 443.285 11.5225 443.021 13.3154L440.938 13.1309C441.22 11.3906 441.404 9.83496 441.492 8.46387C441.58 7.08398 441.624 5.75684 441.624 4.48242H431.789V2.79492H443.707V4.00781ZM437.563 16.6113C440.455 16.5059 443.021 16.3213 445.263 16.0576L445.368 17.6133C443.32 17.9385 441.163 18.1626 438.895 18.2856C436.627 18.3999 434.276 18.457 431.842 18.457H430.734L430.471 16.7432C432.712 16.7256 434.399 16.7036 435.533 16.6772V9.49219H437.563V16.6113ZM448.796 9.99316H452.593V11.7861H448.796V23.625H446.739V0.18457H448.796V9.99316Z" fill="#1A1A1A"/>
<path d="M428.73 14.0273H407.373V12.3135H417.023V9.49219H410.221V0.738281H412.277V3.4541H423.879V0.738281H425.936V9.49219H419.08V12.3135H428.73V14.0273ZM426.094 23.625H424.011V18.0088H409.746V16.3477H426.094V23.625ZM423.879 7.83105V5.03613H412.277V7.83105H423.879Z" fill="#1A1A1A"/>
<path d="M402.363 7.30371H405.896V9.04395H402.363V17.4287H400.307V0.210938H402.363V7.30371ZM403.444 23.124H387.703V15.7412H389.733V21.3838H403.444V23.124ZM387.07 5.85352H393.899V1.89844H395.956V13.4736H385.04V1.89844H387.07V5.85352ZM393.899 11.7861V7.48828H387.07V11.7861H393.899Z" fill="#1A1A1A"/>
<path d="M372.146 26.8945H370.195L371.646 19.7227H374.203L372.146 26.8945Z" fill="#1A1A1A"/>
<path d="M365.159 9.51855H369.088V11.2588H365.159V23.6777H363.103V0.18457H365.159V9.51855ZM358.594 10.7578H350.051V16.2422C352.38 16.2422 354.362 16.1851 355.997 16.0708C357.64 15.9565 359.306 15.7412 360.993 15.4248L361.204 17.1387C359.455 17.4639 357.732 17.688 356.036 17.811C354.34 17.9253 352.283 17.9912 349.866 18.0088H347.994V9.04395H356.537V4.08691H347.941V2.37305H358.594V10.7578Z" fill="#1A1A1A"/>
<path d="M343.011 23.625H340.954V0.18457H343.011V23.625ZM327.243 15.7939C331.207 15.7764 334.942 15.3984 338.449 14.6602L338.739 16.4268C336.744 16.8398 334.802 17.1387 332.912 17.3232C331.022 17.499 329.089 17.5869 327.111 17.5869H325.213V2.50488H327.243V15.7939Z" fill="#1A1A1A"/>
<path d="M306.624 2.00391C307.775 2.0127 308.795 2.35547 309.683 3.03223C310.579 3.7002 311.278 4.64941 311.779 5.87988C312.289 7.11035 312.548 8.54297 312.557 10.1777C312.548 11.8125 312.289 13.2451 311.779 14.4756C311.278 15.7061 310.579 16.6553 309.683 17.3232C308.786 17.9912 307.767 18.3252 306.624 18.3252C305.473 18.3252 304.449 17.9912 303.552 17.3232C302.656 16.6553 301.957 15.7061 301.456 14.4756C300.964 13.2451 300.718 11.8125 300.718 10.1777C300.718 8.54297 300.964 7.11035 301.456 5.87988C301.957 4.64941 302.656 3.7002 303.552 3.03223C304.449 2.35547 305.473 2.0127 306.624 2.00391ZM306.624 3.84961C305.851 3.8584 305.165 4.12646 304.567 4.65381C303.97 5.17236 303.504 5.91064 303.17 6.86865C302.836 7.81787 302.669 8.9209 302.669 10.1777C302.669 11.4346 302.836 12.542 303.17 13.5C303.504 14.4492 303.97 15.1831 304.567 15.7017C305.174 16.2202 305.859 16.4795 306.624 16.4795C307.397 16.4795 308.079 16.2202 308.667 15.7017C309.265 15.1831 309.727 14.4492 310.052 13.5C310.386 12.542 310.553 11.4346 310.553 10.1777C310.553 8.9209 310.386 7.81787 310.052 6.86865C309.727 5.91064 309.265 5.17236 308.667 4.65381C308.079 4.12646 307.397 3.8584 306.624 3.84961ZM318.489 9.54492H322.418V11.3379H318.489V23.625H316.433V0.18457H318.489V9.54492Z" fill="#1A1A1A"/>
<path d="M289.564 23.6777H287.481V0.18457H289.564V23.6777ZM277.093 2.00391C278.253 2.0127 279.286 2.35547 280.191 3.03223C281.096 3.7002 281.804 4.64941 282.313 5.87988C282.823 7.11035 283.078 8.54297 283.078 10.1777C283.078 11.8125 282.823 13.2451 282.313 14.4756C281.804 15.7061 281.096 16.6553 280.191 17.3232C279.286 17.9912 278.253 18.3252 277.093 18.3252C275.933 18.3252 274.896 17.9912 273.981 17.3232C273.076 16.6553 272.369 15.7061 271.859 14.4756C271.358 13.2451 271.107 11.8125 271.107 10.1777C271.107 8.54297 271.358 7.11035 271.859 5.87988C272.369 4.64941 273.076 3.7002 273.981 3.03223C274.887 2.35547 275.924 2.0127 277.093 2.00391ZM277.093 3.84961C276.311 3.8584 275.616 4.12646 275.01 4.65381C274.412 5.17236 273.946 5.91064 273.612 6.86865C273.278 7.81787 273.111 8.9209 273.111 10.1777C273.111 11.4346 273.278 12.542 273.612 13.5C273.946 14.4492 274.417 15.1831 275.023 15.7017C275.629 16.2202 276.319 16.4795 277.093 16.4795C277.866 16.4795 278.556 16.2202 279.163 15.7017C279.769 15.1831 280.239 14.4492 280.573 13.5C280.907 12.542 281.074 11.4346 281.074 10.1777C281.074 8.9209 280.907 7.81787 280.573 6.86865C280.239 5.91064 279.769 5.17236 279.163 4.65381C278.565 4.12646 277.875 3.8584 277.093 3.84961Z" fill="#1A1A1A"/>
<path d="M255.208 3.58594C255.199 4.71094 255.445 5.7832 255.946 6.80273C256.447 7.82227 257.146 8.71875 258.042 9.49219C258.948 10.2656 259.98 10.8545 261.141 11.2588L260.086 12.8936C258.724 12.4014 257.528 11.6675 256.5 10.6919C255.472 9.71631 254.694 8.57812 254.167 7.27734C253.657 8.66602 252.879 9.8877 251.833 10.9424C250.796 11.9883 249.592 12.7793 248.221 13.3154L247.14 11.6807C248.3 11.25 249.328 10.626 250.225 9.80859C251.13 8.98242 251.833 8.02881 252.334 6.94775C252.844 5.8667 253.099 4.74609 253.099 3.58594V1.34473H255.208V3.58594ZM266.256 23.625H264.199V17.1914H250.488V15.4775H266.256V23.625ZM266.256 14.3174H264.199V0.18457H266.256V14.3174Z" fill="#1A1A1A"/>
<path d="M231.504 4.64062C231.504 5.65137 231.741 6.61816 232.216 7.54102C232.699 8.45508 233.372 9.26367 234.233 9.9668C235.103 10.6611 236.109 11.1973 237.252 11.5752L236.276 13.21C234.94 12.7705 233.771 12.1069 232.77 11.2192C231.776 10.3315 231.025 9.29004 230.515 8.09473C230.014 9.43945 229.245 10.6172 228.208 11.6279C227.171 12.6299 225.949 13.3857 224.543 13.8955L223.488 12.2344C224.648 11.8389 225.681 11.2588 226.586 10.4941C227.492 9.72949 228.195 8.8418 228.696 7.83105C229.206 6.81152 229.465 5.74805 229.474 4.64062V3.63867H224.121V1.9248H236.777V3.63867H231.504V4.64062ZM241.893 6.16992H245.426V7.91016H241.893V14.3438H239.836V0.18457H241.893V6.16992ZM234.378 14.9766C235.978 14.9766 237.357 15.1479 238.518 15.4907C239.678 15.8247 240.565 16.3125 241.181 16.9541C241.796 17.5957 242.104 18.3604 242.104 19.248C242.104 20.1533 241.796 20.9312 241.181 21.5815C240.565 22.2319 239.678 22.7241 238.518 23.0581C237.357 23.4009 235.978 23.5723 234.378 23.5723C232.778 23.5723 231.394 23.4009 230.225 23.0581C229.056 22.7241 228.16 22.2319 227.536 21.5815C226.912 20.9312 226.6 20.1533 226.6 19.248C226.6 18.3604 226.912 17.5957 227.536 16.9541C228.16 16.3125 229.056 15.8247 230.225 15.4907C231.394 15.1479 232.778 14.9766 234.378 14.9766ZM234.378 16.6377C233.209 16.6377 232.194 16.7432 231.333 16.9541C230.471 17.1562 229.812 17.4551 229.355 17.8506C228.898 18.2461 228.674 18.7119 228.683 19.248C228.674 19.8018 228.898 20.2808 229.355 20.6851C229.812 21.0806 230.467 21.3838 231.319 21.5947C232.181 21.8057 233.2 21.9111 234.378 21.9111C235.564 21.9111 236.584 21.8057 237.437 21.5947C238.298 21.3838 238.957 21.0806 239.414 20.6851C239.871 20.2808 240.1 19.8018 240.1 19.248C240.1 18.7031 239.871 18.2373 239.414 17.8506C238.957 17.4551 238.298 17.1562 237.437 16.9541C236.575 16.7432 235.556 16.6377 234.378 16.6377Z" fill="#1A1A1A"/>
<path d="M211.781 7.93652H215.314V9.67676H211.781V17.7715H209.725V0.210938H211.781V7.93652ZM207.483 4.77246H193.509V3.08496H199.468V0.210938H201.524V3.08496H207.483V4.77246ZM200.496 6.06445C201.604 6.06445 202.579 6.24463 203.423 6.60498C204.275 6.96533 204.939 7.4751 205.414 8.13428C205.888 8.79346 206.13 9.5625 206.139 10.4414C206.13 11.3115 205.888 12.0718 205.414 12.7222C204.939 13.3726 204.275 13.8779 203.423 14.2383C202.579 14.5898 201.604 14.7656 200.496 14.7656C199.38 14.7656 198.391 14.5898 197.53 14.2383C196.677 13.8779 196.014 13.3726 195.539 12.7222C195.073 12.0718 194.845 11.3115 194.854 10.4414C194.845 9.5625 195.073 8.79346 195.539 8.13428C196.014 7.4751 196.677 6.96533 197.53 6.60498C198.391 6.24463 199.38 6.06445 200.496 6.06445ZM200.496 7.69922C199.767 7.69922 199.121 7.81348 198.558 8.04199C198.004 8.26172 197.574 8.58252 197.266 9.00439C196.967 9.41748 196.822 9.89648 196.831 10.4414C196.822 10.9863 196.967 11.4653 197.266 11.8784C197.574 12.2827 198.004 12.5947 198.558 12.8145C199.121 13.0342 199.767 13.1396 200.496 13.1309C201.217 13.1396 201.854 13.0342 202.408 12.8145C202.97 12.5947 203.405 12.2827 203.713 11.8784C204.021 11.4653 204.179 10.9863 204.188 10.4414C204.179 9.89648 204.021 9.41748 203.713 9.00439C203.405 8.58252 202.97 8.26172 202.408 8.04199C201.854 7.81348 201.217 7.69922 200.496 7.69922ZM212.862 23.124H197.121V16.374H199.151V21.3838H212.862V23.124Z" fill="#1A1A1A"/>
<path d="M181.881 1.97754C181.881 2.96191 182.285 3.91113 183.094 4.8252C183.902 5.73926 184.948 6.52148 186.231 7.17188C187.523 7.82227 188.851 8.25293 190.213 8.46387L189.396 10.0986C188.2 9.89648 187.036 9.54932 185.902 9.05713C184.777 8.55615 183.771 7.94092 182.883 7.21143C181.995 6.47314 181.31 5.66016 180.826 4.77246C180.352 5.67773 179.666 6.49951 178.77 7.23779C177.882 7.97607 176.871 8.59131 175.737 9.0835C174.604 9.57568 173.435 9.92285 172.23 10.125L171.413 8.49023C172.793 8.2793 174.125 7.85303 175.408 7.21143C176.691 6.56982 177.732 5.79199 178.532 4.87793C179.341 3.95508 179.745 2.98828 179.745 1.97754V0.791016H181.881V1.97754ZM191.558 13.8428H182.013V18.6416H179.956V13.8428H170.095V12.1289H191.558V13.8428ZM189.158 23.124H172.837V16.3477H174.92V21.3838H189.158V23.124Z" fill="#1A1A1A"/>
<path d="M165.111 7.17188H168.671V8.91211H165.111V17.165H163.055V0.18457H165.111V7.17188ZM158.335 3.95508H149.95V11.2588C152.455 11.2588 154.459 11.2104 155.962 11.1138C157.474 11.0083 158.977 10.8018 160.471 10.4941L160.734 12.208C159.135 12.5156 157.535 12.7266 155.936 12.8408C154.336 12.9463 152.262 12.999 149.713 12.999H147.894V2.21484H158.335V3.95508ZM166.192 23.124H150.451V15.4512H152.481V21.3838H166.192V23.124Z" fill="#1A1A1A"/>
<path d="M135.633 8.96484H119.575V1.05469H121.632V7.30371H135.633V8.96484ZM138.111 13.8428H116.648V12.1553H138.111V13.8428ZM135.765 23.0449H119.443V16.2422H121.5V21.3311H135.765V23.0449Z" fill="#1A1A1A"/>
<path d="M105.1 2.37305C105.1 3.42773 105.508 4.43848 106.326 5.40527C107.152 6.37207 108.224 7.18506 109.542 7.84424C110.861 8.50342 112.228 8.92969 113.643 9.12305L112.799 10.8105C111.568 10.6084 110.377 10.2568 109.226 9.75586C108.075 9.24609 107.046 8.61328 106.141 7.85742C105.236 7.09277 104.537 6.24463 104.045 5.31299C103.562 6.24463 102.863 7.09277 101.949 7.85742C101.043 8.61328 100.015 9.24609 98.8638 9.75586C97.7124 10.2568 96.5215 10.6084 95.291 10.8105L94.4473 9.12305C95.8711 8.92969 97.2378 8.50781 98.5474 7.85742C99.8569 7.19824 100.92 6.38965 101.738 5.43164C102.555 4.46484 102.964 3.44531 102.964 2.37305V1.02832H105.1V2.37305ZM114.697 15.1348H104.994V23.625H102.964V15.1348H93.3398V13.3945H114.697V15.1348Z" fill="#1A1A1A"/>
<path d="M77.9414 7.38281C77.9326 8.61328 78.1963 9.86572 78.7324 11.1401C79.2773 12.4058 80.0156 13.5527 80.9473 14.5811C81.8789 15.6006 82.9072 16.374 84.0322 16.9014L82.8457 18.5361C81.5361 17.9033 80.354 16.9365 79.2993 15.6357C78.2534 14.335 77.4624 12.8848 76.9263 11.2852C76.5747 12.4277 76.0913 13.5132 75.4761 14.5415C74.8608 15.5698 74.1577 16.4795 73.3667 17.2705C72.5757 18.0527 71.7451 18.668 70.875 19.1162L69.6094 17.4814C70.7256 16.9453 71.7627 16.1323 72.7207 15.0425C73.6875 13.9526 74.4565 12.731 75.0278 11.3774C75.6079 10.0239 75.9023 8.69238 75.9111 7.38281V4.32422H70.4531V2.61035H83.2148V4.32422H77.9414V7.38281ZM88.1455 9.67676H92.0742V11.4434H88.1455V23.625H86.0889V0.18457H88.1455V9.67676Z" fill="#1A1A1A"/>
<path d="M54.9756 3.19043C54.9668 4.25391 55.2173 5.27344 55.7271 6.24902C56.2368 7.22461 56.9443 8.08154 57.8496 8.81982C58.7637 9.55811 59.8008 10.1162 60.9609 10.4941L59.959 12.1025C58.5703 11.6367 57.353 10.9336 56.3071 9.99316C55.2612 9.05273 54.4746 7.9541 53.9473 6.69727C53.4199 8.05078 52.6245 9.2417 51.561 10.27C50.5063 11.2896 49.2803 12.0498 47.8828 12.5508L46.8281 10.8896C47.9971 10.4854 49.0386 9.89209 49.9526 9.10986C50.8667 8.32764 51.5786 7.42236 52.0884 6.39404C52.6069 5.36572 52.8662 4.29785 52.8662 3.19043V0.975586H54.9756V3.19043ZM66.0234 12.7617H63.9668V0.18457H66.0234V12.7617ZM52.8926 16.7959H63.9668V13.9482H66.0234V23.3086H50.8359V13.9482H52.8926V16.7959ZM63.9668 21.6211V18.457H52.8926V21.6211H63.9668Z" fill="#1A1A1A"/>
<path d="M31.3242 3.95508C31.3242 5.01855 31.5703 6.04688 32.0625 7.04004C32.5547 8.02441 33.2402 8.89014 34.1191 9.63721C34.998 10.3843 36 10.9512 37.125 11.3379L35.9912 12.999C34.6904 12.5244 33.5479 11.8125 32.5635 10.8633C31.5879 9.90527 30.8496 8.79785 30.3486 7.54102C29.8564 8.9209 29.1006 10.1338 28.0811 11.1797C27.0703 12.2168 25.875 13.0078 24.4951 13.5527L23.3613 11.8389C24.5391 11.417 25.5718 10.8105 26.4595 10.0195C27.356 9.22852 28.0503 8.30566 28.5425 7.25098C29.0347 6.1875 29.2852 5.0625 29.2939 3.87598V1.39746H31.3242V3.95508ZM42.7676 23.625H40.6846V17.0068H27V15.3457H42.7676V23.625ZM42.7676 14.0537H40.6846V6.85547H35.4639V5.11523H40.6846V0.18457H42.7676V14.0537Z" fill="#1A1A1A"/>
<path d="M21.4629 20.6191H0V18.9053H9.65039V13.8428H2.53125V1.8457H4.61426V6.09082H16.7959V1.8457H18.8262V13.8428H11.6807V18.9053H21.4629V20.6191ZM16.7959 12.1553V7.77832H4.61426V12.1553H16.7959Z" fill="#1A1A1A"/>
</svg>
