<svg width="287" height="33" viewBox="0 0 287 33" fill="none" xmlns="http://www.w3.org/2000/svg">
<path d="M273.867 4.60547C273.867 6.23438 274.359 7.82227 275.344 9.36914C276.34 10.916 277.711 12.252 279.457 13.377C281.203 14.4902 283.16 15.2344 285.328 15.6094L283.57 18.8789C280.91 18.3164 278.543 17.2793 276.469 15.7676C274.406 14.2441 272.859 12.4102 271.828 10.2656C270.773 12.3984 269.209 14.2266 267.135 15.75C265.061 17.2617 262.699 18.3047 260.051 18.8789L258.328 15.6094C260.473 15.2227 262.406 14.4727 264.129 13.3594C265.863 12.2344 267.223 10.8984 268.207 9.35156C269.203 7.80469 269.707 6.22266 269.719 4.60547V2.25H273.867V4.60547ZM286.488 27.9844H257.449V24.75H286.488V27.9844Z" fill="#1A1A1A"/>
<path d="M255.34 21.832H242.684V32.0273H238.816V21.832H226.301V18.7383H255.34V21.832ZM233.684 5.41406H247.887V1.51172H251.824V15.4336H229.816V1.51172H233.684V5.41406ZM247.887 12.2695V8.50781H233.684V12.2695H247.887Z" fill="#1A1A1A"/>
<path d="M221.836 19.4766H217.934V12.9023H213.398V9.66797H217.934V0.246094H221.836V19.4766ZM221.836 31.6406H200.707V20.918H221.836V31.6406ZM204.609 28.4766H218.004V24.0117H204.609V28.4766ZM213.926 6.36328H195.293V3.19922H202.676V0H206.543V3.19922H213.926V6.36328ZM204.609 7.59375C206.062 7.59375 207.357 7.83984 208.494 8.33203C209.643 8.8125 210.539 9.48633 211.184 10.3535C211.828 11.209 212.156 12.1875 212.168 13.2891C212.156 14.4258 211.828 15.4277 211.184 16.2949C210.551 17.1504 209.66 17.8125 208.512 18.2812C207.375 18.75 206.074 18.9844 204.609 18.9844C203.156 18.9844 201.855 18.75 200.707 18.2812C199.57 17.8125 198.68 17.1445 198.035 16.2773C197.402 15.4102 197.086 14.4141 197.086 13.2891C197.086 12.1875 197.408 11.209 198.053 10.3535C198.697 9.48633 199.588 8.8125 200.725 8.33203C201.861 7.83984 203.156 7.59375 204.609 7.59375ZM204.609 10.5469C203.461 10.5469 202.541 10.793 201.85 11.2852C201.158 11.7773 200.812 12.4453 200.812 13.2891C200.812 14.1562 201.152 14.8359 201.832 15.3281C202.523 15.8203 203.449 16.0664 204.609 16.0664C205.77 16.0664 206.689 15.8203 207.369 15.3281C208.061 14.8359 208.406 14.1562 208.406 13.2891C208.406 12.4453 208.061 11.7773 207.369 11.2852C206.678 10.793 205.758 10.5469 204.609 10.5469Z" fill="#1A1A1A"/>
<path d="M173.812 9.94922C173.812 11.6367 174.047 13.2715 174.516 14.8535C174.996 16.4238 175.717 17.8535 176.678 19.1426C177.65 20.4199 178.852 21.4453 180.281 22.2188L178.102 25.1016C176.672 24.3398 175.447 23.2969 174.428 21.9727C173.408 20.6484 172.605 19.125 172.02 17.4023C171.434 19.2773 170.625 20.9414 169.594 22.3945C168.574 23.8359 167.344 24.9844 165.902 25.8398L163.617 22.8867C165.059 22.0547 166.266 20.9531 167.238 19.582C168.223 18.1992 168.949 16.6816 169.418 15.0293C169.887 13.377 170.121 11.6836 170.121 9.94922V8.96484H164.707V5.80078H170.121V1.37109H173.812V5.80078H179.121V8.96484H173.812V9.94922ZM191.461 32.0273H187.734V0.246094H191.461V32.0273ZM184.992 30.4805H181.301V15.6797H177.152V12.4453H181.301V0.84375H184.992V30.4805Z" fill="#1A1A1A"/>
<path d="M141.012 2.88281C141.012 4.21875 141.48 5.51953 142.418 6.78516C143.367 8.05078 144.691 9.13477 146.391 10.0371C148.102 10.9395 150.059 11.5312 152.262 11.8125L150.715 14.9766C148.043 14.5781 145.676 13.7578 143.613 12.5156C141.551 11.2617 139.998 9.73242 138.955 7.92773C137.912 9.73242 136.365 11.2617 134.314 12.5156C132.264 13.7578 129.914 14.5781 127.266 14.9766L125.719 11.8125C127.898 11.5312 129.838 10.9395 131.537 10.0371C133.236 9.13477 134.555 8.05078 135.492 6.78516C136.43 5.51953 136.898 4.21875 136.898 2.88281V1.26562H141.012V2.88281ZM153.422 20.9531H140.801V32.0273H136.934V20.9531H124.453V17.7188H153.422V20.9531Z" fill="#1A1A1A"/>
<path d="M104.73 9.28125C104.73 10.9453 105.047 12.6211 105.68 14.3086C106.324 15.9961 107.244 17.5312 108.439 18.9141C109.646 20.2969 111.059 21.3633 112.676 22.1133L110.496 25.207C108.75 24.3867 107.221 23.1855 105.908 21.6035C104.596 20.0098 103.57 18.1875 102.832 16.1367C102.094 18.375 101.045 20.3613 99.6855 22.0957C98.3262 23.8301 96.75 25.125 94.957 25.9805L92.6719 22.9219C94.3008 22.1484 95.7305 21.0293 96.9609 19.5645C98.2031 18.0996 99.1523 16.4648 99.8086 14.6602C100.477 12.8555 100.816 11.0625 100.828 9.28125V6.60938H93.9023V3.375H111.375V6.60938H104.73V9.28125ZM118.23 12.6211H123.117V15.8906H118.23V32.0273H114.328V0.246094H118.23V12.6211Z" fill="#1A1A1A"/>
<path d="M74.0742 4.21875C74.0742 5.55469 74.3672 6.83789 74.9531 8.06836C75.5508 9.29883 76.4297 10.3887 77.5898 11.3379C78.75 12.2754 80.1445 12.9844 81.7734 13.4648L79.9102 16.5234C78.082 15.9492 76.5 15.1055 75.1641 13.9922C73.8398 12.8672 72.8145 11.543 72.0879 10.0195C71.3496 11.6953 70.3066 13.1426 68.959 14.3613C67.6113 15.5801 66 16.4766 64.125 17.0508L62.2266 13.9922C63.8906 13.4648 65.3086 12.7031 66.4805 11.707C67.6523 10.6992 68.5371 9.55078 69.1348 8.26172C69.7324 6.96094 70.0312 5.61328 70.0312 4.21875V1.23047H74.0742V4.21875ZM88.6992 17.2969H84.7617V0.246094H88.6992V17.2969ZM71.543 22.043H84.7969V18.7734H88.6992V31.6406H67.6758V18.7734H71.543V22.043ZM84.7969 28.4766V25.1016H71.543V28.4766H84.7969Z" fill="#1A1A1A"/>
<path d="M42.6445 5.27344C42.6445 6.65625 42.9316 7.98047 43.5059 9.24609C44.0801 10.5 44.9238 11.6191 46.0371 12.6035C47.1621 13.5762 48.5156 14.3203 50.0977 14.8359L47.9883 17.9648C46.3008 17.3672 44.8418 16.4941 43.6113 15.3457C42.3809 14.1973 41.4199 12.8438 40.7285 11.2852C40.0137 12.9844 39.0059 14.4609 37.7051 15.7148C36.416 16.9688 34.875 17.918 33.082 18.5625L30.9727 15.4336C32.6484 14.8711 34.0664 14.0684 35.2266 13.0254C36.3867 11.9707 37.2539 10.7578 37.8281 9.38672C38.4141 8.01562 38.707 6.5625 38.707 5.02734V1.89844H42.6445V5.27344ZM57.7266 32.0273H53.8242V23.7656H36.0703V20.6719H57.7266V32.0273ZM57.7266 19.125H53.8242V9.63281H47.4961V6.43359H53.8242V0.246094H57.7266V19.125Z" fill="#1A1A1A"/>
<path d="M29.0391 28.1953H0V24.9961H12.5156V18.8086H3.19922V2.35547H7.10156V7.55859H21.832V2.35547H25.7344V18.8086H16.3828V24.9961H29.0391V28.1953ZM21.832 15.6445V10.6875H7.10156V15.6445H21.832Z" fill="#1A1A1A"/>
</svg>
