<svg width="127" height="771" viewBox="0 0 127 771" fill="none" xmlns="http://www.w3.org/2000/svg">
<path d="M125.391 704.676H2.49023V688.27H125.391V704.676ZM110.742 681.971H17.4316V639.197H109.863V655.896H38.5254V665.564H110.742V681.971ZM110.449 747.596H37.207V754.188H113.672V770.447H16.4062V732.801H89.502V727.088H16.4062V711.268H110.449V747.596Z" fill="#1A1A1A"/>
<path d="M109.57 520.615H127.002V538.047H109.57V567.783H88.4766V490H109.57V520.615ZM71.4844 497.324C71.4844 515.488 66.1377 530.552 55.4443 542.515C44.751 554.478 29.1992 562.998 8.78906 568.076L0 551.963C14.502 548.447 25.8301 543.369 33.9844 536.729C42.1875 530.088 47.0459 522.471 48.5596 513.877H7.32422V497.324H71.4844ZM109.57 624.473H88.4766V589.756H18.3105V573.057H109.57V624.473Z" fill="#1A1A1A"/>
<path d="M125.391 462.385H2.49023V445.246H53.3203V416.242H74.4141V445.246H125.391V462.385ZM114.551 369.514H75.1465C75.9277 375.129 78.1006 380.378 81.665 385.261C85.2295 390.144 90.332 394.343 96.9727 397.858C103.662 401.325 111.768 403.742 121.289 405.109L113.086 421.662C101.27 419.709 91.2109 416.145 82.9102 410.969C74.6094 405.793 68.2617 399.372 63.8672 391.706C59.5703 399.567 53.3203 406.184 45.1172 411.555C36.9141 416.877 27.002 420.588 15.3809 422.688L7.17773 405.988C16.3574 404.523 24.1943 401.984 30.6885 398.371C37.1826 394.758 42.1875 390.461 45.7031 385.48C49.2676 380.5 51.4404 375.178 52.2217 369.514H12.7441V352.668H114.551V369.514Z" fill="#1A1A1A"/>
<path d="M45.8496 155.789C52.8809 155.74 59.2529 157.156 64.9658 160.037C70.6787 162.869 75.1709 166.849 78.4424 171.976C81.7627 177.054 83.4473 182.791 83.4961 189.188C83.4473 195.584 81.7627 201.346 78.4424 206.473C75.1709 211.551 70.6787 215.53 64.9658 218.411C59.2529 221.243 52.8809 222.635 45.8496 222.586C38.8672 222.635 32.4951 221.243 26.7334 218.411C20.9717 215.53 16.4307 211.551 13.1104 206.473C9.83887 201.346 8.20312 195.584 8.20312 189.188C8.20312 182.791 9.83887 177.054 13.1104 171.976C16.4307 166.849 20.9717 162.869 26.7334 160.037C32.4951 157.156 38.8672 155.74 45.8496 155.789ZM45.8496 173.953C42.6758 173.953 39.8193 174.563 37.2803 175.784C34.79 176.956 32.8125 178.689 31.3477 180.984C29.8828 183.279 29.1504 186.014 29.1504 189.188C29.1504 194.07 30.7129 197.83 33.8379 200.467C36.9629 203.104 40.9668 204.422 45.8496 204.422C50.8789 204.422 54.9805 203.104 58.1543 200.467C61.3281 197.83 62.9395 194.07 62.9883 189.188C62.9395 186.014 62.1582 183.279 60.6445 180.984C59.1797 178.689 57.1533 176.956 54.5654 175.784C52.0264 174.563 49.1211 173.953 45.8496 173.953ZM116.162 281.766H95.2148V147H116.162V281.766ZM3.07617 237.967C19.0918 237.967 34.1064 237.698 48.1201 237.161C62.1338 236.624 75.4395 235.477 88.0371 233.719L89.6484 248.953C76.6113 251.492 63.3057 253.128 49.7314 253.86C36.2061 254.593 21.4355 254.959 5.41992 254.959L3.07617 237.967Z" fill="#1A1A1A"/>
<path d="M115.283 76.7578H94.3359V0H115.283V76.7578ZM117.334 99.6094H80.9326C82.0557 102.393 84.2773 105.078 87.5977 107.666C90.918 110.254 95.5322 112.5 101.44 114.404C107.349 116.309 114.453 117.578 122.754 118.213L115.576 133.887C104.492 133.008 95.0439 130.859 87.2314 127.441C79.4189 124.072 73.3887 119.8 69.1406 114.624C64.9414 119.897 58.9111 124.219 51.0498 127.588C43.1885 130.957 33.6426 133.057 22.4121 133.887L15.5273 118.506C23.9258 117.871 31.0791 116.602 36.9873 114.697C42.9443 112.793 47.5586 110.522 50.8301 107.886C54.1504 105.249 56.3477 102.49 57.4219 99.6094H20.9473V83.7891H58.4473V73.3887H79.6875V83.7891H117.334V99.6094ZM30.0293 21.0938H54.6387V5.27344H75.5859V66.7969H9.22852V5.27344H30.0293V21.0938ZM54.6387 50.3906V37.0605H30.0293V50.3906H54.6387Z" fill="#1A1A1A"/>
</svg>
